<svg xmlns="http://www.w3.org/2000/svg" xmlns:xlink="http://www.w3.org/1999/xlink" version="1.1" id="Layer_1" x="0px" y="0px" width="100px" height="100px" viewBox="0 0 100 100" enable-background="new 0 0 100 100" xml:space="preserve">
<path fill="#000000" d="M85.688,53.821l-4.89-1.475c0,0,12.651,2.717,12.651,2.251s-6.21-2.794-6.21-2.794s0-4.036,0-6.131  s-1.087-5.977-2.483-5.977c-1.397,0-2.794,1.862-2.794,1.862l-4.425,6.133c4.968,1.552,8.461,3.646,8.461,3.646  s-68.925-24.138-72.13-25.225c-3.205-1.087-10.845-3.958-11.31-2.716c-0.466,1.241,2.909,2.328,2.909,2.328l7.336,2.872  l2.542,16.533l-0.756-1.863c-1.941-0.931-8.693-2.639-9.082-1.63c-0.388,1.009,2.173,2.096,2.173,2.096l17.542,7.605  c-0.854,6.287,5.123,8.15,5.123,8.15l-1.397,2.251c-4.269-1.707-6.675,0.698-7.141,2.096c-0.466,1.397,1.009,2.483,1.009,2.483  c0,1.863,1.009,3.727,3.57,3.57c2.562-0.154,3.027-2.948,3.027-2.948c2.018-0.155,3.648-2.252,3.648-2.252  c-0.311-1.009-1.863-1.862-1.863-1.862l-2.096,1.708l3.648-4.657l7.606,0.077l1.63,8.849c-2.872,2.329-1.087,4.113-1.087,4.113  s-1.009,3.571,2.173,3.96c3.183,0.388,4.191-2.64,4.191-2.64c1.63-0.466,3.416-2.406,3.416-2.406  c-2.562-4.036-6.831-3.727-6.831-3.727l0.233-7.917l3.183-0.232l34.54,11.798c0,0,10.4,2.484,10.789,1.242  c0.388-1.242-14.204-5.511-14.204-5.511l0.776-13.506l-0.156,8.228c1.242,0,1.786-0.466,1.94-1.552  c0.155-1.088-1.163-1.242-1.163-1.242l0.62-0.659v-0.428c4.347-1.63,4.89-2.483,4.89-2.483l-5.977-2.562  c0,0,12.42,4.114,14.826,4.968c2.405,0.854,3.26,0.465,3.337,0C97.563,57.779,85.688,53.821,85.688,53.821z M13.735,28.906  l5.2,1.863l-2.639,13.117L13.735,28.906z M16.917,44.198l2.872-12.963l1.708,14.67L16.917,44.198z M28.715,57.081  c-2.484-0.776-2.717-3.57-2.717-3.57s1.863,1.164,3.656,1.164c1.793,0,3.32-4.677,0.38-5.277C27.095,48.797,25.999,50,25.999,50  c0.826-1.794,2.018-3.318,3.656-3.241c1.638,0.078,3.407,1.862,3.64,4.967C33.528,54.831,31.199,57.857,28.715,57.081z   M28.483,45.361c-1.475,0.544-2.251,2.407-2.251,2.407l-3.493-1.397l-2.096-14.904l12.575,4.929l1.32,8.266  C30.966,44.508,29.957,44.818,28.483,45.361z M34.537,36.396l5.433,1.889v6.904c-2.058-0.116-4.269-0.372-4.269-0.372L34.537,36.396  z M40.747,45.227v-6.671l8.22,2.858l-3.903,4.576c-0.798-0.595-1.465-0.984-1.91-0.861S41.79,45.266,40.747,45.227z M45.795,46.556  C47.7,44.281,50,41.773,50,41.773l0,0l4.917,1.709l-6.264,5.191C47.652,48.058,46.67,47.249,45.795,46.556z M49.302,49.042  l6.179-5.362L73.656,50h-9.392c0,0-1.82-0.024-4.145-0.07c-1.013-2.35-2.664-2.161-2.664-2.161h-0.001  c0.228-0.249,0.367-0.578,0.367-0.941c0-0.772-0.626-1.397-1.397-1.397s-1.396,0.625-1.396,1.397c0,0.173,0.033,0.339,0.091,0.492  c-0.03,0.021-0.062,0.037-0.091,0.061c-0.837,0.658-1.396,1.852-1.609,2.369c-0.925-0.035-1.717-0.075-2.272-0.118  C50.546,49.584,49.924,49.362,49.302,49.042z M58.288,60.652l15.989-1.863l3.882-7.297L72.182,65.31L58.288,60.652z M77.771,58.4  l0.697-4.191L77.46,67.095l-4.114-1.397l5.122-13.117l-1.862,5.82H77.771z"/>
</svg>