<svg xmlns="http://www.w3.org/2000/svg" xmlns:xlink="http://www.w3.org/1999/xlink" version="1.1" id="Your_Icon" x="0px" y="0px" width="100px" height="100px" viewBox="0 0 100 100" enable-background="new 0 0 100 100" xml:space="preserve">
<path fill="#000000" d="M50,23.063c-11.383,0-17.899,28.271-17.899,35.974c0,9.87,8.029,17.899,17.899,17.899  s17.899-8.029,17.899-17.899C67.899,51.335,61.383,23.063,50,23.063z M59.984,67.191c-2.754-2.435-4.36-5.937-4.36-9.663  c0-2.277,0.574-5.992,1.535-9.938c0.327-1.342-0.495-2.693-1.837-3.021c-1.343-0.328-2.693,0.495-3.021,1.837  c-1.066,4.375-1.678,8.428-1.678,11.121c0,4.903,2.004,9.528,5.469,12.873c-1.815,0.978-3.89,1.535-6.093,1.535  c-7.112,0-12.899-5.787-12.899-12.899c0-8.437,5.543-25.548,10.628-29.927c-3.655,8.996-6.041,20.115-6.177,25.579  c-0.094,3.742,0.761,7.411,2.473,10.609c0.45,0.842,1.313,1.321,2.206,1.321c0.398,0,0.802-0.096,1.178-0.297  c1.217-0.651,1.676-2.166,1.024-3.384c-1.304-2.437-1.955-5.246-1.883-8.125c0.131-5.245,2.662-16.471,6.221-24.821  c0.044-0.103,0.068-0.208,0.098-0.312c4.912,5.132,10.031,21.249,10.031,29.356C62.899,62.128,61.805,64.967,59.984,67.191z"/>
</svg>