<svg xmlns="http://www.w3.org/2000/svg" xmlns:xlink="http://www.w3.org/1999/xlink" version="1.1" x="0px" y="0px" width="100px" height="100px" viewBox="0 0 100 100" enable-background="new 0 0 100 100" xml:space="preserve">
<g id="Captions">
</g>
<g id="Your_Icon">
	<path d="M83.333,33.866c-4.646-6.778-10.823-10.215-18.362-10.215c-5.1,0-9.725,1.553-13.102,2.687   c-0.149,0.05-0.29,0.097-0.435,0.146c-0.623-2.029-1.431-4.329-2.476-6.918C70.84,20.148,68.453,6.263,68.453,6.263   c-13.969-1.649-19.25,4.813-21.219,9.261c-0.302-0.672-0.612-1.354-0.943-2.059c-0.788-1.675-2.784-2.394-4.459-1.609   c-1.676,0.788-2.396,2.784-1.609,4.459c1.715,3.652,2.981,6.793,3.919,9.463c-2.445-0.811-5.447-1.763-8.983-1.763   c-3.652,0-7.254,0.99-11.011,3.026C10.254,34.575,8.844,50.438,13.168,58.992c3.311,6.552,9.869,28.825,9.935,29.05l0.129,0.44   l0.257,0.464C26.664,93.634,30.486,96,35.173,96c0.001,0,0.002,0,0.002,0c2.525,0,5.021-0.729,7.433-1.352   c2.367-0.61,4.815-1.284,7.232-1.284c1.288,0,2.481,0.153,3.646,0.512c3.622,1.12,6.711,1.651,9.442,1.651   c5.962,0,10.171-2.625,12.867-8.017c1.333-2.668,2.231-6.25,3.183-10.038c1.176-4.677,2.39-9.513,4.382-12.525l0.103-0.154   C90.334,54.423,90.29,44.018,83.333,33.866z M78.572,61.551l-0.105,0.16c-2.544,3.848-3.882,9.177-5.177,14.329   c-0.872,3.47-1.695,6.748-2.741,8.842c-1.694,3.388-3.901,4.769-7.62,4.769c-2.106,0-4.701-0.471-7.712-1.4   c-1.733-0.535-3.492-0.794-5.376-0.794c-3.16,0-6.102,0.776-8.696,1.444c-2.153,0.555-4.188,1.1-5.97,1.1c0,0-0.001,0-0.001,0   c-1.845,0-4.06-0.508-6.577-4.049c-0.992-3.348-6.877-23.035-10.193-29.597c-2.7-5.341-2.967-17.912,8.539-24.149   c2.877-1.56,5.564-2.321,8.216-2.321c2.729,0,5.121,0.793,7.432,1.561c1.189,0.396,2.342,0.774,3.507,1.044   c0.783,3.552,0.675,5.253,0.665,5.382c-0.049,0.403-0.015,0.795,0.074,1.169c-1.949-0.475-3.276-1.156-3.327-1.184   c-1.222-0.65-2.742-0.19-3.397,1.03c-0.657,1.223-0.197,2.747,1.026,3.404c0.25,0.134,4.266,2.243,9.317,2.243   c2.587,0,5.447-0.553,8.209-2.208c1.191-0.714,1.578-2.258,0.864-3.449c-0.713-1.191-2.257-1.578-3.448-0.864   c-0.903,0.541-1.835,0.892-2.765,1.125c0.034-0.129,0.074-0.257,0.094-0.393c0.056-0.399,0.273-2.468-0.522-6.563   c0.273-0.091,0.557-0.186,0.85-0.284c2.993-1.005,7.093-2.381,11.234-2.381c5.565,0,9.988,2.507,13.523,7.665   C86.743,49.22,80.808,58.179,78.572,61.551z"/>
</g>
</svg>