<?xml version="1.0" encoding="UTF-8" standalone="no"?>
<!-- Generator: Adobe Illustrator 13.0.1, SVG Export Plug-In . SVG Version: 6.00 Build 14948)  -->
<svg
   xmlns:dc="http://purl.org/dc/elements/1.1/"
   xmlns:cc="http://web.resource.org/cc/"
   xmlns:rdf="http://www.w3.org/1999/02/22-rdf-syntax-ns#"
   xmlns:svg="http://www.w3.org/2000/svg"
   xmlns="http://www.w3.org/2000/svg"
   xmlns:sodipodi="http://sodipodi.sourceforge.net/DTD/sodipodi-0.dtd"
   xmlns:inkscape="http://www.inkscape.org/namespaces/inkscape"
   version="1.0"
   id="Layer_1"
   x="0px"
   y="0px"
   width="263"
   height="263"
   viewBox="0 0 262.748 262.748"
   enable-background="new 0 0 262.748 262.748"
   xml:space="preserve"
   sodipodi:version="0.32"
   inkscape:version="0.45.1"
   sodipodi:docname="Arm_and_Hammer.svg"
   inkscape:output_extension="org.inkscape.output.svg.inkscape"
   sodipodi:docbase="C:\Documents and Settings\Mendaliv\Desktop"><metadata
   id="metadata354"><rdf:RDF><cc:Work
       rdf:about=""><dc:format>image/svg+xml</dc:format><dc:type
         rdf:resource="http://purl.org/dc/dcmitype/StillImage" /></cc:Work></rdf:RDF></metadata><defs
   id="defs352" /><sodipodi:namedview
   inkscape:window-height="579"
   inkscape:window-width="748"
   inkscape:pageshadow="2"
   inkscape:pageopacity="0.0"
   guidetolerance="10.0"
   gridtolerance="10.0"
   objecttolerance="10.0"
   borderopacity="1.0"
   bordercolor="#666666"
   pagecolor="#ffffff"
   id="base"
   width="263px"
   height="263px"
   inkscape:zoom="1.4386409"
   inkscape:cx="131.37399"
   inkscape:cy="131.37399"
   inkscape:window-x="66"
   inkscape:window-y="69"
   inkscape:current-layer="Layer_1" />
<g
   id="g3"
   transform="matrix(0.9990419,0,0,0.9990419,0,0.2517444)">
	<g
   id="g5">
		<circle
   cx="131.37399"
   cy="131.37399"
   r="131.37399"
   id="circle7"
   sodipodi:cx="131.37399"
   sodipodi:cy="131.37399"
   sodipodi:rx="131.37399"
   sodipodi:ry="131.37399"
   style="fill:#ce1141" />
		<path
   id="path9"
   style="fill:#ce1141" />
	</g>
	<g
   id="g11">
		<circle
   cx="131.37399"
   cy="131.37399"
   r="127.641"
   id="circle13"
   sodipodi:cx="131.37399"
   sodipodi:cy="131.37399"
   sodipodi:rx="127.641"
   sodipodi:ry="127.641"
   style="fill:#ffffff" />
		<path
   id="path15"
   style="fill:#ffffff" />
	</g>
	<path
   d="M 7.233,131.374 C 7.233,62.814 62.814,7.233 131.374,7.233 C 199.934,7.233 255.515,62.814 255.515,131.374 C 255.515,199.934 199.934,255.515 131.374,255.515 C 62.814,255.515 7.233,199.934 7.233,131.374 z M 131.374,208.146 C 173.772,208.146 208.145,173.773 208.145,131.375 C 208.145,88.976 173.772,54.604 131.374,54.604 C 88.975,54.604 54.603,88.976 54.603,131.375 C 54.603,173.772 88.975,208.146 131.374,208.146 z "
   id="path17"
   style="fill:#ce1141" />
	<path
   d="M 48.052,113.637 C 48.017,113.801 47.983,113.964 47.949,114.128"
   id="path19"
   style="fill:#004785" />
	<path
   d="M 47.48,146.154 C 47.84,148.213 48.274,150.245 48.779,152.249 L 17.456,141.272 C 17.206,138.36 17.066,135.417 17.039,132.446 L 46.992,119.732 C 46.599,122.606 46.349,125.526 46.251,128.484 L 38.881,131.611 L 39.152,143.252 L 47.48,146.154 z M 23.828,138.012 L 34.323,141.598 L 34.138,133.621 L 23.828,138.012 z "
   id="path21"
   style="fill:#ffffff" />
	<path
   d="M 37.221,110.955 C 37.387,109.968 37.536,108.97 37.645,108.048 L 50.348,105.053 C 51.453,101.648 52.767,98.338 54.275,95.136 L 37.543,100.757 C 36.855,97.142 34.928,94.585 30.889,93.424 C 26.398,92.133 23.094,94.637 22,97.943 C 20.164,103.489 19.176,108.541 18.339,114.048 L 46.772,121.479 C 47.06,118.995 47.531,116.155 48.028,113.74 L 37.221,110.955 M 32.291,109.697 L 24.041,107.572 C 25.256,103.077 26.461,100.956 29.158,101.498 C 33.346,102.339 33.271,105.482 32.291,109.697 z "
   id="path23"
   style="fill:#ffffff" />
	<path
   d="M 27.904,82.653 C 29.507,79.255 31.272,75.949 33.19,72.744 L 51.51,78.067 L 39.759,62.951 C 41.787,60.24 43.933,57.621 46.189,55.103 L 70.329,71.98 C 68.56,73.797 66.872,75.694 65.27,77.664 L 48.54,65.856 L 60.66,82.186 C 59.652,83.642 58.132,85.749 57.214,87.269 L 37.672,81.415 L 55.277,93.078 C 54.266,95.082 53.333,97.132 52.48,99.223 L 27.904,82.653 z "
   id="path25"
   style="fill:#ffffff" />
	<path
   d="M 97.192,52.265 C 95.672,54.771 93.872,56.567 92.352,57.454 C 84.62,61.965 79.185,59.268 77.502,56.794 C 74.238,51.995 76.258,47.034 78.691,43.507 C 76.697,42.461 74.507,41.153 73.377,38.891 C 71.149,34.436 76.182,29.816 78.739,28.578 C 81.297,27.34 86.762,25.525 89.464,30.31 C 91.215,33.411 89.306,37.151 87.211,40.041 C 89.455,41.103 92.472,42.499 95.479,43.888 C 95.42,40.774 94.397,37.691 93.59,35.672 L 99.447,33.197 C 100.811,37.907 100.699,42.222 99.811,45.88 C 103.886,47.755 107.615,49.573 107.615,49.573 C 104.748,50.439 101.303,51.677 98.313,52.852 L 97.192,52.265 z M 82.945,45.587 C 81.977,47.461 81.896,49.515 83.441,51.678 C 85.098,53.998 88.384,54.143 90.371,53.08 C 91.674,52.383 92.199,51.331 92.955,50.392 C 89.735,48.899 85.916,46.992 82.945,45.587 z M 84.349,33.693 C 83.576,32.233 81.934,32.231 81.049,32.703 C 79.989,33.268 79.431,34.178 80.059,35.59 C 80.666,36.957 81.956,37.446 83.265,38.088 C 83.93,37.303 85.114,35.139 84.349,33.693 z "
   id="path27"
   style="fill:#ffffff" />
	<path
   d="M 227.707,132.712 C 227.739,133.712 227.791,134.72 227.868,135.646 L 216.012,141.101 C 215.604,144.658 214.972,148.164 214.13,151.6 L 229.414,142.773 C 230.806,146.179 233.201,148.303 237.391,148.639 C 242.048,149.014 244.79,145.905 245.207,142.448 C 245.906,136.647 245.871,130.882 245.569,125.32 L 216.317,125.025 C 216.506,127.519 216.583,130.397 216.553,132.861 L 227.707,132.712 M 232.794,132.454 L 241.305,132.857 C 241.002,137.945 240.702,140.378 237.485,140.382 C 233.214,140.389 232.692,136.78 232.794,132.454 z "
   id="path29"
   style="fill:#ffffff" />
	<path
   d="M 149.863,48.22 C 147.823,47.764 145.78,47.386 143.735,47.085 L 165.874,22.358 C 168.66,23.243 171.434,24.241 174.187,25.354 L 174.456,57.892 C 171.951,56.428 169.351,55.079 166.655,53.854 L 166.591,45.849 L 155.735,41.64 L 149.863,48.22 z M 166.446,29.491 L 159.113,37.812 L 166.551,40.697 L 166.446,29.491 z "
   id="path31"
   style="fill:#ffffff" />
	<path
   d="M 188.643,32.379 C 191.894,34.262 195.039,36.3 198.072,38.481 L 191.223,56.288 L 207.276,45.852 C 209.806,48.102 212.235,50.46 214.554,52.92 L 195.701,75.552 C 194.039,73.636 192.292,71.794 190.464,70.031 L 203.641,54.356 L 186.347,65.056 C 184.982,63.929 183.01,62.236 181.573,61.194 L 189.054,42.216 L 175.948,58.776 C 174.037,57.6 172.073,56.497 170.061,55.47 L 188.643,32.379 z "
   id="path33"
   style="fill:#ffffff" />
	<path
   d="M 220.83,60.118 C 223.169,63.058 225.353,66.104 227.38,69.241 L 214.503,83.319 L 233.259,79.464 C 234.793,82.483 236.193,85.565 237.453,88.702 L 211.64,102.89 C 210.792,100.499 209.838,98.146 208.78,95.838 L 226.769,86.055 L 206.763,89.703 C 205.903,88.156 204.685,85.86 203.728,84.365 L 217.621,69.427 L 199.374,80.059 C 198.024,78.266 196.599,76.522 195.101,74.832 L 220.83,60.118 z "
   id="path35"
   style="fill:#ffffff" />
	<path
   d="M 49.302,154.222 C 59.287,190.165 92.25,216.546 131.374,216.546 C 178.412,216.546 216.546,178.412 216.546,131.374 C 216.546,129.352 216.476,127.346 216.337,125.358"
   id="path37"
   style="fill:none" />
	<path
   d="M 211.792,103.248 C 202.186,75.78 178.903,54.733 150.107,48.269"
   id="path39"
   style="fill:none" />
	<path
   d="M 17.652,143.331 C 23.631,200.859 72.265,245.714 131.374,245.714 C 194.521,245.714 245.714,194.522 245.714,131.374 C 245.714,128.265 245.59,125.184 245.347,122.137"
   id="path41"
   style="fill:none" />
	<path
   d="M 239.826,95.059 C 226.706,55.864 192.934,26.132 151.431,18.788"
   id="path43"
   style="fill:none" />
	<path
   d="M 147.204,47.679 L 148.193,18.265 C 145.473,17.864 142.726,17.554 139.948,17.348 L 139.53,29.309 C 136.835,29.096 134.124,28.976 131.374,28.976 C 130.353,28.976 129.327,29.018 128.313,29.047 L 128.239,17.094 C 125.463,17.169 122.712,17.331 119.989,17.6 L 120.156,46.955 C 122.865,46.599 125.618,46.38 128.402,46.285 L 128.328,33.789 C 129.341,33.758 130.354,33.755 131.375,33.755 C 134.07,33.755 136.723,33.878 139.361,34.091 L 138.89,46.546 C 141.61,46.784 144.288,47.132 146.929,47.619"
   id="path45"
   style="fill:#ffffff" />
	<path
   d="M 214.095,111.003 C 215.145,115.283 215.879,119.665 216.255,124.172 L 221.258,123.643 C 220.86,118.952 220.118,114.388 219.03,109.93 L 226.405,108.353 C 227.342,112.236 228.028,116.243 228.486,120.291 L 233.734,119.881 C 233.256,115.609 232.507,111.321 231.524,107.223 L 237.754,105.833 C 238.806,110.628 239.59,115.543 240.042,120.547 L 245.115,120.162 C 244.315,111.962 242.714,103.976 240.274,96.377 L 211.914,103.658 C 212.435,105.175 212.937,106.72 213.375,108.274 C 213.63,109.178 213.87,110.088 214.095,111.003"
   id="path47"
   style="fill:#ffffff" />
	<g
   id="g49">
		<path
   d="M 69.408,203.222 L 68.48,204.218 L 66.277,202.164 L 59.457,209.482 L 58.567,208.653 L 65.387,201.335 L 63.184,199.282 L 64.112,198.286 L 69.408,203.222 z "
   id="path51"
   style="fill:#ffffff;stroke:#ffffff;stroke-width:0.33000001" />
		<path
   d="M 69.758,203.496 L 70.744,204.276 L 67.826,207.964 L 71.546,210.907 L 74.464,207.219 L 75.451,208 L 68.386,216.928 L 67.399,216.147 L 70.714,211.959 L 66.994,209.015 L 63.679,213.204 L 62.693,212.423 L 69.758,203.496 z "
   id="path53"
   style="fill:#ffffff;stroke:#ffffff;stroke-width:0.33000001" />
		<path
   d="M 76.47,208.703 L 81.41,212.001 L 80.631,213.168 L 76.6,210.477 L 74.688,213.341 L 78.41,215.826 L 77.677,216.924 L 73.955,214.439 L 71.813,217.647 L 75.896,220.373 L 75.14,221.506 L 70.148,218.173 L 76.47,208.703 z "
   id="path55"
   style="fill:#ffffff;stroke:#ffffff;stroke-width:0.33000001" />
		<path
   d="M 82.125,221.325 C 81.85,221.909 81.712,222.428 81.712,222.881 C 81.713,223.731 82.151,224.381 83.026,224.835 C 83.422,225.04 83.818,225.152 84.215,225.172 C 84.987,225.211 85.564,224.863 85.944,224.128 C 86.229,223.578 86.3,223.117 86.156,222.745 C 86.008,222.38 85.69,221.966 85.203,221.499 L 84.314,220.65 C 83.728,220.092 83.354,219.618 83.193,219.225 C 82.921,218.547 83.003,217.788 83.439,216.947 C 83.911,216.037 84.54,215.415 85.326,215.082 C 86.112,214.749 86.951,214.813 87.844,215.275 C 88.66,215.698 89.222,216.313 89.53,217.122 C 89.838,217.931 89.7,218.897 89.117,220.022 L 88.092,219.492 C 88.319,218.924 88.422,218.452 88.401,218.075 C 88.359,217.385 87.957,216.843 87.196,216.449 C 86.579,216.13 86.049,216.069 85.604,216.27 C 85.159,216.469 84.82,216.793 84.588,217.243 C 84.331,217.738 84.303,218.183 84.503,218.577 C 84.634,218.832 85.011,219.26 85.631,219.86 L 86.559,220.751 C 87.005,221.18 87.299,221.603 87.442,222.019 C 87.693,222.748 87.586,223.562 87.121,224.46 C 86.541,225.579 85.811,226.215 84.932,226.37 C 84.052,226.524 83.193,226.385 82.355,225.95 C 81.378,225.444 80.782,224.729 80.566,223.804 C 80.342,222.88 80.52,221.877 81.099,220.793 L 82.125,221.325 z "
   id="path57"
   style="fill:#ffffff;stroke:#ffffff;stroke-width:0.33000001" />
		<path
   d="M 97.773,220.134 L 97.242,221.387 L 94.469,220.213 L 90.568,229.423 L 89.447,228.948 L 93.348,219.738 L 90.575,218.563 L 91.106,217.309 L 97.773,220.134 z "
   id="path59"
   style="fill:#ffffff;stroke:#ffffff;stroke-width:0.33000001" />
		<path
   d="M 99.984,220.868 L 101.295,221.318 L 100.718,233.135 L 99.444,232.697 L 99.653,229.171 L 96.282,228.013 L 94.245,230.912 L 93.052,230.502 L 99.984,220.868 z M 99.73,227.868 L 100.039,222.669 L 97.036,226.942 L 99.73,227.868 z "
   id="path61"
   style="fill:#ffffff;stroke:#ffffff;stroke-width:0.33000001" />
		<path
   d="M 104.771,222.455 L 106.199,222.811 L 108.427,232.846 L 110.655,223.924 L 111.816,224.213 L 109.058,235.259 L 107.697,234.919 L 105.403,224.868 L 103.175,233.79 L 102.014,233.5 L 104.771,222.455 z "
   id="path63"
   style="fill:#ffffff;stroke:#ffffff;stroke-width:0.33000001" />
		<path
   d="M 113.074,224.47 L 116.721,225.038 C 117.957,225.23 118.832,225.929 119.348,227.133 C 119.799,228.218 119.904,229.534 119.663,231.08 C 119.477,232.275 119.129,233.326 118.621,234.235 C 117.725,235.842 116.502,236.525 114.954,236.284 L 111.322,235.719 L 113.074,224.47 z M 114.93,234.944 C 115.335,235.007 115.679,235.007 115.961,234.94 C 116.462,234.815 116.907,234.493 117.296,233.974 C 117.607,233.558 117.87,233.004 118.085,232.313 C 118.21,231.899 118.302,231.511 118.358,231.15 C 118.575,229.759 118.523,228.644 118.202,227.806 C 117.882,226.968 117.233,226.473 116.258,226.322 L 114.111,225.988 L 112.769,234.608 L 114.93,234.944 z "
   id="path65"
   style="fill:#ffffff;stroke:#ffffff;stroke-width:0.33000001" />
		<path
   d="M 123.228,225.841 L 124.61,225.948 L 127.003,237.536 L 125.66,237.431 L 124.981,233.964 L 121.428,233.685 L 120.18,237 L 118.922,236.901 L 123.228,225.841 z M 124.73,232.683 L 123.73,227.571 L 121.889,232.46 L 124.73,232.683 z "
   id="path67"
   style="fill:#ffffff;stroke:#ffffff;stroke-width:0.33000001" />
		<path
   d="M 127.828,226.161 L 132.01,226.162 C 132.698,226.162 133.265,226.289 133.71,226.542 C 134.56,227.028 134.984,227.925 134.984,229.23 C 134.984,229.913 134.869,230.471 134.641,230.905 C 134.413,231.339 134.091,231.687 133.677,231.951 C 134.038,232.131 134.308,232.368 134.489,232.661 C 134.669,232.955 134.772,233.433 134.798,234.097 L 134.839,235.63 C 134.854,236.065 134.886,236.389 134.933,236.602 C 135.006,236.964 135.14,237.198 135.334,237.301 L 135.334,237.548 L 133.797,237.547 C 133.757,237.449 133.725,237.322 133.7,237.168 C 133.675,237.013 133.656,236.712 133.642,236.268 L 133.539,234.367 C 133.51,233.623 133.294,233.123 132.893,232.869 C 132.664,232.73 132.305,232.66 131.814,232.66 L 129.084,232.659 L 129.083,237.548 L 127.825,237.547 L 127.828,226.161 z M 131.873,231.38 C 132.436,231.38 132.882,231.236 133.211,230.947 C 133.54,230.66 133.704,230.139 133.705,229.387 C 133.705,228.579 133.476,228.028 133.017,227.734 C 132.773,227.58 132.444,227.503 132.03,227.502 L 129.085,227.502 L 129.084,231.38 L 131.873,231.38 z "
   id="path69"
   style="fill:#ffffff;stroke:#ffffff;stroke-width:0.33000001" />
		<path
   d="M 136.233,226.109 L 139.911,225.784 C 141.157,225.673 142.175,226.141 142.964,227.186 C 143.663,228.13 144.081,229.382 144.219,230.942 C 144.325,232.146 144.241,233.251 143.966,234.255 C 143.483,236.029 142.46,236.986 140.9,237.125 L 137.238,237.448 L 136.233,226.109 z M 140.554,235.831 C 140.962,235.795 141.295,235.711 141.553,235.58 C 142.009,235.338 142.365,234.918 142.616,234.321 C 142.817,233.842 142.94,233.241 142.983,232.517 C 143.004,232.086 143.001,231.688 142.968,231.323 C 142.844,229.922 142.526,228.851 142.013,228.116 C 141.5,227.38 140.752,227.054 139.769,227.141 L 137.605,227.332 L 138.374,236.023 L 140.554,235.831 z "
   id="path71"
   style="fill:#ffffff;stroke:#ffffff;stroke-width:0.33000001" />
		<path
   d="M 155.022,224.93 C 155.784,225.796 156.331,226.996 156.661,228.531 C 157.02,230.193 157.002,231.641 156.608,232.878 C 156.139,234.332 155.219,235.206 153.846,235.502 C 152.559,235.779 151.425,235.432 150.445,234.46 C 149.554,233.511 148.929,232.203 148.57,230.537 C 148.246,229.032 148.249,227.684 148.578,226.493 C 149.004,224.965 149.923,224.048 151.337,223.743 C 152.81,223.425 154.039,223.82 155.022,224.93 z M 155.535,232.231 C 155.776,231.185 155.764,230.043 155.498,228.809 C 155.217,227.502 154.733,226.506 154.047,225.822 C 153.361,225.135 152.575,224.888 151.689,225.08 C 150.822,225.267 150.201,225.813 149.827,226.72 C 149.452,227.626 149.431,228.848 149.763,230.386 C 150.028,231.616 150.485,232.604 151.132,233.347 C 151.781,234.091 152.632,234.35 153.686,234.122 C 154.677,233.909 155.294,233.278 155.535,232.231 z "
   id="path73"
   style="fill:#ffffff;stroke:#ffffff;stroke-width:0.33000001" />
		<path
   d="M 156.18,222.918 L 161.437,221.352 L 161.838,222.696 L 157.608,223.957 L 158.591,227.258 L 162.308,226.151 L 162.691,227.436 L 158.974,228.543 L 160.459,233.523 L 159.431,233.83 L 156.18,222.918 z "
   id="path75"
   style="fill:#ffffff;stroke:#ffffff;stroke-width:0.33000001" />
		<path
   d="M 165.082,220.074 L 168.819,218.508 C 169.555,218.2 170.263,218.212 170.943,218.544 C 171.623,218.877 172.163,219.52 172.561,220.471 C 172.903,221.289 172.997,222.087 172.84,222.865 C 172.684,223.643 172.19,224.207 171.359,224.556 L 168.758,225.646 L 170.615,230.078 L 169.473,230.557 L 165.082,220.074 z M 170.076,219.693 C 169.77,219.649 169.401,219.717 168.969,219.899 L 166.742,220.832 L 168.256,224.446 L 170.484,223.513 C 170.986,223.302 171.338,222.996 171.537,222.596 C 171.736,222.195 171.693,221.654 171.408,220.971 C 171.086,220.205 170.643,219.78 170.076,219.693 z "
   id="path77"
   style="fill:#ffffff;stroke:#ffffff;stroke-width:0.33000001" />
		<path
   d="M 173.261,216.462 L 176.532,222.704 C 176.917,223.437 177.346,223.989 177.821,224.359 C 178.536,224.919 179.286,224.993 180.071,224.582 C 181.012,224.089 181.445,223.356 181.37,222.385 C 181.327,221.86 181.116,221.231 180.734,220.502 L 177.463,214.26 L 178.576,213.676 L 181.547,219.343 C 182.197,220.584 182.563,221.61 182.643,222.419 C 182.788,223.897 182.168,224.997 180.787,225.721 C 179.41,226.443 178.156,226.325 177.023,225.365 C 176.403,224.839 175.767,223.955 175.117,222.714 L 172.147,217.047 L 173.261,216.462 z "
   id="path79"
   style="fill:#ffffff;stroke:#ffffff;stroke-width:0.33000001" />
		<path
   d="M 179.685,213.021 L 183.2,210.755 C 183.779,210.383 184.323,210.182 184.835,210.152 C 185.813,210.1 186.655,210.624 187.363,211.721 C 187.732,212.295 187.939,212.825 187.982,213.314 C 188.026,213.803 187.944,214.27 187.739,214.716 C 188.139,214.671 188.496,214.725 188.806,214.873 C 189.116,215.022 189.462,215.369 189.843,215.912 L 190.708,217.178 C 190.956,217.535 191.158,217.791 191.313,217.944 C 191.571,218.209 191.809,218.333 192.028,218.314 L 192.163,218.523 L 190.871,219.354 C 190.784,219.294 190.688,219.205 190.584,219.087 C 190.479,218.971 190.3,218.729 190.047,218.361 L 188.931,216.82 C 188.502,216.211 188.051,215.907 187.577,215.912 C 187.309,215.918 186.969,216.054 186.556,216.32 L 184.262,217.799 L 186.909,221.907 L 185.851,222.589 L 179.685,213.021 z M 185.913,215.216 C 186.386,214.91 186.683,214.547 186.804,214.127 C 186.923,213.706 186.781,213.181 186.372,212.548 C 185.934,211.868 185.443,211.53 184.899,211.531 C 184.609,211.534 184.292,211.646 183.943,211.871 L 181.467,213.467 L 183.568,216.727 L 185.913,215.216 z "
   id="path81"
   style="fill:#ffffff;stroke:#ffffff;stroke-width:0.33000001" />
		<path
   d="M 187.118,208.049 L 188.311,207.167 L 195.076,216.325 L 193.881,217.207 L 187.118,208.049 z "
   id="path83"
   style="fill:#ffffff;stroke:#ffffff;stroke-width:0.33000001" />
		<path
   d="M 194.56,202.151 L 195.427,203.2 L 193.107,205.119 L 199.484,212.826 L 198.546,213.602 L 192.169,205.895 L 189.849,207.814 L 188.982,206.765 L 194.56,202.151 z "
   id="path85"
   style="fill:#ffffff;stroke:#ffffff;stroke-width:0.33000001" />
		<path
   d="M 194.356,202.349 L 195.392,201.349 L 201.069,203.461 L 199.155,197.718 L 200.19,196.719 L 202.433,203.984 L 205.613,207.279 L 204.722,208.138 L 201.542,204.843 L 194.356,202.349 z "
   id="path87"
   style="fill:#ffffff;stroke:#ffffff;stroke-width:0.33000001" />
	</g>
	<path
   d="M 234.886,229.117 C 236.452,229.117 237.789,229.669 238.896,230.775 C 239.997,231.874 240.547,233.202 240.547,234.759 C 240.547,236.328 239.996,237.664 238.896,238.771 C 237.795,239.875 236.459,240.429 234.886,240.429 C 233.313,240.429 231.977,239.875 230.876,238.771 C 229.781,237.665 229.234,236.329 229.234,234.759 C 229.234,233.201 229.784,231.873 230.884,230.775 C 231.991,229.669 233.325,229.117 234.886,229.117 z M 241.453,234.751 C 241.453,232.939 240.811,231.397 239.529,230.122 C 238.247,228.848 236.696,228.21 234.877,228.21 C 233.069,228.21 231.527,228.848 230.251,230.122 C 228.969,231.403 228.328,232.946 228.328,234.751 C 228.328,236.573 228.963,238.125 230.233,239.405 C 231.509,240.692 233.057,241.335 234.877,241.335 C 236.697,241.335 238.247,240.692 239.529,239.405 C 240.812,238.119 241.453,236.567 241.453,234.751 z M 236.641,233.322 C 236.641,233.866 236.386,234.234 235.876,234.426 C 235.6,234.531 235.185,234.584 234.632,234.584 L 233.453,234.584 L 233.453,232.021 L 234.567,232.021 C 235.292,232.021 235.818,232.109 236.147,232.285 C 236.476,232.462 236.641,232.808 236.641,233.322 z M 232.234,231.117 L 232.234,238.335 L 233.453,238.335 L 233.453,235.492 L 234.474,235.492 C 235.161,235.492 235.641,235.569 235.915,235.723 C 236.377,235.993 236.608,236.543 236.608,237.377 L 236.608,237.95 L 236.634,238.182 C 236.64,238.212 236.646,238.239 236.652,238.262 C 236.658,238.286 236.665,238.31 236.671,238.333 L 237.859,238.333 L 237.814,238.244 C 237.784,238.184 237.763,238.057 237.751,237.866 C 237.739,237.675 237.733,237.496 237.733,237.328 L 237.733,236.799 C 237.733,236.435 237.604,236.06 237.346,235.678 C 237.088,235.295 236.681,235.058 236.124,234.968 C 236.565,234.897 236.91,234.78 237.158,234.619 C 237.624,234.315 237.857,233.841 237.857,233.198 C 237.857,232.292 237.483,231.684 236.735,231.374 C 236.316,231.201 235.659,231.115 234.761,231.115 L 232.234,231.115 L 232.234,231.117 z "
   id="path89"
   style="fill:#ce1141" />
	<path
   d="M 164.524,167.848 C 165.465,167.848 166.268,168.182 166.933,168.849 C 167.594,169.513 167.925,170.315 167.925,171.254 C 167.925,172.201 167.594,173.009 166.933,173.676 C 166.272,174.343 165.469,174.676 164.524,174.676 C 163.579,174.676 162.776,174.343 162.115,173.676 C 161.457,173.009 161.129,172.201 161.129,171.254 C 161.129,170.315 161.459,169.513 162.12,168.849 C 162.785,168.182 163.587,167.848 164.524,167.848 z M 168.488,171.249 C 168.488,170.16 168.102,169.233 167.331,168.466 C 166.56,167.7 165.628,167.318 164.534,167.318 C 163.448,167.318 162.521,167.701 161.754,168.466 C 160.983,169.237 160.598,170.164 160.598,171.249 C 160.598,172.345 160.98,173.277 161.744,174.047 C 162.511,174.821 163.441,175.208 164.535,175.208 C 165.629,175.208 166.561,174.821 167.332,174.047 C 168.103,173.274 168.488,172.341 168.488,171.249 z M 165.582,170.39 C 165.582,170.722 165.432,170.947 165.132,171.065 C 164.97,171.129 164.726,171.161 164.401,171.161 L 163.708,171.161 L 163.708,169.598 L 164.363,169.598 C 164.79,169.598 165.099,169.652 165.293,169.759 C 165.487,169.866 165.582,170.076 165.582,170.39 z M 162.941,169.067 L 162.941,173.395 L 163.707,173.395 L 163.707,171.692 L 164.309,171.692 C 164.714,171.692 164.997,171.738 165.158,171.831 C 165.43,171.992 165.567,172.322 165.567,172.822 L 165.567,173.165 L 165.583,173.304 C 165.587,173.323 165.59,173.338 165.594,173.353 C 165.598,173.367 165.602,173.381 165.605,173.396 L 166.318,173.396 L 166.29,173.342 C 166.271,173.306 166.258,173.231 166.251,173.116 C 166.244,173.001 166.24,172.895 166.24,172.795 L 166.24,172.48 C 166.24,172.261 166.162,172.039 166.008,171.81 C 165.854,171.581 165.61,171.44 165.276,171.386 C 165.542,171.343 165.75,171.274 165.899,171.176 C 166.178,170.993 166.319,170.708 166.319,170.321 C 166.319,169.776 166.094,169.41 165.646,169.223 C 165.395,169.119 165,169.068 164.461,169.068 L 162.941,169.068 L 162.941,169.067 z "
   id="path91"
   style="fill:#004785" />
	<path
   id="path93"
   style="fill:#004785" />
	<path
   id="path95"
   style="fill:#004785" />
	<path
   id="path97"
   style="fill:#004785" />
	<path
   id="path99"
   style="fill:#004785" />
	<path
   d="M 144.589,67.83 L 145.046,68.216 C 147.407,70.599 150.253,73.158 151.843,76.049 C 152.858,77.682 153.916,75.608 155.218,76.049 C 157.469,78.52 159.587,81.676 159.256,85.162 C 158.639,85.713 157.602,85.669 157.337,86.64 C 158.285,91.362 160.69,95.731 160.095,100.828 C 154.997,104.403 148.996,106.675 143.568,109.941 C 139.222,109.676 137.192,104.756 134.677,101.887 C 134.103,100.961 133.772,99.968 132.978,99.129 L 131.72,99.35 C 123.843,103.388 115.966,107.337 108.199,111.64 C 108.662,116.671 106.897,120.775 104.801,124.768 C 101.072,127.195 105.242,130.549 105.441,133.44 L 110.538,145.09 C 114.554,150.54 120.379,155.217 122.607,161.418 C 126.27,157.291 124.857,150.716 127.902,146.148 C 129.512,143.744 131.565,141.493 133.396,139.176 C 134.279,136.505 130.858,134.321 132.778,131.762 C 134.169,126.996 141.096,126.554 141.869,121.171 C 142.31,120.464 143.325,120.266 143.37,119.472 C 143.987,120.023 144.628,119.317 145.266,119.251 C 144.98,120.355 142.464,121.149 143.37,122.649 C 142.972,123.113 142.884,123.686 142.929,124.348 C 143.193,124.877 143.723,124.745 144.208,124.767 C 144.87,124.348 143.7,123.819 144.628,123.488 C 144.164,122.385 145.863,122.738 145.267,121.59 C 145.929,120.597 147.297,120.244 148.026,119.472 L 148.224,119.67 C 147.606,120.023 148.555,120.244 148.224,120.729 L 151.622,121.369 C 150.121,121.965 147.98,120.994 146.745,122.23 C 146.392,122.914 147.385,123.068 147.165,123.709 C 146.547,123.996 145.576,123.952 145.267,124.547 C 145.488,125.054 145.82,124.503 146.107,124.547 C 150.696,124.856 154.91,125.981 158.198,129.423 C 159.058,129.577 159.831,129.886 160.514,130.482 C 161.639,129.997 163.978,130.934 163.911,129.003 C 165.136,129.985 165.116,129.436 165.412,129.831 C 165.677,129.699 165.39,129.246 165.39,129.003 C 166.581,129.091 167.443,130.46 168.148,131.32 C 167.355,131.276 166.736,130.129 166.031,130.482 L 166.185,131.1 C 165.699,131.431 165.16,129.743 164.806,130.383 L 165.301,131.597 C 164.31,130.218 163.382,132.711 162.434,132.38 C 163.89,133.44 163.184,135.756 165.169,136.198 C 165.456,136.617 165.435,137.367 166.03,137.477 L 166.228,137.256 C 166.338,139.11 169.338,137.785 168.346,139.793 L 168.346,140.434 C 167.706,140.897 166.668,140.412 166.03,140.853 C 166.008,141.89 167.089,142.463 167.288,143.412 C 167.684,143.191 167.442,142.706 167.508,142.353 C 168.016,142.265 168.259,143.478 168.788,142.772 C 169.339,143.39 171.204,146.049 170.905,143.611 C 171.7,143.744 171.866,146.215 172.418,144.119 L 172.583,145.729 C 171.966,146.7 171.038,144.063 170.686,146.369 C 169.88,144.284 169.803,145.95 169.207,146.148 C 169.405,146.877 168.634,147.451 169.207,148.068 C 170.178,147.649 169.78,148.73 170.046,149.127 C 170.112,149.414 169.869,149.812 170.267,149.967 C 170.621,150.032 170.752,149.635 170.686,149.326 L 170.984,147.704 C 171.922,147.428 170.929,150.628 171.745,151.025 C 172.694,150.628 172.275,149.657 172.386,148.906 C 172.584,148.841 172.673,149.017 172.805,149.127 C 172.849,148.531 173.511,148.554 173.865,148.268 C 173.909,147.518 173.511,146.944 173.644,146.149 C 173.953,146.105 174.284,146.657 174.503,146.149 C 174.394,145.62 174.217,145.09 174.283,144.472 C 175.739,143.854 173.996,142 175.761,141.714 C 176.115,139.904 176.071,137.72 175.563,136 C 176.931,138.515 176.402,142.199 176.821,145.311 C 176.755,146.811 176.115,148.356 176.402,149.768 L 176.998,148.808 C 177.769,149.746 176.469,150.54 177.263,151.246 L 177.826,149.58 L 178.521,150.826 C 178.961,149.943 179.514,149.105 179.58,148.068 C 180.375,149.657 178.521,151.311 178.94,152.944 L 179.58,152.944 C 179.779,153.871 179.25,154.687 178.521,155.062 C 178.146,155.041 177.968,155.481 177.683,155.68 C 177.748,156.033 177.505,156.518 177.88,156.739 L 178.101,156.739 C 178.101,157.843 176.645,158.086 175.762,158.438 C 173.093,158.019 171.99,161.394 169.408,161.197 C 166.209,160.49 165.415,165.146 161.995,164.374 C 160.87,164.463 160.186,163.403 159.038,163.535 C 154.295,170.486 147.918,177.502 141.453,183.018 C 134.966,186.923 128.611,191.16 122.389,195.727 C 119.167,197.338 114.335,198.309 110.96,196.368 C 100.744,184.96 92.779,172.626 90.837,157.799 C 86.865,147.385 89.866,134.057 79.606,126.247 C 77.62,126.423 75.59,129.071 73.671,126.887 C 71.53,124.857 70.648,122.165 71.552,119.054 C 73.052,116.472 77.907,116.958 76.649,112.699 C 77.509,109.986 79.848,107.713 81.944,105.705 C 82.54,102.726 86.07,104.161 87.439,101.667 C 89.182,101.358 90.836,100.807 92.094,99.351 C 92.976,98.822 94.323,98.799 95.271,99.13 C 96.661,100.035 98.073,101.513 99.949,100.609 C 101.449,100.476 102.089,103.654 103.744,101.888 C 111.952,97.652 120.138,93.415 128.324,89.179 C 128.633,88.738 128.633,87.921 128.324,87.48 C 127.309,84.082 125.963,80.816 126.205,76.889 C 131.898,73.623 137.701,70.601 143.569,67.776 L 144.066,67.693 L 144.589,67.83 z "
   id="path101"
   style="fill:#004785" />
	<polygon
   points="135.095,76.689 134.897,76.247 135.095,76.247 135.095,76.689 "
   id="polygon103"
   style="fill:#004785" />
	<polygon
   points="136.154,79.006 135.956,78.586 136.154,78.586 136.154,79.006 "
   id="polygon105"
   style="fill:#004785" />
	<path
   d="M 137.633,79.645 L 137.015,79.006 L 137.214,78.807 C 137.5,79.028 137.544,79.336 137.633,79.645 z "
   id="path107"
   style="fill:#004785" />
	<path
   d="M 140.612,83.882 C 140.413,83.948 140.301,83.794 140.192,83.661 L 140.391,83.043 C 140.788,83.176 140.545,83.595 140.612,83.882 z "
   id="path109"
   style="fill:#004785" />
	<path
   d="M 143.149,87.898 C 142.928,87.765 142.818,87.39 142.508,87.479 C 141.779,88.935 143.214,90.016 143.567,91.296 C 143.458,91.185 143.346,91.009 143.149,91.075 C 142.751,91.229 143.016,91.649 142.928,91.935 C 143.061,92.2 143.324,92.134 143.567,92.134 C 143.678,92.024 143.854,91.913 143.789,91.715 C 144.517,92.664 144.208,92.862 143.789,93.833 L 140.81,87.479 C 141.12,87.567 141.251,87.192 141.451,87.06 L 141.451,86.64 C 141.738,87.059 142.289,86.795 142.51,86.42 L 143.149,87.898 z "
   id="path111"
   style="fill:#004785" />
	<path
   d="M 132.812,91.549 C 132.725,91.975 129.171,93.866 128.509,93.866 C 128.344,94.363 125.972,95.411 125.53,95.411 C 124.78,96.117 123.324,96.9 122.187,97.01 C 121.669,97.672 119.352,98.886 118.69,98.83 C 118.525,99.272 116.925,100.044 116.263,100.044 C 115.987,100.485 114.011,101.502 113.34,101.422 C 113.147,101.746 112.402,102.581 111.63,102.305 C 111.52,102.912 110.234,103.258 109.677,103.784 C 108.331,104.071 106.875,105.946 105.661,104.644 L 106.301,104.004 C 116.384,98.929 126.292,93.391 136.573,88.757 L 137.014,89.397 C 137.169,89.784 133.332,91.644 132.812,91.549 z "
   id="path113"
   style="fill:#ffffff" />
	<path
   d="M 142.311,88.957 C 142.376,89.156 142.201,89.266 142.09,89.398 L 141.869,88.758 C 142.067,88.692 142.179,88.847 142.311,88.957 z "
   id="path115"
   style="fill:#004785" />
	<rect
   x="146.326"
   y="98.82"
   width="0.31"
   height="0.30899999"
   id="rect117"
   style="fill:#004785" />
	<path
   d="M 94.651,100.827 C 94.673,101.158 94.298,101.312 94.43,101.665 C 94.783,101.996 95.555,101.996 95.908,101.665 C 95.688,101.93 95.356,102.128 95.489,102.526 C 95.709,102.901 96.195,102.658 96.548,102.724 C 95.908,103.541 96.57,103.96 96.548,104.842 C 95.18,103.209 92.907,102.481 91.473,101.047 C 91.716,100.231 92.577,100.915 92.952,100.407 C 93.063,101.158 93.989,101.335 94.651,100.827 z "
   id="path119"
   style="fill:#fee4cd;stroke:#fee4cd;stroke-width:0.60000002" />
	<path
   d="M 140.612,138.116 C 140.803,138.032 143.258,138.646 143.149,138.535 L 145.907,138.955 C 145.664,139.484 146.326,139.66 146.547,140.014 C 146.282,140.147 146.326,140.411 146.326,140.654 L 147.815,141.635 C 146.955,141.834 145.002,141.691 147.605,142.772 L 149.723,143.832 C 147.484,143.897 149.922,144.936 149.856,145.223 L 152.041,147.01 C 151.29,146.965 150.718,145.884 149.923,146.59 L 153.32,149.967 C 153.001,150.905 151.445,148.069 150.342,148.488 C 150.407,149.084 152.117,149.634 151.731,150.198 C 151.466,149.823 150.585,149.48 150.142,149.547 C 149.767,150.782 153.387,152.173 152.79,152.956 C 151.93,152.536 150.65,151.025 149.723,151.444 C 149.525,152.503 151.466,153.154 151.731,154.014 C 151.18,153.573 149.834,152.944 149.282,153.143 C 149.04,154.069 150.673,154.654 151.092,155.294 C 150.519,155.205 149.437,154.268 148.863,154.841 C 148.819,155.613 150.231,156.088 150.673,156.551 C 149.967,156.882 149.019,155.68 148.444,156.32 C 148.665,156.783 149.348,157.478 149.812,157.832 C 149.282,158.008 148.554,157.158 148.025,157.379 C 147.628,157.601 148.543,158.549 148.477,158.902 C 148.19,158.968 147.12,158.261 146.965,158.659 L 147.594,159.894 C 147.429,160.281 146.127,159.011 145.686,159.498 C 145.532,160.115 147.153,160.557 147.153,161.108 C 146.547,161.329 145.266,160.005 144.628,160.556 C 144.385,161.108 145.576,161.494 145.797,161.847 C 145.025,162.178 143.502,160.027 143.37,161.616 L 145.378,163.127 C 145.356,163.414 143.062,161.715 143.679,163.768 C 143.105,163.68 142.024,162.742 141.45,163.315 C 141.384,164.243 142.994,164.473 143.458,165.026 C 142.531,164.872 141.053,163.868 140.192,164.154 C 140.236,165.214 141.427,165.368 142.089,165.853 C 141.14,165.963 140.522,164.662 139.551,165.434 L 141.339,166.945 C 141.008,166.68 139.817,166.349 139.375,166.349 C 138.867,166.57 139.485,166.956 139.65,167.177 L 140.72,168.004 C 140.08,168.004 138.779,166.802 138.271,167.773 C 138.558,168.015 139.087,168.623 139.441,168.842 C 139.044,168.71 138.316,168.809 138.073,169.03 L 139.021,169.902 L 137.665,170.1 L 137.632,170.31 L 139.375,171.446 L 139.221,171.6 C 139,171.204 137.985,171.215 137.632,171.148 C 137.213,171.413 138.073,172.129 138.161,172.44 C 137.941,172.461 137.146,172.164 137.014,172.428 C 136.838,172.913 137.809,173.366 137.963,173.719 C 137.764,173.653 137.124,173.574 137.014,173.686 C 136.816,174.282 137.83,174.823 138.161,175.198 C 136.926,174.757 136.473,175.517 135.9,176.113 L 136.153,176.863 C 135.138,176.202 134.575,177.436 135.127,178.154 L 134.255,178.562 C 133.946,178.474 134.52,179.125 134.299,179.256 C 133.306,178.816 133.129,180.128 133.836,180.68 C 132.379,180.261 131.365,182.148 131.596,182.402 C 130.052,182.18 128.617,183.89 128.54,185.137 C 127.614,184.717 127.305,185.821 126.621,185.975 L 126.621,186.616 C 125.584,185.623 126.412,188.8 124.922,187.257 C 124.425,186.594 124.205,188.359 124.723,189.572 C 124.591,190.841 123.874,189.02 123.863,189.794 C 122.671,191.14 122.98,193.103 121.127,193.61 C 119.958,195.376 117.685,195.376 115.832,195.927 C 115.17,195.552 114.266,195.794 113.493,195.728 C 113.559,195.53 113.405,195.419 113.273,195.309 L 112.214,195.507 C 112.302,195.198 111.949,195.088 111.795,194.867 C 111.155,194.956 110.934,194.801 110.736,194.25 C 110.162,193.544 108.331,192.728 109.257,191.492 C 109.213,190.189 107.403,189.836 108.198,188.513 C 108.132,188.248 108.761,187.311 107.977,187.674 C 107.69,187.586 107.657,188.579 107.359,188.094 C 106.94,188.082 107.768,184.166 106.499,187.256 C 106.08,186.836 107.05,184.387 106.08,185.557 C 105.55,185.666 106.224,187.366 105.44,186.836 C 105.308,185.909 105.793,184.541 105.021,184.077 L 104.8,184.276 C 104.668,183.658 105.153,182.754 104.381,182.379 L 103.961,182.798 C 104.358,181.056 101.755,182.224 102.682,180.261 C 101.844,179.974 102.362,178.043 101.259,179.588 L 101.203,179.202 C 101.7,176.277 100.221,178.892 100.652,176.498 L 99.725,176.862 C 100.21,175.891 100.927,174.016 99.946,174.744 L 99.306,174.965 C 99.306,174.723 99.24,174.457 99.505,174.325 C 99.306,174.192 99.174,173.817 98.887,173.906 C 98.622,173.199 100.156,172.527 99.384,171.864 C 97.752,172.295 98.887,171.533 97.608,171.567 C 97.917,170.639 99.583,168.279 98.612,168.61 C 97.619,168.5 97.619,171.81 96.967,170.089 C 96.724,169.118 99.03,167.066 97.552,167.552 C 96.736,167.993 96.79,170.044 96.129,169.448 C 95.688,168.335 97.806,166.15 96.846,166.514 C 96.261,167.088 95.908,168.444 95.489,167.97 C 95.007,165.601 97.729,166.588 95.709,164.792 C 95.819,164.462 95.974,164.152 95.908,163.733 C 95.776,163.467 95.511,163.534 95.268,163.534 C 95.4,163.138 95.091,162.917 94.849,162.674 L 94.651,162.674 C 94.563,162.056 95.489,161.571 94.849,160.976 L 94.43,160.976 C 94.496,160.71 94.253,160.292 94.651,160.137 C 94.43,160.005 94.32,159.629 94.011,159.718 C 93.923,159.077 94.849,158.614 94.21,158.019 L 93.791,158.019 C 93.681,157.313 95.137,156.717 94.012,156.122 L 93.372,156.541 C 93.372,155.967 94.321,155.283 93.372,154.842 L 93.15,154.842 C 93.261,154.313 93.592,153.628 93.15,153.144 L 92.731,153.144 C 92.864,152.747 92.533,152.548 92.312,152.305 L 91.673,152.503 C 92.114,151.974 92.511,151.158 92.312,150.606 L 91.673,150.606 C 91.827,150.253 92.269,150.033 92.092,149.547 L 91.673,149.127 L 91.474,149.326 C 90.636,148.641 91.651,147.605 90.834,147.01 C 90.569,146.414 92.378,145.509 90.834,145.531 C 90.966,145.09 91.43,144.802 91.253,144.252 C 90.547,143.479 89.797,142.441 89.356,141.493 C 89.665,140.589 88.518,139.75 88.915,138.536 C 87.305,138.382 89.842,137.83 88.297,137.257 C 89.621,136.198 87.481,135.272 88.496,134.079 C 88.761,133.947 88.695,133.683 88.717,133.44 C 88.585,133.329 88.496,133.175 88.298,133.241 C 89.092,132.204 87.681,132.137 87.857,131.123 L 87.438,131.123 C 87.438,130.88 87.504,130.615 87.239,130.483 C 86.996,130.483 86.732,130.439 86.599,130.704 C 86.93,129.667 88.055,128.785 88.916,128.144 C 90.129,129.182 90.063,131.123 90.615,132.601 C 91.652,133.771 90.262,135.911 91.895,136.838 C 92.27,137.853 91.409,138.581 92.313,139.375 C 92.534,139.11 92.865,139.044 93.151,138.956 C 93.328,139.64 92.379,139.86 92.313,140.435 C 92.865,141.45 93.306,142.177 93.593,143.192 C 93.659,143.479 93.416,143.898 93.791,144.031 C 95.27,143.656 96.417,142.023 97.388,140.854 C 95.976,140.236 98.47,138.757 96.549,139.177 C 96.549,138.669 97.498,138.052 96.549,137.677 L 96.328,137.677 C 96.593,137.323 96.571,136.882 96.13,136.617 C 95.711,136.771 95.402,137.146 95.071,137.477 C 94.761,136.661 97.299,135.844 95.49,135.557 L 96.13,134.498 C 95.137,134.652 95.424,133.527 95.071,133.019 C 95.357,132.666 95.865,132.401 95.909,131.96 C 95.755,131.585 95.357,131.828 95.071,131.761 C 95.181,131.32 95.865,130.812 95.071,130.481 L 94.85,130.481 C 94.453,131.011 95.049,130.15 94.85,129.841 C 93.504,129.664 94.718,128.584 94.652,127.944 C 94.63,127.701 94.696,127.436 94.431,127.304 L 94.012,127.304 L 94.85,126.245 C 94.696,125.848 94.299,126.113 94.012,126.024 L 93.791,126.245 C 93.857,125.804 94.365,125.539 94.652,125.186 C 94.431,125.053 94.321,124.678 94.012,124.766 C 94.299,124.413 94.806,124.148 94.85,123.707 L 94.431,123.288 C 94.828,122.384 95.269,121.876 96.13,121.368 C 95.865,120.905 95.645,119.735 96.549,119.669 C 97.741,119.492 99.307,119.316 99.727,118.19 C 99.881,117.837 100.455,118.035 100.367,117.55 C 99.441,117.196 100.345,116.557 100.367,116.072 C 100.919,115.542 101.139,114.505 101.625,113.755 C 102.287,113.358 102.927,112.608 103.125,111.835 C 102.662,111.151 102.816,110.202 102.485,109.297 C 101.757,108.768 101.183,108.724 100.786,107.818 C 99.043,107.907 98.734,105.921 98.028,104.839 C 97.719,104.133 97.719,103.03 98.028,102.302 C 98.403,101.971 98.712,101.464 99.308,101.662 C 99.22,103.781 101.25,104.817 102.684,105.898 C 102.927,105.898 103.831,105.655 103.963,105.391 L 103.632,106.826 C 104.868,108.723 107.802,109.584 105.861,112.474 C 105.794,113.467 106.964,114.725 105.662,115.431 C 105.927,115.563 105.861,115.828 105.861,116.071 C 105.331,115.828 105.154,116.49 104.801,116.711 C 106.015,117.351 104.36,117.858 104.602,118.608 C 103.918,118.542 103.323,118.696 102.903,119.248 C 103.521,120.197 103.631,120.704 102.682,121.366 C 102.616,121.675 102.969,121.785 103.123,122.006 C 102.13,122.028 101.976,123.131 101.424,123.705 C 101.093,123.726 100.939,123.352 100.564,123.484 L 100.145,123.903 C 100.631,124.808 101.535,124.675 102.263,124.962 L 101.623,125.602 L 101.844,125.823 C 101.226,126.883 98.821,125.404 98.667,127.081 L 99.947,127.721 C 98.8,129.353 101.182,130.832 100.366,132.596 C 100.565,132.729 100.697,133.104 101.006,133.016 C 100.653,133.391 100.168,133.7 100.366,134.296 C 100.476,134.406 100.587,134.56 100.785,134.495 C 100.035,135.245 101.359,135.664 101.204,136.415 C 101.535,136.79 101.314,137.981 102.263,138.113 L 102.484,137.892 C 102.66,139.768 104.734,140.539 103.962,142.547 C 103.345,143.407 102.462,143.607 101.844,144.467 C 102.131,145.019 102.087,145.902 102.682,146.144 C 102.682,146.387 102.748,146.652 102.484,146.785 C 103.521,147.181 102.88,148.506 103.962,148.064 C 104.029,148.484 103.786,149.035 104.183,149.322 L 104.382,149.322 C 104.426,149.653 104.029,149.807 104.183,150.183 C 105.352,150.623 106.058,148.681 107.14,148.263 C 108.596,149.122 107.934,151.043 109.479,151.66 C 109.391,152.079 109.656,152.631 109.258,152.939 C 109.192,152.653 109.434,152.234 109.037,152.079 C 108.397,152.212 107.824,152.564 107.36,153.139 C 107.802,152.675 108.331,152.278 108.42,151.66 L 107.979,151.241 C 107.25,151.704 106.302,152.476 106.082,153.359 C 106.347,153.8 106.788,153.822 107.141,153.557 C 106.876,153.689 106.942,153.954 106.92,154.197 C 107.758,155.013 108.111,153.403 108.839,153.359 C 108.332,153.822 107.824,154.307 107.979,155.057 C 108.288,155.411 108.818,155.167 109.038,155.675 C 109.237,156.182 108.464,156.557 109.038,156.954 C 110.031,156.579 110.185,157.087 110.737,157.595 C 110.913,158.543 111.597,158.719 112.216,159.492 C 112.922,160.705 113.319,162.206 114.334,163.088 C 115.195,163.949 113.496,165.251 114.974,165.649 C 115.084,166.377 114.643,166.818 115.393,167.127 L 115.614,166.906 C 115.547,167.502 115.282,167.988 114.775,168.385 L 113.915,168.385 C 113.981,168.186 113.827,168.098 113.716,167.966 L 113.275,167.966 C 113.341,167.768 113.187,167.679 113.076,167.547 C 112.194,167.943 111.708,168.87 111.377,169.664 C 111.62,170.481 112.48,169.797 112.855,170.305 C 113.01,170.878 112.084,171.297 112.657,171.783 C 113.518,170.636 114.687,170.239 115.614,169.246 C 115.349,170.062 114.356,170.857 114.974,171.783 L 116.253,170.305 C 116.253,170.857 115.304,171.563 116.253,172.003 C 116.695,171.938 116.959,171.43 117.313,171.143 C 116.959,172.268 115.967,173.415 116.253,174.541 C 116.783,174.695 117.18,174.056 117.313,173.681 L 117.313,173.482 C 117.622,174.166 116.673,174.608 117.313,175.181 L 118.372,174.122 C 118.372,174.893 117.423,175.799 118.372,176.438 C 118.835,176.107 118.99,175.622 119.21,175.18 C 119.342,176.217 118.019,177.629 119.21,178.137 L 119.431,177.916 C 119.343,178.225 119.718,178.357 119.85,178.556 C 120.843,178.313 120.556,177.144 120.909,176.438 C 123.138,175.666 121.858,173.062 122.806,171.562 C 122.63,171.009 123.093,170.723 123.248,170.304 C 122.608,169.443 123.557,168.738 123.248,167.767 C 123.446,167.832 123.534,167.656 123.667,167.546 L 123.667,166.905 C 123.799,167.171 124.064,167.104 124.307,167.126 C 124.616,165.957 123.799,164.457 124.086,163.309 C 124.814,164.964 125.311,168.715 125.365,164.91 C 126.561,166.72 126.303,165.296 126.623,164.369 C 127.527,165.318 128.145,166.951 129.602,167.127 C 130.242,166.73 128.201,165.771 128.289,165.352 L 129.778,166.013 L 128.674,164.579 C 129.071,164.711 129.557,165.45 129.799,165.208 C 129.843,164.899 129.678,164.567 129.832,164.192 C 130.163,163.707 131.123,164.546 130.858,163.53 L 127.681,159.912 C 128.608,159.427 127.747,158.632 127.681,158.015 L 127.483,157.794 C 128.674,157.088 126.645,155.974 126.887,155.135 C 126.798,154.65 127.516,155.808 127.681,155.256 L 127.306,154.076 C 127.295,153.656 128.288,154.87 128.321,154.197 C 128.211,153.866 126.964,152.718 127.725,152.597 C 127.857,152.863 128.497,153.336 128.74,153.359 C 129.447,152.564 127.99,151.45 127.946,150.7 C 128.079,150.479 128.829,150.91 128.74,150.6 L 129.6,151.439 C 130.638,150.843 127.846,149.708 129.004,148.913 C 129.225,148.549 129.864,149.763 130.019,149.962 C 130.328,150.05 130.438,149.675 130.659,149.542 C 130.725,149.343 130.174,148.692 130.063,148.582 C 130.162,147.699 130.857,148.836 131.078,148.704 L 130.703,147.103 C 130.77,146.651 131.366,147.534 131.498,147.422 L 131.123,146.242 C 131.156,145.658 132.006,146.849 132.138,146.584 L 131.542,145.105 C 131.983,144.62 132.314,145.723 132.557,145.723 C 132.954,145.569 132.314,144.63 132.402,144.344 C 132.59,144.113 132.998,145.15 133.196,145.083 C 133.571,144.796 132.953,143.703 133.019,143.284 C 133.196,142.953 133.748,144.167 134.034,143.604 C 134.21,143.052 133.372,142.224 133.24,141.806 C 133.803,141.077 134.365,143.471 134.895,142.765 L 134.079,140.746 C 134.354,139.808 135.226,142.412 135.734,141.706 L 135.359,140.746 C 135.347,139.588 136.44,141.463 136.572,141.066 C 136.75,140.028 137.477,139.875 138.271,139.477 C 138.118,138.514 139.949,138.403 140.612,138.116 z "
   id="path121"
   style="fill:#fee4cd;stroke:#fee4cd;stroke-width:0.60000002" />
	<path
   d="M 89.775,102.526 C 89.841,102.813 89.599,103.21 89.974,103.364 L 90.614,103.364 C 90.548,103.673 90.68,104.07 91.033,104.004 L 91.894,104.004 L 91.673,104.224 C 91.937,104.754 92.467,104.621 92.952,104.643 L 92.533,105.062 C 93.305,106.055 94.386,106.541 94.849,108.019 C 95.048,107.953 95.158,108.129 95.268,108.24 L 95.136,108.085 L 95.334,107.886 L 95.489,108.019 C 95.268,108.372 94.606,108.548 94.849,109.078 C 95.158,109.431 95.798,109.343 96.129,109.078 L 96.327,108.88 L 96.548,109.078 C 95.886,109.277 94.849,109.475 94.21,110.137 C 93.504,106.96 89.752,104.82 87.017,103.364 C 87.282,102.526 88.429,102.305 89.136,102.724 C 89.267,102.46 89.532,102.526 89.775,102.526 z "
   id="path123"
   style="fill:#fee4cd;stroke:#fee4cd;stroke-width:0.60000002" />
	<path
   d="M 85.318,105.483 C 87.194,105.174 85.208,106.608 87.437,106.123 C 87.371,106.432 87.746,106.785 88.297,106.83 C 89.842,106.345 88.308,108.906 89.776,108.242 C 90.945,107.712 90.438,110.073 91.674,109.521 C 91.453,110.426 92.666,110.117 92.733,110.779 C 91.321,110.889 90.35,112.059 89.975,113.317 C 90.681,114.288 91.63,112.699 92.535,113.537 C 92.976,113.273 92.998,112.831 92.733,112.478 C 93.329,112.588 93.307,113.317 93.594,113.758 L 93.373,114.817 C 92.777,114.817 91.85,113.801 91.674,115.015 C 90.835,115.368 90.283,114.508 89.975,113.956 C 89.026,113.007 90.416,111.904 89.357,110.999 C 88.187,108.352 85.385,106.939 83.002,105.902 C 83.09,105.615 83.134,105.284 83.421,105.064 C 84.127,105.638 84.833,104.932 85.539,104.843 L 85.318,105.483 z "
   id="path125"
   style="fill:#fee4cd;stroke:#fee4cd;stroke-width:0.60000002" />
	<rect
   x="99.085999"
   y="105.174"
   width="0.331"
   height="0.30899999"
   id="rect127"
   style="fill:#004785" />
	<path
   d="M 81.302,108.021 C 81.214,108.264 81.479,108.528 81.721,108.462 L 82.559,108.153 C 82.493,108.506 82.691,108.947 83,108.881 L 83.772,108.594 C 83.728,109.035 83.662,109.675 84.059,109.94 C 85.538,108.704 85.074,110.69 86.178,110.359 C 86.884,110.866 86.619,112.036 86.376,112.697 C 86.111,112.829 86.178,113.094 86.178,113.315 C 86.597,113.712 87.303,113.469 87.855,113.535 C 88.12,113.315 88.318,112.984 88.715,113.116 C 89.487,113.403 89.002,114.241 89.134,114.815 C 86.795,116.69 84.964,113.071 83.198,112.057 C 82.316,112.057 81.345,110.866 81.08,112.256 C 80.396,112.19 80.33,112.697 80.021,113.116 C 80.264,114.285 78.896,114.263 78.322,114.815 L 77.704,114.815 C 78.079,114.594 77.836,114.109 77.902,113.756 C 78.674,113.557 78.189,112.476 78.321,111.836 C 78.74,111.968 79.049,112.52 79.38,111.836 C 79.424,111.505 79.027,111.373 79.181,110.998 C 79.292,111.108 79.402,111.263 79.6,111.197 C 79.997,111.065 79.733,110.645 79.821,110.359 C 79.689,110.248 79.578,110.072 79.38,110.138 L 79.181,110.359 C 79.206,109.3 80.397,108.352 81.302,108.021 z "
   id="path129"
   style="fill:#fee4cd;stroke:#fee4cd;stroke-width:0.60000002" />
	<path
   d="M 97.387,111.837 C 97.674,112.742 97.033,113.448 96.327,113.757 C 95.556,113.8 94.628,113.778 94.43,112.897 C 94.717,112.83 95.136,113.073 95.268,112.698 L 95.268,112.257 C 95.952,112.257 97.077,112.434 96.967,111.419 C 97.211,111.33 97.476,111.617 97.387,111.837 z "
   id="path131"
   style="fill:#fee4cd;stroke:#fee4cd;stroke-width:0.60000002" />
	<path
   d="M 99.726,112.058 C 99.439,111.992 99.02,112.234 98.887,111.837 L 99.726,111.638 L 99.726,112.058 z "
   id="path133"
   style="fill:#004785" />
	<path
   d="M 157.337,112.897 L 157.138,113.117 C 157.006,113.007 156.896,112.83 156.697,112.897 L 157.138,112.058 C 157.514,112.212 157.271,112.61 157.337,112.897 z "
   id="path135"
   style="fill:#004785" />
	<polygon
   points="104.382,113.757 104.602,113.536 104.801,113.757 104.382,113.757 "
   id="polygon137"
   style="fill:#004785" />
	<polygon
   points="91.253,114.375 91.408,114.243 91.606,114.441 91.474,114.596 91.253,114.375 "
   id="polygon139"
   style="fill:#004785" />
	<path
   d="M 85.759,116.317 C 83.399,117.905 79.868,118.655 77.264,120.111 L 77.264,120.31 C 76.823,120.266 76.558,119.758 76.205,119.472 C 78.941,118.236 81.986,116.868 84.898,115.655 L 85.759,116.317 z "
   id="path141"
   style="fill:#ffffff" />
	<rect
   x="155.438"
   y="115.346"
   width="0.30899999"
   height="0.30899999"
   id="rect143"
   style="fill:#004785" />
	<rect
   x="156.696"
   y="115.346"
   width="0.33199999"
   height="0.30899999"
   id="rect145"
   style="fill:#004785" />
	<polygon
   points="149.282,117.354 149.923,116.934 150.143,116.934 149.282,117.354 "
   id="polygon147"
   style="fill:#004785" />
	<path
   d="M 76.713,121.833 L 77.485,125.363 L 75.389,121.833 C 75.014,122.054 75.896,123.797 75.83,124.15 C 74.617,124.15 74.893,121.178 73.514,120.068 C 72.962,120.73 73.293,121.7 73.624,122.053 C 72.962,122.142 72.962,123.046 72.411,122.385 C 71.859,120.95 72.08,119.847 73.029,119.053 C 74.396,118.523 75.5,119.516 76.713,121.833 z "
   id="path149"
   style="fill:#ffffff" />
	<rect
   x="162.213"
   y="119.053"
   width="0.419"
   height="0.198"
   id="rect151"
   style="fill:#004785" />
	<polygon
   points="149.504,120.311 149.282,120.111 149.504,120.111 149.504,120.311 "
   id="polygon153"
   style="fill:#004785" />
	<path
   d="M 88.296,124.767 C 91.077,126.952 86.664,127.922 85.958,129.643 C 85.826,129.378 85.539,128.672 84.325,128.783 C 84.325,127.569 83.089,127.9 83.42,126.664 C 84.104,126.113 84.457,125.429 84.898,124.767 L 84.479,124.348 C 84.964,122.87 86.553,123.157 87.436,122.23 C 87.988,123.068 86.884,124.194 88.296,124.767 z "
   id="path155"
   style="fill:#fee4cd;stroke:#fee4cd;stroke-width:0.60000002" />
	<polygon
   points="160.095,124.547 159.676,124.348 159.874,124.348 160.095,124.547 "
   id="polygon157"
   style="fill:#004785" />
	<polygon
   points="99.947,125.605 99.726,125.407 99.947,125.407 99.947,125.605 "
   id="polygon159"
   style="fill:#004785" />
	<path
   d="M 160.227,140.588 C 160.668,139.816 160.227,142.628 161.793,141.073 C 161.926,141.58 162.278,142.198 162.853,142.352 C 163.404,142.594 163.426,141.933 163.691,141.712 L 163.691,141.293 C 163.801,141.822 164.42,142.021 164.971,141.91 C 164.397,142.264 164.044,142.837 163.911,143.609 C 162.345,143.763 162.764,150.405 162.93,152.556 C 162.324,152.721 162.621,146.708 162.489,146.599 C 162.103,144.944 162.103,150.802 161.375,152.721 L 161.375,153.56 C 161.331,152.016 161.618,149.986 160.316,149.324 C 160.029,148.133 160.051,146.808 159.456,145.727 L 158.815,146.146 C 158.175,144.712 158.021,142.682 156.586,141.468 L 156.277,142.77 C 155.967,141.711 154.292,141.535 155.217,140.233 L 155.019,140.012 L 154.798,140.233 C 153.938,139.748 154.07,138.688 152.901,138.534 L 151.842,137.498 L 151.401,138.954 C 150.606,138.27 150.121,136.659 149.084,136.063 C 149.471,138.545 147.297,136.438 146.106,137.056 C 145.311,136.217 144.384,135.776 143.37,135.997 L 143.37,136.195 C 143.215,135.798 142.84,135.466 142.509,135.135 C 142.024,135.906 141.384,134.473 141.03,135.554 L 140.612,135.135 C 140.082,135.4 140.192,135.929 140.192,136.415 C 139.045,135.906 138.295,133.877 136.794,134.936 C 136.573,134.428 136.243,134.981 135.956,134.936 C 135.448,134.561 134.698,134.804 134.257,134.297 L 134.036,134.496 C 133.793,133.878 132.823,134.121 133.198,133.238 C 134.125,132.642 133.595,131.473 134.036,130.7 C 135.537,128.45 138.052,127.832 140.192,126.662 C 140.809,126.729 141.45,127.434 142.089,126.883 L 142.089,126.662 C 142.861,127.832 144.627,125.184 143.986,127.302 C 143.324,127.633 142.927,128.185 142.089,128.582 C 142.729,129.023 143.633,129.486 144.428,129 C 144.957,128.206 146.325,128.493 146.325,127.301 C 147.781,127.919 147.406,126.33 148.222,125.822 C 148.597,126.132 149.391,126.087 149.082,126.882 L 151.399,128.581 C 151.112,128.492 150.979,128.845 150.781,128.999 C 152.325,129.595 151.068,132.353 153.098,131.757 C 153.098,130.764 152.149,129.639 153.098,128.778 C 153.715,129.44 154.862,128.712 155.017,130.057 C 155.238,130.036 155.502,130.101 155.635,129.837 C 155.679,131.337 158.26,131.183 156.694,132.816 C 156.827,133.081 157.091,133.015 157.335,133.015 C 157.555,132.728 157.997,132.552 157.975,132.176 C 159.299,132.331 158.769,134.449 160.314,133.875 C 160.402,134.383 160.049,135.066 160.733,135.354 L 161.373,135.133 C 160.888,136.523 162.564,135.508 162.852,136.413 L 163.271,135.994 C 164.043,136.303 163.558,137.538 163.69,138.309 C 163.492,138.177 163.359,137.802 163.05,137.89 C 162.852,138.287 162.587,138.662 162.631,139.17 C 160.667,137.989 161.384,141.299 160.513,139.17 L 160.061,140.085 L 159.675,139.589 L 159.034,140.229 C 159.472,140.359 159.511,141.841 160.227,140.588 z "
   id="path161"
   style="fill:#ffffff" />
	<rect
   x="163.05099"
   y="125.937"
   width="0.331"
   height="0.30899999"
   id="rect163"
   style="fill:#004785" />
	<rect
   x="142.311"
   y="129.114"
   width="0.30899999"
   height="0.30899999"
   id="rect165"
   style="fill:#004785" />
	<path
   d="M 141.869,130.063 L 141.869,130.262 L 141.251,130.262 L 141.251,129.843 C 141.472,129.864 141.737,129.798 141.869,130.063 z "
   id="path167"
   style="fill:#004785" />
	<path
   d="M 172.583,130.703 C 172.848,131.255 172.187,131.276 171.966,131.541 L 171.524,131.541 C 171.7,130.99 171.966,130.68 172.583,130.703 z "
   id="path169"
   style="fill:#004785" />
	<rect
   x="134.455"
   y="130.791"
   width="0.33199999"
   height="0.33199999"
   id="rect171"
   style="fill:#004785" />
	<polygon
   points="152.46,133.02 152.46,132.6 152.901,133.02 152.46,133.02 "
   id="polygon173"
   style="fill:#004785" />
	<rect
   x="157.33701"
   y="133.549"
   width="0.33000001"
   height="0.331"
   id="rect175"
   style="fill:#004785" />
	<polygon
   points="157.337,135.358 157.138,135.138 157.337,135.138 157.337,135.358 "
   id="polygon177"
   style="fill:#004785" />
	<rect
   x="157.138"
   y="135.888"
   width="0.31"
   height="0.31"
   id="rect179"
   style="fill:#004785" />
	<polygon
   points="157.138,137.676 156.918,137.477 157.138,137.477 157.138,137.676 "
   id="polygon181"
   style="fill:#004785" />
	<rect
   x="100.564"
   y="137.366"
   width="0.331"
   height="0.31"
   id="rect183"
   style="fill:#004785" />
	<rect
   x="177.681"
   y="139.064"
   width="0.308"
   height="0.31"
   id="rect185"
   style="fill:#004785" />
	<path
   d="M 101.844,139.793 C 101.778,139.992 101.932,140.102 102.065,140.234 L 102.484,140.234 C 102.727,140.763 102.065,140.94 101.844,141.294 C 102.352,141.999 102.594,140.786 103.124,140.853 L 103.323,141.074 C 103.014,141.89 102.153,142.287 101.425,142.552 C 101.249,141.67 101.094,141.14 101.204,140.435 C 101.05,140.035 101.447,139.639 101.844,139.793 z "
   id="path187"
   style="fill:#004785" />
	<rect
   x="174.922"
   y="140.32201"
   width="0.30899999"
   height="0.331"
   id="rect189"
   style="fill:#004785" />
	<path
   d="M 96.968,143.411 C 97.277,143.301 97.586,143.257 97.829,142.97 L 98.027,143.191 C 97.431,144.03 98.579,145.068 97.387,145.729 C 97.519,145.994 97.784,145.927 98.027,145.95 C 97.961,146.303 98.204,146.789 97.829,147.01 C 98.689,147.075 98.623,147.606 98.888,148.268 C 98.403,149.348 97.476,150.253 96.77,151.247 L 96.968,151.445 C 98.116,150.761 98.579,148.841 100.145,148.71 L 98.027,151.666 L 98.248,151.887 C 99.307,151.137 100.586,148.621 101.623,150.189 C 101.954,150.673 101.005,150.894 101.623,151.248 L 102.064,151.248 C 102.307,151.799 101.645,151.821 101.424,152.086 L 101.005,151.248 L 100.564,151.667 C 100.321,151.446 100.123,151.115 99.726,151.248 C 99.395,151.688 99.174,152.064 98.667,152.505 C 99.064,152.881 99.549,153.454 98.887,154.005 L 98.667,154.204 C 99.042,154.844 99.307,153.917 99.726,154.005 C 99.064,155.087 100.255,155.065 100.145,156.124 L 100.564,156.124 C 100.652,156.389 100.388,156.808 100.785,156.962 L 101.006,156.741 L 101.425,157.182 C 101.315,157.292 101.138,157.403 101.204,157.602 L 101.425,157.8 C 101.58,157.425 101.977,157.667 102.263,157.602 C 102.285,157.845 102.219,158.109 102.484,158.241 L 103.124,158.241 C 103.058,158.44 103.212,158.529 103.323,158.661 C 104.117,158.176 104.139,157.205 105.022,156.962 C 104.735,157.999 103.985,158.838 103.323,159.721 L 102.683,159.08 L 101.624,160.14 L 101.205,159.301 C 101.073,159.567 100.808,159.5 100.565,159.5 C 100.565,159.257 100.631,158.992 100.366,158.859 C 100.079,159.102 99.307,159.3 99.307,158.661 L 99.506,158.44 C 98.712,157.911 98.535,156.741 98.027,155.903 C 97.829,155.153 99.307,154.866 98.667,154.204 C 98.314,154.425 98.137,155.087 97.608,154.844 C 97.608,154.601 97.652,154.337 97.387,154.204 L 96.968,154.204 C 97.034,153.675 96.946,153.013 96.328,152.946 C 96.35,152.306 97.211,151.799 96.77,151.248 L 96.328,151.667 C 95.733,151.557 95.777,150.828 95.49,150.387 L 95.909,149.77 C 95.689,149.504 95.027,149.483 95.269,148.909 L 95.49,148.712 C 95.357,148.446 95.093,148.491 94.85,148.491 C 94.674,147.938 95.137,147.652 95.269,147.211 C 95.026,146.925 94.651,146.946 94.431,146.593 C 96.02,145.556 93.151,145.622 94.431,144.475 L 96.968,141.915 C 97.608,142.419 96.328,142.904 96.968,143.411 z "
   id="path191"
   style="fill:#004785" />
	<polygon
   points="137.015,142.132 136.794,141.911 137.015,141.911 137.015,142.132 "
   id="polygon193"
   style="fill:#004785" />
	<path
   d="M 103.124,142.551 C 102.837,142.905 102.859,143.589 102.263,143.611 C 101.624,143.147 102.484,142.198 103.124,142.551 z "
   id="path195"
   style="fill:#004785" />
	<polygon
   points="95.909,144.471 96.77,143.411 96.77,143.61 95.909,144.471 "
   id="polygon197"
   style="fill:#004785" />
	<polygon
   points="166.195,144.405 166.415,144.382 166.57,147.317 166.372,147.317 166.195,144.405 "
   id="polygon199"
   style="fill:#004785" />
	<rect
   x="167.508"
   y="143.08"
   width="0.31"
   height="0.331"
   id="rect201"
   style="fill:#004785" />
	<path
   d="M 104.602,144.471 L 103.962,144.03 L 104.382,143.611 C 104.58,143.654 104.933,144.271 104.602,144.471 z "
   id="path203"
   style="fill:#004785;stroke:#fee4cd;stroke-width:0.60000002" />
	<polygon
   points="135.515,144.029 135.515,143.831 135.735,143.831 135.515,144.029 "
   id="polygon205"
   style="fill:#004785" />
	<path
   d="M 178.43,144.56 L 178.816,145.883 C 178.706,147.759 179.225,147.626 178.519,148.487 C 178.138,148.437 178.154,143.29 178.43,144.56 z "
   id="path207"
   style="fill:#004785" />
	<path
   d="M 177.823,148.2 C 176.996,148.862 177.487,147.532 177.26,147.648 L 177.68,143.831 L 177.823,148.2 z "
   id="path209"
   style="fill:#004785" />
	<polygon
   points="134.455,144.669 134.676,144.471 134.676,144.89 134.455,144.669 "
   id="polygon211"
   style="fill:#004785" />
	<rect
   x="95.070999"
   y="145"
   width="0.30899999"
   height="0.31"
   id="rect213"
   style="fill:#004785" />
	<path
   d="M 174.701,150.384 L 175.76,146.589 C 175.407,147.847 175.693,149.567 174.701,150.384 z "
   id="path215"
   style="fill:#004785" />
	<rect
   x="132.558"
   y="147.118"
   width="0.30899999"
   height="0.30899999"
   id="rect217"
   style="fill:#004785" />
	<rect
   x="180.438"
   y="147.957"
   width="0.30899999"
   height="0.31"
   id="rect219"
   style="fill:#004785" />
	<path
   d="M 106.721,149.546 C 107.096,150.164 105.706,150.296 106.5,150.825 C 106.853,150.671 107.074,150.208 107.559,150.384 C 107.316,151.422 106.566,151.664 105.86,152.502 C 105.153,152.083 106.367,151.664 105.661,151.245 L 105.021,151.664 C 105.087,151.466 104.933,151.355 104.8,151.245 C 105.22,150.583 105.904,149.656 106.721,149.546 z "
   id="path221"
   style="fill:#004785" />
	<rect
   x="180.218"
   y="149.54601"
   width="0.221"
   height="0.41999999"
   id="rect223"
   style="fill:#004785" />
	<rect
   x="131.49899"
   y="149.854"
   width="0.30899999"
   height="0.33199999"
   id="rect225"
   style="fill:#004785" />
	<polygon
   points="106.301,150.825 106.434,150.958 106.015,151.399 105.86,151.245 106.301,150.825 "
   id="polygon227"
   style="fill:#004785" />
	<rect
   x="101.425"
   y="150.914"
   width="0.30899999"
   height="0.331"
   id="rect229"
   style="fill:#004785;stroke:#fee4cd;stroke-width:0.60000002" />
	<path
   d="M 102.903,152.083 C 103.08,152.635 102.44,153.01 102.065,153.143 L 101.844,153.143 C 101.756,152.613 102.374,151.995 102.903,152.083 z "
   id="path231"
   style="fill:#004785" />
	<polygon
   points="102.484,153.562 102.683,153.363 102.683,153.782 102.484,153.562 "
   id="polygon233"
   style="fill:#004785" />
	<path
   d="M 102.903,154.841 L 102.682,154.841 L 103.123,154.002 C 103.521,154.223 103.058,154.598 102.903,154.841 z "
   id="path235"
   style="fill:#004785" />
	<path
   d="M 103.962,154.841 C 104.095,155.238 103.764,155.437 103.543,155.68 L 103.323,155.68 C 103.124,155.238 103.653,154.885 103.962,154.841 z "
   id="path237"
   style="fill:#004785" />
	<path
   d="M 104.602,155.9 C 104.668,156.098 104.492,156.209 104.382,156.319 L 104.183,156.319 C 104.095,156.099 104.359,155.812 104.602,155.9 z "
   id="path239"
   style="fill:#004785" />
	<path
   d="M 179.157,157.18 L 178.937,157.18 C 178.804,156.651 179.135,156.232 179.577,156.121 C 179.644,156.54 179.533,156.915 179.157,157.18 z "
   id="path241"
   style="fill:#004785" />
	<path
   d="M 106.5,159.077 C 106.345,159.606 106.698,160.005 107.14,160.137 C 107.03,160.269 106.853,160.358 106.919,160.556 C 107.051,160.666 107.162,160.843 107.36,160.777 L 107.559,160.556 C 107.647,161.173 108.177,161.593 108.618,162.035 C 109.523,161.152 109.523,162.83 110.096,162.895 C 110.03,163.248 109.324,163.601 109.898,163.955 C 110.096,163.801 110.229,163.448 110.538,163.535 C 110.913,164.286 109.744,164.661 110.317,165.213 L 110.957,164.595 C 111.553,165.301 110.317,166.051 110.736,166.713 C 111.287,166.426 111.199,165.698 111.795,165.654 C 112.126,166.206 111.155,166.492 111.795,166.911 C 112.016,166.779 112.126,166.404 112.435,166.492 C 112.303,167.286 112.17,168.081 111.376,168.61 L 110.957,168.61 C 110.891,168.323 111.133,167.904 110.736,167.772 L 110.317,167.772 C 110.008,167.286 110.957,167.065 110.317,166.712 C 110.185,166.977 109.92,166.91 109.677,166.91 C 109.413,166.447 110.339,165.366 109.037,165.432 C 109.258,164.858 110.096,164.306 109.677,163.733 L 108.839,164.373 C 107.957,164.196 108.442,162.519 107.14,162.894 C 107.206,162.696 107.052,162.585 106.919,162.475 L 105.86,163.092 C 105.749,162.696 105.33,162.033 104.8,161.614 L 104.381,161.614 C 104.315,161.327 104.557,160.929 104.182,160.775 L 103.741,160.775 C 104.116,159.671 104.579,158.613 105.66,157.796 C 106.345,158.327 105.087,159.431 106.5,159.077 z "
   id="path243"
   style="fill:#004785" />
	<rect
   x="102.263"
   y="157.908"
   width="0.33199999"
   height="0.33000001"
   id="rect245"
   style="fill:#004785;stroke:#fee4cd;stroke-width:0.60000002" />
	<path
   d="M 154.655,160.831 C 154.317,160.831 154.862,161.749 154.325,161.935 C 154.434,162.542 153.983,163.667 152.68,163.535 C 152.768,163.822 153.221,164.374 153.486,164.595 C 153.199,164.661 152.417,164.198 152.261,164.595 C 153.1,165.168 151.897,165.742 152.647,166.294 L 152.426,166.492 C 152.316,166.382 151.82,166.138 151.621,166.206 C 151.246,166.448 151.521,166.911 151.588,167.352 C 151.191,167.22 150.606,167.462 150.342,167.683 C 150.276,167.881 150.838,168.08 150.947,168.19 C 150.66,168.256 149.855,167.926 149.722,168.323 L 150.109,169.052 C 149.624,169.361 149.017,168.323 148.664,168.964 C 148.531,169.36 149.227,169.648 149.47,169.891 C 149.073,169.758 148.488,170 148.223,170.221 L 148.609,170.95 C 148.058,170.884 147.01,170.31 146.546,170.64 C 146.611,170.927 146.756,171.435 147.131,171.59 C 146.579,171.523 145.619,170.729 145.045,171.28 C 145.067,171.522 145.387,171.876 145.652,172.008 C 145.298,172.074 144.427,171.743 144.207,172.141 C 144.194,172.514 144.156,172.85 145.873,173.707 C 145.443,174.623 144.317,172.648 144.009,173.465 L 144.373,174.127 C 144.152,174.127 143.501,173.95 143.369,173.686 C 142.839,173.928 143.203,174.856 143.534,175.186 C 143.137,175.053 142.553,175.165 142.309,175.384 L 142.309,175.605 L 141.249,175.384 C 142.132,174.766 141.999,173.156 143.147,172.626 C 143.147,171.986 143.852,171.59 143.368,170.949 L 143.985,170.949 C 145.376,170.264 145.376,168.102 147.163,167.97 C 146.192,166.779 148.365,167.451 147.759,166.569 L 148.807,165.963 C 148.255,165.411 149.77,162.619 150.572,163.094 C 150.517,162.598 150.756,161.576 151.455,161.715 C 152.007,161.826 152.473,161.373 152.447,160.998 C 152.392,160.171 152.875,160.281 153.11,160.281 C 153.771,160.281 153.548,159.573 153.937,159.509 C 154.599,159.399 154.93,159.069 155.261,158.02 L 155.437,159.079 C 155.128,158.991 155.018,159.366 154.797,159.499 C 155.296,160.035 155.593,160.831 154.655,160.831 z "
   id="path247"
   style="fill:#fee4cd;stroke:#fee4cd;stroke-width:0.60000002" />
	<rect
   x="110.736"
   y="158.769"
   width="0.331"
   height="0.30899999"
   id="rect249"
   style="fill:#004785" />
	<rect
   x="101.425"
   y="158.968"
   width="0.30899999"
   height="0.33000001"
   id="rect251"
   style="fill:#004785" />
	<polygon
   points="128.962,160.776 128.741,160.556 128.962,160.556 128.962,160.776 "
   id="polygon253"
   style="fill:#004785" />
	<polygon
   points="130.021,161.836 129.601,161.615 130.021,161.615 130.021,161.836 "
   id="polygon255"
   style="fill:#004785" />
	<rect
   x="102.903"
   y="161.726"
   width="0.30899999"
   height="0.30899999"
   id="rect257"
   style="fill:#004785" />
	<rect
   x="131.918"
   y="162.895"
   width="0.63999999"
   height="0.198"
   id="rect259"
   style="fill:#004785" />
	<rect
   x="130.85899"
   y="164.483"
   width="0.331"
   height="0.30899999"
   id="rect261"
   style="fill:#004785" />
	<path
   d="M 110.096,165.433 C 109.589,165.874 110.273,165.454 110.096,165.212 L 110.096,165.433 z "
   id="path263"
   style="fill:#004785;stroke:#fee4cd;stroke-width:0.60000002" />
	<rect
   x="126.623"
   y="164.903"
   width="0.331"
   height="0.30899999"
   id="rect265"
   style="fill:#004785" />
	<polygon
   points="114.134,165.852 114.289,165.697 114.487,165.918 114.333,166.072 114.134,165.852 "
   id="polygon267"
   style="fill:#004785" />
	<rect
   x="142.509"
   y="165.741"
   width="0.331"
   height="0.331"
   id="rect269"
   style="fill:#004785" />
	<rect
   x="110.538"
   y="166.381"
   width="0.30899999"
   height="0.331"
   id="rect271"
   style="fill:#004785;stroke:#fee4cd;stroke-width:0.60000002" />
	<rect
   x="111.597"
   y="166.60201"
   width="0.30899999"
   height="0.30899999"
   id="rect273"
   style="fill:#004785;stroke:#fee4cd;stroke-width:0.60000002" />
	<rect
   x="95.268997"
   y="168.08"
   width="0.331"
   height="0.30899999"
   id="rect275"
   style="fill:#004785" />
	<rect
   x="126.623"
   y="168.30099"
   width="0.331"
   height="0.30899999"
   id="rect277"
   style="fill:#004785" />
	<rect
   x="125.365"
   y="168.72"
   width="0.30899999"
   height="0.30899999"
   id="rect279"
   style="fill:#004785" />
	<rect
   x="126.623"
   y="170.838"
   width="0.331"
   height="0.30899999"
   id="rect281"
   style="fill:#004785" />
	<rect
   x="125.144"
   y="173.37601"
   width="0.31"
   height="0.30899999"
   id="rect283"
   style="fill:#004785" />
	<rect
   x="124.306"
   y="173.59599"
   width="0.30899999"
   height="0.31"
   id="rect285"
   style="fill:#004785" />
	<path
   d="M 142.509,177.082 C 141.196,176.994 141.086,177.27 141.251,177.987 C 141.119,177.877 140.81,177.656 140.612,177.721 L 140.809,176.442 C 141.517,176.331 142.09,176.553 142.509,177.082 z "
   id="path287"
   style="fill:#004785;stroke:#fee4cd;stroke-width:0.60000002" />
	<rect
   x="124.085"
   y="177.192"
   width="0.30899999"
   height="0.30899999"
   id="rect289"
   style="fill:#004785" />
	<polygon
   points="123.445,178.362 123.247,177.921 123.445,177.921 123.445,178.362 "
   id="polygon291"
   style="fill:#004785" />
	<rect
   x="122.607"
   y="178.03"
   width="0.30899999"
   height="0.33199999"
   id="rect293"
   style="fill:#004785" />
	<path
   d="M 122.805,189.151 L 122.805,189.372 L 122.386,188.953 C 122.585,188.887 122.695,189.042 122.805,189.151 z "
   id="path295"
   style="fill:#004785" />
	<path
   d="M 122.607,190.431 L 122.607,190.851 C 122.011,191.093 121.901,190.41 121.967,190.013 C 122.276,189.924 122.386,190.276 122.607,190.431 z "
   id="path297"
   style="fill:#004785" />
	<path
   d="M 121.967,191.491 L 121.746,191.688 C 121.216,191.733 121.327,191.137 121.128,190.85 C 121.68,190.585 121.702,191.248 121.967,191.491 z "
   id="path299"
   style="fill:#004785" />
	<path
   d="M 121.327,192.329 C 120.886,192.99 120.555,192.087 120.687,191.688 L 121.327,192.329 z "
   id="path301"
   style="fill:#004785" />
	<path
   d="M 117.422,193.543 L 117.51,192.748 C 117.995,193.168 118.326,193.653 118.37,194.249 C 118.127,194.227 117.863,194.293 117.73,194.028 C 117.51,194.16 117.399,194.535 117.09,194.447 L 116.892,194.249 L 116.451,194.866 L 116.252,194.668 L 116.892,194.249 C 116.649,193.785 116.319,193.366 116.451,192.748 C 116.76,192.683 116.429,192.163 117.422,193.543 z "
   id="path303"
   style="fill:#004785" />
	<path
   d="M 119.209,193.808 C 118.701,193.873 118.79,193.3 118.79,192.969 C 118.922,193.058 119.385,193.41 119.209,193.808 z "
   id="path305"
   style="fill:#004785" />
	<path
   d="M 114.134,194.249 L 114.134,194.447 L 113.715,194.028 C 113.914,193.962 114.002,194.116 114.134,194.249 z "
   id="path307"
   style="fill:#004785" />
	<rect
   x="111.487"
   y="172.658"
   width="0.30899999"
   height="0.31"
   id="rect309"
   style="fill:#004785" />
	<polygon
   points="110.791,172.283 110.593,171.842 110.791,171.842 110.791,172.283 "
   id="polygon311"
   style="fill:#004785" />
	<polygon
   points="110.008,173.827 110.582,173.464 110.317,173.497 110.008,173.497 110.008,173.827 "
   id="polygon313"
   style="fill:#004785" />
	<polygon
   points="141.362,139.153 141.362,138.955 141.583,138.955 141.362,139.153 "
   id="polygon315"
   style="fill:#004785" />
	<path
   d="M 145.224,95.962 C 144.01,95.024 140.701,89.729 140.976,90.722 C 141.251,91.715 149.305,105.781 149.801,105.229 C 151.653,103.173 146.216,91.163 146.216,91.163 C 144.187,85.802 140.489,79.35 135.095,73.931 C 133.942,73.098 131.896,74.681 130.439,75.409 C 130.263,75.961 130.936,76.546 131.046,76.932 L 131.498,76.247 C 131.818,76.325 132.402,77.307 132.557,77.946 C 132.314,78.189 132.369,78.641 131.542,77.869 L 134.896,84.72 C 135.568,84.047 133.749,82.061 132.977,80.064 C 133.308,78.586 133.804,80.627 134.19,81.233 C 134.962,82.446 135.139,84.212 136.793,84.521 C 137.389,83.33 135.238,81.564 136.153,81.123 C 137.396,82.707 137.4,83.641 138.492,84.94 C 138.691,84.432 137.698,83.671 138.271,83.274"
   id="path317"
   style="fill:#ffffff" />
	<path
   stroke-miterlimit="2"
   d="M 145.168,93.039 C 145.168,93.039 148.893,100.405 148.698,100.21"
   id="path319"
   style="fill:#004785;stroke:#004684;stroke-width:0.88209999;stroke-linecap:round;stroke-miterlimit:2" />
	<path
   stroke-miterlimit="2"
   d="M 145.94,96.79 C 145.94,96.79 149.169,103.218 148.973,103.023"
   id="path321"
   style="fill:#004785;stroke:#004684;stroke-width:0.8822;stroke-linecap:round;stroke-miterlimit:2" />
	<path
   stroke-miterlimit="2"
   d="M 142.189,85.04 C 142.189,85.04 146.823,93.48 146.932,93.59"
   id="path323"
   style="fill:#004785;stroke:#004785;stroke-width:0.88209999;stroke-linecap:round;stroke-miterlimit:2" />
	<polygon
   points="167.133,145.563 167.354,145.541 167.431,147.427 167.232,147.427 167.133,145.563 "
   id="polygon325"
   style="fill:#004785" />
	<polygon
   points="165.147,142.97 165.368,142.948 165.566,147.405 165.368,147.405 165.147,142.97 "
   id="polygon327"
   style="fill:#004785" />
	<rect
   x="145.112"
   y="95.344002"
   width="0.30899999"
   height="0.30899999"
   id="rect329"
   style="fill:#004785" />
	<path
   d="M 136.011,80.352 C 135.813,80.418 135.702,80.264 135.592,80.131 L 135.79,79.514 C 136.188,79.645 135.944,80.064 136.011,80.352 z "
   id="path331"
   style="fill:#004785" />
	<path
   d="M 134.466,75.938 C 134.268,76.004 134.157,75.85 134.047,75.717 L 134.245,75.099 C 134.643,75.233 134.4,75.651 134.466,75.938 z "
   id="path333"
   style="fill:#004785" />
	<path
   stroke-miterlimit="2"
   d="M 132.812,74.891 C 132.812,74.891 134.22,77.623 134.025,77.429"
   id="path335"
   style="fill:#004785;stroke:#004684;stroke-width:0.88209999;stroke-linecap:round;stroke-miterlimit:2" />
	<path
   d="M 135.019,81.344 C 134.82,81.41 134.709,81.256 134.599,81.123 L 134.798,80.505 C 135.194,80.638 134.952,81.058 135.019,81.344 z "
   id="path337"
   style="fill:#004785" />
	<path
   d="M 142.465,87.908 C 142.267,87.974 142.155,87.82 142.046,87.687 L 142.244,87.069 C 142.642,87.203 142.399,87.622 142.465,87.908 z "
   id="path339"
   style="fill:#004785" />
	<path
   d="M 140.667,84.433 C 140.468,84.499 140.358,84.345 140.247,84.213 L 140.446,83.595 C 140.976,83.386 141.086,84.323 140.667,84.433 z "
   id="path341"
   style="fill:#004785" />
	<path
   d="M 136.563,79.469 C 136.365,79.535 136.254,79.381 136.144,79.249 L 136.342,78.631 C 136.872,78.421 136.981,79.359 136.563,79.469 z "
   id="path343"
   style="fill:#004785" />
	<path
   d="M 139.552,81.344 C 139.023,81.234 138.802,80.616 138.913,80.064 C 139.442,80.175 139.663,80.793 139.552,81.344 z "
   id="path345"
   style="fill:#004785" />
	<path
   d="M 135.019,78.09 C 134.82,78.156 134.709,78.002 134.599,77.869 L 134.798,77.251 C 135.194,77.384 134.952,77.803 135.019,78.09 z "
   id="path347"
   style="fill:#004785" />
	<path
   stroke-miterlimit="2"
   d="M 139.288,83.842 C 139.288,83.842 140.696,86.574 140.501,86.38"
   id="path349"
   style="fill:#004785;stroke:#004684;stroke-width:0.88209999;stroke-linecap:round;stroke-miterlimit:2" />
</g>
</svg>