<svg xmlns="http://www.w3.org/2000/svg" xmlns:xlink="http://www.w3.org/1999/xlink" version="1.1" id="Layer_1" x="0px" y="0px" width="100px" height="100px" viewBox="0 0 100 100" enable-background="new 0 0 100 100" xml:space="preserve">
<g>
	<path d="M49.759,70.064c-17.928,0-32.462-6.708-32.462-14.981c0,8.114,4.296,15.39,11.09,20.348l-2.389,24.428h4.865l5.868-20.003   c2.766,1.012,5.733,1.708,8.838,2.042l1.756,17.961h4.865l1.756-17.961c3.105-0.334,6.072-1.03,8.838-2.042l5.868,20.003h4.865   L71.13,75.431c6.794-4.958,11.091-12.233,11.091-20.348C82.221,63.356,67.687,70.064,49.759,70.064z"/>
	<path d="M17.297,50.088c0,8.274,14.534,14.981,32.462,14.981c17.928,0,32.462-6.707,32.462-14.981   c0-6.238-8.262-11.584-20.009-13.839c9.738-7.8,14.761-16.816,11.663-22.439c-3.181-5.773-15.954-9.825-28.957-6.874L42.281,2.15   c-1.108-2.01-3.637-2.74-5.647-1.634l-10.961,6.04c-2.012,1.106-2.743,3.634-1.637,5.646l2.636,4.785   c-9.443,9.416-12.844,22.378-9.663,28.151c0.31,0.562,0.699,1.068,1.147,1.53C17.601,47.767,17.297,48.911,17.297,50.088z    M24.979,49.688c0.75,0.106,1.54,0.171,2.36,0.2v5.098c-1.526-1.484-2.382-3.145-2.382-4.897   C24.958,49.954,24.97,49.821,24.979,49.688z M30.567,49.819c1.539-0.115,3.16-0.343,4.842-0.681v10.282   c-1.808-0.593-3.439-1.293-4.842-2.084V49.819z M38.636,48.371c1.58-0.43,3.198-0.949,4.842-1.556v14.348   c-1.692-0.204-3.311-0.49-4.842-0.845V48.371z M46.706,61.444v-15.92c1.977-0.854,3.974-1.83,5.967-2.928   c0.047-0.026,0.092-0.053,0.139-0.079v18.927c-1.001,0.058-2.019,0.09-3.053,0.09C48.724,61.534,47.707,61.502,46.706,61.444z    M68.949,57.338c-1.403,0.79-3.033,1.489-4.841,2.083V40.755c1.808,0.593,3.438,1.293,4.841,2.083V57.338z M72.178,54.985v-9.794   c1.525,1.485,2.382,3.145,2.382,4.897S73.703,53.5,72.178,54.985z M60.881,39.858v20.46c-1.531,0.354-3.149,0.641-4.842,0.845   V40.614c0.688-0.431,1.364-0.868,2.023-1.313C59.031,39.46,59.972,39.647,60.881,39.858z M27.438,9.762l10.963-6.038   c0.239-0.132,0.539-0.045,0.671,0.193l2.21,4.016c-2.103,0.7-4.19,1.588-6.217,2.706c-2.027,1.118-3.892,2.406-5.608,3.811   l-2.212-4.021C27.114,10.192,27.202,9.895,27.438,9.762z"/>
</g>
</svg>