<svg xmlns="http://www.w3.org/2000/svg" xmlns:xlink="http://www.w3.org/1999/xlink" version="1.1" id="Layer_1" x="0px" y="0px" width="100px" height="100px" viewBox="0 0 100 100" enable-background="new 0 0 100 100" xml:space="preserve">
<g>
	<g>
		<g>
			<path d="M18.166,5.745l29.79,20.385v69.58c-10.468-15.047-29.79-21.16-29.79-21.16V5.745z"/>
			<path d="M21.335,91.309c0,0-8.674-4.383-20.286-2.572V20.375h2.84v64.935C3.889,85.311,16.393,85.156,21.335,91.309z"/>
			<path d="M33.061,89.082L33.061,89.082c-4.537-6.451-18.816-11.469-18.816-11.469V13.452l-5.932-2.32v69.835     c0,0,6.098,0.752,9.144,1.611C27.976,85.551,33.061,89.082,33.061,89.082z"/>
		</g>
	</g>
	<g>
		<g>
			<path d="M81.668,5.745l-29.79,20.385v69.58c10.468-15.047,29.79-21.16,29.79-21.16V5.745z"/>
			<path d="M78.499,91.309c0,0,8.675-4.383,20.286-2.572V20.375h-2.84v64.935C95.945,85.311,83.441,85.156,78.499,91.309z"/>
			<path d="M66.773,89.082L66.773,89.082c4.537-6.451,18.816-11.469,18.816-11.469V13.452l5.932-2.32v69.835     c0,0-6.098,0.752-9.144,1.611C71.857,85.551,66.773,89.082,66.773,89.082z"/>
		</g>
	</g>
</g>
</svg>