<svg xmlns="http://www.w3.org/2000/svg" xmlns:xlink="http://www.w3.org/1999/xlink" version="1.1" id="Your_Icon" x="0px" y="0px" width="100px" height="100px" viewBox="0 0 100 100" enable-background="new 0 0 100 100" xml:space="preserve">
<g>
	<g>
		<path d="M65.205,14.489c1.328-0.298,2.703-0.176,4.049-0.07c5.307,0.55,10.586,1.341,15.832,2.294    c1.811,0.37,3.637,0.696,5.398,1.265c1.358,0.475,2.377,1.684,2.795,3.042c0.475,1.794,0.483,3.951-0.807,5.424    c-1.692,1.027-3.67,1.455-5.418,2.358c3.129,1.077,6.262,2.164,9.283,3.52c0.673,0.303,1.408,0.647,1.787,1.319    c-1.312,0.472-2.699,0.665-4.07,0.873c-0.486,1.462-0.584,3.07-0.086,4.541c1.365,0.334,2.738,0.711,4.011,1.323    c0.529,0.242,0.966,0.65,1.173,1.198c-2.267,1.107-4.836,1.178-7.258,1.725c-0.146,0.04-0.281,0.106-0.412,0.178    c-1.669,1.025-3.617,1.45-5.352,2.334c3.172,1.205,6.418,2.238,9.496,3.68c0.573,0.286,1.116,0.655,1.557,1.126    c-1.327,0.537-2.756,0.723-4.154,0.972c-0.305,1.252-0.598,2.576-0.225,3.851c-0.051,0.45,0.32,0.695,0.689,0.777    c1.188,0.316,2.381,0.651,3.487,1.196c0.502,0.271,1.04,0.611,1.147,1.229c-0.368,0.188-0.747,0.354-1.139,0.489    c0.615,0.288,1.272,0.551,1.734,1.071c-1.229,0.755-2.736,0.76-4.049,1.262c-0.381,0.835-0.271,1.823-0.287,2.716    c0.1,0.562,0.139,1.201,0.498,1.67c0.457,0.247,1.004,0.247,1.5,0.389c1.104,0.265,2.223,0.569,3.201,1.169    c0.268,0.164,0.473,0.481,0.396,0.806c-0.616,0.546-1.496,0.641-2.243,0.908c-4.874,1.253-9.835,2.133-14.788,3.01    c-3.53,0.597-7.061,1.198-10.607,1.684c-0.639,0.075-1.314,0.174-1.938-0.036c-2.255-0.793-4.516-1.564-6.802-2.257    c-0.472-0.129-0.944,0.14-1.415,0.125c-0.673-0.227-1.004-0.98-1.709-1.157c-1.863-0.668-3.752-1.257-5.625-1.897    c-0.613-0.182-1.094,0.547-1.734,0.391c-0.772-0.196-1-1.179-1.721-1.488c-1.544-0.677-3.203-1.054-4.736-1.758    c-0.661-0.26-0.959-0.964-1.26-1.553c-0.72-2.002-0.519-4.441,0.885-6.104c1.003-1.116,2.522-1.408,3.886-1.857    c-0.148-0.293-0.289-0.639-0.624-0.758c-1.47-0.625-2.993-1.131-4.427-1.838c-1.439-0.648-1.591-2.407-1.725-3.78    c-1.887-0.34-3.811-0.647-5.586-1.397c0.179-0.822,1.002-1.196,1.701-1.513c1.142-0.467,2.345-0.757,3.534-1.076    c0.301-1.267,0.422-2.614,0.114-3.888c-0.067-0.243-0.155-0.556-0.443-0.607c-1.295-0.305-2.64-0.443-3.877-0.959    c0.522-0.737,1.422-1.042,2.202-1.421c1.812-0.765,3.648-1.471,5.508-2.112c-0.577-0.358-1.257-0.688-1.547-1.343    c-0.484-0.809-0.482-1.782-0.564-2.692c-1.906-0.43-3.943-0.562-5.668-1.56c0.291-0.391,0.568-0.826,1.02-1.045    c1.294-0.731,2.802-0.95,4.175-1.461c0.477-1.128,0.485-2.469,0.211-3.66c-0.11-0.209-0.048-0.692-0.376-0.757    c-1.268-0.299-2.57-0.469-3.805-0.899c-0.001-0.141-0.002-0.281-0.002-0.422c0.923-0.578,1.891-1.083,2.916-1.458    c5.949-2.376,12.085-4.254,18.235-6.03C62.492,15.167,63.844,14.812,65.205,14.489z M86.287,20.419    c0.354,0.632,0.721,1.266,0.938,1.964c0.618,1.712,0.413,3.572,0.176,5.336c1.369-0.525,2.744-1.043,4.088-1.631    c0.715-0.335,1.038-1.13,1.149-1.867c0.151-1.303,0.157-2.735-0.567-3.882c-0.377-0.731-1.076-1.189-1.748-1.616    C88.99,19.323,87.648,19.896,86.287,20.419z M84.096,21.03c0.436,0.966,1.176,1.775,1.477,2.807    c0.531,1.352,0.014,2.781-0.352,4.105c-0.195,0.498-0.15,1.037-0.059,1.551c0.312-0.12,0.695-0.204,0.867-0.527    c0.855-1.56,0.838-3.414,0.672-5.134c-0.174-1.39-0.754-2.881-2.029-3.605C84.03,19.918,83.947,20.659,84.096,21.03z M77.379,23.5    c0.355,0.688,0.755,1.364,0.992,2.106c0.557,1.78,0.361,3.68,0.057,5.488c1.03-0.291,2.012-0.726,3.014-1.097    c0.896-0.337,1.801-0.652,2.678-1.037c0.186-1.203,0.713-2.328,0.85-3.54c0.088-1.51-0.881-2.732-1.648-3.93    C81.344,22.175,79.395,22.94,77.379,23.5z M75.266,23.156c-0.055,0.411-0.188,0.869,0.031,1.253    c0.297,0.524,0.665,1.005,0.957,1.534c0.644,1.133,0.781,2.517,0.405,3.764c-0.163,0.935-0.767,1.864-0.446,2.826    c0.629-0.081,1.015-0.584,1.193-1.147c0.679-1.863,0.623-3.949,0.068-5.838C77.16,24.463,76.399,23.454,75.266,23.156z     M44.888,24.487c0.167,0.821,0.294,1.65,0.356,2.487c3.545,0.596,7.082,1.244,10.618,1.887c-3.587-0.256-7.163-0.683-10.744-1.011    c-0.252,1.202-0.844,2.274-1.524,3.281c2.349,0.619,4.759,0.943,7.165,1.253c6.095,0.755,12.218,1.243,18.323,1.885    c0.504-1.105,0.908-2.29,0.82-3.523c0.015-1.698-1.086-3.196-2.442-4.114C59.902,26.436,52.375,25.527,44.888,24.487z     M68.43,26.302c0.797,0.778,1.612,1.605,1.977,2.684c0.663,1.729,0.27,3.659-0.416,5.318c1.762-0.658,3.536-1.283,5.28-1.986    c-0.007-1.671,1.076-3.216,0.654-4.902c-0.204-1.109-0.987-1.97-1.562-2.899C72.393,25.137,70.418,25.745,68.43,26.302z     M45.221,33.005c0.175,0.999,0.177,2.217,1.156,2.816c1.343,0.649,2.751,1.15,4.131,1.714c-0.163-1.226-0.2-2.46-0.098-3.693    C48.696,33.481,46.957,33.24,45.221,33.005z M51.205,33.944c-0.084,1.165-0.027,2.344,0.227,3.487    c0.125,0.73,0.471,1.412,1.009,1.921c0.165-0.098,0.332-0.194,0.5-0.29c-0.03-0.856-0.28-1.672-0.547-2.479    c-0.257-0.813-0.177-1.668-0.12-2.504C51.92,34.029,51.557,33.979,51.205,33.944z M53.092,34.173    c-0.188,1.581,0.373,3.098,0.771,4.6c0.151,0.138,0.349,0.208,0.534,0.292c1.714,0.673,3.438,1.32,5.145,2.01    c-0.435-1.99-0.408-4.098,0.213-6.045C57.527,34.783,55.312,34.464,53.092,34.173z M70.57,36.656    c-1.621,0.86-2.697,2.759-2.533,4.609c0.016,1.018,0.366,1.99,0.732,2.927c5.92-0.458,11.841-0.962,17.743-1.629    c2.634-0.326,5.294-0.566,7.862-1.267c-0.735-0.953-1.293-2.042-1.508-3.234c-3.574,0.27-7.139,0.707-10.719,0.885    c3.533-0.662,7.088-1.204,10.625-1.843c0.07-0.805,0.178-1.605,0.307-2.402C85.613,35.7,78.102,36.496,70.57,36.656z     M60.613,35.197c-0.753,1.975-0.701,4.226-0.043,6.221c0.141,0.369,0.317,0.801,0.71,0.962c0.372,0.159,0.609-0.369,0.561-0.675    c-0.219-1.073-0.683-2.099-0.741-3.205c-0.094-1.122,0.393-2.179,0.857-3.17C61.512,35.272,61.062,35.226,60.613,35.197z     M62.916,35.436c-0.52,0.85-1,1.778-0.997,2.802c0.06,1.398,0.755,2.667,0.843,4.063c1.715,0.674,3.434,1.336,5.16,1.982    c-0.525-1.316-0.913-2.75-0.658-4.175c0.171-1.537,1.137-2.866,2.314-3.817c-0.711-0.211-1.439-0.395-2.186-0.428    C65.896,35.766,64.41,35.571,62.916,35.436z M43.887,41.553c0.187,0.792,0.29,1.603,0.321,2.417    c3.631,0.695,7.281,1.296,10.917,1.973c-3.676-0.298-7.34-0.732-11.015-1.033c-0.196,1.204-0.818,2.256-1.517,3.23    c3.034,0.865,6.193,1.142,9.311,1.535c5.397,0.599,10.805,1.101,16.211,1.613c0.346-0.887,0.717-1.784,0.817-2.74    c0.049-1.096-0.12-2.249-0.755-3.17c-0.785-0.503-1.7-0.735-2.555-1.09c-0.815-0.294-1.605-0.75-2.499-0.727    C56.684,43.199,50.28,42.387,43.887,41.553z M86.756,44.078c-0.289,0.042-0.32,0.445-0.381,0.65    c0.855-0.251,1.684-0.591,2.506-0.938C88.169,43.859,87.452,43.915,86.756,44.078z M84.402,44.439    c-0.311,0.537-0.294,1.205-0.395,1.801c0.172,0.096,0.344,0.193,0.518,0.291c0.721-0.562,0.971-1.498,1.134-2.357    C85.247,44.267,84.777,44.247,84.402,44.439z M77.789,45.15c-0.121,1.009-0.178,2.026-0.378,3.025    c1.663-0.572,3.288-1.253,4.946-1.839c0.275-0.119,0.597-0.193,0.801-0.428c0.108-0.467,0.207-0.936,0.299-1.404    C81.568,44.724,79.684,44.987,77.789,45.15z M75.934,45.36c-0.204,1.354-0.658,2.651-0.902,3.997    c0.319,0.074,0.739,0.236,0.951-0.124c0.797-1.136,0.893-2.617,0.92-3.962C76.584,45.308,76.248,45.328,75.934,45.36z M69.37,45.8    c0.192,0.857,0.507,1.721,0.37,2.611c-0.075,0.995-0.361,1.952-0.685,2.891c1.745-0.578,3.452-1.271,5.177-1.913    c0.066-1.351,0.658-2.596,0.82-3.931C73.168,45.688,71.272,45.926,69.37,45.8z M44.244,50.011    c0.125,0.986,0.149,2.184,1.074,2.801c1.372,0.702,2.84,1.193,4.263,1.784c-0.21-1.236-0.233-2.495-0.156-3.745    C47.702,50.547,45.97,50.298,44.244,50.011z M50.255,50.945c-0.074,1.29-0.098,2.615,0.265,3.869    c0.163,0.679,0.476,1.502,1.296,1.573c0.274-1.1-0.295-2.146-0.482-3.209c-0.087-0.699-0.094-1.404-0.12-2.105    C50.89,51.027,50.576,50.988,50.255,50.945z M52.121,51.242c-0.203,1.6,0.371,3.127,0.766,4.647    c1.879,0.739,3.75,1.497,5.647,2.185c-0.423-1.971-0.351-4.03,0.202-5.969C56.535,51.784,54.329,51.496,52.121,51.242z     M86.11,52.488c-5.448,0.551-10.907,1.191-16.39,1.151c-0.75,0.259-1.277,0.933-1.773,1.516c-1.343,1.757-1.001,4.224-0.136,6.12    c5.782-0.547,11.577-0.954,17.347-1.629c2.745-0.35,5.527-0.561,8.203-1.305c-0.715-0.967-1.256-2.044-1.51-3.229    c-3.446,0.225-6.873,0.716-10.326,0.811c3.4-0.633,6.818-1.17,10.227-1.758c0.106-0.814,0.216-1.629,0.337-2.442    C90.105,52.048,88.106,52.265,86.11,52.488z M59.6,52.22c-0.326,1.109-0.618,2.255-0.512,3.422    c0.088,1.215,0.17,2.524,0.909,3.546c0.2,0.305,0.759,0.285,0.823-0.114c0.04-1.359-0.886-2.565-0.703-3.945    c-0.011-1.006,0.461-1.901,0.857-2.794C60.516,52.296,60.057,52.256,59.6,52.22z M61.898,52.508    c-0.401,0.766-0.859,1.533-0.965,2.41c-0.088,1.533,0.768,2.902,0.805,4.426c1.727,0.629,3.418,1.353,5.158,1.943    c-0.609-1.585-0.922-3.348-0.431-5.012c0.346-1.203,1.217-2.154,2.116-2.984C66.39,52.803,64.131,52.701,61.898,52.508z     M47.078,58.454c-1.438,1.528-1.555,3.905-0.757,5.767c0.237,0.521,0.725,0.872,1.263,1.038c1.253,0.451,2.514,0.886,3.771,1.323    c-0.539-2.455-0.484-5.148,0.844-7.351c-1.217-0.42-2.431-0.853-3.62-1.347C48.021,57.613,47.478,58.12,47.078,58.454z     M52.465,60.515c-0.786,1.836-0.748,3.931-0.254,5.838c0.263,0.752,0.529,1.785,1.473,1.917c0.229-0.669-0.016-1.365-0.246-1.999    c-0.443-1.117-0.705-2.352-0.415-3.543c0.201-1.038,0.894-1.878,1.338-2.812c0.101-0.34-0.01-0.701-0.042-1.044    C53.43,58.999,52.826,59.754,52.465,60.515z M53.76,63.152c-0.191,1.594,0.618,3.039,0.969,4.545    c1.938,0.626,3.859,1.295,5.797,1.923c-0.672-2.522-0.695-5.355,0.69-7.65c-2.019-0.555-4.017-1.178-6.022-1.778    C54.637,61.137,54.027,62.073,53.76,63.152z M61.988,62.424c-1.072,1.474-1.201,3.403-0.996,5.154    c0.156,1.156,0.373,2.396,1.219,3.268c0.287,0.062,0.668-0.078,0.688-0.413c-0.245-1.562-1.305-3.043-0.893-4.665    c0.121-1.188,0.877-2.139,1.414-3.158c0.199-0.37-0.043-0.76-0.18-1.104C62.795,61.768,62.278,61.975,61.988,62.424z     M79.838,63.829c-2.682,0.351-5.367,0.665-8.068,0.802c-0.582-0.1-0.947,0.403-1.321,0.737c-0.854,0.847-1.401,2.004-1.474,3.208    c-0.006,1.303,0.393,2.568,0.932,3.74c6.764-0.91,13.532-1.794,20.256-2.966c1.736-0.333,3.505-0.593,5.156-1.247    c-0.764-0.893-1.372-1.938-1.625-3.093c-3.51,0.355-6.982,1.041-10.496,1.352c3.424-0.816,6.869-1.546,10.307-2.309    c0.047-0.83,0.118-1.657,0.238-2.48C89.139,62.508,84.487,63.179,79.838,63.829z M64.285,62.837    c-0.627,1.037-1.41,2.074-1.482,3.329c-0.129,1.604,0.789,3.003,1.007,4.55c1.732,0.612,3.498,1.123,5.237,1.716    c-0.664-1.53-1.162-3.25-0.723-4.914c0.248-1.249,1.091-2.248,1.904-3.18C68.225,63.928,66.266,63.341,64.285,62.837z"/>
	</g>
	<g>
		<path d="M26.494,67.252c2.685-0.415,5.38,0.133,8.052,0.408c4.996,0.667,9.989,1.404,14.916,2.481    c1.351,0.35,2.862,0.581,3.854,1.665c1.614,1.758,1.927,4.565,0.882,6.686c-0.274,0.632-0.855,0.993-1.459,1.247    c-1.314,0.539-2.641,1.047-3.967,1.554c-0.833,0.271-0.928,1.435-1.778,1.678c-0.655,0.268-1.178-0.598-1.824-0.284    c-1.821,0.675-3.628,1.391-5.455,2.056c-0.639,0.205-0.902,0.91-1.484,1.209c-0.73,0.115-1.513-0.132-2.209,0.185    c-2.01,0.788-4.049,1.503-6.054,2.303c-0.598,0.236-1.261,0.228-1.894,0.197c-7.684-0.786-15.354-1.765-22.958-3.121    C3.391,85.162,1.623,84.896,0,84.184c0.18-0.822,1.003-1.196,1.701-1.512c1.142-0.467,2.345-0.757,3.533-1.076    c0.296-1.265,0.438-2.614,0.102-3.883c-0.082-0.231-0.147-0.558-0.431-0.613c-1.261-0.288-2.555-0.451-3.774-0.903    c0.003-0.086,0.01-0.259,0.013-0.347c0.88-0.531,1.781-1.038,2.743-1.41c4.875-1.976,9.896-3.559,14.926-5.086    C21.361,68.611,23.9,67.816,26.494,67.252z M51.047,71.705c-1.186,0.5-2.355,1.04-3.566,1.479c0.433,0.84,0.934,1.67,1.123,2.609    c0.41,1.526,0.198,3.116,0.051,4.665c1.359-0.5,2.71-1.023,4.041-1.598c0.62-0.26,0.873-0.941,1.075-1.532    c0.388-1.612,0.165-3.453-0.884-4.78C52.425,72.055,51.793,71.397,51.047,71.705z M45.219,73.562    c0.045,0.556,0.474,0.974,0.741,1.431c0.558,0.806,0.983,1.745,0.992,2.742c0.119,1.465-0.658,2.793-0.759,4.234    c0.173,0.096,0.346,0.192,0.52,0.292c0.941-0.768,1.109-2.085,1.278-3.209c0.087-1.606-0.06-3.299-0.821-4.742    c-0.389-0.543-0.821-1.26-1.55-1.343C45.31,72.963,45.219,73.312,45.219,73.562z M38.622,76.307    c0.28,0.58,0.621,1.134,0.828,1.745c0.685,1.874,0.512,3.93,0.147,5.854c1.711-0.591,3.384-1.288,5.092-1.894    c0.254-0.126,0.65-0.191,0.694-0.529c0.258-1.453,1.052-2.868,0.644-4.377c-0.2-1.073-0.947-1.916-1.485-2.828    C42.567,74.951,40.603,75.651,38.622,76.307z M36.383,76.867c0.469,1.094,1.346,1.984,1.599,3.18    c0.369,1.731-0.525,3.36-0.767,5.041c0.219,0.047,0.439,0.114,0.667,0.108c0.366-0.198,0.544-0.605,0.697-0.972    c0.541-1.409,0.551-2.964,0.416-4.446c-0.203-1.411-0.697-2.984-2.034-3.716C36.32,75.764,36.234,76.489,36.383,76.867z     M6.073,77.283c0.186,0.793,0.29,1.604,0.32,2.418c3.597,0.691,7.214,1.275,10.812,1.96c-3.642-0.282-7.27-0.722-10.91-1.021    c-0.196,1.203-0.818,2.256-1.517,3.23c3.028,0.867,6.181,1.135,9.294,1.544c5.4,0.573,10.807,1.104,16.214,1.602    c0.327-0.837,0.707-1.67,0.812-2.57c0.286-2.021-0.804-4.146-2.597-5.088c-3.161,0.023-6.316-0.277-9.463-0.553    C14.704,78.42,10.39,77.833,6.073,77.283z M29.643,79.035c0.891,0.949,1.871,1.949,2.121,3.277c0.468,1.574-0.02,3.22-0.522,4.72    c1.747-0.578,3.453-1.271,5.177-1.912c0.046-1.434,0.775-2.733,0.841-4.161c-0.046-1.41-0.974-2.517-1.672-3.664    C33.606,77.875,31.652,78.55,29.643,79.035z"/>
	</g>
</g>
</svg>