<svg xmlns="http://www.w3.org/2000/svg" xmlns:xlink="http://www.w3.org/1999/xlink" version="1.1" x="0px" y="0px" width="100px" height="100px" viewBox="0 0 100 100" enable-background="new 0 0 100 100" xml:space="preserve">
<g id="Captions">
</g>
<g id="Your_Icon">
	<g>
		<path d="M49.833,38.667C31.41,38.667,4,36.447,4,30.333C4,24.219,31.41,22,49.833,22c18.423,0,45.833,2.219,45.833,8.333    C95.667,36.447,68.257,38.667,49.833,38.667z M49.833,24C21.055,24,6,28.123,6,30.333c0,2.21,15.055,6.333,43.833,6.333    s43.833-4.123,43.833-6.333C93.667,28.123,78.612,24,49.833,24z"/>
	</g>
	<g>
		<path d="M74.39,69.765l-0.857-1.807C96.215,57.196,93.7,30.704,93.673,30.438l1.988-0.209    C95.691,30.509,98.338,58.403,74.39,69.765z"/>
	</g>
	<g>
		<path d="M50,74.55c-9.603,0-17.9-1.647-24.66-4.896l0.866-1.803C32.694,70.969,40.699,72.55,50,72.55    c9.192,0,17.109-1.545,23.532-4.592l0.857,1.807C67.697,72.939,59.491,74.55,50,74.55z"/>
	</g>
	<g>
		<path d="M50.148,79.347c-9.886,0-18.426-1.646-25.384-4.891l0.846-1.812c6.691,3.121,14.947,4.703,24.538,4.703    c9.479,0,17.645-1.547,24.27-4.597l0.836,1.816C68.365,77.738,59.918,79.347,50.148,79.347z"/>
	</g>
	<g>
		<path d="M25.34,69.654c-0.35-0.169-0.693-0.34-1.032-0.516C1.626,57.423,3.979,30.506,4.005,30.236l1.99,0.194    c-0.024,0.257-2.23,25.847,19.231,36.933c0.322,0.167,0.648,0.33,0.98,0.489L25.34,69.654z"/>
	</g>
	<g>
		<rect x="24.487" y="68.379" width="2" height="5.96"/>
	</g>
	<g>
		<rect x="73.304" y="68.379" width="2" height="5.96"/>
	</g>
	<g>
		<g>
			<path stroke="#000000" stroke-width="2" stroke-miterlimit="10" d="M25.487,73.55"/>
		</g>
	</g>
</g>
</svg>