<svg xmlns="http://www.w3.org/2000/svg" xmlns:xlink="http://www.w3.org/1999/xlink" version="1.1" x="0px" y="0px" width="100px" height="100px" viewBox="0 0 100 100" enable-background="new 0 0 100 100" xml:space="preserve">
<g id="Captions">
</g>
<g id="Your_Icon">
	<path d="M71.396,40.649c3.669,2.475,5.366,5.021,6.645,9.355c0.256,0.856,0.435,2.166,0.269,3.124   c-2.239-5.111-7.033-9.015-12.052-10.762c-5.567-1.938-11.598-1.256-15.741,0.316c-2.988,1.13-6.908,3.155-9.575,6.146   c4.866,1.093,8.296,2.536,11.381,7.212c0.744,1.135,0.64,1.854,1.004,2.644c-5.599-5.213-16.483-9.246-22.882-5.239   c-6.829,3.937-9.726,10.134-8.588,14.866c2.261,9.419,20.127,7.176,41.594,2.017c21.468-5.157,38.26-11.242,36.139-20.694   C97.895,42.056,82.17,36.772,71.396,40.649z"/>
	<g>
		<path d="M28.801,50.707c2.228-1.38,4.9-2.081,7.941-2.081c0.001,0,0.001,0,0.002,0c0.033,0,0.065,0,0.099,0l1.714-1.922    c3.41-3.824,8.249-6.032,10.826-7.007c2.166-0.822,4.614-1.366,7.082-1.59c-2.385-4.665-6.876-8.229-11.593-9.872    c-5.568-1.937-11.598-1.255-15.741,0.316c-2.988,1.13-6.911,3.156-9.575,6.148c4.866,1.092,8.295,2.535,11.382,7.212    c0.743,1.133,0.639,1.854,1.003,2.644c-5.598-5.215-16.483-9.247-22.882-5.24C2.23,43.25-0.667,49.447,0.471,54.181    c1.396,5.818,8.754,7.185,19.232,6.163C21.35,56.635,24.505,53.194,28.801,50.707z"/>
		<path d="M56.655,35.874c0.18,0.605,0.314,1.433,0.325,2.205c0.669-0.049,1.34-0.09,2.004-0.09c2.588,0,5.076,0.358,7.413,1.066    l3.917-1.409c2.435-0.877,5.13-1.347,8.004-1.451c-0.03-0.229-0.062-0.459-0.114-0.692c-1.695-7.576-17.419-12.862-28.194-8.984    C53.679,28.994,55.377,31.542,56.655,35.874z"/>
	</g>
</g>
</svg>