<svg xmlns="http://www.w3.org/2000/svg" xmlns:xlink="http://www.w3.org/1999/xlink" version="1.1" x="0px" y="0px" width="100px" height="100px" viewBox="0 0 100 100" enable-background="new 0 0 100 100" xml:space="preserve">
<g id="Captions">
</g>
<g id="Your_Icon">
	<path d="M100,29.167c0-15.954-12.808-28.914-28.703-29.162C71.142,0.002,70.986,0,70.832,0c-0.398,0-0.795,0.007-1.19,0.023   c-3.806,0.153-7.426,1.035-10.72,2.512c-0.164,0.081-0.331,0.155-0.5,0.231c-0.002,0-0.009,0.002-0.012,0.005   c-1.456,0.644-2.993,1.125-4.599,1.419c-1.236,0.229-2.51,0.349-3.811,0.349s-2.574-0.12-3.811-0.349   c-1.61-0.296-3.154-0.78-4.612-1.424c-0.028-0.014-0.056-0.025-0.084-0.037c-0.12-0.058-0.24-0.113-0.361-0.167   c-3.31-1.493-6.948-2.384-10.777-2.54C29.963,0.007,29.564,0,29.166,0c-0.155,0-0.311,0.002-0.465,0.004   C12.81,0.252,0,13.213,0,29.167v16.667h0.003c0,3.671,0.678,7.182,1.916,10.417C0.681,59.486,0,62.998,0,66.667   c0,0.003,0,0.006,0,0.009v24.991V100h8.333h83.333H100v-8.333v-25c0-3.669-0.679-7.181-1.917-10.417   C99.321,53.016,100,49.505,100,45.833V29.167z M70.833,8.333c10.081,0,18.489,7.16,20.417,16.671c0,0.001,0,0.002,0,0.003   c0,0,0,0,0-0.001c-5.26-5.16-12.466-8.34-20.417-8.34V8.333z M29.167,8.333v8.333c-7.95,0.001-15.158,3.184-20.417,8.343   c0,0,0,0,0,0c0-0.001,0-0.002,0-0.003C10.676,15.493,19.086,8.333,29.167,8.333z M91.666,87.076v4.591h-5.803H55.809H44.192H14.138   H8.334H8.333v-4.592c0,0,0.001,0,0.001,0.001V66.662c0-0.135,0.002-0.27,0.004-0.403c0.072-3.64,1.076-7.05,2.782-10.003   c-1.771-3.063-2.786-6.621-2.786-10.418C8.334,34.331,17.66,25,29.167,25c3.759,0,7.286,0.996,10.333,2.739   c0.049,0.03,0.097,0.058,0.146,0.085c0.011,0.006,0.021,0.012,0.032,0.018c-0.011-0.006-0.02-0.012-0.03-0.018   c1.998,1.146,4.202,1.972,6.545,2.403c1.22,0.227,2.477,0.347,3.759,0.35h0.097c1.283-0.002,2.54-0.123,3.763-0.35   c2.342-0.431,4.546-1.257,6.544-2.403c-0.004,0.002-0.007,0.004-0.011,0.006c0.003-0.002,0.007-0.004,0.011-0.006   c0.048-0.028,0.097-0.056,0.146-0.085C63.546,25.996,67.074,25,70.833,25c11.507,0,20.833,9.331,20.833,20.837   c0,3.797-1.016,7.356-2.787,10.422c0.885,1.529,1.581,3.183,2.056,4.926c0.44,1.621,0.692,3.32,0.728,5.073   c0.002,0.134,0.004,0.269,0.004,0.403V87.076z"/>
</g>
</svg>