<svg xmlns="http://www.w3.org/2000/svg" xmlns:xlink="http://www.w3.org/1999/xlink" version="1.1" x="0px" y="0px" width="100px" height="100px" viewBox="0 0 100 100" enable-background="new 0 0 100 100" xml:space="preserve">
<g id="Captions">
</g>
<g id="Broccoli">
	<path d="M20,20c0,0-5-4-10,0s-3,9-3,9s-7-0.25-7,10s9,9,10,9c0,0,2,8,10,5c0,0,11,1,9-6c0,0,10-2,7-9c0,0,7-6-2-11c0,0-2-5-8-3   C26,24,25,18,20,20z"/>
	<path d="M47.313,7.063C44.313,2.063,38,5,38,5c-8-5-11,4-11,4c-9-1-11,8.625-11,8.625s3.094,0.563,4.094,1.563   c0,0,5.406-1.719,6.281,4.063c0,0,4.313-1.219,5.5,0.469c0,0-0.375-8.781,6.406-7.531c0,0-2.125-6.875,5.344-6.906L47.313,7.063z"/>
	<path d="M37.708,39.583c4,1,6.042-3.583,6.042-3.583c5,8,11.125,2,11.125,2c8,6,12.063-3,12.063-3c10-5,3.031-10,3.031-10   c5-7-5.984-9-5.984-9c1-10-8.992-7-8.992-7c-5-4-10.996,1-10.996,1c-7,0-4.998,7-4.998,7c-7-1-6.498,7.031-6.498,7.031   s1.094,0.5,2.094,2.5c0,0,9.656,4.469,2.656,11.469L37.708,39.583z"/>
	<path d="M58.594,7.719C61.594-0.281,69,5.5,69,5.5c7-10,13,0.75,13,0.75c12-2,8,9.875,8,9.875c10,0,10,10.438,10,10.438   c1,7.5-4,12.469-4,12.469c1,10-10,5.984-10,5.984c0,9-11,4.992-11,4.992c-8,8-12-2.004-12-2.004c-10,3-13-6.892-13-6.892   s3.156,0.356,4.781-1.894c0,0,9.813,5.375,12.813-3.625c0,0,9.625-3.469,3.5-10.875c0,0,4.973-6.563-6.188-9.25   c0,0,0.906-6.813-5.156-7.655L58.594,7.719z"/>
	<path d="M18.75,54.188c0,0,16.75,18.813,16.75,45.813H70c0,0-4.462-35.254,5.066-48.75c0,0-4.004,4.375-7.941,2.423l-2.25,15.702   l-2.75-19.938c0,0-5,1.5-7.188-0.813l-2.188,9.758L50.563,45c0,0-1.063-2.063-1.938-3.875c0,0-3.824-1.445-4.75-3.125   l-2.813,19.938l-3-16.938c0,0-1.813,4.813-4.875,5.688l-1.25,18.875l-4.496-12.453C27.442,53.109,24.438,54.688,18.75,54.188z"/>
</g>
<g id="Mobile">
</g>
<g id="Exclamation">
</g>
<g id="News">
</g>
<g id="Video">
</g>
<g id="Rainbow">
</g>
<g id="Glassboard">
</g>
<g id="Lightbulb">
</g>
<g id="Network">
</g>
<g id="Money">
</g>
<g id="Layer_12">
</g>
</svg>