<svg xmlns="http://www.w3.org/2000/svg" xmlns:xlink="http://www.w3.org/1999/xlink" version="1.1" id="Layer_1" x="0px" y="0px" width="100px" height="100px" viewBox="0 0 100 100" enable-background="new 0 0 100 100" xml:space="preserve">
<g>
	<path fill="none" d="M49.965,82.977c-1.802,1.483-3.607,3.471-3.607,4.899c0,0.538,1.367,1.527,3.6,1.527   c2.235,0,3.601-0.989,3.601-1.527C53.56,86.394,51.764,84.426,49.965,82.977z"/>
	<path fill="none" d="M57.809,75.612l-1.291,2.089l-1.314,2.126l-5.225-6.68l-5.286,7.03l-1.337-2.161l-1.343-2.175   c-0.225,0.414-0.467,0.874-0.725,1.387c-1.049,2.078-1.559,3.873-1.559,5.481c0,5.475,4.78,10.277,10.23,10.277   s10.231-4.803,10.231-10.277c0-1.609-0.51-3.403-1.56-5.481C58.334,76.641,58.059,76.101,57.809,75.612z M49.958,91.013   c-2.553,0-4.711-1.252-4.711-2.734c0-2.464,3.052-5.318,4.365-6.433l0.346-0.291l0.348,0.288c1.313,1.086,4.362,3.886,4.362,6.436   C54.669,89.761,52.512,91.013,49.958,91.013z"/>
	<path d="M50.307,81.843l-0.348-0.288l-0.346,0.291c-1.313,1.114-4.365,3.969-4.365,6.433c0,1.482,2.158,2.734,4.711,2.734   s4.71-1.252,4.71-2.734C54.669,85.729,51.619,82.929,50.307,81.843z M49.958,89.104c-1.798,0-2.898-0.846-2.898-1.307   c0-1.22,1.453-2.917,2.905-4.187c1.447,1.238,2.892,2.921,2.892,4.187C52.857,88.258,51.758,89.104,49.958,89.104z"/>
	<path d="M14.461,32.545c2.491-4.417,5.766-8.395,9.619-11.718c3.852-3.326,8.278-5.997,13.023-7.865   c2.69-1.063,5.979-1.984,9.454-2.406l0.562,0.017c-3.343,0.7-6.591,1.761-9.652,3.176c-4.531,2.088-8.656,4.924-12.155,8.323   c-3.502,3.395-6.375,7.352-8.463,11.636c-2.059,4.218-3.348,8.531-3.82,13.113H93.91C91.334,26.158,74.575,9.903,53.679,8.111   c0.003-0.047,0.007-0.095,0.007-0.144c0-1.985-1.609-2.581-3.595-2.581s-3.595,0.596-3.595,2.581c0,0.036,0.005,0.072,0.005,0.108   C25.37,9.645,8.358,25.99,5.761,46.82h3.701C10.275,41.875,12,36.9,14.461,32.545z"/>
	<path d="M58.22,73.191l-3.085,4.481l-5.176-7.027l-5.221,7.318l-3.117-4.504c-0.462,0.813-1.127,2.18-2.058,3.893   c-0.938,1.724-1.496,3.779-1.496,5.884c0,6.182,5.71,11.193,11.892,11.193c6.181,0,11.892-5.012,11.892-11.193   c0-2.104-0.633-4.071-1.571-5.795C59.349,75.729,58.683,74.003,58.22,73.191z M49.958,92.987c-5.45,0-10.23-4.803-10.23-10.277   c0-1.608,0.51-3.403,1.559-5.481c0.258-0.513,0.5-0.973,0.725-1.387l1.343,2.175l1.337,2.161l5.286-7.03l5.225,6.68l1.314-2.126   l1.291-2.089c0.25,0.488,0.525,1.028,0.821,1.616c1.05,2.078,1.56,3.872,1.56,5.481C60.189,88.185,55.408,92.987,49.958,92.987z"/>
	<path d="M95.664,49.305h-1.509H5.516H4.326c-1.712,0-3.101,2.265-3.101,5.056c0,2.793,1.388,5.057,3.101,5.057h66.936   c0.886,0,1.605,0.73,1.605,1.621c0,3.865,3.127,7.009,6.97,7.009s7.317-3.049,7.317-6.913c0-0.891,0.372-1.71,1.257-1.71   c0.888,0,1.318,0.819,1.318,1.71c0,5.643-4.396,9.926-10.009,9.926c-5.367,0-9.661-4.007-10.026-9.294H5.108   c0.904,7.176,3.685,13.382,12.035,18.781c5.366,3.468,6.105,6.448,6.105,9.152c0,1.006-0.262,1.79-0.738,2.208   c-0.466,0.405-1.04,0.396-1.339,0.358c-1.111-0.153-2.132,0.627-2.281,1.737c-0.149,1.111,0.63,2.131,1.74,2.28   c0.27,0.037,0.539,0.055,0.806,0.055c1.39,0,2.723-0.482,3.745-1.38c0.97-0.847,2.125-2.446,2.125-5.259   c0-3.452-0.903-7.999-7.958-12.56c-0.132-0.086-0.256-0.172-0.385-0.257h18.181c0.721-1.397,4.341-7.163,4.341-7.163l3.148,4.578   l5.328-7.401l5.341,7.096l2.98-4.653c0,0,3.777,6.145,4.497,7.544H81.22c-0.127,0.085-0.251,0.171-0.384,0.257   c-7.054,4.561-7.958,9.107-7.958,12.56c0,4.323,2.741,6.443,5.457,6.626c0.046,0.003,0.092,0.005,0.138,0.005   c1.057,0,1.95-0.821,2.021-1.894c0.076-1.117-0.77-2.084-1.888-2.159c-1.063-0.07-1.673-1.011-1.673-2.578   c0-2.704,0.74-5.685,6.105-9.152c9.249-5.982,11.674-12.947,12.272-21.13h0.353c1.713,0,3.102-2.264,3.102-5.057   C98.766,51.569,97.377,49.305,95.664,49.305z"/>
</g>
</svg>