<svg xmlns="http://www.w3.org/2000/svg" xmlns:xlink="http://www.w3.org/1999/xlink" version="1.1" x="0px" y="0px" width="100px" height="100px" viewBox="0 0 100 100" enable-background="new 0 0 100 100" xml:space="preserve">
<g id="Captions">
</g>
<g id="Your_Icon">
	<path d="M97.492,55.118c-0.637-2.668-1.708-4.957-2.822-6.538c-0.208-0.531-0.43-1.066-0.667-1.605   c-0.291-1.923-1.111-4.369-2.58-6.777c-1.556-2.568-3.506-4.55-5.208-5.628c-0.139-0.094-0.274-0.172-0.41-0.254   c-0.062-0.144-0.123-0.286-0.195-0.437c-0.926-1.769-2.639-3.987-5.087-5.785c-2.447-1.79-5.001-2.897-6.987-3.231   c-0.162-0.035-0.315-0.056-0.471-0.079c-0.114-0.11-0.225-0.22-0.35-0.333c-0.774-0.623-1.751-1.305-2.907-1.905   c-1.169-0.559-2.485-1.15-3.934-1.508c-2.878-0.827-5.609-0.906-7.565-0.624c-0.16,0.022-0.308,0.052-0.458,0.08   c-0.144-0.07-0.283-0.14-0.438-0.208c-0.918-0.353-2.035-0.666-3.294-0.923C52.861,19.145,51.466,19.045,50,19   c-1.466,0.045-2.861,0.145-4.118,0.364c-1.259,0.257-2.376,0.57-3.294,0.923c-0.155,0.068-0.295,0.138-0.438,0.208   c-0.15-0.028-0.298-0.058-0.458-0.08c-1.956-0.283-4.688-0.203-7.565,0.624c-1.448,0.358-2.765,0.949-3.934,1.508   c-1.156,0.6-2.133,1.282-2.907,1.905c-0.125,0.113-0.235,0.223-0.35,0.333c-0.155,0.023-0.309,0.044-0.471,0.079   c-1.986,0.333-4.54,1.441-6.987,3.231c-2.448,1.798-4.161,4.016-5.087,5.785c-0.072,0.151-0.133,0.293-0.195,0.437   c-0.136,0.082-0.271,0.16-0.41,0.254c-1.702,1.078-3.652,3.06-5.208,5.628c-1.469,2.408-2.289,4.854-2.58,6.777   c-0.234,0.534-0.449,1.063-0.656,1.59c-1.117,1.581-2.194,3.876-2.833,6.553c-0.695,2.885-0.762,5.615-0.388,7.589   c0.24,1.314,0.666,2.273,1.163,2.772C7.539,72.612,26.831,78,50,78c23.168,0,42.46-5.388,46.717-12.521   c0.497-0.499,0.923-1.458,1.163-2.772C98.254,60.733,98.188,58.003,97.492,55.118z M47.574,60.281C47.337,61.312,47,62,47,62   s-0.337-0.688-0.574-1.719C46.159,59.25,46.002,57.875,46,56.5c0.004-1.375,0.163-2.75,0.429-3.781C46.666,51.688,47,51,47,51   s0.334,0.688,0.571,1.719C47.837,53.75,47.996,55.125,48,56.5C47.998,57.875,47.841,59.25,47.574,60.281z M53.574,60.281   C53.337,61.312,53,62,53,62s-0.337-0.688-0.574-1.719C52.159,59.25,52.002,57.875,52,56.5c0.004-1.375,0.163-2.75,0.429-3.781   C52.666,51.688,53,51,53,51s0.334,0.688,0.571,1.719C53.837,53.75,53.996,55.125,54,56.5C53.998,57.875,53.841,59.25,53.574,60.281   z M90.793,57.953c-0.222-0.763-0.606-1.855-1.252-3.178c-0.634-1.325-1.565-2.852-2.703-4.536   c-0.593-0.828-1.272-1.674-1.967-2.571c-0.779-0.834-1.511-1.778-2.396-2.652c-0.914-0.846-1.769-1.819-2.839-2.628   c-0.51-0.428-1.029-0.863-1.557-1.305c-0.524-0.443-1.123-0.81-1.692-1.227c-0.583-0.397-1.147-0.838-1.764-1.214   c-0.627-0.359-1.262-0.723-1.903-1.091c-1.251-0.787-2.658-1.348-4.031-2.017c-0.678-0.356-1.42-0.583-2.151-0.842   c-0.732-0.257-1.469-0.516-2.211-0.777c-0.743-0.254-1.531-0.384-2.299-0.585c-0.771-0.196-1.544-0.394-2.321-0.592   c-1.56-0.226-3.132-0.453-4.711-0.682c-1.694-0.073-3.396-0.147-5.097-0.221c-1.602,0.071-3.204,0.142-4.801,0.212   c-1.609,0.23-3.213,0.46-4.805,0.688c-0.777,0.197-1.551,0.393-2.321,0.588c-0.769,0.201-1.557,0.331-2.3,0.585   c-0.741,0.261-1.479,0.52-2.211,0.777c-0.731,0.259-1.474,0.486-2.151,0.843c-1.372,0.67-2.782,1.227-4.033,2.015   c-0.642,0.368-1.275,0.731-1.902,1.091c-0.617,0.377-1.181,0.818-1.765,1.215c-0.568,0.417-1.168,0.784-1.692,1.228   c-0.527,0.441-1.047,0.876-1.558,1.304c-1.07,0.809-1.924,1.783-2.838,2.629c-0.887,0.874-1.616,1.819-2.396,2.653   c-0.694,0.896-1.374,1.744-1.966,2.572c-1.138,1.686-2.069,3.211-2.703,4.537c-0.644,1.331-1.029,2.396-1.256,3.17   c-0.153,0.787-0.235,1.207-0.235,1.207s0.007-0.427,0.021-1.227c0.094-0.786,0.261-2.005,0.735-3.44   c0.19-0.742,0.55-1.496,0.864-2.362c0.325-0.86,0.819-1.717,1.275-2.68c0.507-0.93,1.102-1.89,1.716-2.917   c0.698-0.963,1.396-2.016,2.231-3.027c0.87-0.979,1.687-2.097,2.731-3.061c0.509-0.497,1.026-1.003,1.552-1.517   c0.529-0.511,1.137-0.948,1.717-1.437c0.594-0.469,1.172-0.982,1.807-1.433c0.647-0.434,1.304-0.873,1.966-1.317   c1.291-0.958,2.801-1.603,4.263-2.396c0.725-0.415,1.515-0.698,2.298-1.014c0.786-0.312,1.577-0.626,2.374-0.943   c1.62-0.547,3.307-0.964,4.994-1.423c1.721-0.275,3.456-0.573,5.203-0.819c1.792-0.099,3.591-0.197,5.39-0.296   c1.699,0.096,3.399,0.191,5.093,0.287c1.765,0.244,3.548,0.545,5.298,0.827c1.687,0.459,3.375,0.869,4.995,1.419   c0.796,0.317,1.588,0.631,2.374,0.944c0.783,0.315,1.573,0.599,2.298,1.014c1.461,0.796,2.974,1.437,4.264,2.396   c0.663,0.444,1.318,0.883,1.967,1.317c0.634,0.451,1.212,0.964,1.807,1.434c0.579,0.489,1.187,0.925,1.716,1.437   c0.526,0.513,1.044,1.019,1.554,1.516c1.044,0.964,1.86,2.083,2.73,3.062c0.836,1.011,1.532,2.065,2.231,3.027   c0.614,1.026,1.208,1.987,1.715,2.917c0.456,0.963,0.951,1.819,1.275,2.681c0.313,0.866,0.673,1.62,0.864,2.362   c0.473,1.443,0.641,2.635,0.738,3.432c0.01,0.807,0.015,1.236,0.015,1.236S90.951,58.734,90.793,57.953z"/>
</g>
</svg>