<svg xmlns="http://www.w3.org/2000/svg" xmlns:xlink="http://www.w3.org/1999/xlink" version="1.1" x="0px" y="0px" width="100px" height="100px" viewBox="0 0 100 100" enable-background="new 0 0 100 100" xml:space="preserve">
<g id="Captions">
</g>
<g id="Your_Icon">
	<g>
		<g>
			<path d="M64.473,80H72v-4H56H34l0.007,4c-0.002,0-0.005,0-0.007,0v6v2v2h44v-4h-1.527L64.473,80z M54,86h-9.527L54,81.236V86z      M58,86v-4.764L67.527,86H58z"/>
			<rect x="74" y="73" width="4" height="10"/>
			<path d="M34,76c-4.843,0-14,2.926-14,14h4c0-9.633,8.954-9.991,10-10c0.002,0,0.005,0,0.007,0L34,76z"/>
		</g>
		<polygon points="58.559,30.027 66.266,26.874 68.484,18.467 65.799,22.086 66.616,12.979 62.879,17.616 61.828,9.125     60.193,12.979 56.982,-0.217 56.271,9.358 52,6.206 52,14.964 49,12.512 49,18.642 45.751,17.066 48.068,26.758 54.48,30.027     50.74,24.305 51.905,24.072 52.371,20.811 54.822,25.24 54.939,18.934 56.457,20.811 57.099,16.131 58.442,23.138 60.311,22.086     59.96,24.89 61.945,23.604   "/>
		<polygon points="60,38 64,38 64,34 48,34 48,38 52,38 52,54 52,70 48,70 48,74 64,74 64,70 60,70 60,54   "/>
	</g>
</g>
</svg>