<svg xmlns="http://www.w3.org/2000/svg" xmlns:xlink="http://www.w3.org/1999/xlink" version="1.0" id="Vetorizacao" x="0px" y="0px" width="100px" height="100px" viewBox="0 0 100 100" enable-background="new 0 0 100 100" xml:space="preserve">
<g>
	<ellipse transform="matrix(0.9659 -0.2588 0.2588 0.9659 -10.6195 14.8298)" cx="51.014" cy="47.748" rx="21.519" ry="20.401"/>
	<path d="M98.864,48.562c-0.736-1.306-0.617-2.706-0.57-3.015c0.048-0.308,1.259-2.397-2.321-5.72   c-3.579-3.323-0.787-7.477-0.787-7.477c3.299-8.925-4.676-9.566-7.122-14.384c-1.353-1.923-3.086,0.333-3.086,0.333   c-2.61,2.16-5.861,3.062-7.618,6.314c-0.879,1.305-3.965,5.34-4.392,8.236c-0.365,2.477-1.181,4.081-1.409,4.495   c-0.04-0.038-0.063-0.057-0.063-0.057s0.061,0.224-0.213,0.237c-0.274,0.014-0.333,0.107-0.404,0.285   c-0.581,0-0.272,0.439-0.511,0.392c-0.236-0.047-0.106,0.093-0.106,0.093c2.484,4.412,2.203,9.37,2.203,9.37l0.372,0.399   c0.642,0.059,1.674-0.249,1.674-0.249C73.964,47.22,74,45.476,74,45.476s0.725,1.59,1.188,2.112   c0.463,0.523,1.839,1.235,2.931,1.673c0.665-0.237,0.891-0.902,0.891-0.902c-0.985-0.285-1.555-0.759-1.792-1.151   s-1.757-2.433-1.933-2.688h-0.001c0.065,0.047,0.106,0.078,0.106,0.078c5.886,5.246,13.197,4.628,17.564,4.984   S99.6,49.867,98.864,48.562z"/>
	<path d="M32.771,58.994c-2.577-3.896-3.018-8-3.018-8s-0.307-0.035-0.438,0.155c-0.13,0.189-0.249-0.32-0.534,0.178   c-0.083,0.095-0.387-0.319-0.701,0.201c-0.088,0.111-0.383-0.19-0.451,0.23c-0.699-0.404-5.184-3.02-6.954-4.55   c-1.923-1.662-5.175-4.818-13.292-4.344c-3.537,0.119-5.103-0.451-5.459-0.403c-0.356,0.047-2.848,4.391,2.231,8.331   c0.902,0.784,1.923,2.231-0.522,5.981s-0.688,7.002-0.427,7.62c0.261,0.617,0.451,6.574,0.285,7.619   c-0.166,1.045,0.831,1.779,1.14,1.97s4.415,2.231,5.032,3.537s2.445,5.791,3.893,5.246c1.329-0.501,12.27-3.683,15.769-19.334   c0.157,0.555,0.402,1.372,0.526,1.52c0.19,0.226,0.522,0.487,1.496,0.095c0,0-0.784-0.652-0.095-3.514c0,0,1.116,3.157,4.938,2.576   C36.188,64.109,33.151,62.993,32.771,58.994z"/>
</g>
</svg>