<?xml version="1.0"?><svg width="640" height="480" xmlns="http://www.w3.org/2000/svg">
 <!-- Created with SVG-edit - http://svg-edit.googlecode.com/ -->
 <g>
  <title>Layer 1</title>
  <path fill="#ff7f00" stroke="#000000" stroke-width="5" d="m269,108c22.333344,-0.333344 98.666656,156.333313 82,179c-16.666656,22.666687 -118.666656,28.333313 -139,5c-20.333344,-23.333313 34.666656,-183.666656 57,-184z" id="svg_1"/>
  <path fill="#ffffff" stroke="#000000" stroke-width="5" d="m270.156372,105.999634c15.763733,-1.100876 37.434265,44.208359 42.605774,58.376175c-7.286377,6.858414 -69.743149,8.130005 -78.632523,1.069885c-0.427444,-9.93956 20.263016,-58.345184 36.026749,-59.44606z" id="svg_2"/>
  <path fill="#ffff00" stroke="#000000" stroke-width="5" stroke-dasharray="null" stroke-linejoin="null" stroke-linecap="null" d="m211.204926,240.117981l133.42099,-3.117981c6.464233,18.881226 15.772644,36.463196 10.084167,58.462402c-16.54837,21.73938 -125.405411,30.487091 -144.022308,6.235992c-10.084137,-12.818451 -4.654205,-41.226837 0.517151,-61.580414z" id="svg_3"/>
 </g>
</svg>