<svg xmlns="http://www.w3.org/2000/svg" xmlns:xlink="http://www.w3.org/1999/xlink" version="1.1" id="Your_Icon" x="0px" y="0px" width="100px" height="100px" viewBox="0 0 100 100" enable-background="new 0 0 100 100" xml:space="preserve">
<g>
	<g>
		<path fill="#000000" d="M29.222,2.027c1-0.828,2.363-1.195,3.639-0.955c5.964,1.187,11.929,2.373,17.89,3.571    c1.433,0.341,2.912,0.1,4.366,0.145c7.523-0.062,15.043-0.154,22.564-0.216c2.225-0.048,4.266,1.828,4.424,4.043    c0.011,0.748,0.046,1.497,0.043,2.244c1.474,0.433,3.024,0.568,4.502,0.991c2.062,0.666,3.375,2.978,2.917,5.092    c-2.293,11.467-4.576,22.938-6.872,34.406c-0.105,0.484-0.004,0.977,0.051,1.46c1.271,11.175,2.545,22.351,3.814,33.526    c0.082,0.973,0.338,1.961,0.12,2.936c-0.329,1.799-1.876,3.295-3.692,3.545c-2.922,0.359-5.854,0.641-8.773,1.023    c-0.48,2.158-2.713,3.709-4.904,3.391c-3.029-0.559-6.041-1.232-9.072-1.77c-1.639,0.074-3.264,0.354-4.897,0.508    c-8.836,1.004-17.672,2.018-26.51,3.014c-2.103,0.213-4.2-1.299-4.676-3.354c-0.225-1.113-0.26-2.256-0.437-3.377    c-1.164-0.174-2.257-0.779-2.975-1.717c-0.715-0.879-0.99-2.037-0.938-3.152c-1.371-0.328-2.766-0.549-4.141-0.855    c-1.58-0.373-2.88-1.695-3.251-3.271c-0.181-0.734-0.152-1.504,0.014-2.236c2.119-10.521,4.194-21.051,6.31-31.572    c0.055-0.262,0.06-0.532,0.033-0.797c-1.199-10.507-2.397-21.015-3.588-31.521c-0.223-2.275,1.577-4.521,3.857-4.757    c0.101-1.198-0.127-2.41,0.07-3.602c0.274-1.632,1.55-3.04,3.143-3.484c0.806-0.261,1.66-0.146,2.492-0.186    c0.944-0.056,1.89-0.003,2.835-0.034C27.771,3.906,28.285,2.767,29.222,2.027z M31.341,3.455    c-0.768,0.272-1.314,0.992-1.421,1.792c-5.08,25.487-10.176,50.971-15.26,76.458c-0.191,0.807,0.137,1.695,0.796,2.193    c0.619,0.48,1.442,0.486,2.176,0.66C34.6,87.949,51.57,91.326,68.537,94.723c0.617,0.115,1.259,0.311,1.886,0.141    c0.77-0.215,1.413-0.877,1.553-1.672c5.04-25.213,10.065-50.426,15.1-75.638c0.098-0.562,0.283-1.118,0.238-1.694    c-0.075-0.928-0.839-1.728-1.743-1.902C68.164,10.482,50.753,7.015,33.348,3.533C32.69,3.416,31.993,3.181,31.341,3.455z     M62.93,7.113c1.823,0.296,3.627,0.713,5.443,1.059c3.811,0.761,7.623,1.527,11.438,2.273c-0.034-0.867,0.165-1.838-0.372-2.596    c-0.459-0.717-1.348-1.059-2.178-0.947c-4.674,0.033-9.346,0.081-14.018,0.109C63.134,7.027,63.029,7.061,62.93,7.113z     M21.364,9.609c0.037,7.477,0.159,14.95,0.205,22.428c-0.004,0.942-0.028,1.889,0.107,2.825    c1.772-9.157,3.663-18.306,5.453-27.465c-1.256,0.018-2.513-0.037-3.768,0.034C22.267,7.484,21.31,8.506,21.364,9.609z     M17.69,15.896c-0.272,0.545-0.178,1.171-0.123,1.753c0.578,4.889,1.094,9.787,1.692,14.673c0.019,0.225-0.002,0.45,0.009,0.676    c0.091-0.205,0.02-0.45,0.034-0.668c-0.09-1.137,0.022-2.279-0.083-3.415c-0.033-4.733-0.059-9.466-0.121-14.198    C18.486,14.883,17.953,15.314,17.69,15.896z M75.193,88.844c-0.044,0.205-0.078,0.414-0.053,0.627    c0.754,0.006,1.506-0.057,2.26-0.043c0.684-0.002,1.418,0.076,2.037-0.273c0.746-0.375,1.197-1.225,1.143-2.053    c-0.041-4.492-0.108-8.986-0.116-13.482c-0.078-1.463,0.032-2.932-0.081-4.395c0.002-2.029-0.022-4.061-0.045-6.09    C78.607,71.695,76.924,80.277,75.193,88.844z M82.787,74.891c0.016,4.121,0.059,8.242,0.094,12.363    c0.035,1.295-0.588,2.521-1.516,3.396c0.677-0.061,1.404-0.049,2.012-0.4c0.696-0.396,1.131-1.215,1.063-2.014    c-0.564-5.055-1.159-10.109-1.718-15.164C82.652,73.678,82.769,74.285,82.787,74.891z M22.176,87.82    c-0.122,1.07,0.92,2.111,1.99,2.117c2.792,0.008,5.582-0.066,8.374-0.043C29.089,89.188,25.629,88.518,22.176,87.82z     M31.419,92.211c-1.763-0.021-3.526,0.049-5.288,0.018c-0.114,0.215-0.003,0.461,0.006,0.689c0.107,0.725,0.126,1.463,0.286,2.18    c0.257,0.984,1.278,1.686,2.292,1.562c7.931-0.881,15.854-1.832,23.788-2.684c-0.001-0.031-0.002-0.09-0.004-0.119    c-2.826-0.525-5.637-1.127-8.458-1.672c-0.741-0.201-1.507-0.064-2.263-0.088c-1.94-0.016-3.879,0.047-5.818,0.031    C34.446,92.205,32.93,92.098,31.419,92.211z"/>
	</g>
	<g>
		<path id="path1939_5_" d="M55.252,32.201c-0.832,1.819-1.875,3.396-3.123,4.713c-1.248,1.316-3.31,2.837-6.191,4.578    c-2.882,1.741-4.767,3.138-5.652,4.194c-0.885,1.057-1.445,2.196-1.683,3.416c-0.332,1.697-0.042,3.222,0.869,4.574    c0.911,1.352,2.18,2.188,3.806,2.505c2.911,0.568,5.579-1.118,7.515-3.146c-0.607,2.512-1.421,4.459-2.448,5.836    c-1.106,1.48-2.575,2.6-4.412,3.359c-1.237,0.512-3.336,0.762-6.289,0.754l-0.389,0.865l11.373,2.221l11.385,2.223l-0.035-0.947    c-2.739-1.105-4.59-2.125-5.544-3.064c-1.417-1.396-2.356-2.984-2.825-4.773c-0.433-1.659-0.455-3.765-0.074-6.316    c1.031,2.605,2.885,5.164,5.793,5.732c1.627,0.317,3.116,0.021,4.469-0.89c1.352-0.911,2.193-2.214,2.525-3.911    c0.237-1.221,0.148-2.486-0.275-3.798c-0.422-1.312-1.643-3.315-3.658-6.013c-2.016-2.696-3.354-4.882-4.016-6.571    C55.711,36.053,55.338,34.2,55.252,32.201z"/>
		<path id="path1939_4_" d="M38.252,8.058c-0.333,0.728-0.75,1.358-1.249,1.885c-0.5,0.526-1.325,1.135-2.477,1.831    c-1.153,0.696-1.907,1.255-2.261,1.678c-0.354,0.422-0.577,0.878-0.672,1.366c-0.132,0.678-0.017,1.288,0.348,1.83    c0.363,0.541,0.871,0.875,1.521,1.002c1.164,0.227,2.231-0.447,3.006-1.259c-0.243,1.005-0.568,1.784-0.979,2.334    c-0.442,0.593-1.03,1.04-1.765,1.344c-0.495,0.205-1.334,0.305-2.516,0.302l-0.156,0.347l4.549,0.888l4.554,0.889l-0.014-0.38    c-1.096-0.441-1.836-0.85-2.218-1.226c-0.567-0.559-0.943-1.193-1.13-1.909c-0.173-0.664-0.182-1.506-0.031-2.526    c0.414,1.042,1.155,2.066,2.318,2.292c0.65,0.127,1.247,0.009,1.788-0.355c0.541-0.365,0.877-0.886,1.01-1.564    c0.095-0.488,0.06-0.995-0.11-1.519c-0.169-0.525-0.657-1.326-1.463-2.405c-0.806-1.078-1.341-1.953-1.605-2.628    C38.437,9.599,38.287,8.857,38.252,8.058z"/>
		<path id="path1939_3_" d="M63.695,89.764c0.332-0.729,0.749-1.359,1.248-1.885c0.5-0.527,1.324-1.135,2.477-1.832    c1.152-0.695,1.906-1.256,2.262-1.678c0.354-0.422,0.576-0.877,0.672-1.365c0.133-0.68,0.018-1.289-0.348-1.83    c-0.363-0.541-0.871-0.875-1.521-1.002c-1.164-0.229-2.231,0.447-3.006,1.258c0.242-1.004,0.568-1.783,0.979-2.334    c0.443-0.594,1.03-1.039,1.766-1.344c0.494-0.205,1.334-0.305,2.516-0.301l0.155-0.348l-4.55-0.889l-4.553-0.889l0.014,0.381    c1.096,0.439,1.836,0.85,2.217,1.225c0.567,0.559,0.943,1.193,1.131,1.908c0.172,0.664,0.182,1.508,0.03,2.527    c-0.413-1.041-1.155-2.066-2.317-2.293c-0.65-0.127-1.247-0.008-1.788,0.355c-0.541,0.365-0.878,0.887-1.011,1.564    c-0.095,0.488-0.059,0.994,0.11,1.52s0.657,1.326,1.464,2.404c0.806,1.08,1.342,1.953,1.605,2.629    C63.511,88.223,63.66,88.965,63.695,89.764z"/>
	</g>
</g>
</svg>