<svg xmlns="http://www.w3.org/2000/svg" xmlns:xlink="http://www.w3.org/1999/xlink" version="1.1" id="Your_Icon" x="0px" y="0px" width="100px" height="100px" viewBox="0 0 100 100" enable-background="new 0 0 100 100" xml:space="preserve">
<g>
	<polygon points="65.911,98.062 65.943,98.043 65.467,98.043  "/>
	<polygon fill="#000000" points="66.37,98.043 66.37,97.781 65.943,98.043  "/>
	<polygon fill="#000000" points="65.366,98.043 65.467,98.043 65.366,98.038  "/>
</g>
<path fill="#000000" stroke="#DDC588" stroke-width="0.1847" stroke-miterlimit="10" d="M76.568,24.671"/>
<line fill="none" x1="32.933" y1="10.417" x2="26.075" y2="22.67"/>
<g>
	<polygon fill="none" points="65.585,23.264 65.366,23.264 65.366,97.536 65.779,97.555 66.37,97.193 66.37,23.396  "/>
	<polygon points="26.599,23.264 26.599,95.807 65.366,97.536 65.366,23.264  "/>
	<polygon points="76.146,25.036 66.37,23.396 66.37,97.193 76.146,91.195  "/>
	<polygon points="71.509,11.304 66.548,22.409 76.298,24.044  "/>
</g>
<path d="M69.669,3H34.621c-0.937,0-1.688,0.744-1.688,1.66v5.407h10.24c0.732-0.301,1.552-0.551,2.428-0.721  c0.831-0.16,1.651-0.242,2.44-0.242c1.66,0,2.988,0.368,3.685,0.963h19.536l0.09-0.02V4.66C71.352,3.744,70.594,3,69.669,3z"/>
<g>
	<path d="M52.255,11.069c0.014,1.419-2.453,3.06-5.611,3.67c-0.832,0.16-1.652,0.242-2.441,0.242c-2.31,0-3.998-0.705-4.201-1.754   c-0.134-0.701,0.39-1.473,1.331-2.158h-8.778l-6.273,11.193h39.233l5-11.193H52.255z M47.742,20.299   c-4.102,0.794-7.684,0.095-8.003-1.557c-0.011-0.052-0.017-0.105-0.021-0.158l-0.065,0.012v-4.658   c0.629,1.015,2.314,1.644,4.55,1.644c0.826,0,1.686-0.085,2.555-0.252c3.148-0.608,5.528-2.119,6.012-3.678l1.621,3.749   c0.09,0.136,0.152,0.28,0.188,0.432l0.04,0.094l-0.022,0.002C54.835,17.568,51.794,19.515,47.742,20.299z"/>
</g>
</svg>