<svg xmlns="http://www.w3.org/2000/svg" xmlns:xlink="http://www.w3.org/1999/xlink" version="1.1" x="0px" y="0px" width="100px" height="100px" viewBox="0 0 100 100" enable-background="new 0 0 100 100" xml:space="preserve">
<g id="Captions">
</g>
<g id="Your_Icon">
	<path d="M3.28,53.525c0,0-0.468-0.502-0.376-1.279c0.15-1.279,1.806-1.807,2.634-2.484c0,0-2.688-3.537-2.662-4.892   c0,0,1.984,3.387,2.662,4.327c0.677,0.941,0.602,0,0.602,0s-3.592-6.134-3.264-6.661s2.586,5.043,3.64,6.096   c0,0,0.376-0.978,0.903-0.15c0,0,1.58,0,3.612-1.429c0,0,4.29-2.635,6.473-2.409c0,0,3.011-0.527,3.763-0.753   c0,0,0.678-1.882,11.591-2.709c0,0,1.054-0.979,1.505-1.129c0,0,2.935-5.193,5.419-5.72c0,0,6.364-5.496,8.033,0.383   c0.034,0.118,0.065,0.242,0.096,0.369c0,0,1.58,4.215-2.635,6.548c0,0-2.785,0.753-3.462,0.678   c-0.678-0.075,14.978,0.979,17.761,2.107c0,0,6.625,1.355,11.141,0.226c0,0,6.998-0.226,3.988,3.462c0,0,0.451,0.753,10.312-3.312   c0,0,8.955-4.591,10.762-2.71c0,0,2.709,0.301,2.258,3.613c-0.451,3.312-2.559,3.688-1.355,7.827c1.205,4.141,2.033,4.441,0.828,7   c-1.203,2.559-4.516,1.58-4.816,1.58s-15.73-6.773-16.709-4.59c0,0,3.613,5.418-1.73,8.654s-12.117,1.055-18.74-4.139   c0,0-0.904-1.279-3.012-0.754c0,0,3.537,6.43-4.29,6.414c0,0-3.387-0.469-6.096-5.736c0,0-3.01-0.602-5.494-0.375   c0,0-0.979,5.193-8.43,0.301c0,0-9.257,0.902-11.666-1.055c0,0-3.387-0.301-3.688-0.451c-0.301-0.15,3.236,5.043,7,6.021   c0,0-5.871-1.506-8.053-5.947c-2.183-4.439-0.301-0.15-0.301-0.15s-3.613-0.375-5.043-1.957c0,0-1.054,5.496-0.376,7.604   c0,0-0.752-2.033-0.752-6.172c0-3.623-1.095,3.301-1.016,5.996c0.012,0.385,0.047,0.684,0.113,0.852   c0.526,1.355-0.066-0.168-0.066-0.168s-0.687-6.379,0.367-8.562c1.054-2.182-2.28,5.193-1.854,6.398   c0.425,1.203-0.952-3.613-0.038-4.291L2,64.289c0,0,0-6.699,1.881-7.527C3.881,56.762,1.85,54.881,3.28,53.525z"/>
</g>
</svg>