<svg xmlns="http://www.w3.org/2000/svg" xmlns:xlink="http://www.w3.org/1999/xlink" version="1.1" id="Your_Icon" x="0px" y="0px" width="100px" height="100px" viewBox="0 0 100 100" enable-background="new 0 0 100 100" xml:space="preserve">
<g>
	<g>
		<path fill="#000000" d="M38.453,21.329c1.294-0.969,2.584-1.939,3.884-2.899c0.203-0.011,0.396,0.083,0.594,0.124    c17.503,4.583,35.005,9.166,52.507,13.748c0.516,0.128,1.025,0.283,1.546,0.391c0.031,0.395,0.007,0.792,0.017,1.189    c-0.008,0.127,0.021,0.267-0.049,0.381c-8.275,14.803-16.553,29.604-24.828,44.408c-0.065,0.111-0.119,0.233-0.211,0.328    C48.643,69.386,25.37,59.778,2.101,50.164c-0.153-0.049-0.077-0.241-0.097-0.358c0.02-0.418-0.035-0.848,0.026-1.259    C14.169,39.472,26.311,30.4,38.453,21.329z M42.561,19.038C29.673,28.756,16.79,38.479,3.902,48.197    c-0.003,0.022-0.007,0.068-0.011,0.092c6.673,2.705,13.338,5.433,20.007,8.147c15.605,6.361,31.213,12.72,46.818,19.082    c0.147,0.054,0.287,0.145,0.448,0.147c2.446-4.305,4.929-8.592,7.388-12.891c5.678-9.891,11.352-19.783,17.031-29.673    c0.034-0.057,0.053-0.118,0.054-0.185c-1.085-0.266-2.163-0.565-3.245-0.845c-16.553-4.362-33.108-8.717-49.662-13.083    C42.667,18.973,42.609,18.988,42.561,19.038z"/>
	</g>
	<g>
		<path fill="#000000" d="M40.909,24.355c1.07-0.835,2.116-1.702,3.201-2.516c14.975,4.064,29.95,8.128,44.927,12.19    c-0.236,0.457-0.549,0.872-0.814,1.312C81.264,46.274,74.311,57.21,67.345,68.139c-18.248-7.1-36.49-14.222-54.738-21.326    c0.023-0.031,0.069-0.092,0.092-0.122C22.104,39.246,31.505,31.799,40.909,24.355z M41.485,24.799    c-0.031,0.123,0.127,0.104,0.2,0.136c1.542,0.426,3.078,0.878,4.622,1.296c0.957-0.812,1.922-1.615,2.864-2.444    c-0.091-0.047-0.187-0.078-0.284-0.102c-1.499-0.4-2.991-0.826-4.494-1.216C43.423,23.245,42.45,24.016,41.485,24.799z     M54.209,25.147c-0.926,0.848-1.875,1.674-2.778,2.543c1.73,0.491,3.46,0.99,5.192,1.471c0.648-0.62,1.292-1.248,1.929-1.879    c0.247-0.259,0.543-0.474,0.76-0.758C57.604,26.088,55.913,25.59,54.209,25.147z M46.326,26.27    c-0.572,0.451-1.111,0.941-1.672,1.406c-0.459,0.411-0.959,0.781-1.395,1.216c1.656,0.476,3.308,0.972,4.961,1.458    c0.074,0.014,0.176,0.078,0.235-0.004c0.949-0.891,1.943-1.738,2.875-2.645C49.672,27.197,47.991,26.755,46.326,26.27z     M36.987,28.393c-0.703,0.575-1.435,1.119-2.118,1.714c1.654,0.524,3.316,1.021,4.975,1.529c0.107,0.058,0.183-0.071,0.263-0.121    c1.012-0.88,2.054-1.728,3.056-2.619c-1.64-0.514-3.296-0.983-4.945-1.466C37.787,27.717,37.4,28.078,36.987,28.393z     M64.141,28.534c-0.678,0.721-1.377,1.425-2.036,2.161c0.511,0.195,1.053,0.309,1.576,0.47c1.319,0.373,2.638,0.748,3.957,1.118    c0.521-0.56,1.009-1.148,1.518-1.718c0.297-0.369,0.655-0.691,0.913-1.088c-1.8-0.497-3.6-1-5.405-1.475    C64.465,28.148,64.318,28.361,64.141,28.534z M56.626,29.198c-0.935,0.933-1.9,1.835-2.826,2.777    c0.944,0.319,1.913,0.566,2.865,0.863c0.882,0.245,1.753,0.534,2.64,0.762c0.887-0.98,1.839-1.902,2.71-2.896    C60.213,30.225,58.428,29.68,56.626,29.198z M48.334,30.487c-1.026,0.938-2.065,1.862-3.08,2.811    c1.742,0.542,3.491,1.067,5.234,1.608c0.08,0.015,0.192,0.094,0.26,0.004c0.58-0.583,1.178-1.147,1.761-1.728    c0.396-0.403,0.835-0.769,1.199-1.2c-1.691-0.486-3.377-0.988-5.064-1.489C48.545,30.478,48.415,30.388,48.334,30.487z     M75.766,31.046c-0.743,0.979-1.547,1.915-2.289,2.895c1.99,0.551,3.968,1.141,5.961,1.676c0.682-0.918,1.342-1.854,2.019-2.775    c0.044-0.074,0.122-0.141,0.116-0.235c-1.328-0.351-2.65-0.727-3.977-1.083C76.984,31.37,76.384,31.166,75.766,31.046z     M39.866,31.753c-1.106,0.938-2.21,1.88-3.315,2.819c-0.013,0.021-0.039,0.062-0.053,0.082c1.776,0.57,3.553,1.142,5.333,1.704    c1.062-0.95,2.107-1.918,3.167-2.871c0.063-0.06,0.149-0.116,0.167-0.208c-1.671-0.476-3.324-1.015-4.988-1.514    C40.077,31.749,39.95,31.658,39.866,31.753z M67.657,32.316c-0.512,0.584-1.021,1.169-1.534,1.753    c-0.344,0.416-0.734,0.797-1.051,1.234c1.608,0.494,3.229,0.955,4.842,1.434c0.351,0.088,0.695,0.248,1.053,0.28    c0.815-1.018,1.651-2.024,2.434-3.067C71.491,33.388,69.57,32.864,67.657,32.316z M27.62,35.88    c-0.047,0.051-0.164,0.091-0.124,0.18c1.748,0.559,3.476,1.18,5.225,1.736c1.207-1.027,2.42-2.049,3.62-3.084    c-0.002-0.022-0.006-0.067-0.008-0.089c-1.7-0.534-3.394-1.085-5.092-1.623C30.022,33.945,28.83,34.924,27.62,35.88z     M59.151,33.783c-0.909,0.986-1.869,1.929-2.755,2.935c1.938,0.595,3.878,1.186,5.815,1.783c-0.153,0.275-0.404,0.481-0.599,0.728    c-0.789,0.904-1.582,1.807-2.369,2.712c-0.431-0.104-0.844-0.267-1.269-0.392c-1.507-0.483-3.016-0.962-4.522-1.447    c-0.089-0.016-0.211-0.106-0.282-0.009c-0.553,0.562-1.087,1.145-1.635,1.713c-0.532,0.584-1.111,1.129-1.616,1.736    c1.957,0.674,3.926,1.308,5.885,1.973c0.088,0.021,0.216,0.107,0.281-0.003c1.021-1.167,2.043-2.334,3.061-3.503    c0.064-0.115,0.199-0.037,0.294-0.016c2.001,0.644,4.005,1.275,6.004,1.925c0.52-0.6,0.991-1.241,1.495-1.855    c0.439-0.566,0.914-1.107,1.332-1.69c-0.922-0.257-1.831-0.559-2.748-0.832c-1.101-0.348-2.212-0.663-3.308-1.026    c0.912-1.079,1.862-2.125,2.78-3.198c-1.87-0.557-3.743-1.103-5.615-1.655C59.276,33.606,59.214,33.726,59.151,33.783z     M48.93,36.712c-0.475,0.488-0.995,0.933-1.447,1.438c0.371,0.16,0.766,0.253,1.146,0.386c1.526,0.486,3.053,0.978,4.579,1.463    c0.524-0.521,1.017-1.071,1.532-1.601c0.513-0.564,1.072-1.086,1.558-1.675c-1.853-0.604-3.728-1.141-5.584-1.733    C50.103,35.545,49.528,36.142,48.93,36.712z M79.446,35.66c-0.739,1.018-1.477,2.038-2.214,3.056    c-0.045,0.05-0.063,0.108-0.055,0.175c2.108,0.582,4.194,1.246,6.303,1.833c0.461-0.711,0.923-1.422,1.383-2.133    c0.241-0.404,0.549-0.776,0.749-1.2C83.55,36.837,81.505,36.224,79.446,35.66z M38.381,39.53    c-0.048,0.037-0.078,0.085-0.089,0.146c1.809,0.578,3.607,1.188,5.406,1.798c0.1,0.02,0.232,0.113,0.315,0.008    c0.958-0.944,1.926-1.879,2.884-2.822c0.159-0.166,0.369-0.297,0.477-0.504c-1.85-0.576-3.686-1.195-5.539-1.757    C40.679,37.437,39.538,38.491,38.381,39.53z M68.503,40.147c-0.058,0.077-0.136,0.148-0.143,0.251    c2.088,0.606,4.158,1.277,6.242,1.896c0.832-1.137,1.663-2.275,2.479-3.424c-2.038-0.598-4.075-1.195-6.108-1.801    C70.134,38.083,69.335,39.129,68.503,40.147z M28.947,41.041c-0.055,0.044-0.101,0.096-0.138,0.155    c1.852,0.649,3.702,1.306,5.559,1.942c1.287-1.148,2.562-2.313,3.833-3.481c-1.822-0.61-3.644-1.221-5.467-1.827    C31.461,38.89,30.213,39.977,28.947,41.041z M19.369,42.482c-0.115,0.088-0.231,0.175-0.322,0.289    c0.43,0.19,0.878,0.334,1.317,0.499c1.376,0.508,2.754,1.01,4.129,1.52c0.785-0.644,1.548-1.315,2.325-1.968    c0.623-0.545,1.274-1.059,1.881-1.621c-0.217-0.12-0.464-0.166-0.693-0.257c-1.553-0.552-3.111-1.083-4.662-1.639    C22.016,40.359,20.696,41.426,19.369,42.482z M40.404,45.035c-0.054,0.052-0.125,0.107-0.121,0.192    c1.971,0.654,3.923,1.373,5.889,2.043c0.034,0.006,0.101,0.016,0.135,0.021c1.159-1.26,2.369-2.474,3.52-3.74    c-1.947-0.678-3.913-1.305-5.866-1.97C42.76,42.714,41.591,43.885,40.404,45.035z M74.614,42.333    c-0.884,1.212-1.755,2.434-2.643,3.642c0.021,0.014,0.063,0.041,0.086,0.056c2.201,0.698,4.397,1.413,6.602,2.104    c0.837-1.257,1.651-2.53,2.473-3.799C78.966,43.651,76.789,42.994,74.614,42.333z M30.343,46.845c0,0.023-0.002,0.068-0.003,0.092    c1.96,0.711,3.913,1.442,5.875,2.15c1.325-1.295,2.659-2.58,3.974-3.886c-1.94-0.664-3.867-1.37-5.812-2.018    C33.025,44.396,31.686,45.624,30.343,46.845z M65.448,43.957c-0.979,1.273-2.017,2.504-2.993,3.779    c2.199,0.744,4.405,1.472,6.608,2.208c0.96-1.295,1.892-2.612,2.843-3.914c-0.432-0.201-0.914-0.299-1.365-0.463    C68.842,45.038,67.154,44.461,65.448,43.957z M24.504,44.831c-1.506,1.271-3.011,2.547-4.502,3.836    c0.253,0.145,0.543,0.214,0.811,0.334c1.638,0.631,3.277,1.263,4.913,1.897c0.065,0.031,0.12,0.017,0.166-0.041    c1.392-1.263,2.78-2.531,4.173-3.794c0.054-0.044,0.093-0.099,0.117-0.163C28.287,46.217,26.403,45.494,24.504,44.831z     M55.908,45.75c-1.085,1.263-2.204,2.498-3.277,3.771c0.898,0.348,1.818,0.639,2.725,0.966c1.27,0.438,2.53,0.9,3.805,1.321    c1.062-1.363,2.175-2.69,3.223-4.064c-2.06-0.706-4.133-1.373-6.192-2.077C56.081,45.605,55.967,45.644,55.908,45.75z     M42.466,51.373c0.747,0.311,1.524,0.562,2.282,0.854c1.377,0.504,2.754,1.008,4.13,1.518c0.671-0.733,1.311-1.498,1.973-2.241    c0.566-0.658,1.155-1.299,1.705-1.97c-2.082-0.725-4.158-1.464-6.242-2.179l-0.062,0.019    C44.991,48.707,43.717,50.03,42.466,51.373z M31.947,53.287c0.686,0.302,1.401,0.541,2.097,0.824    c1.41,0.537,2.812,1.1,4.228,1.622c0.836-0.858,1.65-1.738,2.48-2.603c0.54-0.59,1.117-1.146,1.639-1.75    c-2.061-0.74-4.109-1.519-6.171-2.253C34.787,50.504,33.375,51.903,31.947,53.287z M66.028,54.216    c2.355,0.839,4.72,1.657,7.08,2.482c0.957-1.466,1.914-2.931,2.857-4.405c-0.169-0.088-0.354-0.133-0.531-0.193    c-1.6-0.533-3.198-1.067-4.799-1.6c-0.525-0.161-1.032-0.383-1.568-0.511C68.062,51.402,67.017,52.79,66.028,54.216z     M59.135,51.881c-1.129,1.389-2.234,2.797-3.356,4.191c-0.049,0.051-0.075,0.111-0.082,0.182c2.328,0.827,4.632,1.72,6.965,2.534    c0.791-1.068,1.559-2.153,2.343-3.226c0.307-0.451,0.666-0.869,0.942-1.34c-2.23-0.788-4.466-1.565-6.697-2.346    C59.22,51.878,59.163,51.88,59.135,51.881z M48.889,53.782c-1.283,1.472-2.57,2.94-3.856,4.411    c-0.019,0.033-0.058,0.101-0.078,0.134c1.321,0.508,2.64,1.021,3.96,1.53c0.978,0.361,1.938,0.775,2.924,1.111    c1.249-1.575,2.505-3.143,3.761-4.711c-0.097-0.065-0.206-0.104-0.314-0.14C53.15,55.348,51.028,54.541,48.889,53.782z     M62.667,58.835c-0.967,1.331-1.931,2.667-2.897,4c-0.214,0.325-0.487,0.615-0.666,0.962c2.059,0.787,4.112,1.587,6.168,2.38    c0.458,0.16,0.898,0.376,1.365,0.504c1.112-1.72,2.227-3.438,3.345-5.153C67.552,60.612,65.105,59.731,62.667,58.835z"/>
	</g>
</g>
</svg>