<svg xmlns="http://www.w3.org/2000/svg" xmlns:xlink="http://www.w3.org/1999/xlink" version="1.1" id="Your_Icon" x="0px" y="0px" width="100px" height="100px" viewBox="0 0 100 100" enable-background="new 0 0 100 100" xml:space="preserve">
<g>
	<g>
		<path fill="#000000" d="M40.707,2.749c0.159-0.346,0.612-0.277,0.926-0.292c1.359,0.068,2.686,0.414,4.002,0.744    c4.88,1.354,9.634,3.183,14.124,5.532c2.694,1.471,5.394,3.092,7.451,5.409c1.537,1.83,2.541,4.04,3.309,6.286    c1.246,3.692,1.811,7.575,2.18,11.442c-0.001,0.62,0.102,1.234,0.083,1.854c0.391-0.085,0.716-0.427,1.151-0.404    c1.547-0.109,2.699,1.136,4.105,1.541c1.347,0.124,2.714,0.21,4.019,0.593c0.324,0.157,0.798,0.235,0.893,0.642    c0.013,0.408-0.396,0.653-0.716,0.814c-1.288,0.557-2.716,0.572-4.094,0.609c-0.662,0.005-1.364-0.193-1.99,0.102    c-0.639,0.269-1.12,0.812-1.774,1.047c-0.945,0.224-1.844-0.385-2.788-0.257c-0.607,0.187-1.08,0.642-1.567,1.028    c-1.489,1.316-2.84,2.783-4.106,4.313c-1.589,1.92-3.056,3.945-4.313,6.099c-0.947,1.696-1.375,3.626-1.61,5.539    c-0.013,0.667-0.203,1.313-0.173,1.982c-0.089,1.696-0.043,3.396,0.03,5.092c0.13,0.584-0.001,1.21,0.19,1.777    c1.767,0.012,3.434,0.734,4.915,1.647c1.533,0.94,2.965,2.033,4.484,2.995c0.909,0.622,1.534,1.57,2.022,2.541    c1.11,2.301,1.616,4.837,1.957,7.354c0.062,1.021-0.01,2.046-0.122,3.06c-0.402,3.285-1.287,6.576-3.066,9.398    c-1.505,2.419-3.78,4.393-6.482,5.343c-3.037,1.127-6.373,1.02-9.522,0.495c-3.569-0.632-7.083-2.113-9.676-4.701    c-3.453-3.397-5.086-8.345-5.024-13.124c-0.236,0.033-0.422,0.2-0.628,0.304c-2.409,1.343-5.129,2.241-7.908,2.195    c-2.587-0.004-5.088-0.82-7.435-1.851c-0.964-0.458-1.983-0.833-2.844-1.477c-1.504-1.153-2.687-2.675-3.658-4.292    c-1.548-2.601-2.569-5.517-2.939-8.521c-0.142-1.64-0.153-3.311,0.193-4.927c0.404-1.963,1.273-3.835,2.559-5.377    c1.602-1.863,3.328-3.642,5.321-5.092c1.865-1.346,4.039-2.341,6.348-2.557c1.684-0.129,3.396,0.007,5.019,0.481    c2.008,0.525,3.907,1.393,5.735,2.362c0.116,0.071,0.284,0.138,0.394,0.012c3.592-2.95,7.545-5.425,11.573-7.73    c1.83-1.044,3.66-2.1,5.586-2.962c1.585-0.743,3.216-1.379,4.874-1.938c0.106-0.088,0.345,0.021,0.375-0.141    c-4.076-0.282-8.062-1.945-11.083-4.711c-1.776-1.57-3.175-3.51-4.424-5.513c-2.539-4.042-4.523-8.461-5.616-13.116    c-0.666-2.735-0.997-5.562-0.867-8.377C40.166,4.918,40.269,3.782,40.707,2.749z M43.634,5.219    c0.084,0.303,0.303,0.538,0.458,0.805c1.364,2.16,2.809,4.268,4.295,6.346c0.651,0.944,1.389,1.836,2.019,2.791    c-1.661-0.124-3.28-0.597-4.873-1.066l0.014,0.08c1.696,0.535,3.368,1.299,5.169,1.37c0.921,1.149,1.802,2.332,2.747,3.462    c0.076,0.097,0.208,0.182,0.185,0.325c-2.458-0.368-4.837-1.147-7.176-1.961c-0.007,0.159,0.235,0.104,0.325,0.196    c1.995,0.84,4.007,1.673,6.114,2.186c0.418,0.122,0.868,0.055,1.281,0.15C55.1,20.97,56,22.043,56.94,23.081    c-3.051-0.106-6.092-0.622-9.063-1.259l0.001,0.085c0.046,0,0.138,0.001,0.185,0.001c1.1,0.321,2.217,0.604,3.329,0.891    c1.979,0.434,3.981,0.966,6.026,0.845c0.864,0.866,1.656,1.803,2.545,2.647l0.019,0.089c-2.418,0.129-4.845-0.11-7.233-0.431    c-0.236,0.001-0.478-0.01-0.676-0.153c0.02,0.034,0.056,0.1,0.074,0.132c1.974,0.413,3.973,0.748,5.979,0.98    c0.745,0.023,1.491,0.095,2.235,0c0.181-0.044,0.297,0.109,0.413,0.218c0.806,0.79,1.62,1.572,2.459,2.328    c0.003,0.039,0.007,0.116,0.009,0.154c-0.498-0.035-0.993,0.034-1.488,0.054c-1.826,0.08-3.66-0.016-5.478-0.133    c-0.108-0.038-0.216-0.072-0.322-0.107c0.127,0.223,0.528,0.179,0.771,0.22c1.13,0.173,2.271,0.267,3.403,0.419    c1.09,0.018,2.189,0.152,3.273-0.026c0.167-0.013,0.374-0.11,0.516,0.034c0.666,0.58,1.333,1.163,2.026,1.71    c0.107,0.103,0.264,0.177,0.316,0.328c-0.041,0.028-0.123,0.085-0.164,0.114c-1.548,0.73-3.17,1.296-4.812,1.771    c-0.333,0.086-0.657,0.247-1.006,0.246v0.087c2.166-0.478,4.394-0.899,6.399-1.893l0.094,0.02c1.122,0.834,2.243,1.677,3.429,2.42    c0.157-0.036,0.316-0.229,0.315-0.396c-1.232-0.67-2.394-1.492-3.475-2.372c0.293-0.508,0.397-1.088,0.518-1.654    c0.216-1.431,0.378-2.871,0.385-4.319c-0.038-0.341,0.092-0.667,0.117-1.004l-0.073,0.025c-0.14,0.414-0.095,0.86-0.187,1.283    c-0.184,1.828-0.544,3.639-1.033,5.409c-0.181-0.053-0.314-0.193-0.459-0.304c-0.701-0.587-1.406-1.171-2.073-1.797    c0.01-0.229,0.194-0.414,0.248-0.638c0.345-1.19,0.474-2.431,0.545-3.665c0.09-1.272,0.118-2.549,0.104-3.822l-0.085-0.006    c0.048,0.5-0.007,1.002-0.043,1.501c-0.219,2.095-0.538,4.186-1.105,6.217c-0.031,0.008-0.096,0.025-0.128,0.033    c-0.787-0.801-1.635-1.541-2.414-2.352c-0.118-0.155-0.404-0.282-0.328-0.511c0.56-1.265,0.579-2.672,0.777-4.02    c0.069-1.536,0.16-3.071,0.167-4.608l-0.084-0.008c0.036,0.353,0.016,0.71-0.067,1.055c-0.089,1.61-0.345,3.205-0.628,4.789    c-0.186,0.809-0.295,1.647-0.615,2.417l-0.089,0.011c-0.839-0.848-1.648-1.727-2.459-2.603l-0.026-0.084    c0.783-1.601,0.757-3.429,1.001-5.155c0.054-1.544,0.127-3.088,0.163-4.633l-0.092-0.003c0.106,0.458-0.108,0.897-0.087,1.356    c-0.231,2.673-0.644,5.341-1.365,7.93c-0.037-0.006-0.113-0.017-0.151-0.021c-0.946-1.071-1.897-2.139-2.809-3.238    c0.636-1.311,0.629-2.807,0.823-4.224c0.034-0.812,0.037-1.626,0.122-2.435c-0.011-0.534-0.013-1.067,0.056-1.597l-0.093,0.008    c0.03,0.199-0.011,0.391-0.068,0.579c-0.042,1.247-0.239,2.481-0.416,3.714c-0.174,1.168-0.42,2.325-0.745,3.46l-0.072,0.042    c-1.058-1.285-2.113-2.576-3.142-3.887l-0.016-0.092c0.533-1.683,0.486-3.479,0.569-5.226l-0.092-0.001    c-0.068,1.631-0.32,3.272-0.73,4.86l-0.083-0.001C48.287,11.749,45.942,8.486,43.634,5.219z M68.949,37.566    c-4.283,0.657-8.287,2.431-12.152,4.321c-4.461,2.242-8.752,4.81-12.917,7.561c-0.945,0.651-1.928,1.262-2.828,1.975l0.011,0.086    c2.928,1.758,5.525,4.311,6.711,7.571c0.91,2.445,0.987,5.161,0.314,7.673c1.045-0.187,2.081-0.454,3.146-0.519    c0.709-0.048,1.433,0.093,2.065,0.416c1.296,0.644,2.574,1.346,3.97,1.752c1.857,0.541,3.846,0.646,5.75,0.299    c0.326-0.095,0.809-0.166,0.892-0.561c0.022-0.395-0.378-0.6-0.655-0.79c-0.926-0.526-1.96-0.838-2.999-1.047    c-0.021,0.378,0.151,0.749,0.1,1.121c-0.309,0.421-0.742,0.839-1.291,0.87c-0.55-0.021-0.937-0.494-1.202-0.927    c-0.118-0.396-0.064-0.824-0.088-1.233c-0.386-0.106-0.771,0.081-1.156,0.11c-0.947,0.15-1.949-0.003-2.797-0.453l0.008-0.087    c1.317-0.42,2.603-0.958,3.939-1.312c0.121-5.16,0.938-10.341,2.708-15.205c1.533-3.978,4.372-7.344,7.724-9.929    c0.702-0.59,1.494-1.067,2.174-1.684l0.02-0.09C69.912,37.45,69.429,37.525,68.949,37.566z M27.972,51.459    c-3.04,0.508-6.004,2-7.905,4.476c-1.422,1.812-2.164,4.086-2.351,6.364c0.015,0.177,0.235,0.196,0.355,0.28    c0.859,0.396,1.733,0.763,2.634,1.055l0.117-0.04c0.219-2.575,1.009-5.116,2.421-7.29c1.295-2.02,3.112-3.709,5.229-4.834    c0.015-0.034,0.045-0.101,0.061-0.135C28.357,51.415,28.164,51.436,27.972,51.459z M34.207,51.705    c-0.615,0.133-1.225,0.543-1.386,1.182c-0.198,0.795,0.226,1.578,0.711,2.18c0.945,1.122,2.284,1.87,3.683,2.269    c1.081,0.256,2.34,0.406,3.324-0.227c0.606-0.369,0.792-1.164,0.593-1.815c-0.254-0.815-0.848-1.473-1.488-2.016    c-0.103-0.066-0.19-0.195-0.325-0.185c-0.257,0.426-0.441,0.89-0.597,1.361c-0.179,0.602-0.146,1.256-0.403,1.835    c-0.048,0.011-0.145,0.036-0.193,0.048c-1.208-0.28-2.321-0.978-3.086-1.955c-0.055-0.105-0.223-0.218-0.142-0.346    c1.103-0.26,1.933-1.102,2.762-1.818l0.01-0.093C36.584,51.688,35.366,51.43,34.207,51.705z M49.035,70.269    c-1.852,0.868-3.484,2.225-4.614,3.936c-1.13,1.705-1.725,3.726-1.891,5.755l0.045,0.091c0.832,0.408,1.689,0.769,2.563,1.081    c0.156,0.048,0.31,0.152,0.482,0.119c0.127-0.734,0.156-1.486,0.349-2.211c0.411-1.933,1.186-3.79,2.301-5.424    c1.201-1.778,2.82-3.262,4.675-4.339c0.132-0.086,0.292-0.146,0.367-0.294C51.839,69.215,50.38,69.604,49.035,70.269z"/>
	</g>
</g>
</svg>