<svg xmlns="http://www.w3.org/2000/svg" xmlns:xlink="http://www.w3.org/1999/xlink" version="1.1" id="Layer_1" x="0px" y="0px" width="100px" height="100px" viewBox="0 0 100 100" enable-background="new 0 0 100 100" xml:space="preserve">
<path fill="#000000" d="M25.531,23.026c0-6.345-5.144-11.489-11.489-11.489S2.553,16.681,2.553,23.026  c0,6.346,5.144,11.49,11.489,11.49S25.531,29.372,25.531,23.026z M60.877,31.503c6.346,0,11.49-5.144,11.49-11.489  c0-6.345-5.145-11.489-11.49-11.489c-6.345,0-11.488,5.144-11.488,11.489C49.389,26.359,54.532,31.503,60.877,31.503z   M40.851,67.329c0,0,3.404-15.697-2.554-17.21c-5.499-1.397-9.01,0-9.01,0v-3.404l-10.564-3.688l17.021,3.688  c0,0,7.659,3.688,10.213,0c2.553-3.688,0-2.837-3.121-3.688c-3.12-0.851-2.27-2.27-2.27-2.27s-3.688,1.986-4.538,0.851  c-0.852-1.135,5.39-3.404,5.39-3.404s-0.852-2.27-5.39,0c0,0-4.681-4.255-13.901-4.255c0,0-2.553,3.688-12.198,2.27  c0,0,4.539,10.212,4.255,17.872c-0.283,7.66,1.702,11.064,7.377,17.307c0,0,0.283,4.822-5.816,7.092c0,0-5.532,1.985-2.837,6.809  s3.267,6.241,8.654,6.241c5.389,0,8.654-6.241,0-6.241c0,0,9.644-7.376,7.941-15.32c-1.702-7.942-2.553-9.928-2.553-9.928  l7.376-3.121c0,0,0,8.227,0,13.333s1.135,9.361,6.524,5.106s9.078-6.524,7.376-9.646C46.524,62.602,40.851,67.329,40.851,67.329z   M34.042,40.474c0,0-1.418,0-14.185-2.837C19.857,37.637,29.786,36.786,34.042,40.474z M74.705,44.823c0,0,0.541-3.853-0.474-10.875  c-0.997-6.906-7.187-2.081-7.187-2.081s-3.877,3.12-10.496,1.04c0,0-1.23,5.012-15.509,3.688c0,0,1.039,0.284,1.891,1.608  c0,0-5.765,2.341-5.769,2.742c-0.009,1.003,4.634-1.372,4.634-1.372s-1.134,1.655,0.096,2.223c1.229,0.567,5.295,0.567,5.768,2.553  c0,0-0.013-1.702,0.986-1.513s14.522,1.049,19.629-3.826c0,0-1.798,3.258-6.147,4.015l-0.189,2.648c0,0-8.037,0.945-11.252,7.186  c0,0-4.445,1.513-2.459,4.539c0,0-3.215,1.797-1.229,2.837c1.986,1.039,4.634,1.039,4.634,1.039s3.31,3.972,4.444,4.634  c0,0-5.768,7.566-0.852,10.592c4.917,3.025,9.078-9.646,7.187-11.82c-1.891-2.175-2.363-3.688-2.363-3.688  c-1.702-2.223-3.972-5.012-3.972-5.012c3.175,0.686,3.972,5.012,3.972,5.012s3.121,0.095,3.783-1.323l-1.514-2.085h1.419  c0,0,3.404,9.934,13.711,5.157c0,0-0.945,2.223-5.012,2.506c0,0,2.27,2.081-0.852,6.053c-3.12,3.972-7.376,8.889-6.052,10.401  c1.324,1.514,5.769,8.605,10.308,7.66s-1.985-8.983-1.985-8.983s3.782-4.16,5.769-8.417c1.985-4.255,1.04-7.658,0-10.495  c0,0,2.08-1.229,3.972-3.782c1.891-2.554,5.2-4.918,6.809-4.823C90.402,52.861,87.327,45.968,74.705,44.823z M50.667,39.333  c-4.444,0.336-7.357,0.478-7.357,0.478s3.594-1.607,7.849-1.607s13.428-2.932,13.428-2.932  C62.506,36.88,55.109,38.998,50.667,39.333z M58.917,53.25c-3.5-3.121-6.437-0.861-6.437-0.861c5.675-5.201,10.12,3.593,10.12,3.593  S62.415,56.37,58.917,53.25z M82.539,19.41c6.597,6.59,14.908,0.956,14.908,0.956c-3.057,1.724-10.117-4.562-10.117-4.562  l3.231,0.721c-1.92-3.539-8.892-6.393-8.892-6.393l1.909-0.904c-7.273-3.108-11.591,4.247-11.591,4.247  c1.059,1.105,1.236,2.5,1.236,2.5S75.941,12.821,82.539,19.41z"/>
</svg>