<svg xmlns="http://www.w3.org/2000/svg" xmlns:xlink="http://www.w3.org/1999/xlink" version="1.1" id="chorus" x="0px" y="0px" width="100px" height="100px" viewBox="0 0 100 100" enable-background="new 0 0 100 100" xml:space="preserve">
<path fill="#000000" d="M49.578,17.002c-9.072-0.784-16.596,0.502-16.801,2.875c-0.204,2.372,6.984,4.929,16.057,5.718  c9.074,0.781,16.597-0.505,16.802-2.879C65.84,20.345,58.651,17.788,49.578,17.002z M49.291,22.063  c-5.82-0.468-10.552-1.445-10.573-2.188c-0.017-0.743,4.687-0.967,10.504-0.501c5.821,0.465,10.553,1.442,10.574,2.185  C59.811,22.303,55.108,22.526,49.291,22.063z"/>
<path fill="#000000" d="M64.635,60.424c-0.416-11.675-6.134-18.049-17.358-18.915c2.181,6.414,5.914,14.667,8.81,21.505  c1.309,3.093,3.229,5.61,2.85,9.328c-0.535,5.284-6.328,10.812-11.658,10.884c-8.65,0.116-11.49-12.321-4.924-16.843  c2.437-1.678,5.275-1.564,9.588-1.555c-3.812-10.872-8.882-22.73-13.216-33.943c1.623-0.978,2.068-1.059,3.368-1.812  c6.716,7.155,22.915,8.019,24.874,19.951C67.554,52.596,67.294,58.867,64.635,60.424z"/>
</svg>