<svg xmlns="http://www.w3.org/2000/svg" xmlns:xlink="http://www.w3.org/1999/xlink" version="1.1" id="Layer_1" x="0px" y="0px" width="38.4px" height="63px" viewBox="0 0 38.4 63" style="enable-background:new 0 0 38.4 63;" xml:space="preserve">
<g>
	<path d="M35.7,26.7c1.8-1.7,2.7-3.8,2.7-6.3s-0.9-4.7-2.7-6.4c-1.7-1.8-3.8-2.6-6.3-2.6c-2.6,0-4.8,0.8-6.5,2.6   c-1.6,1.6-2.5,3.6-2.6,5.9h-4.4L12.3,8.7v0.1c-0.101-0.6-0.5-1.1-1.2-1.7l-10.3-7C0.7,0,0.6,0,0.5,0C0.3,0,0.2,0.1,0.1,0.2   C0.1,0.4,0,0.5,0,0.6l0.2,2.7C0.2,3.4,0.3,3.5,0.3,3.5c0,0.1,0.1,0.1,0.2,0.2l8.7,5.8l3.4,10.4l-5.8-0.1L6.7,19.9   C6.5,20,6.5,20,6.5,20.1c-0.1,0.1-0.1,0.2-0.1,0.3l4.4,40.3c0.1,1.4,0.899,2.1,2.3,2.3h11.1c0.101,0,0.101,0,0.101,0   c1.5-0.2,2.2-0.9,2.3-2.3L30,29.4C32.3,29.2,34.1,28.4,35.7,26.7L35.7,26.7z M37.4,20.4c0,2.2-0.9,4.1-2.4,5.6   c-1.5,1.6-3.4,2.4-5.6,2.4c-2.3,0-4.3-0.8-5.8-2.4c-1.5-1.5-2.3-3.4-2.3-5.6c0-2.3,0.8-4.2,2.3-5.8c1.5-1.5,3.5-2.2,5.8-2.2   c2.2,0,4.1,0.7,5.6,2.2C36.5,16.2,37.4,18.1,37.4,20.4z M10.1,9C10,8.9,9.9,8.8,9.8,8.7L1.2,3L1.1,1.5L10.6,8   c0.3,0.3,0.6,0.6,0.7,1h0.1l13.7,41.6l-0.4,2.8L13.8,20.4c0-0.1,0-0.2,0-0.2L10.1,9z M17.6,47.5c-0.2-0.3-0.3-0.6-0.3-0.9   c0-0.4,0.1-0.7,0.3-1c0.3-0.2,0.7-0.4,1-0.4s0.7,0.2,0.9,0.4c0.3,0.3,0.4,0.6,0.4,1c0,0.3-0.1,0.6-0.4,0.9   c-0.2,0.2-0.6,0.3-0.9,0.3S17.9,47.7,17.6,47.5z M22.6,51.9c0.4,0.4,0.5,0.8,0.5,1.3c0,0.4-0.1,0.8-0.5,1.1   c-0.2,0.3-0.7,0.4-1.1,0.4c-0.5,0-0.9-0.1-1.2-0.4c-0.3-0.3-0.4-0.7-0.4-1.1c0-0.5,0.1-0.9,0.4-1.3c0.3-0.3,0.7-0.4,1.2-0.4   C21.9,51.5,22.4,51.6,22.6,51.9z M17.9,52.1c-0.3,0-0.6-0.2-0.8-0.4c-0.2-0.1-0.3-0.4-0.3-0.8c0-0.3,0.1-0.5,0.3-0.7   c0.2-0.2,0.5-0.3,0.8-0.3s0.5,0.1,0.7,0.3c0.3,0.2,0.3,0.4,0.3,0.7c0,0.4,0,0.7-0.3,0.8C18.4,51.9,18.2,52.1,17.9,52.1z M16.3,20.9   h4c0.1,2.2,1,4.2,2.6,5.8c1.7,1.8,3.7,2.7,6,2.7l-3.3,31.2l0,0c-0.1,0.8-0.6,1.3-1.5,1.4H13.3c-0.9-0.1-1.4-0.6-1.5-1.4l0,0   L7.5,20.8l5.4,0.1l3.6,11H9.6l3,26.5c0,1.1,0.6,1.6,1.8,1.8H23c1.1-0.2,1.8-0.7,1.8-1.8l3-26.5L20,31.8L16.3,20.9z"/>
	<path d="M34.9,25.4c1.2-1.3,1.9-2.9,2-4.7h-6.6L34.9,25.4z"/>
	<path d="M36.9,19.9c-0.1-1.8-0.8-3.3-2-4.7l-4.8,4.7H36.9z"/>
	<path d="M23.7,15.3c-1.3,1.3-1.899,2.8-1.899,4.6h6.6L23.7,15.3z"/>
	<path d="M29.7,19.3l4.601-4.7c-1.3-1.1-2.9-1.7-4.601-1.7V19.3z"/>
	<path d="M28.9,19.4v-6.5c-1.8,0-3.3,0.6-4.6,1.7L28.9,19.4z"/>
	<path d="M28.3,20.7h-6.5c0,1.8,0.6,3.4,1.899,4.7L28.3,20.7z"/>
	<path d="M29.7,27.9c1.7-0.2,3.3-0.8,4.601-2L29.7,21.4V27.9z"/>
	<path d="M24.3,25.9c1.3,1.2,2.8,1.8,4.6,2v-6.7L24.3,25.9z"/>
</g>
</svg>