<svg xmlns="http://www.w3.org/2000/svg" xmlns:xlink="http://www.w3.org/1999/xlink" version="1.1" x="0px" y="0px" width="100px" height="100px" viewBox="0 0 100 100" enable-background="new 0 0 100 100" xml:space="preserve">
<g id="Captions">
	<rect x="-192" width="185" height="99"/>
	<rect y="-36" width="100" height="30"/>
	<text transform="matrix(1 0 0 1 66 -19.5)" fill="#000000" font-family="'Helvetica'" font-size="2.4">http://thenounproject.com</text>
	<text transform="matrix(1 0 0 1 7.166 -24.5)"><tspan x="0" y="0" fill="#000000" font-family="'Helvetica-Bold'" font-size="6.1578">The Noun Project</tspan><tspan x="1.12" y="4.8" fill="#000000" font-family="'Helvetica-Bold'" font-size="4">Icon Template</tspan></text>
	<text transform="matrix(1 0 0 1 -178.5 10.5)" fill="#000000" font-family="'Helvetica-Bold'" font-size="6.1578">Reminders</text>
	<line fill="#000000" stroke="#FFFFFF" stroke-miterlimit="10" x1="8" y1="-14.5" x2="18" y2="-14.5"/>
	<line fill="#000000" stroke="#FFFFFF" stroke-miterlimit="10" x1="-179" y1="16.5" x2="-162" y2="16.5"/>
	<g>
		<g>
			<g>
				<rect x="-170.802" y="31.318" fill="#000000" width="8.721" height="8.642"/>
				<path fill="#000000" d="M-164.455,42.312h4.747v-4.703h-4.747V42.312z M-159.266,42.749h-5.63V37.17h5.63V42.749      L-159.266,42.749z M-166.221,44.062h8.279v-8.203h-8.279V44.062L-166.221,44.062z M-157.5,44.5h-9.163v-9.079h9.163V44.5      L-157.5,44.5z"/>
				<polygon fill="#000000" points="-166.149,44.133 -166.292,43.991 -158.013,35.787 -157.871,35.929     "/>
			</g>
		</g>
	</g>
	<rect x="-179" y="58" fill="none" width="35" height="32.5"/>
	<text transform="matrix(1 0 0 1 -179 60.1572)"><tspan x="0" y="0" fill="#000000" font-family="'Helvetica-Bold'" font-size="3">Strokes</tspan><tspan x="0" y="5" fill="#000000" font-family="'Helvetica'" font-size="2.4">Try to keep strokes at 4px</tspan><tspan x="0" y="10" fill="#000000" font-family="'Helvetica'" font-size="2.4">Minimum stroke weight is 2px</tspan><tspan x="0" y="14.5" fill="#000000" font-family="'Helvetica'" font-size="2.4">For thicker strokes use even </tspan><tspan x="0" y="17.5" fill="#000000" font-family="'Helvetica'" font-size="2.4">numbers: 6px, 8px etc.</tspan><tspan x="0" y="22" fill="#000000" font-family="'Helvetica-Bold'" font-size="2.4">Remember to expand strokes </tspan><tspan x="0" y="25" fill="#000000" font-family="'Helvetica-Bold'" font-size="2.4">before saving as an SVG </tspan></text>
	<rect x="-136.5" y="58" fill="none" width="35" height="32.5"/>
	<text transform="matrix(1 0 0 1 -136.5 60.1572)"><tspan x="0" y="0" fill="#000000" font-family="'Helvetica-Bold'" font-size="3">Size</tspan><tspan x="0" y="5" fill="#000000" font-family="'Helvetica'" font-size="2.4">Cannot be wider or taller than </tspan><tspan x="0" y="8.5" fill="#000000" font-family="'Helvetica'" font-size="2.4">100px (artboard size)</tspan><tspan x="0" y="13.5" fill="#000000" font-family="'Helvetica'" font-size="2.4">Scale your icon to fill as much of </tspan><tspan x="0" y="16.5" fill="#000000" font-family="'Helvetica'" font-size="2.4">the artboard as possible</tspan></text>
	<rect x="-94" y="58" fill="none" width="35" height="32.5"/>
	<text transform="matrix(1 0 0 1 -94 60.1572)"><tspan x="0" y="0" fill="#000000" font-family="'Helvetica-Bold'" font-size="3">Ungroup</tspan><tspan x="0" y="5" fill="#000000" font-family="'Helvetica'" font-size="2.4">If your design has more than one </tspan><tspan x="0" y="8" fill="#000000" font-family="'Helvetica'" font-size="2.4">shape, make sure to ungroup</tspan></text>
	<rect x="-50" y="58" fill="none" width="35" height="32.5"/>
	<text transform="matrix(1 0 0 1 -50 60.1572)"><tspan x="0" y="0" fill="#000000" font-family="'Helvetica-Bold'" font-size="3">Save as</tspan><tspan x="0" y="5" fill="#000000" font-family="'Helvetica'" font-size="2.4">Save as .SVG and make sure </tspan><tspan x="0" y="8" fill="#000000" font-family="'Helvetica'" font-size="2.4">&#8220;Use Artboards&#8221; is checked</tspan></text>
	<text transform="matrix(1.0074 0 0 1 -125.542 30.5933)" fill="#000000" font-family="'Helvetica'" font-size="2.5731">100px</text>
	<text transform="matrix(1.0074 0 0 1 -41 39)" fill="#000000" font-family="'Helvetica-Bold'" font-size="5.1462">.SVG</text>
	<rect x="-126.514" y="34.815" fill="#000000" width="10.261" height="10.185"/>
	<rect x="-126.477" y="31.766" fill="#000000" width="0.522" height="2.337"/>
	<rect x="-116.812" y="31.766" fill="#000000" width="0.523" height="2.337"/>
	<rect x="-127" y="32.337" fill="#000000" width="11.233" height="0.572"/>
	<g>
		<rect x="-83.805" y="33.844" fill="#000000" width="10.305" height="10.156"/>
		<rect x="-76.809" y="28.707" fill="#000000" width="3.308" height="3.261"/>
	</g>
	<rect x="-178.5" y="22.5" fill="#000000" stroke="#FFFFFF" stroke-miterlimit="10" width="30" height="30"/>
	<rect x="-136.5" y="22.5" fill="#000000" stroke="#FFFFFF" stroke-miterlimit="10" width="30" height="30"/>
	<rect x="-93.5" y="22.5" fill="#000000" stroke="#FFFFFF" stroke-miterlimit="10" width="30" height="30"/>
	<rect x="-49.5" y="22.5" fill="#000000" stroke="#FFFFFF" stroke-miterlimit="10" width="30" height="30"/>
</g>
<g id="Your_Icon">
	<path d="M92.068,16.912c-0.28-0.284-0.67-0.447-1.068-0.447c-0.98,0-1.959,0.044-2.937,0.107l0.033-2.522   c0.007-0.535-0.2-1.05-0.576-1.431s-0.889-0.631-1.424-0.631c-0.61,0-1.221,0.012-1.83,0.012c0.002,0,0.005,0,0.007,0l0.025-2.034   c0.007-0.534-0.201-1.032-0.577-1.412s-0.889-0.585-1.423-0.585c-17.174,0-33.883,15.117-38.79,19.952   C31.399,16.725,15.217,9.452,14.507,9.136c-0.627-0.279-1.353-0.216-1.924,0.166c-0.571,0.381-0.907,1.028-0.889,1.714l0.067,2.636   c0.03,0.013,0.07,0.032,0.101,0.045c-0.672-0.292-1.097-0.468-1.202-0.512c-0.625-0.257-1.338-0.181-1.896,0.205   c-0.557,0.385-0.881,1.024-0.862,1.701l0.082,2.969c-0.923-0.348-1.455-0.536-1.487-0.547c-0.461-0.162-0.985-0.085-1.385,0.207   c-0.398,0.293-0.627,0.763-0.611,1.257l2,61.687c0.023,0.71,0.548,1.312,1.248,1.43c16.448,2.798,36.087,15.088,36.285,15.213   c0.241,0.15,0.518,0.23,0.8,0.23c0.179,0,0.355-0.031,0.522-0.094c17.855-6.632,44.738-13.378,45.008-13.445   c0.659-0.164,1.126-0.753,1.137-1.432l1-64.578C92.506,17.588,92.349,17.197,92.068,16.912z M7.571,21.111   c5.863,2.241,22.558,9.063,34.513,18.282c0.149,0.114,0.32,0.188,0.499,0.237c-0.645,0.201-1.108,0.848-1.082,1.55l1.931,52.252   c-0.154-0.091-0.311-0.184-0.479-0.281L40,40c-4.567-5.48-28.313-15.962-32.392-17.736L7.571,21.111z M45.233,60.875l4.725,3.365   l-4.503,2.667L45.233,60.875z M45.503,68.198l4.627,1.319l-4.407,4.656L45.503,68.198z M46.449,93.851l-0.712-19.314l6.247-0.247   l-3.102,6.051l6.457-2.252l-1.134,6.469l5.666-4.016l0.936,6.258l4.317-5.391l2.924,5.434l2.543-6.238l4.625,4.078l0.522-6.473   l5.871,2.32l-1.549-6.072l6.543,0.336l-3.463-5.084l5.581-1.424l-0.203,13.086C83.412,82.677,62.226,88.196,46.449,93.851z    M65.67,75.34c0-1.381,1.468-2.5,3.281-2.5s3.281,1.119,3.281,2.5s-1.468,2.5-3.281,2.5S65.67,76.721,65.67,75.34z M84.663,64.439   l4.155-2.459l-0.083,5.358L84.663,64.439z M84.489,59.162l4.445-4.695l-0.092,5.938L84.489,59.162z M88.939,54.142l-6.301,0.249   l3.101-6.049l-6.456,2.251l1.134-6.469l-2.727,1.933L73.326,72.84c-2.188-2-7.656,0-7.656,0l-5.539-28.202L59.408,44l-0.524,6.472   l-5.323-2.104c0.366-0.178,0.699-0.335,0.966-0.454c0.742-0.329,1.51-0.669-0.32-12.27c-0.048-0.307-0.236-0.574-0.509-0.723   c-0.274-0.148-0.601-0.163-0.884-0.036c-0.149,0.066-3.694,1.642-6.42,3.253c-0.329,0.195-0.519,0.56-0.488,0.941l0.902,11.2   c0.027,0.336,0.221,0.635,0.517,0.797c0.149,0.082,0.314,0.123,0.48,0.123c0.162,0,0.323-0.039,0.47-0.117   c0.036-0.019,2.817-1.497,4.851-2.502l1.436,5.644l-6.54-0.336l3.461,5.084l-6.261,1.598l-0.723-19.595   c-0.025-0.666-0.482-1.186-1.09-1.352c0.202-0.055,0.395-0.136,0.558-0.272c0.228-0.192,22.817-19.031,45.51-19.859L88.939,54.142z    M48.68,48.608l-0.73-9.059c1.566-0.888,3.339-1.751,4.481-2.287c0.559,3.771,1.002,7.788,0.899,8.999   C52.058,46.854,50.021,47.906,48.68,48.608z M57.265,26.777c-0.681,0.382-1.339,0.765-1.984,1.145   c7.548-5.296,18.139-11.153,28.789-11.833l-0.012,0.901C73.798,18.488,64.103,22.932,57.265,26.777z M80.274,12   c-8.739,2-17.096,5.725-23.787,10.001c6.546-4.729,15.147-9.644,23.786-10.314L80.269,12C80.271,12,80.272,12,80.274,12z    M82.285,12.229c-0.031,0.003-0.063,0.008-0.095,0.012C82.222,12.237,82.254,12.232,82.285,12.229z M43.517,32.116   c-0.176,0.159-0.342,0.309-0.495,0.449C43.174,32.425,43.341,32.274,43.517,32.116z M56.213,22.426   c-0.329,0.212-0.656,0.424-0.978,0.636C55.557,22.85,55.884,22.638,56.213,22.426z M54.74,23.394   c-0.244,0.164-0.488,0.328-0.728,0.492C54.252,23.722,54.496,23.558,54.74,23.394z M53.5,24.239   c-0.225,0.156-0.449,0.312-0.668,0.466C53.052,24.551,53.274,24.395,53.5,24.239z M52.332,25.06   c-0.216,0.155-0.43,0.309-0.641,0.462C51.902,25.369,52.116,25.215,52.332,25.06z M51.225,25.862   c-0.218,0.16-0.432,0.319-0.644,0.478C50.793,26.181,51.007,26.022,51.225,25.862z M50.169,26.647   c-0.231,0.174-0.455,0.346-0.678,0.517C49.714,26.992,49.938,26.821,50.169,26.647z M49.165,27.414   c-0.654,0.505-1.271,0.995-1.851,1.464C47.894,28.409,48.511,27.919,49.165,27.414z M47.054,29.091   c-0.199,0.162-0.396,0.324-0.585,0.48C46.658,29.415,46.854,29.254,47.054,29.091z M46.186,29.808   c-0.171,0.143-0.34,0.284-0.502,0.421C45.846,30.091,46.014,29.95,46.186,29.808z M45.409,30.461   c-0.155,0.132-0.307,0.262-0.454,0.389C45.103,30.723,45.253,30.594,45.409,30.461z M44.709,31.062   c-0.148,0.129-0.291,0.254-0.43,0.376C44.418,31.316,44.56,31.192,44.709,31.062z M44.082,31.612   c-0.149,0.132-0.29,0.258-0.427,0.38C43.792,31.87,43.932,31.745,44.082,31.612z M39.49,29.702   c-8.48-6.523-17.974-11.488-23.68-14.203l-0.034-1.313C20.712,16.66,31.031,22.271,39.49,29.702z M14.709,14.981   c-0.106-0.05-0.211-0.098-0.314-0.146C14.499,14.884,14.602,14.932,14.709,14.981z M13.57,14.458   c-0.043-0.02-0.092-0.042-0.135-0.062C13.479,14.415,13.526,14.438,13.57,14.458z M12.625,14.032   c-0.077-0.034-0.151-0.067-0.224-0.099C12.475,13.965,12.546,13.997,12.625,14.032z M11.988,18.141   c4.084,1.871,11.978,5.74,19.784,10.961c-7.455-4.205-14.887-7.476-19.743-9.454L11.988,18.141z"/>
	<path d="M59,33l7,39c0,0,2.223-0.889,4.296-0.889c1.037,0,2.037,0.222,2.704,0.889l7-47C80,25,62,28,59,33z M75.203,30.055   l-5.521,37.073c-0.163,0.009-0.325,0.021-0.486,0.035l-5.9-32.878C65.279,32.954,69.955,31.307,75.203,30.055z"/>
</g>
</svg>