<svg xmlns="http://www.w3.org/2000/svg" xmlns:xlink="http://www.w3.org/1999/xlink" version="1.1" x="0px" y="0px" width="100px" height="100px" viewBox="0 0 100 100" enable-background="new 0 0 100 100" xml:space="preserve">
<g id="Captions">
</g>
<g id="Your_Icon">
	<path d="M91,3V0H10v3l4,1.726v90.548L10,97v3h81v-3l-4-1.726V4.726L91,3z M43.5,10h14c1.381,0,2.5,1.119,2.5,2.5S58.881,15,57.5,15   h-14c-1.381,0-2.5-1.119-2.5-2.5S42.119,10,43.5,10z M38.758,60.191c1.715-4.334,8.012-3.688,8.182-3.753   c0.1-0.551,1.194-0.932,2.612-1.093c-0.377-1.625-0.632-4.32-0.655-6.345c-5.086,0.694-6.25-3.758-6.25-3.758   c1.187-0.915,4.654-0.646,6.312,1.421c0.118-1.777,0.4-3.49,0.877-4.87c-0.665-0.085-11.335-2.211-8.577-14.598   c0,0,9.555,0.873,10.236,10.657c1.336-3.71,3.532-5.755,9.501-5.329c0,0-0.73,7.147-8.255,9.043   c-2.74,6.975-0.146,13.669-0.066,13.783c1.861,0.207,3.565,0.786,4.003,1.854c0.016,0.006,5.127-0.153,7.228,3.663   c1.114,0.363,5.161,1.248,4.655,3.011c-0.222,0.011-35.668-0.01-36.396,0.002C32.793,63.07,35.46,60.691,38.758,60.191z M70,86H30   c-1.104,0-2-0.896-2-2s0.896-2,2-2h40c1.104,0,2,0.896,2,2S71.104,86,70,86z M70,76H30c-1.104,0-2-0.896-2-2s0.896-2,2-2h40   c1.104,0,2,0.896,2,2S71.104,76,70,76z"/>
</g>
<g id="Layer_4" display="none">
</g>
<g id="working_layer" display="none">
</g>
</svg>