<svg xmlns="http://www.w3.org/2000/svg" xmlns:xlink="http://www.w3.org/1999/xlink" version="1.1" id="Layer_1" x="0px" y="0px" width="100px" height="100px" viewBox="0 0 100 100" enable-background="new 0 0 100 100" xml:space="preserve">
<g>
	<path d="M89.6,89.072c-0.236-0.337-0.621-0.538-1.033-0.538H12.697c-0.373,0-0.726,0.164-0.966,0.449L4.15,97.981   c-0.317,0.377-0.387,0.902-0.18,1.348c0.208,0.445,0.654,0.73,1.146,0.73h89.767c0.473,0,0.904-0.263,1.123-0.681   c0.217-0.419,0.184-0.924-0.088-1.309L89.6,89.072z M87.201,90.126l0.721,1.242h-2.986l-0.621-1.242H87.201z M55.076,90.126h3.061   l0.053,1.242h-3.158L55.076,90.126z M54.955,93.413h3.32l0.055,1.241h-3.42L54.955,93.413z M49.252,90.126h3.052l-0.08,1.242   h-3.152L49.252,90.126z M48.778,93.413h3.314l-0.082,1.241h-3.411L48.778,93.413z M43.433,90.126h3.032l-0.214,1.242h-3.13   L43.433,90.126z M42.606,93.413h3.293l-0.214,1.241h-3.392L42.606,93.413z M37.62,90.126h2.997l-0.347,1.242h-3.095L37.62,90.126z    M36.44,93.413h3.258l-0.346,1.241h-3.357L36.44,93.413z M31.813,90.126h2.95l-0.48,1.242h-3.048L31.813,90.126z M30.281,93.413   h3.21l-0.479,1.241h-3.31L30.281,93.413z M26.012,90.126h2.891l-0.613,1.242h-2.99L26.012,90.126z M20.216,90.126h2.822   l-0.747,1.242h-2.921L20.216,90.126z M14.423,90.126h2.745l-0.879,1.242h-2.844L14.423,90.126z M11.705,97.836H8.346l0.978-1.24   h3.259L11.705,97.836z M13.96,94.654h-3.105l0.978-1.241h3.007L13.96,94.654z M18.402,97.836h-3.436l0.845-1.24h3.337   L18.402,97.836z M20.316,94.654h-3.183l0.845-1.241h3.084L20.316,94.654z M25.095,97.836h-3.504l0.711-1.24h3.406L25.095,97.836z    M26.667,94.654h-3.251l0.711-1.241h3.152L26.667,94.654z M28.219,97.836l0.578-1.24h29.617l0.053,1.24H28.219z M60.91,90.126   h3.053l0.186,1.242h-3.15L60.91,90.126z M61.143,93.413h6.193l-0.582-3.287h3.029l1.189,4.528H61.23L61.143,93.413z M61.453,97.836   l-0.088-1.24h3.568l0.186,1.24H61.453z M68.123,97.836l-0.221-1.24h3.545l0.318,1.24H68.123z M72.6,90.126h2.996l0.453,1.242   h-3.096L72.6,90.126z M73.537,93.413h3.256l0.451,1.241h-3.354L73.537,93.413z M74.799,97.836l-0.354-1.24h3.51l0.451,1.24H74.799z    M78.455,90.126H81.4l0.586,1.242h-3.045L78.455,90.126z M79.744,93.413h3.207l0.586,1.241H80.23L79.744,93.413z M81.48,97.836   l-0.486-1.24h3.461l0.584,1.24H81.48z M85.957,93.413h3.148l0.721,1.241h-3.25L85.957,93.413z M88.168,97.836l-0.619-1.24h3.4   l0.719,1.24H88.168z"/>
	<path d="M33.333,84.576c-1.216,1.216,0.695,1.911,0.695,1.911h15.751h0.056h0.056h15.75c0,0,1.91-0.695,0.695-1.911   c-1.217-1.216-4.518-2.085-4.863-7.296c-0.027-0.409-0.011-2.043-0.006-4.169H38.201c0.005,2.126,0.022,3.76-0.005,4.169   C37.849,82.491,34.548,83.36,33.333,84.576z"/>
	<path d="M96,0H4C1.8,0,0,1.8,0,4v63.921c0,2.2,1.8,4,4,4h92c2.2,0,4-1.8,4-4V4C100,1.8,98.2,0,96,0z M50.616,69.289   c-1.679,0-3.04-1.36-3.04-3.039s1.361-3.04,3.04-3.04s3.04,1.361,3.04,3.04S52.295,69.289,50.616,69.289z M94.651,56.262H5.539   V5.539h89.112V56.262z"/>
</g>
</svg>