<svg xmlns="http://www.w3.org/2000/svg" xmlns:xlink="http://www.w3.org/1999/xlink" version="1.1" x="0px" y="0px" width="100px" height="100px" viewBox="0 0 100 100" enable-background="new 0 0 100 100" xml:space="preserve">
<g id="Captions">
</g>
<g id="Your_Icon">
	<path d="M82.754,55.555c-1.188-1.95-1.736-4.109-1.711-6.236c-4.66-1.079-8.9-3.954-11.586-8.362   c-2.188-3.594-2.998-7.64-2.584-11.524c-1.24-0.931-2.332-2.104-3.188-3.51c-3.588-5.889-1.746-13.564,4.111-17.188   C55.074,3.532,40.136,4.23,27.499,11.93C6.368,24.804-0.326,52.369,12.547,73.5c12.874,21.133,40.441,27.826,61.572,14.952   C84.58,82.078,91.5,72.102,94.264,61.09C89.812,61.654,85.24,59.633,82.754,55.555z M29.228,27.971   c1.503-0.917,3.465-0.44,4.382,1.064c0.917,1.504,0.44,3.467-1.063,4.382c-1.504,0.916-3.466,0.439-4.383-1.063   C27.247,30.848,27.725,28.887,29.228,27.971z M33.345,73.586c-2.034,1.24-4.686,0.595-5.924-1.438   c-1.239-2.033-0.595-4.686,1.439-5.924c2.032-1.238,4.684-0.595,5.924,1.438C36.022,69.695,35.377,72.349,33.345,73.586z    M32.294,52.432c-1.239-2.032-0.594-4.684,1.438-5.924c2.033-1.237,4.685-0.595,5.924,1.44c1.238,2.031,0.594,4.684-1.439,5.922   C36.185,55.109,33.533,54.465,32.294,52.432z M52.623,66.368c-2.034,1.24-4.686,0.595-5.924-1.438   c-1.24-2.033-0.597-4.685,1.438-5.924c2.033-1.238,4.686-0.594,5.924,1.438C55.299,62.479,54.654,65.13,52.623,66.368z    M71.133,76.376c-2.033,1.238-4.684,0.596-5.924-1.438c-1.238-2.033-0.594-4.686,1.439-5.924c2.033-1.239,4.686-0.595,5.922,1.438   C73.811,72.485,73.166,75.139,71.133,76.376z M50.249,23.945c-2.032,1.238-4.684,0.595-5.923-1.438   c-1.239-2.035-0.594-4.686,1.44-5.924c2.032-1.24,4.684-0.595,5.924,1.438C52.926,20.055,52.281,22.707,50.249,23.945z"/>
</g>
</svg>