<svg xmlns="http://www.w3.org/2000/svg" xmlns:xlink="http://www.w3.org/1999/xlink" version="1.1" id="Layer_1" x="0px" y="0px" width="100px" height="100px" viewBox="0 0 100 100" enable-background="new 0 0 100 100" xml:space="preserve">
<circle cx="31.265" cy="13.424" r="6.253"/>
<circle cx="17.646" cy="12.433" r="6.254"/>
<circle cx="23.196" cy="25.185" r="6.253"/>
<path d="M79.013,23.401l-47.401-0.338V22.6c7.447,0,12.042-12.678,13.109-18.35c0.023-0.129,0.499-0.123,0.499-0.123  C50.385,7.036,57.089,6.247,60.859,0l0.612,0.038c3.882,6.39,10.843,7.072,16.051,3.876c0.133-0.007,0.26-0.007,0.463-0.001  c5.055,7.779,9.382,8.393,13.252,7.161l0.465,0.154c1.347,9.037,4.115,11.644,8.298,12.298v0.518  c-4.184,0.653-6.951,3.26-8.298,12.297l-0.465,0.155c-3.871-1.232-8.197-0.618-13.252,7.16c-0.203,0.009-0.328,0.008-0.463,0.001  c-5.209-3.199-12.17-2.515-16.051,3.875l-0.613,0.037c-3.769-6.247-10.474-7.037-15.639-4.127c0,0-0.476,0.006-0.5-0.123  c-1.067-5.672-5.661-18.349-13.108-18.35l-0.001-0.462l47.401-0.338L79.013,23.401z"/>
<path d="M18.321,73.9l18.452-43.663l0.428,0.177c-2.851,6.881,7.104,15.977,11.936,19.134c0.11,0.071-0.077,0.508-0.077,0.508  c-4.664,3.66-6.5,10.156-2.173,16.029l-0.269,0.551c-7.389,1.14-10.683,7.312-9.722,13.347c-0.045,0.127-0.094,0.243-0.178,0.428  c-9.121,1.692-11.343,5.454-11.688,9.504l-0.319,0.368c-8.865-2.213-12.333-0.653-14.538,2.962l-0.479-0.199  c0.997-4.114-0.353-7.671-8.186-12.373l0.034-0.486C4.164,77.079,5.253,72.847,0,65.2c0.07-0.189,0.119-0.307,0.177-0.428  c4.947-3.588,6.98-10.28,2.562-16.312l0.201-0.58c7.214-1.093,10.509-6.985,9.797-12.871c0,0,0.176-0.44,0.305-0.413  c5.648,1.184,19.119,1.791,21.97-5.09l0.428,0.177L17.612,73.606L18.321,73.9z"/>
</svg>