<svg xmlns="http://www.w3.org/2000/svg" xmlns:xlink="http://www.w3.org/1999/xlink" version="1.1" id="Layer_1" x="0px" y="0px" width="100px" height="100px" viewBox="0 0 100 100" enable-background="new 0 0 100 100" xml:space="preserve">
<path d="M84.311,55.457c-2.863,0-5.504,0.896-7.629,2.402c0.018,0.095,0.03,0.191,0.03,0.291v1.068  c2.034-1.654,4.69-2.66,7.599-2.66c6.383,0,11.578,4.846,11.578,10.801c0,5.957-5.195,10.803-11.578,10.803  c-4.779,0-8.883-2.717-10.651-6.578c-0.195,0.38-0.44,0.732-0.687,1.088c0.027,0.055,0.063,0.105,0.092,0.16  c-0.037-0.053-0.072-0.102-0.102-0.146c-0.219,0.315-0.434,0.635-0.605,0.975c-0.111,0.219-0.244,0.391-0.393,0.527  c0.43,4.242,2.833,7.965,9.594,9.879c0.484,0.137,0.99,0.047,1.469,0.047c3.994,0,7.193-1.1,9.527-3.278  c3.508-3.274,4.275-8.179,4.299-11.731c0.09-0.568,0.138-1.149,0.138-1.742C96.99,60.797,91.301,55.457,84.311,55.457z"/>
<ellipse cx="64.505" cy="52.517" rx="1.24" ry="3.123"/>
<path d="M62.869,58.302c-0.34,1.013-1.592,1.501-2.795,1.099c-1.201-0.405-1.901-1.553-1.563-2.563c0.34-1.01,1.592-1.5,2.795-1.097  C62.507,56.145,63.208,57.292,62.869,58.302z"/>
<ellipse transform="matrix(-0.6814 0.7319 -0.7319 -0.6814 148.9324 62.0348)" cx="60.965" cy="63.43" rx="2.827" ry="1.47"/>
<ellipse cx="65.146" cy="66.281" rx="1.242" ry="3.124"/>
<ellipse transform="matrix(-0.3188 0.9478 -0.9478 -0.3188 148.977 15.3822)" cx="68.961" cy="61.226" rx="1.93" ry="2.296"/>
<ellipse transform="matrix(0.6818 -0.7315 0.7315 0.6818 -18.6516 67.8632)" cx="68.685" cy="55.372" rx="2.829" ry="1.47"/>
<path d="M86.361,63.111c-0.283,1.133-0.918,1.949-1.418,1.822c-0.496-0.123-0.67-1.144-0.389-2.275  c0.284-1.133,0.918-1.951,1.418-1.825C86.471,60.957,86.646,61.979,86.361,63.111z"/>
<path d="M82.782,66.253c-0.413,0.601-1.404,0.694-2.214,0.211c-0.807-0.485-1.127-1.364-0.715-1.967  c0.414-0.603,1.402-0.696,2.211-0.213C82.875,64.771,83.195,65.65,82.782,66.253z"/>
<path d="M79.488,69.076c-0.961,0.557-1.465,1.391-1.125,1.861c0.342,0.471,1.4,0.402,2.363-0.154  c0.961-0.557,1.465-1.391,1.123-1.86C81.508,68.45,80.451,68.52,79.488,69.076z"/>
<ellipse transform="matrix(-0.2434 0.9699 -0.9699 -0.2434 172.3909 10.3781)" cx="82.147" cy="72.43" rx="2.115" ry="0.931"/>
<path d="M84.82,69.061c0.414-0.6,1.404-0.694,2.214-0.211c0.809,0.484,1.129,1.366,0.716,1.967  c-0.413,0.604-1.404,0.697-2.213,0.211C84.729,70.542,84.409,69.663,84.82,69.061z"/>
<path d="M88.115,66.236c0.963-0.557,1.466-1.391,1.123-1.86c-0.34-0.474-1.396-0.403-2.358,0.153  c-0.964,0.558-1.468,1.391-1.126,1.861C86.098,66.863,87.152,66.794,88.115,66.236z"/>
<path d="M67.798,39.871l0.005-0.007c-1.592-0.828-39.009-20.28-42.687-21.506c-7.044-2.35-16.5-1.656-19.492,3.557  C1.963,28.292,3.181,37.157,5.787,40.02c5.708,6.27,49.999,36.147,51.986,37.337l0.064-0.107c1.857,1.342,3.947,2.1,6.16,2.1  c7.65,0,13.875-9.027,13.875-20.125C77.874,50.038,73.607,42.273,67.798,39.871z M72.355,73.659  c-0.172,0.341-0.398,0.575-0.65,0.725c-2.145,2.423-4.813,3.862-7.706,3.862c-4.964,0-9.271-4.24-11.386-10.413  c-0.422-0.454-0.879-0.935-1.299-1.302c-0.758-0.66-1.168-0.967-1.847-1.399c-0.353-0.229-0.654-0.403-1.05-0.624  c-0.402-0.225-0.811-0.453-1.215-0.688c-0.814-0.469-1.63-0.949-2.449-1.45c-3.271-1.994-6.585-4.293-9.864-6.787  c-3.278-2.515-6.52-5.22-9.69-8.033c-1.583-1.409-3.145-2.867-4.695-4.325L18.19,41.03l-2.29-2.225l-0.023-0.022  c-2.384-2.318-2.164-2.663,0.254-0.423c3.096,2.87,6.188,5.713,9.328,8.43c3.138,2.72,6.315,5.31,9.509,7.696  c3.195,2.387,6.401,4.572,9.571,6.494c0.793,0.482,1.581,0.947,2.37,1.396l1.174,0.66c0.398,0.22,0.826,0.468,1.244,0.734  c0.841,0.549,1.72,1.191,2.565,2.039c0.06,0.059,0.113,0.125,0.172,0.186c-0.541-2.104-0.84-4.389-0.84-6.771  c0-4.527,1.068-8.687,2.848-11.957c-0.424-0.088-0.795-0.283-1.133-0.503c-0.172-0.113-0.338-0.244-0.49-0.368l-0.452-0.366  c-0.306-0.241-0.614-0.477-0.933-0.705c-1.26-0.915-2.607-1.727-4.008-2.434c-1.402-0.705-2.861-1.302-4.346-1.815  c-1.486-0.516-2.998-0.941-4.519-1.356c-1.189-0.325-1.135-0.622,0.066-0.352l0.012,0.003l1.154,0.257l1.153,0.286  c0.767,0.197,1.536,0.403,2.298,0.643c1.521,0.486,3.025,1.066,4.484,1.759c1.451,0.705,2.854,1.524,4.158,2.464  c0.327,0.234,0.648,0.477,0.965,0.723c0.158,0.123,0.315,0.249,0.471,0.376c0.152,0.124,0.27,0.213,0.412,0.309  c0.279,0.187,0.459,0.278,0.816,0.399c0.075,0.026,0.157,0.046,0.243,0.063c0.638-1.076,1.354-2.042,2.14-2.881  c-0.549-0.207-1.06-0.476-1.537-0.768c-0.342-0.209-0.674-0.446-0.979-0.673l-0.905-0.661c-0.609-0.438-1.228-0.866-1.855-1.285  c-2.515-1.675-5.172-3.192-7.922-4.544c-2.749-1.353-5.591-2.534-8.473-3.581c-2.879-1.051-5.8-1.957-8.732-2.848  c-2.293-0.697-2.233-1.177,0.077-0.568l0.021,0.006l2.22,0.582l2.219,0.629c1.478,0.429,2.961,0.872,4.437,1.371  c2.943,1.007,5.871,2.167,8.724,3.503c2.843,1.357,5.61,2.896,8.208,4.618c0.649,0.43,1.293,0.872,1.922,1.32  c0.316,0.224,0.629,0.451,0.941,0.681c0.303,0.228,0.537,0.389,0.823,0.565c0.552,0.343,0.901,0.519,1.599,0.766  c0.027,0.009,0.058,0.018,0.086,0.027c1.92-1.719,4.164-2.711,6.563-2.711c7.043,0,12.773,8.535,12.773,19.023  c0,5.639-1.655,10.709-4.281,14.194C72.445,73.499,72.398,73.578,72.355,73.659z"/>
</svg>