<svg xmlns="http://www.w3.org/2000/svg" xmlns:xlink="http://www.w3.org/1999/xlink" version="1.1" id="Layer_1" x="0px" y="0px" width="100px" height="100px" viewBox="0 0 100 100" enable-background="new 0 0 100 100" xml:space="preserve">
<polygon points="82.508,62.797 79.943,65.363 77.38,62.797 74.816,65.363 72.254,62.797 69.689,65.363 67.127,62.797 64.562,65.363   61.999,62.797 59.436,65.363 56.871,62.797 54.307,65.363 51.743,62.797 49.179,65.363 46.618,62.797 44.054,65.363 41.49,62.797   38.926,65.363 36.362,62.797 33.798,65.363 31.234,62.797 28.67,65.363 26.106,62.797 23.544,65.363 20.98,62.797 18.417,65.363   15.853,62.797 13.289,65.363 13.291,65.365 21.632,100 76.73,100 85.072,65.363 "/>
<path d="M47.619,16.735c-4.614,0-8.366-3.754-8.366-8.368C39.253,3.754,43.005,0,47.619,0c4.615,0,8.365,3.753,8.365,8.367  C55.984,12.981,52.234,16.735,47.619,16.735z"/>
<path d="M75.331,26.341c-1.122,0-2.215,0.116-3.278,0.319c0.002-0.107,0.018-0.211,0.018-0.319c0-8.218-6.297-14.958-14.329-15.677  c-1.052,4.628-5.179,8.102-10.121,8.102c-5.732,0-10.396-4.664-10.396-10.398c0-0.016,0.004-0.033,0.004-0.049  c-7.271,0.153-13.121,6.084-13.121,13.393c0,2.091,0.491,4.06,1.344,5.823c-0.444-0.036-0.89-0.068-1.344-0.068  c-9.321,0-16.876,7.556-16.876,16.876c0,9.32,7.555,16.875,16.876,16.875h51.225c9.631,0,17.438-7.807,17.438-17.437  C92.77,34.149,84.962,26.341,75.331,26.341z M18.445,36.542c1.148,0,2.079,0.93,2.079,2.077c0,1.146-0.931,2.076-2.079,2.076  c-1.146,0-2.075-0.93-2.075-2.076C16.37,37.472,17.299,36.542,18.445,36.542z M21.699,51.275c-0.572,0.686-1.59,0.772-2.276,0.199  l-3.464-2.909c-0.686-0.574-0.774-1.593-0.197-2.279c0.572-0.681,1.59-0.772,2.277-0.197L21.5,49  C22.186,49.575,22.274,50.593,21.699,51.275z M31.047,53.295c-1.146,0-2.077-0.928-2.077-2.074s0.931-2.078,2.077-2.078  s2.077,0.931,2.077,2.078S32.193,53.295,31.047,53.295z M36.626,41.28l-4.018,2.077c-0.794,0.412-1.768,0.102-2.179-0.693  c-0.409-0.792-0.1-1.767,0.694-2.178l4.018-2.077c0.794-0.412,1.768-0.101,2.177,0.692C37.73,39.895,37.421,40.868,36.626,41.28z   M38.227,29.619c-1.146,0-2.075-0.93-2.075-2.076c0-1.147,0.928-2.077,2.075-2.077c1.149,0,2.078,0.93,2.078,2.077  C40.305,28.689,39.376,29.619,38.227,29.619z M47.247,49.697c-1.146,0-2.075-0.931-2.075-2.077c0-1.148,0.929-2.078,2.075-2.078  c1.149,0,2.077,0.93,2.077,2.078C49.324,48.767,48.396,49.697,47.247,49.697z M62.02,51.586l-3.321,3.07  c-0.655,0.609-1.677,0.568-2.284-0.09c-0.605-0.654-0.564-1.676,0.092-2.283l3.321-3.071c0.655-0.607,1.678-0.566,2.282,0.089  C62.716,49.956,62.675,50.979,62.02,51.586z M61.648,31.696c-1.146,0-2.078-0.93-2.078-2.077c0-1.146,0.932-2.076,2.078-2.076  c1.146,0,2.076,0.93,2.076,2.076C63.727,30.766,62.795,31.696,61.648,31.696z M74.316,40.817l-3.785-2.473  c-0.749-0.489-0.959-1.489-0.471-2.238c0.488-0.747,1.488-0.956,2.237-0.468l3.786,2.474c0.749,0.489,0.959,1.49,0.471,2.236  C76.066,41.096,75.066,41.306,74.316,40.817z M77.85,51.498c-1.146,0-2.076-0.932-2.076-2.078c0-1.146,0.93-2.077,2.076-2.077  c1.147,0,2.076,0.931,2.076,2.077C79.926,50.566,78.997,51.498,77.85,51.498z"/>
</svg>