<svg xmlns="http://www.w3.org/2000/svg" xmlns:xlink="http://www.w3.org/1999/xlink" version="1.1" x="0px" y="0px" width="100px" height="100px" viewBox="0 0 100 100" enable-background="new 0 0 100 100" xml:space="preserve">
<g id="Captions">
</g>
<g id="Your_Icon">
	<path fill="#000000" d="M62.203,31.267c0-0.55-0.45-1-1-1H44.822c-0.55,0-1,0.45-1,1v8.432c0,0.55,0.45,1,1,1h16.381   c0.55,0,1-0.45,1-1V31.267z"/>
	<path fill="#000000" d="M70.848,19H35.181h-4.024C27.839,19,25,21.851,25,25.167v49.667C25,78.149,27.839,81,31.156,81h0.021h8.027   h27.64C69.05,81,71,79.043,71,76.837V73h-0.152C73.054,73,75,71.035,75,68.829V23.163C75,20.958,73.054,19,70.848,19z M26,72.438   v-3.624c1-2.123,3-3.608,5-3.608v3.624C29,68.829,27,70.313,26,72.438z M66.838,77H31.181c-1.106,0-2.004-0.893-2.004-1.999   c0-1.107,0.897-2.001,2.004-2.001h4h33.661L66.838,77z M70.842,69H39.204H35V31.171V23h35.848L70.842,69z"/>
</g>
</svg>