<svg xmlns="http://www.w3.org/2000/svg" xmlns:xlink="http://www.w3.org/1999/xlink" version="1.1" id="Your_Icon_1_" x="0px" y="0px" width="100px" height="100px" viewBox="0 0 100 100" enable-background="new 0 0 100 100" xml:space="preserve">
<path d="M93.913,18.5H91.3V2.477h-6.6v15.439c-0.556-0.156-1.129-0.302-1.733-0.428V2.477h-6.6v14.244  c-0.557-0.023-1.15-0.026-1.734-0.034V2.477h-6.6v14.343c-0.572,0.043-1.151,0.097-1.733,0.167V2.477h-6.6V18.68  c-1.144,0.511-2.216,1.15-3.169,1.955C54.742,18.979,52.254,18.5,50,18.5c-2.255,0-4.743,0.479-6.532,2.135  c-0.953-0.805-2.025-1.444-3.168-1.955V2.477h-6.6v14.51c-0.582-0.07-1.161-0.124-1.733-0.167V2.477h-6.6v14.21  c-0.584,0.008-1.178,0.011-1.734,0.034V2.477h-6.6v15.012c-0.604,0.126-1.178,0.271-1.733,0.428V2.477H8.7V18.5H6.087  c-3.015,0-4.503,1.523-4.503,4v3.687c0,2.034,1.523,3.695,3.488,3.948C5.026,30.735,5,31.355,5,32  c0,10.121,3.082,22.009,16.987,24.03c-1.743,2.924-2.691,6.193-2.691,9.576c0,4.962,2.125,9.521,6.571,12.25v19.667h6.6V80.181  c0.559,0.088,1.138,0.154,1.734,0.204v17.139h6.6V80.484h1.734v17.039h6.6V80.484h1.733v17.039h6.6V80.484h1.459  c0.07,0.003,0.167,0.007,0.275,0.01v17.029h6.6V79.915c0.57-0.118,1.15-0.258,1.734-0.426v18.034h6.6v-21.93l-0.375,0.57  c0.009-0.008,0.019-0.016,0.027-0.023C75.889,74.148,77,71.501,77,68.484c0-4.606-2.324-8.442-6.377-10.524  c-4.7-2.413-10.772-2.002-15.963,0.954c-0.606,0.346-1.203,0.717-1.782,1.132l1.747,2.438l1.747,2.438  c4.235-3.032,8.831-3.002,11.51-1.626C69.305,64.028,71,65.521,71,68.484c0,1.383-0.625,2.832-1.535,3.697  c-1.812,1.724-4.706,2.307-8.289,2.307L37,74.484c-9.938,0-11.402-6.446-11.402-9.582c0-2.474,0.701-5.715,3.817-8.777  c1.058-1.04,2.392-2.06,4.074-3.021l0.833-0.476l12.22-26.48c0,0,0.708-1.336,3.458-1.336s3.196,1.336,3.196,1.336  s-2.947,6.615,1.386,16.582c3.284,7.551,8.622,13.604,19.085,13.604C91.299,56.334,95,43.101,95,32c0-0.645-0.025-1.265-0.072-1.865  c1.965-0.253,3.488-1.914,3.488-3.948V22.5C98.416,20.023,96.928,18.5,93.913,18.5z M13,32c0-4.097,0-7.333,13.333-7.333  c8.421,0,11.668,0.867,12.794,3.23l-9.187,19.904c-1.081,0.336-2.274,0.532-3.608,0.532C16.863,48.334,13,43.602,13,32z   M73.667,48.334c-12.761,0-13.334-17.16-13.334-17.334c0-4.752,1.928-6.333,13.334-6.333C87,24.667,87,27.903,87,32  C87,43.602,83.137,48.334,73.667,48.334z"/>
</svg>