<svg xmlns="http://www.w3.org/2000/svg" xmlns:xlink="http://www.w3.org/1999/xlink" version="1.1" id="Your_Icon" x="0px" y="0px" width="100px" height="100px" viewBox="0 0 100 100" enable-background="new 0 0 100 100" xml:space="preserve">
<rect x="4.5" y="95" width="90" height="5"/>
<circle cx="49.5" cy="45" r="5"/>
<path d="M9.5,90c0-22.092,17.909-40,40-40c22.092,0,40,17.908,40,40H9.5z M83.389,88.334c0,0-5-25.001-20-30.001  c10,10.001,10,30.001,10,30.001H83.389z"/>
<g>
	<path d="M32,15c1.375,2.75,1.375,7.25,0,10s-1.375,7.25,0,10c1.375,2.75,3.625,5,5,5s1.375-2.25,0-5c-1.375-2.75-1.375-7.25,0-10   s1.375-7.25,0-10s-3.625-5-5-5S30.625,12.25,32,15z"/>
</g>
<g>
	<path d="M47,5c1.375,2.75,1.375,7.25,0,10s-1.375,7.25,0,10c1.375,2.75,3.625,5,5,5s1.375-2.25,0-5c-1.375-2.75-1.375-7.25,0-10   s1.375-7.25,0-10c-1.375-2.75-3.625-5-5-5S45.625,2.25,47,5z"/>
</g>
<g>
	<path d="M62,15c1.375,2.75,1.375,7.25,0,10s-1.375,7.25,0,10c1.375,2.75,3.625,5,5,5s1.375-2.25,0-5c-1.375-2.75-1.375-7.25,0-10   s1.375-7.25,0-10s-3.625-5-5-5S60.625,12.25,62,15z"/>
</g>
</svg>