<svg xmlns="http://www.w3.org/2000/svg" xmlns:xlink="http://www.w3.org/1999/xlink" version="1.1" x="0px" y="0px" width="100px" height="100px" viewBox="0 0 100 100" enable-background="new 0 0 100 100" xml:space="preserve">
<g id="Captions">
	<rect x="-606" width="185" height="99"/>
	<rect x="-414" y="-36" width="100" height="30"/>
	<text transform="matrix(1 0 0 1 -348 -19.5)" fill="#000000" font-family="'Helvetica'" font-size="2.4">http://thenounproject.com</text>
	<text transform="matrix(1 0 0 1 -406.834 -24.5)"><tspan x="0" y="0" fill="#000000" font-family="'Helvetica-Bold'" font-size="6.1578">The Noun Project</tspan><tspan x="1.12" y="4.8" fill="#000000" font-family="'Helvetica-Bold'" font-size="4">Icon Template</tspan></text>
	<text transform="matrix(1 0 0 1 -592.5 10.5)" fill="#000000" font-family="'Helvetica-Bold'" font-size="6.1578">Reminders</text>
	<line fill="#000000" stroke="#FFFFFF" stroke-miterlimit="10" x1="-406" y1="-14.5" x2="-396" y2="-14.5"/>
	<line fill="#000000" stroke="#FFFFFF" stroke-miterlimit="10" x1="-593" y1="16.5" x2="-576" y2="16.5"/>
	<g>
		<g>
			<g>
				<rect x="-584.802" y="31.318" fill="#000000" width="8.721" height="8.642"/>
				<path fill="#000000" d="M-578.455,42.312h4.747v-4.703h-4.747V42.312z M-573.266,42.749h-5.63V37.17h5.63V42.749      L-573.266,42.749z M-580.221,44.062h8.279v-8.203h-8.279V44.062L-580.221,44.062z M-571.5,44.5h-9.163v-9.079h9.163V44.5      L-571.5,44.5z"/>
				<polygon fill="#000000" points="-580.149,44.133 -580.292,43.991 -572.013,35.787 -571.871,35.929     "/>
			</g>
		</g>
	</g>
	<rect x="-593" y="58" fill="none" width="35" height="32.5"/>
	<text transform="matrix(1 0 0 1 -593 60.1299)"><tspan x="0" y="0" fill="#000000" font-family="'Helvetica-Bold'" font-size="3">Strokes</tspan><tspan x="0" y="5" fill="#000000" font-family="'Helvetica'" font-size="2.4">Try to keep strokes at 4px</tspan><tspan x="0" y="10" fill="#000000" font-family="'Helvetica'" font-size="2.4">Minimum stroke weight is 2px</tspan><tspan x="0" y="14.5" fill="#000000" font-family="'Helvetica'" font-size="2.4">For thicker strokes use even </tspan><tspan x="0" y="17.5" fill="#000000" font-family="'Helvetica'" font-size="2.4">numbers: 6px, 8px etc.</tspan><tspan x="0" y="22" fill="#000000" font-family="'Helvetica-Bold'" font-size="2.4">Remember to expand strokes </tspan><tspan x="0" y="25" fill="#000000" font-family="'Helvetica-Bold'" font-size="2.4">before saving as an SVG </tspan></text>
	<rect x="-550.5" y="58" fill="none" width="35" height="32.5"/>
	<text transform="matrix(1 0 0 1 -550.5 60.1299)"><tspan x="0" y="0" fill="#000000" font-family="'Helvetica-Bold'" font-size="3">Size</tspan><tspan x="0" y="5" fill="#000000" font-family="'Helvetica'" font-size="2.4">Cannot be wider or taller than </tspan><tspan x="0" y="8.5" fill="#000000" font-family="'Helvetica'" font-size="2.4">100px (artboard size)</tspan><tspan x="0" y="13.5" fill="#000000" font-family="'Helvetica'" font-size="2.4">Scale your icon to fill as much of </tspan><tspan x="0" y="16.5" fill="#000000" font-family="'Helvetica'" font-size="2.4">the artboard as possible</tspan></text>
	<rect x="-508" y="58" fill="none" width="35" height="32.5"/>
	<text transform="matrix(1 0 0 1 -508 60.1299)"><tspan x="0" y="0" fill="#000000" font-family="'Helvetica-Bold'" font-size="3">Ungroup</tspan><tspan x="0" y="5" fill="#000000" font-family="'Helvetica'" font-size="2.4">If your design has more than one </tspan><tspan x="0" y="8" fill="#000000" font-family="'Helvetica'" font-size="2.4">shape, make sure to ungroup</tspan></text>
	<rect x="-464" y="58" fill="none" width="35" height="32.5"/>
	<text transform="matrix(1 0 0 1 -464 60.1299)"><tspan x="0" y="0" fill="#000000" font-family="'Helvetica-Bold'" font-size="3">Save as</tspan><tspan x="0" y="5" fill="#000000" font-family="'Helvetica'" font-size="2.4">Save as .SVG and make sure </tspan><tspan x="0" y="8" fill="#000000" font-family="'Helvetica'" font-size="2.4">&#8220;Use Artboards&#8221; is checked</tspan></text>
	<text transform="matrix(1.0074 0 0 1 -539.542 30.5933)" fill="#000000" font-family="'Helvetica'" font-size="2.5731">100px</text>
	<text transform="matrix(1.0074 0 0 1 -455 39)" fill="#000000" font-family="'Helvetica-Bold'" font-size="5.1462">.SVG</text>
	<rect x="-540.514" y="34.815" fill="#000000" width="10.261" height="10.185"/>
	<rect x="-540.477" y="31.766" fill="#000000" width="0.522" height="2.337"/>
	<rect x="-530.813" y="31.766" fill="#000000" width="0.523" height="2.337"/>
	<rect x="-541" y="32.337" fill="#000000" width="11.233" height="0.572"/>
	<g>
		<rect x="-497.805" y="33.844" fill="#000000" width="10.305" height="10.156"/>
		<rect x="-490.809" y="28.707" fill="#000000" width="3.308" height="3.261"/>
	</g>
	<rect x="-592.5" y="22.5" fill="#000000" stroke="#FFFFFF" stroke-miterlimit="10" width="30" height="30"/>
	<rect x="-550.5" y="22.5" fill="#000000" stroke="#FFFFFF" stroke-miterlimit="10" width="30" height="30"/>
	<rect x="-507.5" y="22.5" fill="#000000" stroke="#FFFFFF" stroke-miterlimit="10" width="30" height="30"/>
	<rect x="-463.5" y="22.5" fill="#000000" stroke="#FFFFFF" stroke-miterlimit="10" width="30" height="30"/>
</g>
<g id="Layer_3">
	<path fill="none" stroke="#000000" stroke-width="8" stroke-miterlimit="10" d="M-180.691,39.391"/>
	<path fill="none" stroke="#000000" stroke-width="8" stroke-miterlimit="10" d="M-169.719,57.156"/>
	<polygon points="-64,59 -67,66 -73,62 -73,89 -56,89 -56,67 -60,63  "/>
	<rect x="-85" y="77" width="14" height="13"/>
	<polygon points="-59.653,49.844 -61.844,57.621 -53.959,55.359 -40.683,42.065 -52.573,30.044 -68,45.601 -68,52.672  "/>
	<g>
		<rect x="-96" y="19" width="8" height="2"/>
	</g>
	<path d="M-124.836,59.413c0-1.429,1.157-2.587,2.587-2.587c1.208,0,2.214,0.831,2.499,1.95c0.057-0.271,0.088-0.553,0.088-0.842   c0-2.244-1.82-4.065-4.065-4.065s-4.065,1.821-4.065,4.065c0,2.245,1.82,4.065,4.065,4.065c0.289,0,0.57-0.031,0.842-0.088   C-124.006,61.627-124.836,60.621-124.836,59.413z"/>
	<path d="M-76.094,44c1.054-0.963,2.69-0.891,3.655,0.163c0.814,0.892,0.88,2.196,0.248,3.161c0.237-0.141,0.466-0.308,0.68-0.503   c1.656-1.515,1.771-4.086,0.255-5.744c-1.516-1.656-4.087-1.77-5.743-0.254c-1.656,1.515-1.771,4.085-0.255,5.744   c0.194,0.212,0.407,0.399,0.633,0.561C-77.167,46.107-76.984,44.816-76.094,44z"/>
	<path d="M-112,14v13h16V14H-112z M-109.909,18.136c0-0.979,0.794-1.772,1.772-1.772c0.979,0,1.773,0.793,1.773,1.772   c0,0.979-0.794,1.773-1.773,1.773C-109.115,19.909-109.909,19.116-109.909,18.136z M-100,25h-8v-2h8V25z M-99.863,19.909   c-0.979,0-1.773-0.793-1.773-1.773c0-0.979,0.794-1.772,1.773-1.772c0.979,0,1.772,0.793,1.772,1.772   C-98.091,19.116-98.885,19.909-99.863,19.909z"/>
	<g>
		<polygon points="-88,24 -94,24 -94,16 -88,16 -88,18 -92,18 -92,22 -88,22   "/>
	</g>
	<g>
		<rect x="-120" y="19" width="8" height="2"/>
	</g>
	<g>
		<polygon points="-114,24 -120,24 -120,22 -116,22 -116,18 -120,18 -120,16 -114,16   "/>
	</g>
	<rect x="-115" y="30" width="23" height="25"/>
	<path d="M-81.433,32.466l-2.447,5.54c1.396,0.896,2.689,2.098,3.822,3.582l4.77-3.641C-77.066,35.617-79.153,33.779-81.433,32.466z   "/>
	<path d="M-112.047,31.61c-3.455,0.15-6.592,1.343-9.185,3.396l3.565,4.82c1.644-1.355,3.63-2.123,5.881-2.221   c4.189-0.182,8.135,2.069,10.834,6.18l5.015-3.295C-99.825,34.569-105.687,31.327-112.047,31.61z"/>
	<g>
		<path d="M-121.956,47.529l-5.82-1.422c-0.502,2.259-0.726,4.669-0.617,7.165l5.994-0.262    C-122.483,51.081-122.322,49.238-121.956,47.529z"/>
		<path d="M-121.442,45.596c0.445-1.329,1.039-2.54,1.771-3.595c0.183-0.263,0.379-0.505,0.577-0.745l-3.63-4.907    c-0.672,0.684-1.311,1.414-1.878,2.233c-1.14,1.644-2.022,3.539-2.661,5.591L-121.442,45.596z"/>
	</g>
	<polygon points="-85,63 -97,63 -97,77 -101,77 -101,70 -123,70 -123,91 -101,91 -101,90 -94,90 -94,88 -85,88  "/>
	<g>
		<polygon points="-100,69 -100,76 -98,76 -98,62 -93,62 -93,52 -102,52 -102,69   "/>
		<polygon points="-93,64 -96,64 -96,78 -102,78 -102,87 -95,87 -93,87   "/>
	</g>
	<rect x="-130" y="86" width="82" height="5"/>
	<g>
		<path d="M-91,30.149v6.027c1.83-0.156,3.644,0.146,5.35,0.887l2.431-5.501C-85.676,30.488-88.308,29.998-91,30.149z"/>
	</g>
	<g>
		<rect x="-114" y="52" width="9" height="17"/>
		<rect x="-114" y="71" width="9" height="16"/>
	</g>
</g>
<g id="Your_Icon">
	<path d="M-194,77l-2-6h-3.063l-0.188-6h-4.257l0.875-6h-4.008l-0.874,6h-2.993l0.875-6h-4.008l-0.874,6h-2.993l0.875-6h-4.008   l-0.874,6h-2.993l0.875-6h-4.008l-0.873,6h-12.1l-1.677,6h-16.938l7.365,6.334C-248.297,80.543-249,80-246.34,80h48.791   C-194.498,80-193,79-194,77z"/>
	<circle cx="-217.5" cy="48.5" r="2.072"/>
	<path d="M-211.119,30.988c1.672,0.647,3.372,0.823,4.883,0.602c6.982,4.779,10.95,11.67,10.95,19.168   c0,5.148-1.869,9.667-5.165,13.242h2.169l0.188,6h0.213c5.445-4.85,8.595-11.491,8.595-19.242c0-8.982-4.357-17.204-12.092-23.068   c0.681-2.939-1.62-6.325-5.438-7.804c-4.088-1.584-9.553,2.684-9.553,2.684S-215.205,29.406-211.119,30.988z"/>
	<path d="M-235,49.9v5.321c0,0.533,0.091,1.022,0.25,1.472C-235.543,58.294-236,60.092-236,62c0,0.545,0.04,1.232,0.11,2h6.511   l0.873-6h13.029h2.777c-0.16-0.448-0.342-0.886-0.551-1.308c0.159-0.449,0.25-0.938,0.25-1.472v-5.264   c4.77-0.428,6.429-4.082,3.642-8.432l-8.996-14.09c-2.968-4.631-7.831-4.62-10.808,0.005l-9.045,14.087   C-240.918,45.739-239.438,49.296-235,49.9z M-217.5,44.428c2.245,0,4.072,1.827,4.072,4.072s-1.827,4.072-4.072,4.072   s-4.072-1.827-4.072-4.072S-219.745,44.428-217.5,44.428z M-230.5,44.428c2.245,0,4.072,1.827,4.072,4.072   s-1.827,4.072-4.072,4.072s-4.072-1.827-4.072-4.072S-232.745,44.428-230.5,44.428z"/>
	<circle cx="-230.5" cy="48.5" r="2.072"/>
	<path d="M-249.137,70h6.088l0.664-2.376c-5.729-3.57-9.7-9.123-9.7-16.866c0-7.137,3.593-13.723,9.958-18.461   c1.636,0.37,3.552,0.244,5.432-0.485c4.048-1.568,5.2-8.336,5.2-8.336s-5.411-4.226-9.46-2.657   c-3.562,1.379-5.789,4.435-5.473,7.217c-7.457,5.838-11.657,13.911-11.657,22.723C-258.085,58.44-254.771,65.113-249.137,70z"/>
	<g>
		<path d="M-366.855,76.192l1.054-3.859l-3.941-1.076l-1.054-5.086l-1.031,0.624l-2.221-5.624l-3.483,1.998l2.214,5.648    l-10.507,6.001l1.518,6.044l-14.708,8.398l9.535,1.85c4.689,1.019,3.864,0.696,6.173-0.623l22.061-12.764L-366.855,76.192z"/>
		<path d="M-337.46,87.865l1.589-6.121l-2.568-1.668l3.108-5.135l-3.571-2.317l4-4.557l-3.361-2.182l-3.999,4.557l-2.511-1.63    l4-4.557l-3.361-2.182l-3.999,4.557l-2.512-1.629l4-4.557l-3.361-2.182l-4,4.556l-0.123-0.065l-1.321,5.118l-3.827,0.814    l0.832,3.912l-5.855,1.246l22.209,14.503C-339.532,90.009-338,90-337.46,87.865z"/>
		<path stroke="#FFFFFF" stroke-width="2" stroke-miterlimit="10" d="M-370.842,78.668c0,0-4.741,3.702-8.288,2.328    c-3.546-1.373-5.586-4.644-4.556-7.303c1.03-2.66,4.742-3.703,8.288-2.329C-371.852,72.738-370.842,78.668-370.842,78.668z" fill="#000000"/>
		<path fill="#000000" stroke="#FFFFFF" stroke-width="8" stroke-miterlimit="10" d="M-379.158,74    c-7.353-4.382-12.351-11.529-12.351-20c0-13.49,12.568-21.743,27.715-21.743c15.148,0,27.303,8.253,27.303,21.743    c0,8.47-5.001,15.618-12.351,20"/>
		<path stroke="#FFFFFF" stroke-width="2" stroke-miterlimit="10" d="M-355.838,75.957c0,0,4.787,3.739,8.369,2.352    c3.581-1.387,5.641-4.689,4.601-7.375c-1.041-2.687-4.788-3.739-8.37-2.352C-354.818,69.969-355.838,75.957-355.838,75.957z" fill="#000000"/>
		<path d="M-352,43c0,3.554-1.545,12.803-4,15c-0.887,0.794-2-13-2-13s-2.291,12.26-3,11c-0.949-1.685-3-16-3-16s-2.05,14.316-3,16    c-0.71,1.26-3-11-3-11s-1.114,13.793-2,13c-2.454-2.197-4-11.447-4-15c0-6.628,5.372-12,12-12C-357.373,31-352,36.372-352,43z"/>
		<path stroke="#000000" stroke-width="2" stroke-miterlimit="10" d="M-353,36.221c0,3.081-2.847,4.779-6.305,4.779h-9.391    c-3.458,0-6.304-1.698-6.304-4.779v-7.442c0-3.081,2.846-4.779,6.304-4.779h9.391c3.458,0,6.305,1.698,6.305,4.779V36.221z"/>
		<g>
			<path d="M-373.62,31c-5.5,0-7.564-3.847-4.588-8.472l9.046-14.087c2.976-4.625,7.839-4.636,10.807-0.005l8.996,14.09     c2.968,4.631,0.896,8.475-4.604,8.475H-373.62z"/>
			<path fill="none" stroke="#000000" stroke-width="2" stroke-miterlimit="10" d="M-373.62,31c-5.5,0-7.564-3.847-4.588-8.472     l9.046-14.087c2.976-4.625,7.839-4.636,10.807-0.005l8.996,14.09c2.968,4.631,0.896,8.475-4.604,8.475H-373.62z"/>
		</g>
		<path fill="none" stroke="#000000" stroke-width="6" stroke-miterlimit="10" d="M-379.158,74    c-7.353-4.382-12.351-11.529-12.351-20c0-13.49,12.568-21.743,27.715-21.743c15.148,0,27.303,8.253,27.303,21.743    c0,8.47-5.001,15.618-12.351,20"/>
		<path d="M-370.842,78.668c0,0-4.741,3.702-8.288,2.328c-3.546-1.373-5.586-4.644-4.556-7.303c1.03-2.66,4.742-3.703,8.288-2.329    C-371.852,72.738-370.842,78.668-370.842,78.668z"/>
		<path d="M-355.838,75.957c0,0,4.787,3.739,8.369,2.352c3.581-1.387,5.641-4.689,4.601-7.375c-1.041-2.687-4.788-3.739-8.37-2.352    C-354.818,69.969-355.838,75.957-355.838,75.957z"/>
		<circle stroke="#FFFFFF" stroke-width="2" stroke-miterlimit="10" cx="-371.5" cy="27.5" r="3.072" fill="#000000"/>
		<circle stroke="#FFFFFF" stroke-width="2" stroke-miterlimit="10" cx="-356.5" cy="27.5" r="3.072" fill="#000000"/>
	</g>
	<path d="M26.698,39.502c2.229,0.173,0.146,3.589,28.645-4.947C20,53,17,47,17,47L26.698,39.502z"/>
	<path d="M12.235,33.849"/>
	<path d="M17.692,24.706c0,0-14.324,8.156-6.442,18.011c3.678-0.789,5.852-7.305,5.852-7.305S16.971,25.821,17.692,24.706z"/>
	<g>
		<path d="M59.681,40.089c-5.234-1.688-5.021-2.856,0.472-2.596l2.964,0.141c5.493,0.261,10.029,1.908,10.079,3.659    c0.051,1.752-4.19,1.803-9.425,0.115L59.681,40.089z"/>
		<path fill="none" stroke="#000000" stroke-width="2" stroke-miterlimit="10" d="M59.681,40.089    c-5.234-1.688-5.021-2.856,0.472-2.596l2.964,0.141c5.493,0.261,10.029,1.908,10.079,3.659c0.051,1.752-4.19,1.803-9.425,0.115    L59.681,40.089z"/>
	</g>
	<polygon points="58.11,32.719 59.59,33.608 58.08,34.447 56.568,35.284 56.6,33.556 56.631,31.829  "/>
	<polygon points="58.62,37.692 57.141,36.803 58.652,35.961 60.165,35.123 60.133,36.853 60.1,38.582  "/>
	<path d="M57.889,33.113l8.839,5.314c0.233,0.14,0.466,0.256,0.698,0.377c-1.208,2.727-3.281,3.589,5.385,5.055   c2.142,1.46,2.646,5.094,2.551,7.421c-0.102,2.467-1.076,6.83-3.93,7.721c4.737,1.642,8.513,5.329,10.299,10.012   c4.443-3.763,7.316-9.819,7.619-17.157c0.265-6.464-1.589-12.083-4.902-16.113c1.336-0.206,2.379-0.412,2.73-0.589   c0.603-0.304-2.624-1.235-5.228-1.914c-0.237-0.195-0.471-0.395-0.717-0.577c4.751,0.366,15.026,1.1,14.584,0.557   c-1.591-1.951-14.352-4.005-17.041-4.383c-6.486-0.914-9.666-0.823-11.101-0.102l-8.366-0.353   C53.814,28.149,53.175,30.279,57.889,33.113z M72.393,30.34c0.143,0.555,0.074,1.165-0.241,1.697   c-0.63,1.064-2.001,1.417-3.067,0.787c-0.532-0.315-0.886-0.816-1.028-1.371L72.393,30.34z"/>
	<path d="M86.25,72c-0.887,0-1.73,0.113-2.586,0.35C82.374,63.645,74.821,57,65.938,57c-6.975,0-13.223,3.984-16.204,10.24   c-1.81-0.823-3.738-1.24-5.749-1.24c-3.771,0-7.19,1.507-9.709,3.941c0.47,0.473,0.896,0.986,1.276,1.538   C37.72,69.331,40.699,68,43.984,68c2.034,0,3.972,0.498,5.757,1.48l0.985,0.542l0.424-1.041C53.616,62.918,59.42,59,65.938,59   c8.272,0,15.245,6.489,15.875,14.774l0.104,1.366l1.27-0.516C84.25,74.192,85.195,74,86.25,74c4.626,0,8.25,3.733,8.25,8.5   c0,3.577-6.124,7.941-8.77,9.5H49.001c-0.817,0-1.66,0.126-2.475,0.248c-0.83,0.124-1.688,0.252-2.53,0.252   c-2.625,0-5.078-0.943-7.08-2.5h-2.942c2.566,2.753,6.137,4.5,10.022,4.5c0.991,0,1.924-0.14,2.825-0.274   C47.599,94.109,48.332,94,49.001,94h37.265l0.23-0.132C87.52,93.284,96.5,88,96.5,82.5C96.5,76.612,91.998,72,86.25,72z"/>
	<path d="M12.142,91.089c-5.059,0-9.496-4.7-9.496-10.059c0-5.232,4.257-9.489,9.488-9.489c1.246,0,2.45,0.239,3.592,0.714   c2.057-4.024,6.17-6.571,10.751-6.571c5.855,0,10.853,4.306,11.868,10.005c0.432-0.078,0.892-0.115,1.402-0.115   c3.884,0,7.044,3.287,7.044,7.327c0,3.771-6.002,7.536-6.687,7.953L39.864,91H15.411c-0.473,0-0.967,0.021-1.479,0.041   C13.354,91.064,12.755,91.089,12.142,91.089z M12.134,73.541c-4.129,0-7.488,3.359-7.488,7.489c0,4.293,3.503,8.059,7.496,8.059   c0.586,0,1.157-0.023,1.709-0.046C14.391,89.021,14.913,89,15.411,89h23.888c2.219-1.405,5.492-4.167,5.492-6.1   c0-2.938-2.263-5.327-5.044-5.327c-0.754,0-1.313,0.097-1.872,0.322l-1.269,0.514l-0.104-1.364   c-0.399-5.249-4.804-9.361-10.026-9.361c-4.12,0-7.786,2.469-9.34,6.29l-0.424,1.041l-0.985-0.542   C14.605,73.854,13.396,73.541,12.134,73.541z"/>
	<g>
		<path d="M18,37c6.899,0.69,9.989-3.379,11.243-5.641c0.076-6.414-0.931-12.563-0.931-12.563s-1.074,4.11-6.197,7.132    c-6.242,2.298-10.229,8.459-10.229,8.459c-2.447,3.779-1.57,8.761,1.897,11.494C13.5,43.782,13.482,39.259,18,37z"/>
		<path d="M29,34c0,0-2.901,5-8,5c-6.379,0-5.765,5.718-5.253,8.037c3.807,1.615,8.37,0.273,10.692-3.314    c0.121-0.188,0.392-0.64,0.376-0.649l0.029,0.018c1.446-2.235,2.09-5.671,2.31-9.261C29.062,33.938,29,34,29,34z"/>
	</g>
</g>
</svg>