<svg xmlns="http://www.w3.org/2000/svg" xmlns:xlink="http://www.w3.org/1999/xlink" version="1.1" id="Layer_1" x="0px" y="0px" width="100px" height="100px" viewBox="0 0 100 100" enable-background="new 0 0 100 100" xml:space="preserve">
<path d="M24.615,95.688c-0.417-0.523-0.879-1.011-1.382-1.457c-0.39-0.377-2.592-1.543-0.702-1.631  c1.797-0.086,3.766,0.735,5.502,1.129c0.269,0.063,0.516-0.168,0.445-0.443c-0.343-1.334-1.164-2.336-1.659-3.619  c-0.176,0.137-0.354,0.273-0.53,0.411c1.135,0.546,2.111,1.276,3.166,1.959c0.18,0.116,0.381,0.022,0.495-0.129  c0.334-0.446,1.323,0.282,1.616,0.433c0.19,0.092,0.375,0.036,0.495-0.131c1.14-0.964,2.26-1.159,3.362-0.589  c0.439,0.162,0.626-0.537,0.192-0.697c-1.066-0.396-1.858-0.53-2.952-0.246c-1.22,0.317-0.96,1.124-2.391,0.13  c-0.176-0.119-0.384-0.017-0.495,0.129c-0.353,0.473-2.735-1.297-3.125-1.484c-0.254-0.124-0.657,0.086-0.531,0.408  c0.309,0.803,0.272,0.734,0.708,1.49c1.03,1.805,0.188,1.396-1.339,1c-1.644-0.429-3.184-0.594-4.847-0.221  c-0.263,0.059-0.352,0.423-0.159,0.605c1.225,1.149,2.513,2.195,3.62,3.47C24.411,96.555,24.921,96.039,24.615,95.688L24.615,95.688  z"/>
<path d="M54.77,92.676c1.545-0.626,2.358,0.885,3.74,0.291c2.035-0.871,3.42-2.724,5.609-3.308c-0.117-0.2-0.235-0.402-0.354-0.604  c-1.283,1.566-2.621,3.026-3.26,4.985c-0.07,0.222,0.12,0.464,0.35,0.458c0.76-0.018,2.871-0.545,1.703,0.889  c-0.178,0.223-0.091,0.645,0.256,0.619c1.225-0.086,2.629-0.732,3.826-0.466c0.453,0.104,0.646-0.597,0.19-0.696  c-1.3-0.295-2.718,0.348-4.017,0.438c0.084,0.206,0.17,0.411,0.254,0.618c0.351-0.43,1.304-1.59,0.326-1.982  c-0.67-0.273-1.399-0.186-2.106-0.154c0.054-0.002,1.063-1.804,1.18-1.97c0.538-0.776,1.212-1.497,1.81-2.226  c0.222-0.271,0.021-0.705-0.353-0.605c-1.888,0.5-3.231,1.827-4.815,2.896c-1.452,0.981-2.92-0.533-4.534,0.117  C54.148,92.15,54.335,92.85,54.77,92.676L54.77,92.676z"/>
<path d="M73.584,75.176c0,0-9.997-19.131-10.053-21.744c1.173,0.067,5.744-0.714,5.744-0.714c0.843-0.001,1.608-0.798,1.185-1.526  c0,0-12.78-14.866-13.097-16.199l-0.475-0.805l8.4-0.273c0.843-0.003,1.188-0.6,0.768-1.33c0,0-18.305-23.729-20.231-30.867  c-1.79,7.137-20.042,30.902-20.042,30.902c-0.42,0.733-0.074,1.329,0.77,1.328l7.261,0.26l-0.473,0.812  C31.472,39.448,20.86,51.238,20.86,51.238c-0.425,0.729-0.083,1.324,0.76,1.322c0,0,3.496,0.715,6.358,0.901  c-0.297,3.048-10.234,21.765-10.234,21.765c-0.425,0.729-0.082,1.322,0.761,1.322c0,0,10.921,0.971,20.598,1.249  c-0.248,5.447-0.794,13.146-1.96,15.75c0.315,0.04,0.636,0.103,0.942,0.138c0.076-0.076,0.076-0.151,0.151-0.228  c0.679,0.228,1.207,0.753,1.734,0.302c0.528,0.604,0.98,1.584,1.659,0.678c0.301,0.604,1.055-0.451,1.81-0.451  c0.905-0.074,1.584,0.83,3.167,1.205c0.604-0.073,1.131,0.228,1.81,0.152c1.055-0.076,1.735-2.037,2.414-1.51  c0.452-0.376,0.753-1.131,1.13-1.582c0.228,0.451,0.228,0.979,0.302,1.434c0.356-0.446,0.797-0.752,1.266-0.998  c-0.545-3.299-0.973-10.131-1.229-15.043c9.655-0.394,20.532-1.146,20.532-1.146C73.67,76.496,74.012,75.902,73.584,75.176z"/>
</svg>