<svg xmlns="http://www.w3.org/2000/svg" xmlns:xlink="http://www.w3.org/1999/xlink" version="1.1" id="Layer_1" x="0px" y="0px" width="100px" height="100px" viewBox="0 0 100 100" enable-background="new 0 0 100 100" xml:space="preserve">
<path d="M75.942,20.843l-4.549,4.55c1.707,1.159,3.224,2.595,4.471,4.234l4.441-4.44c5.132-4.73,8.618-5.458,10.243-5.475  c0.057-0.003,0.106,0.003,0.158,0.01c0.17,0.023,0.338,0.048,0.506,0.05c0.012,0,0.025-0.001,0.037-0.001  c1.023-0.008,1.983-0.404,2.708-1.116c0.015-0.015,0.028-0.03,0.041-0.043c0.183-0.184,0.354-0.396,0.503-0.629  c0.121-0.185,0.218-0.379,0.305-0.577c0.016-0.04,0.061-0.126,0.082-0.163l-0.008-0.018c0.002-0.008,0.037-0.123,0.039-0.131  l0.066-0.202c0.031-0.112,0.054-0.228,0.074-0.344l0.032-0.191c0.018-0.132,0.022-0.252,0.028-0.374l0.004-0.197  c-0.002-0.112-0.013-0.233-0.027-0.354l-0.021-0.2c-0.021-0.115-0.047-0.235-0.077-0.353l-0.05-0.189  c-0.037-0.118-0.083-0.231-0.131-0.345l-0.078-0.184c-0.053-0.106-0.114-0.213-0.178-0.32c-0.011-0.016-0.037-0.063-0.055-0.099  c-0.02-0.024-0.035-0.048-0.048-0.066c-0.166-0.246-0.316-0.435-0.474-0.591c-0.295-0.296-0.65-0.546-1.057-0.743  c-0.299-0.142-0.537-0.222-0.785-0.282l-0.123-0.028c-0.249-0.051-0.488-0.08-0.725-0.083c-0.385,0.003-0.637,0.027-0.861,0.072  c-0.363,0.076-0.748-0.039-1.014-0.305c-0.265-0.266-0.381-0.647-0.304-1.015c0.03-0.152,0.051-0.308,0.063-0.462  c0-0.007,0.002-0.206,0.002-0.214l0.008-0.253c0-0.033,0-0.078,0.002-0.111c-0.006,0.048-0.01-0.005-0.017-0.047  c0-0.006-0.013-0.11-0.013-0.115l-0.013-0.132c-0.021-0.118-0.033-0.172-0.044-0.226c-0.012-0.06-0.033-0.135-0.055-0.21  c-0.044-0.169-0.085-0.292-0.131-0.414c-0.033-0.086-0.066-0.168-0.104-0.251c-0.062-0.132-0.136-0.26-0.212-0.384l-0.118-0.199  c-0.144-0.206-0.286-0.381-0.435-0.529c-1.482-1.479-4.062-1.479-5.542,0c-0.19,0.191-0.362,0.41-0.528,0.668  c-0.107,0.171-0.201,0.35-0.279,0.535c-0.033,0.075-0.059,0.147-0.084,0.219c-0.056,0.151-0.093,0.282-0.124,0.414  c-0.034,0.136-0.054,0.204-0.065,0.275c-0.031,0.193-0.052,0.386-0.055,0.578c-0.002,0.029-0.006,0.079-0.01,0.121  c0.002,0.07,0.014,0.137,0.023,0.205l0.021,0.167c0.037,1.726-0.622,5.216-5.363,10.391C76.015,20.766,75.979,20.806,75.942,20.843z  "/>
<path d="M8.962,19.753l0.229-0.024c0.04-0.003,0.172-0.007,0.211-0.007c1.618,0,5.086,0.7,10.184,5.371  c0.041,0.031,0.081,0.066,0.118,0.103l4.334,4.333c1.256-1.637,2.781-3.064,4.494-4.211l-4.483-4.485  c-4.733-5.134-5.461-8.623-5.475-10.247c0-0.053,0.002-0.107,0.009-0.16c0.023-0.18,0.047-0.337,0.049-0.495  c-0.001-0.018-0.002-0.037-0.002-0.054c-0.012-1.032-0.417-2.001-1.142-2.726c-0.19-0.19-0.405-0.361-0.656-0.522  c-0.183-0.117-0.371-0.212-0.565-0.295c-0.024-0.011-0.064-0.03-0.101-0.049c-0.031-0.01-0.076-0.024-0.076-0.024l-0.338-0.108  C15.639,6.121,15.52,6.098,15.4,6.077l-0.19-0.032c-0.122-0.016-0.245-0.021-0.368-0.025l-0.182-0.005  c-0.13,0.002-0.254,0.014-0.379,0.027l-0.182,0.022c-0.124,0.019-0.244,0.048-0.366,0.08l-0.179,0.048  c-0.12,0.037-0.237,0.083-0.354,0.132l-0.165,0.072c-0.119,0.057-0.229,0.12-0.339,0.187c-0.016,0.01-0.061,0.035-0.096,0.053  c-0.024,0.019-0.049,0.037-0.068,0.049c-0.234,0.158-0.425,0.309-0.583,0.467C11.65,7.448,11.4,7.804,11.203,8.209  c-0.141,0.299-0.221,0.535-0.281,0.785l-0.027,0.123c-0.052,0.246-0.08,0.491-0.084,0.724c0.004,0.387,0.027,0.638,0.073,0.862  c0.075,0.368-0.041,0.749-0.306,1.014c-0.265,0.266-0.645,0.384-1.014,0.306c-0.152-0.031-0.306-0.052-0.46-0.064  c-0.113-0.009-0.221-0.014-0.331-0.014l-0.149,0.002c-0.058,0.003-0.107,0.01-0.157,0.017c-0.006,0.001-0.106,0.012-0.113,0.013  l-0.12,0.011c-0.007,0.001-0.123,0.017-0.13,0.018c-0.176,0.042-0.264,0.067-0.354,0.092c-0.13,0.035-0.251,0.074-0.37,0.119  c-0.085,0.032-0.17,0.066-0.256,0.106c-0.129,0.06-0.252,0.132-0.374,0.206c-0.007,0.004-0.095,0.057-0.103,0.061l-0.098,0.06  c-0.212,0.147-0.386,0.29-0.536,0.438c-0.188,0.189-0.358,0.396-0.503,0.615c-0.421,0.638-0.645,1.384-0.645,2.154  c0,1.046,0.408,2.03,1.147,2.77c0.189,0.191,0.404,0.36,0.656,0.523c0.178,0.114,0.363,0.208,0.552,0.29  c0.071,0.03,0.14,0.055,0.209,0.079c0.152,0.055,0.287,0.094,0.423,0.127C8,19.683,8.062,19.698,8.125,19.709  c0.192,0.031,0.39,0.054,0.587,0.057c0.023,0,0.054,0.002,0.085,0.005C8.841,19.763,8.901,19.757,8.962,19.753z"/>
<path d="M24.057,81.436l6.636-6.639c-1.179-1.646-2.298-3.442-3.339-5.365l-7.655,7.656c-5.137,4.736-8.625,5.465-10.251,5.479  c-0.037,0-0.069-0.002-0.104-0.004c-0.022-0.001-0.044-0.005-0.066-0.008c-0.175-0.023-0.329-0.047-0.484-0.048  C8.765,82.508,8.735,82.51,8.71,82.51c-0.188,0.004-0.391,0.023-0.59,0.059l-0.165,0.037c-0.221,0.055-0.367,0.096-0.511,0.146  c-0.089,0.034-0.156,0.057-0.221,0.085c-0.187,0.081-0.366,0.173-0.539,0.283c-0.263,0.167-0.484,0.341-0.673,0.529  c-0.208,0.209-0.396,0.464-0.593,0.798c-0.099,0.17-0.201,0.34-0.273,0.521c-0.083,0.207-0.141,0.416-0.186,0.627l-0.024,0.146  c-0.036,0.225-0.051,0.389-0.057,0.555l-0.006,0.199c0.008,0.456,0.095,0.904,0.259,1.328C5.135,87.829,5.21,88,5.212,88.004  c0.068,0.155,0.15,0.31,0.245,0.463c0.001,0.002,0.1,0.161,0.101,0.163c0.159,0.231,0.304,0.409,0.455,0.562  c0.925,0.924,2.27,1.325,3.551,1.063c0.074-0.014,0.148-0.021,0.222-0.021c0.292,0,0.576,0.114,0.787,0.323  c0.267,0.263,0.383,0.64,0.312,1.007c-0.042,0.229-0.06,0.417-0.069,0.604l-0.001,0.136c0,0.018-0.003,0.13-0.004,0.145  c0.012,0.147,0.022,0.211,0.028,0.278c0.009,0.097,0.021,0.198,0.039,0.299c0.024,0.136,0.055,0.269,0.092,0.401  c0.021,0.074,0.046,0.148,0.073,0.224c0.054,0.155,0.111,0.296,0.179,0.434c0.017,0.033,0.051,0.116,0.063,0.151l0.065,0.082  c0.082,0.143,0.126,0.221,0.18,0.299c0.144,0.204,0.276,0.369,0.417,0.508c0.19,0.191,0.397,0.359,0.617,0.504  c1.502,0.992,3.637,0.783,4.922-0.504c0.191-0.189,0.363-0.406,0.524-0.656c0.113-0.176,0.205-0.355,0.286-0.545  c0.033-0.076,0.059-0.152,0.086-0.227c0.048-0.136,0.086-0.264,0.117-0.393c0.039-0.154,0.057-0.223,0.069-0.295  c0.03-0.182,0.049-0.369,0.054-0.559c0-0.031,0.004-0.068,0.007-0.104c-0.001-0.021-0.001-0.039-0.001-0.057l-0.028-0.24  c-0.001-0.018-0.016-0.178-0.016-0.193c-0.036-1.627,0.616-5.119,5.37-10.305C23.986,81.512,24.02,81.473,24.057,81.436z"/>
<path d="M85.357,96.266c0.454-0.01,0.904-0.098,1.332-0.262l0.104-0.045c0.229-0.101,0.389-0.186,0.545-0.282l0.152-0.096  c0.231-0.157,0.412-0.302,0.562-0.454c0.93-0.931,1.328-2.258,1.065-3.551c-0.074-0.37,0.04-0.752,0.31-1.019  c0.248-0.245,0.59-0.358,0.936-0.314c0.045,0.007,0.096,0.012,0.133,0.021c0.162,0.033,0.348,0.05,0.533,0.059l0.139,0.002  c0.014,0,0.127,0.004,0.142,0.004c0.146-0.013,0.208-0.02,0.271-0.027c0.105-0.01,0.204-0.021,0.303-0.038  c0.139-0.025,0.272-0.056,0.406-0.094c0.073-0.021,0.147-0.044,0.223-0.073c0.154-0.053,0.296-0.111,0.436-0.18  c0.033-0.018,0.113-0.05,0.148-0.062l0.078-0.062c0.135-0.079,0.221-0.123,0.302-0.183c0.177-0.125,0.333-0.252,0.476-0.392  c0.02-0.02,0.045-0.04,0.07-0.062c0.719-0.735,1.113-1.705,1.113-2.735c0-1.046-0.406-2.029-1.148-2.771  c-0.189-0.189-0.41-0.363-0.668-0.529c-0.17-0.107-0.346-0.197-0.527-0.275c-0.08-0.035-0.143-0.059-0.206-0.081  c-0.162-0.059-0.291-0.096-0.421-0.126c-0.156-0.039-0.223-0.058-0.291-0.07c-0.186-0.029-0.367-0.048-0.552-0.051  c-0.036-0.002-0.089-0.008-0.125-0.012c-0.146,0.02-0.216,0.025-0.284,0.032c-0.019,0.001-0.179,0.015-0.195,0.017  c-0.009,0-0.111,0-0.121,0c-1.617,0-5.086-0.7-10.182-5.369c-0.043-0.031-0.082-0.067-0.119-0.104l-7.668-7.667  c-1.048,1.919-2.174,3.711-3.357,5.346l6.678,6.68c4.738,5.137,5.465,8.627,5.479,10.252c0,0.054-0.002,0.105-0.01,0.158  c-0.002,0.012-0.003,0.025-0.004,0.041h0.001c-0.024,0.201-0.042,0.332-0.046,0.457c0,0.022,0.002,0.043,0.002,0.064  c0.004,0.197,0.027,0.404,0.061,0.61l0.033,0.142c0.057,0.24,0.099,0.387,0.15,0.532c0.033,0.089,0.057,0.151,0.083,0.216  c0.083,0.19,0.177,0.378,0.292,0.555c0.019,0.031,0.053,0.092,0.07,0.125c0.1,0.143,0.266,0.348,0.452,0.533  c0.376,0.377,0.817,0.667,1.31,0.866c0.205,0.081,0.42,0.14,0.637,0.187l0.121,0.02c0.246,0.041,0.412,0.057,0.58,0.061l0.19,0.008  H85.357z"/>
<path d="M77.46,37.429l-0.074,0.017c-1.088-7.256-7.332-12.83-14.898-12.83c-2.992,0-5.773,0.883-8.122,2.388  c-0.008-0.009-0.015-0.019-0.022-0.026c-1.243,0.899-2.757,1.445-4.412,1.445c-1.583,0-3.049-0.492-4.262-1.326  c-0.005,0.004-0.011,0.011-0.017,0.017c-2.38-1.574-5.232-2.496-8.301-2.498c-8.332,0-15.086,6.755-15.086,15.085  c0,0.279,0.027,0.551,0.042,0.828c-0.213,5.848,0.88,12.773,3.44,19.85c3.159,8.732,7.604,15.86,12.549,20.218  c0.004,0.005,0.01,0.007,0.015,0.015c0.129,0.113,0.253,0.245,0.382,0.356l0.036-0.011c1.32,1.141,3.021,1.853,4.904,1.853  c1.635,0,3.137-0.531,4.371-1.415c0.54-0.379,1.187-0.615,1.896-0.615c0.694,0,1.338,0.218,1.871,0.583  c0.003-0.004,0.007-0.007,0.011-0.011c1.244,0.905,2.764,1.456,4.422,1.456c1.885,0,3.581-0.713,4.903-1.851l0.034,0.011  c5.104-4.32,9.867-11.621,13.112-20.589C77.279,52.012,78.281,43.837,77.46,37.429z M71.286,53.334  c-0.038,0.152-0.067,0.303-0.106,0.456c-0.083,0.286-0.163,0.58-0.242,0.884c-0.418,1.537-0.891,3.078-1.443,4.606  c-1.149,3.177-2.522,6.173-4.05,8.894c0,0,8.039-19.025-1.841-15.002c8.54-12.861,2.906-16.182,0.038-17.021  c1.774-0.347,4.442-1.352,5.929-4.208l0.167-0.117c1.417,1.665,2.402,3.715,2.743,5.986l0.191,1.101  c0.021,0.253,0.029,0.518,0.045,0.776c0.299,5.648-3.075,9.572-3.951,10.486l-0.204,0.205  C68.562,50.381,72.239,49.167,71.286,53.334z"/>
<path d="M58.325,11.199c-0.749-2.923-0.7-4.9-0.29-6.209c-0.247,0.081-0.531,0.204-0.802,0.304l0.006-0.044  c-3.892,1.408-10.197,6.43-10.524,13.131c-0.582-0.641-1.273-1.743-1.988-3.648c0,0-4.158,8.296,3.67,11.873  c0.325,0.083,0.645,0.134,0.9,0.164c-0.004-0.157,0.006-0.328,0.016-0.496c0.444-5.28,2.732-8.896,3.752-9.624l-0.005,0.024  c0.06-0.046,0.122-0.099,0.169-0.13c-0.219,0.706-0.45,1.809-0.677,3.479c-0.457,3.434-1.276,5.535-1.966,6.77l0.071,0.016  C50.658,26.81,61.688,24.312,58.325,11.199z"/>
</svg>