<svg xmlns="http://www.w3.org/2000/svg" xmlns:xlink="http://www.w3.org/1999/xlink" version="1.1" id="Layer_1" x="0px" y="0px" width="100px" height="100px" viewBox="0 0 100 100" enable-background="new 0 0 100 100" xml:space="preserve">
<polygon points="8.559,36.489 5.685,44.521 17.618,46.805 17.912,38.279 "/>
<path d="M10.982,46.538c-3.859-0.738-8.336,1.048-9.649,7.906c-1.312,6.857,2.36,19.119,4.403,19.51  c2.042,0.391,9.982-9.648,11.294-16.507C18.343,50.589,14.842,47.276,10.982,46.538z M6.382,71.225  c1.634-1.152,4.799-8.415,4.799-8.415l1.747,0.272C10.714,69.211,6.382,71.225,6.382,71.225z"/>
<polygon points="67.688,42.993 55.962,46.179 55.02,37.7 64.21,35.204 "/>
<g>
	<path d="M71.83,52.814c-1.83-6.738-6.431-8.179-10.223-7.148s-7.031,4.6-5.2,11.338s10.511,16.145,12.519,15.6   C70.933,72.059,73.661,59.553,71.83,52.814z M68.308,69.867c0.962-1.753,0.619-9.667,0.619-9.667l1.689-0.522   C71.315,66.156,68.308,69.867,68.308,69.867z"/>
</g>
<polygon points="97.732,45.59 85.59,45.149 87.208,36.773 96.726,37.119 "/>
<g>
	<path d="M91.133,46.336c-3.927-0.142-8.08,2.305-8.333,9.282c-0.253,6.979,5.243,18.538,7.321,18.613s8.397-11.056,8.65-18.033   C99.024,49.22,95.06,46.479,91.133,46.336z M86.174,61.308l1.744,0.293c0,0,0.711,7.891,1.896,9.5   C89.814,71.101,86.34,67.822,86.174,61.308z"/>
</g>
<polygon points="42.83,44.604 30.726,45.657 31.304,37.146 40.791,36.321 "/>
<g>
	<path d="M45.163,55.005c-0.604-6.957-4.876-9.19-8.79-8.851c-3.915,0.341-7.736,3.279-7.132,10.235   c0.605,6.956,7.479,17.754,9.55,17.573C40.863,73.783,45.769,61.961,45.163,55.005z M33.288,61.621l1.767,0.077   c0,0,1.674,7.744,3.048,9.195C38.103,70.894,34.253,68.065,33.288,61.621z"/>
</g>
</svg>