<svg xmlns:dc="http://purl.org/dc/elements/1.1/" xmlns:cc="http://creativecommons.org/ns#" xmlns:rdf="http://www.w3.org/1999/02/22-rdf-syntax-ns#" xmlns:svg="http://www.w3.org/2000/svg" xmlns="http://www.w3.org/2000/svg" xmlns:sodipodi="http://sodipodi.sourceforge.net/DTD/sodipodi-0.dtd" xmlns:inkscape="http://www.inkscape.org/namespaces/inkscape" width="100" height="100" id="svg3604" version="1.1" inkscape:version="0.48.3.1 r9886" sodipodi:docname="microphone.svg">
  <defs id="defs3606"/>
  <sodipodi:namedview id="base" pagecolor="#ffffff" bordercolor="#666666" borderopacity="1.0" inkscape:pageopacity="0.0" inkscape:pageshadow="2" inkscape:zoom="2.4088656" inkscape:cx="14.006659" inkscape:cy="57.661017" inkscape:document-units="px" inkscape:current-layer="layer1" showgrid="false" inkscape:window-width="1366" inkscape:window-height="721" inkscape:window-x="-4" inkscape:window-y="-4" inkscape:window-maximized="1"/>
  <metadata id="metadata3609">
    <rdf:RDF>
      <cc:Work rdf:about="">
        <dc:format>image/svg+xml</dc:format>
        <dc:type rdf:resource="http://purl.org/dc/dcmitype/StillImage"/>
        <dc:title/>
      </cc:Work>
    </rdf:RDF>
  </metadata>
  <g inkscape:label="Layer 1" inkscape:groupmode="layer" id="layer1" transform="translate(0,-952.36218)">
    <path style="font-size:medium;font-style:normal;font-variant:normal;font-weight:normal;font-stretch:normal;text-indent:0;text-align:start;text-decoration:none;line-height:normal;letter-spacing:normal;word-spacing:normal;text-transform:none;direction:ltr;block-progression:tb;writing-mode:lr-tb;text-anchor:start;baseline-shift:baseline;color:#000000;fill:#000000;fill-opacity:1;fill-rule:nonzero;stroke:none;stroke-width:20;marker:none;visibility:visible;display:inline;overflow:visible;enable-background:accumulate;font-family:Sans;-inkscape-font-specification:Sans" d="m 27.906975,952.36217 c -8.36212,0 -15.17442,6.8123 -15.17442,15.17442 0,8.36218 6.8123,15.23256 15.17442,15.23256 8.36212,0 15.23256,-6.87038 15.23256,-15.23256 0,-8.36212 -6.87044,-15.17442 -15.23256,-15.17442 z m 44.18605,0 c -8.36212,0 -15.23256,6.8123 -15.23256,15.17442 0,8.36218 6.87044,15.23256 15.23256,15.23256 8.36212,0 15.17442,-6.87038 15.17442,-15.23256 0,-8.36212 -6.8123,-15.17442 -15.17442,-15.17442 z m -44.18605,6.9186 c 4.59918,0 8.25582,3.65664 8.25582,8.25582 0,4.5992 -3.65664,8.25581 -8.25582,8.25581 -4.5992,0 -8.25581,-3.65661 -8.25581,-8.25581 0,-4.59918 3.65661,-8.25582 8.25581,-8.25582 z m 44.18605,0 c 4.5992,0 8.19767,3.65664 8.19767,8.25582 0,4.5992 -3.59847,8.25581 -8.19767,8.25581 -4.59918,0 -8.25581,-3.65661 -8.25581,-8.25581 0,-4.59918 3.65663,-8.25582 8.25581,-8.25582 z m -54.41861,23.43024 c -4.44725,0 -8.13953,3.69228 -8.13953,8.13953 l 0,53.37206 c 0,4.4473 3.69228,8.1396 8.13953,8.1396 l 20.52326,0 c 4.44724,0 8.13954,-3.6923 8.13954,-8.1396 l 0,-4.4767 -6.97675,0 0,4.4767 c 0,0.7104 -0.45246,1.1628 -1.16279,1.1628 l -20.52326,0 c -0.71034,0 -1.16279,-0.4524 -1.16279,-1.1628 l 0,-53.37206 c 0,-0.71032 0.45245,-1.16279 1.16279,-1.16279 a 3.4883721,3.4883721 0 0 0 0,-6.97674 z m 20.52326,0 a 3.4883721,3.4883721 0 1 0 0,6.97674 c 0.71033,0 1.16279,0.45247 1.16279,1.16279 l 0,4.18605 6.97675,0 0,-4.18605 c 0,-4.44725 -3.6923,-8.13953 -8.13954,-8.13953 z m 23.60465,0 c -4.44724,0 -8.13953,3.69228 -8.13953,8.13953 l 0,4.18605 6.97674,0 0,-4.18605 c 0,-0.71032 0.45247,-1.16279 1.16279,-1.16279 a 3.4883721,3.4883721 0 0 0 0,-6.97674 z m 20.52326,0 a 3.4883721,3.4883721 0 1 0 0,6.97674 c 0.71032,0 1.16279,0.45247 1.16279,1.16279 l 0,53.37206 c 0,0.7104 -0.45247,1.1628 -1.16279,1.1628 l -20.52326,0 c -0.71032,0 -1.16279,-0.4524 -1.16279,-1.1628 l 0,-4.4767 -6.97674,0 0,4.4767 c 0,4.4473 3.69229,8.1396 8.13953,8.1396 l 20.52326,0 c 4.44723,0 8.13953,-3.6923 8.13953,-8.1396 l 0,-53.37206 c 0,-4.44725 -3.6923,-8.13953 -8.13953,-8.13953 z m -44.53489,14.59302 c -3.73905,0.10233 -7.09849,2.14419 -9.06976,5.11627 -1.97128,2.9721 -2.68832,6.7995 -2.03489,10.8721 1.30685,8.1455 7.94322,17.2341 21.74419,24.1861 a 3.4817077,3.4817077 0 0 0 3.13953,0 c 18.40127,-9.2693 24.19887,-22.5543 21.22093,-31.8605 -1.48894,-4.6532 -5.59618,-8.1763 -10.58139,-8.31397 -4.04573,-0.11163 -8.25516,1.81963 -12.2093,5.63957 -3.95801,-3.82794 -8.15837,-5.75157 -12.20931,-5.63957 z m 0.17442,6.97677 c 2.07556,-0.058 5.47917,1.2596 9.30233,5.9884 a 3.4817077,3.4817077 0 0 0 5.40697,0 c 3.82347,-4.7292 7.28322,-6.0457 9.36047,-5.9884 2.07725,0.058 3.37686,1.1412 4.12791,3.4883 1.45148,4.5361 -1.04592,14.4241 -16.16279,22.6163 -11.21695,-6.0824 -15.6494,-13.1857 -16.45349,-18.1976 -0.42093,-2.6235 0.13983,-4.6508 0.98837,-5.9303 0.84848,-1.2792 1.87247,-1.9337 3.43023,-1.9767 z" id="path4324" inkscape:connector-curvature="0"/>
  </g>
</svg>