<svg xmlns="http://www.w3.org/2000/svg" xmlns:xlink="http://www.w3.org/1999/xlink" version="1.1" id="Layer_1" x="0px" y="0px" width="100px" height="100px" viewBox="0 0 100 100" enable-background="new 0 0 100 100" xml:space="preserve">
<path fill="#000000" d="M39.601,59.743c3.036-14.099,0.112-32.225-17.643-53.761l-6.17,84.79  C17.957,84.255,24.461,68.84,39.601,59.743z"/>
<path fill="#000000" d="M16.596,92.742l74.821-34.574c-8.88-2.73-17.241-4.115-24.878-4.115  C30.057,54.053,18.679,85.684,16.596,92.742z"/>
<path fill="#000000" d="M53.866,52.347c0.782,0.433,1.559,0.842,2.332,1.238c3.208-0.575,6.646-0.897,10.341-0.897  c7.142,0,14.896,1.191,23.096,3.534L27.549,11.005C35.7,22.282,40.448,33.428,41.678,44.192  C45.333,47.495,49.434,50.237,53.866,52.347z"/>
<g>
	<path fill="#000000" d="M12.756,97.916c-0.198,0-0.395-0.06-0.563-0.177c-0.287-0.198-0.447-0.534-0.423-0.882l6.792-95.23   c0.026-0.359,0.244-0.675,0.57-0.826c0.327-0.151,0.709-0.113,0.999,0.099l77.446,56.694c0.282,0.207,0.435,0.548,0.399,0.896   c-0.036,0.35-0.254,0.653-0.572,0.799L13.167,97.826C13.036,97.887,12.896,97.916,12.756,97.916z M20.407,3.55L13.86,95.336   l81.19-37.143L20.407,3.55z"/>
</g>
</svg>