<svg xmlns="http://www.w3.org/2000/svg" xmlns:xlink="http://www.w3.org/1999/xlink" version="1.1" x="0px" y="0px" width="100px" height="100px" viewBox="0 0 100 100" enable-background="new 0 0 100 100" xml:space="preserve">
<g id="Captions" display="none">
	<text transform="matrix(1 0 0 1 -348 -295.5)" fill="#000000" font-family="'Helvetica'" font-size="2.4">http://thenounproject.com</text>
	<text transform="matrix(1 0 0 1 -406.834 -300.5)"><tspan x="0" y="0" display="inline" fill="#000000" font-family="'Helvetica-Bold'" font-size="6.1578">The Noun Project</tspan><tspan x="1.12" y="4.8" display="inline" fill="#000000" font-family="'Helvetica-Bold'" font-size="4">Icon Template</tspan></text>
	<text transform="matrix(1 0 0 1 -592.5 -265.5)" fill="#000000" font-family="'Helvetica-Bold'" font-size="6.1578">Reminders</text>
	<rect x="-593" y="-218" fill="none" width="35" height="32.5"/>
	<text transform="matrix(1 0 0 1 -593 -215.8457)"><tspan x="0" y="0" display="inline" fill="#000000" font-family="'Helvetica-Bold'" font-size="3">Strokes</tspan><tspan x="0" y="5" display="inline" fill="#000000" font-family="'Helvetica'" font-size="2.4">Try to keep strokes at 4px</tspan><tspan x="0" y="10" display="inline" fill="#000000" font-family="'Helvetica'" font-size="2.4">Minimum stroke weight is 2px</tspan><tspan x="0" y="14.5" display="inline" fill="#000000" font-family="'Helvetica'" font-size="2.4">For thicker strokes use even </tspan><tspan x="0" y="17.5" display="inline" fill="#000000" font-family="'Helvetica'" font-size="2.4">numbers: 6px, 8px etc.</tspan><tspan x="0" y="22" display="inline" fill="#000000" font-family="'Helvetica-Bold'" font-size="2.4">Remember to expand strokes </tspan><tspan x="0" y="25" display="inline" fill="#000000" font-family="'Helvetica-Bold'" font-size="2.4">before saving as an SVG </tspan></text>
	<rect x="-550.5" y="-218" fill="none" width="35" height="32.5"/>
	<text transform="matrix(1 0 0 1 -550.5 -215.8457)"><tspan x="0" y="0" display="inline" fill="#000000" font-family="'Helvetica-Bold'" font-size="3">Size</tspan><tspan x="0" y="5" display="inline" fill="#000000" font-family="'Helvetica'" font-size="2.4">Cannot be wider or taller than </tspan><tspan x="0" y="8.5" display="inline" fill="#000000" font-family="'Helvetica'" font-size="2.4">100px (artboard size)</tspan><tspan x="0" y="13.5" display="inline" fill="#000000" font-family="'Helvetica'" font-size="2.4">Scale your icon to fill as much of </tspan><tspan x="0" y="16.5" display="inline" fill="#000000" font-family="'Helvetica'" font-size="2.4">the artboard as possible</tspan></text>
	<rect x="-508" y="-218" fill="none" width="35" height="32.5"/>
	<text transform="matrix(1 0 0 1 -508 -215.8457)"><tspan x="0" y="0" display="inline" fill="#000000" font-family="'Helvetica-Bold'" font-size="3">Ungroup</tspan><tspan x="0" y="5" display="inline" fill="#000000" font-family="'Helvetica'" font-size="2.4">If your design has more than one </tspan><tspan x="0" y="8" display="inline" fill="#000000" font-family="'Helvetica'" font-size="2.4">shape, make sure to ungroup</tspan></text>
	<rect x="-464" y="-218" fill="none" width="35" height="32.5"/>
	<text transform="matrix(1 0 0 1 -464 -215.8457)"><tspan x="0" y="0" display="inline" fill="#000000" font-family="'Helvetica-Bold'" font-size="3">Save as</tspan><tspan x="0" y="5" display="inline" fill="#000000" font-family="'Helvetica'" font-size="2.4">Save as .SVG and make sure </tspan><tspan x="0" y="8" display="inline" fill="#000000" font-family="'Helvetica'" font-size="2.4">&#8220;Use Artboards&#8221; is checked</tspan></text>
	<text transform="matrix(1.0074 0 0 1 -539.542 -245.4067)" fill="#000000" font-family="'Helvetica'" font-size="2.5731">100px</text>
	<text transform="matrix(1.0074 0 0 1 -455 -237)" fill="#000000" font-family="'Helvetica-Bold'" font-size="5.1462">.SVG</text>
</g>
<g id="Your_Icon">
	<g>
		<g>
			<path fill="#000000" d="M49.666,81.52c-16.858,0-48.739-2.329-48.739-11.146c0-3.691,5.244-6.482,16.033-8.534l0.657,3.461     C6.683,67.38,4.449,69.83,4.449,70.374c0,2.587,15.96,7.623,45.217,7.623c29.256,0,45.216-5.036,45.216-7.623     c0-0.5-2.003-2.776-11.8-4.801l0.712-3.45c9.832,2.03,14.611,4.729,14.611,8.251C98.405,79.19,66.523,81.52,49.666,81.52     L49.666,81.52z"/>
		</g>
		<g>
			<path fill="#000000" d="M85.296,69.245c-1.566,0-2.04,0-11.478-25.221c-0.34-0.911,0.12-1.926,1.032-2.267     c0.909-0.339,1.926,0.121,2.267,1.032c7.029,18.783,8.87,22.595,9.332,23.361c0.372,0.323,0.608,0.799,0.608,1.333     C87.058,68.458,86.27,69.245,85.296,69.245L85.296,69.245z"/>
		</g>
		<g>
			<path fill="none" d="M33.619,37.147"/>
		</g>
		<g>
			<path fill="#000000" d="M49.784,73.64c-13.632,0-33.942-4.067-34.801-4.239l-2.64-0.534l1.548-2.204     c4.88-6.956,17.86-26.056,19.289-30.846c0.277-0.933,1.252-1.464,2.19-1.184c0.934,0.277,1.462,1.259,1.185,2.192     c-1.59,5.328-13.675,23.06-18.225,29.627c6.021,1.109,21.009,3.665,31.453,3.665c12.738,0,24.258-2.083,33.847-4.119     c0.963-0.2,1.888,0.407,2.091,1.356c0.2,0.951-0.406,1.888-1.358,2.091C74.595,71.52,62.848,73.64,49.784,73.64L49.784,73.64z"/>
		</g>
		<g>
			<path fill="#000000" d="M50.761,45.184c-6.211,0-10.394-2.944-10.461-2.993l2.063-2.854l-1.031,1.428l1.026-1.432     c0.365,0.258,9.077,6.271,19.858-1.887l2.126,2.811C59.359,44.022,54.66,45.184,50.761,45.184L50.761,45.184z"/>
		</g>
		<g>
			<path fill="#000000" d="M61.8,65.293c-3.074,0-5.576-2.502-5.576-5.575c0-3.075,2.502-5.576,5.576-5.576s5.575,2.501,5.575,5.576     c0,0.313-0.027,0.624-0.077,0.924C66.849,63.337,64.537,65.293,61.8,65.293L61.8,65.293z M61.8,57.664     c-1.132,0-2.053,0.922-2.053,2.054c0,1.133,0.921,2.052,2.053,2.052c1.007,0,1.858-0.717,2.023-1.706     c0.019-0.113,0.029-0.229,0.029-0.346C63.853,58.586,62.932,57.664,61.8,57.664L61.8,57.664z"/>
		</g>
		<g>
			<path fill="#000000" d="M61.8,61.479c-0.069,0-0.14-0.004-0.21-0.012c-0.965-0.115-1.654-0.991-1.541-1.958     c0.042-0.341,4.414-34.169,36.162-37.225c0.959-0.093,1.827,0.614,1.922,1.584c0.093,0.968-0.615,1.828-1.585,1.921     c-28.954,2.788-32.965,33.82-33,34.137C63.441,60.821,62.681,61.479,61.8,61.479L61.8,61.479z"/>
		</g>
		<g>
			<path fill="#000000" d="M66.517,46.611c-0.718,0-1.39-0.44-1.652-1.153c-0.337-0.912,0.13-1.924,1.044-2.261l13.866-5.109     c0.234-0.073,14.235-4.477,15.801-13.851c0.161-0.958,1.069-1.611,2.027-1.447c0.958,0.16,1.607,1.068,1.447,2.028     c-1.927,11.529-17.49,16.406-18.151,16.607l-13.772,5.077C66.924,46.576,66.72,46.611,66.517,46.611L66.517,46.611z"/>
		</g>
		<g>
			<path fill="#000000" d="M88.122,37.424c-0.14,0-0.28-0.015-0.421-0.049l-14.057-3.446l2.481-11.125     c0.213-0.948,1.159-1.546,2.103-1.335c0.949,0.213,1.548,1.153,1.335,2.103l-1.729,7.757l10.705,2.624     c0.944,0.232,1.521,1.185,1.291,2.132C89.634,36.886,88.913,37.424,88.122,37.424L88.122,37.424z"/>
		</g>
		<g>
			<path fill="#000000" d="M91.414,34.305c-0.235,0-0.476-0.049-0.707-0.148l-10.823-4.754l4.968-9.941     c0.434-0.87,1.492-1.22,2.363-0.789c0.871,0.437,1.224,1.494,0.788,2.364l-3.314,6.63l7.436,3.265     c0.892,0.391,1.296,1.43,0.905,2.32C92.738,33.912,92.092,34.305,91.414,34.305L91.414,34.305z"/>
		</g>
		<g>
			<path fill="#000000" d="M94.658,30.296c-0.301,0-0.607-0.078-0.888-0.242l-6.977-4.074l3.102-5.306     c0.49-0.841,1.564-1.125,2.409-0.632c0.84,0.49,1.122,1.57,0.632,2.41l-1.323,2.261l3.936,2.3c0.84,0.49,1.122,1.569,0.631,2.41     C95.854,29.982,95.264,30.296,94.658,30.296L94.658,30.296z"/>
		</g>
		<g>
			<path fill="#000000" d="M70.241,40.611c-0.049,0-0.1-0.001-0.146-0.005c-0.971-0.08-1.691-0.933-1.612-1.9l0.449-5.435     c0.081-0.968,0.939-1.689,1.9-1.61c0.971,0.081,1.691,0.932,1.612,1.9l-0.45,5.434C71.917,39.916,71.146,40.611,70.241,40.611     L70.241,40.611z"/>
		</g>
		<g>
			<path fill="none" d="M82.929,40.294"/>
		</g>
		<g>
			<path fill="#000000" d="M79.625,41.503c-0.055,0-0.111-0.002-0.168-0.009l-9.386-0.891c-0.968-0.092-1.679-0.951-1.585-1.92     c0.091-0.968,0.938-1.704,1.919-1.585l9.385,0.89c0.969,0.092,1.679,0.951,1.586,1.921C81.29,40.82,80.522,41.503,79.625,41.503     L79.625,41.503z"/>
		</g>
		<g>
			<path fill="#000000" d="M66.601,45.878c-0.108,0-0.218-0.01-0.328-0.03c-0.955-0.18-1.585-1.101-1.404-2.057     c0.144-0.763,3.651-18.731,15.116-23.925c5.375-2.436,11.507-1.656,18.225,2.316c0.837,0.494,1.114,1.575,0.618,2.412     c-0.495,0.836-1.576,1.115-2.411,0.619c-5.671-3.351-10.711-4.069-14.979-2.138c-9.814,4.444-13.075,21.199-13.108,21.367     C68.172,45.288,67.432,45.878,66.601,45.878L66.601,45.878z"/>
		</g>
		<g>
			<path fill="#000000" d="M85.296,69.293c-1.6,0-2.083,0-12.102-26.893c-0.34-0.909,0.125-1.924,1.036-2.265     c0.905-0.334,1.925,0.124,2.266,1.036c6.156,16.528,9.149,23.709,9.95,25.026c0.374,0.323,0.611,0.801,0.611,1.333     C87.058,68.506,86.27,69.293,85.296,69.293L85.296,69.293z"/>
		</g>
		<g>
			<path fill="#000000" d="M34.867,38.13c-0.973,0-1.76-0.787-1.76-1.762c0-4.86,12.621-5.587,20.145-5.587     c6.854,0,13.215,0.7,17.011,1.875c0.931,0.288,1.45,1.272,1.163,2.202s-1.274,1.449-2.202,1.163     c-3.428-1.059-9.547-1.717-15.972-1.717c-10.631,0-15.738,1.573-16.65,2.377C36.453,37.504,35.734,38.13,34.867,38.13     L34.867,38.13z"/>
		</g>
		<g>
			<path fill="#000000" d="M34.867,38.13c-0.973,0-1.76-0.787-1.76-1.762c0-4.86,12.621-5.587,20.145-5.587     c6.854,0,13.215,0.7,17.011,1.875c0.931,0.288,1.45,1.272,1.163,2.202s-1.274,1.449-2.202,1.163     c-3.428-1.059-9.547-1.717-15.972-1.717c-10.631,0-15.738,1.573-16.65,2.377C36.453,37.504,35.734,38.13,34.867,38.13     L34.867,38.13z"/>
		</g>
	</g>
</g>
</svg>