<svg xmlns="http://www.w3.org/2000/svg" xmlns:xlink="http://www.w3.org/1999/xlink" version="1.1" id="Layer_1" x="0px" y="0px" width="100px" height="100px" viewBox="0 0 100 100" enable-background="new 0 0 100 100" xml:space="preserve">
<path fill-rule="evenodd" clip-rule="evenodd" d="M1.235,70.266c0-19.718,10.65-35.829,24.014-36.747  c-1.304-2.17-1.936-4.536-1.936-7.238c0-9.339,7.563-16.92,16.881-16.92c2.422,0,4.728,0.514,6.811,1.438  c-4.49,3.821-7.318,9.375-7.318,15.555c0,5.959,2.63,10.585,6.845,13.667c-0.893,0.27-1.827,0.484-2.792,0.631  c-1.979-1.545-4.096-2.795-6.569-3.687c5.313,3.647,9.611,9.925,12.109,17.672h-5.092c-4.24,0-7.678,3.994-7.678,8.913v5.295  c0,4.92,3.438,8.914,7.678,8.914h6.851c-2.547,13.73-12.594,16.374-24.591,16.374C12.528,94.132,1.235,90.571,1.235,70.266  L1.235,70.266z M53.802,87.845c2.854-3.063,4.602-7.285,4.789-13.162H46.742c-3.457,0-6.259-2.81-6.259-6.272v-4.424  c0-3.464,2.802-6.273,6.259-6.273h8.945c-0.909-2.474-2.014-4.8-3.271-6.953c1.069-2.484,2.334-4.771,3.763-6.811  c1.741,0.307,3.561,0.466,5.437,0.466c8.58,0,16.012-3.29,19.613-9.307c10.293,4.633,17.776,18.628,17.776,35.158  c0,20.306-11.293,23.866-25.211,23.866C65.655,94.132,58.413,92.915,53.802,87.845L53.802,87.845z M43.567,24.255  c0-10.607,8.592-19.213,19.177-19.213c10.589,0,19.178,8.606,19.178,19.213c0,10.611-8.589,16.635-19.178,16.635  C52.159,40.89,43.567,34.866,43.567,24.255L43.567,24.255z M65.078,30.366c0-2.257-1.681-4.092-3.751-4.092  c-2.064,0-3.748,1.835-3.748,4.092c0,2.258,1.684,4.092,3.748,4.092C63.397,34.458,65.078,32.624,65.078,30.366L65.078,30.366z   M49.684,26.79c0-2.257-0.946-4.091-2.116-4.091s-2.124,1.834-2.124,4.091c0,2.257,0.954,4.092,2.124,4.092  S49.684,29.047,49.684,26.79L49.684,26.79z"/>
</svg>