<svg xmlns="http://www.w3.org/2000/svg" xmlns:xlink="http://www.w3.org/1999/xlink" version="1.1" id="Mojito" x="0px" y="0px" width="100px" height="100px" viewBox="0 0 100 100" enable-background="new 0 0 100 100" xml:space="preserve">
<path fill="#000000" d="M37.875,7.754L19.187,3.801c-1.031-0.263-1.659-1.313-1.394-2.347c0.261-1.03,1.313-1.659,2.347-1.394  l20.427,3.836l-0.021,0.068c0.646,0.313,1.104,0.961,1.104,1.728l1.07,19.409c0.347-0.027,0.683-0.046,0.991-0.046  c1.64,0,11.646,2.635,16.225,3.186c-0.604-3.022-0.923-6.704-0.24-10.524C61.357,8.429,68.28,1.893,68.28,1.893  s4.232,8.53,2.569,17.821c-0.505,2.828-1.5,5.394-2.637,7.605c1.562-0.358,2.692-0.673,2.692-0.673l-2.841,60.549  c0,1.777-1.445,3.151-3.223,3.151c-0.003,0-23.851,0-23.853,0c-1.777,0-3.224-1.374-3.224-3.151l-2.841-60.549  c0,0,1.68-0.477,3.722-0.907L37.875,7.754z M76.385,19.407c-0.885,0-1.607,0.721-1.607,1.609l-3.82,69.398  c0,1.774-1.445,3.149-3.225,3.149H38.095c-1.775,0-3.22-1.375-3.22-3.149l-3.823-69.398c0-0.889-0.723-1.609-1.609-1.609  c-0.889,0-1.609,0.721-1.609,1.609l3.367,75.765c0,1.777,1.441,3.219,3.218,3.219h36.993c1.777,0,3.219-1.441,3.219-3.219  l3.365-75.765C77.996,20.127,77.275,19.407,76.385,19.407z M65.025,33.567c-0.254-1.289-1.503-2.124-2.787-1.868l-9.77,1.946  c-1.121,0.223-1.852,1.207-1.865,2.303l6.698,3.563c1.245,0.662,2.158,1.773,2.57,3.121c0.411,1.35,0.271,2.776-0.393,4.023  l-0.354,0.664l5.983-1.192c1.289-0.255,2.122-1.508,1.866-2.795L65.025,33.567z M55.937,42.076l-8.791-4.677  c-1.157-0.618-2.595-0.177-3.213,0.98l-4.677,8.793c-0.618,1.159-0.179,2.595,0.978,3.213l8.795,4.679  c1.157,0.617,2.595,0.179,3.212-0.98l4.676-8.795C57.534,44.129,57.096,42.694,55.937,42.076z"/>
</svg>