<svg xmlns="http://www.w3.org/2000/svg" xmlns:xlink="http://www.w3.org/1999/xlink" version="1.1" id="Layer_1" x="0px" y="0px" width="100px" height="100px" viewBox="0 0 100 100" enable-background="new 0 0 100 100" xml:space="preserve">
<circle cx="49.631" cy="15.537" r="6.675"/>
<path d="M57.333,23.605l-6.342-0.002l-0.784,1.89l0.954,11.766l-1.562,1.593l0.028,0.025l-0.053,0.006l0.032-0.031l-1.577-1.607  l0.938-11.752l-0.813-1.891l-5.563-0.002c-4.726,0-7.591,3.854-7.591,8.661V53c0,4,5,4,5,0V33h1.746l-0.007,54.031  c0,2.066,1.676,3.693,3.742,3.693c2.069,0,3.744-1.471,3.744-3.536L49.229,56h1.666l-0.01,31.165c0,2.065,1.675,3.626,3.743,3.626  c2.066,0,3.742-1.637,3.742-3.703L58.384,33H60v20c0,4,5,4,5,0V32.382C65,27.948,62.521,23.605,57.333,23.605z M57,32h-4v-2h4V32z"/>
</svg>