<svg xmlns="http://www.w3.org/2000/svg" xmlns:xlink="http://www.w3.org/1999/xlink" version="1.1" x="0px" y="0px" width="95.691px" height="100px" viewBox="0 0 95.691 100" enable-background="new 0 0 95.691 100" xml:space="preserve">
<g id="Layer_1">
	<path id="path7240_1_" d="M50.537,17.047c4.589-0.918,7.572-5.434,6.644-10.072c-0.93-4.649-5.42-7.655-10.009-6.736   c-4.599,0.921-7.57,5.42-6.64,10.068C41.46,14.945,45.94,17.967,50.537,17.047"/>
	<circle cx="67.693" cy="10.06" r="8.161"/>
	<path d="M74.541,19.938c5.696,0,8.007,4.694,8.868,7.279l6.995,22.999c1.397,4.945-4.896,6.995-6.396,2.175l-6.296-21.117h-1.833   l10.913,37.561H76.739v27.429c0,4.996-7.512,4.968-7.512,0V68.643h-3.062l0.005,27.583c0,5.034-7.539,5.034-7.539,0l-0.002-27.391   H48.543l10.825-37.561h-1.692l-6.295,21.19c-1.501,4.62-7.848,2.725-6.394-2.226l6.991-23.021c0.748-2.624,3.043-7.279,8.791-7.279   H74.541z"/>
</g>
<g id="Layer_2">
	<path d="M45.027,19.408c-3.695-5.866-10.136-2.721-10.136-2.721L4.634,35.71c-2.097,1.048-3.691,2.97-3.237,5.243   c0.456,2.275,2.642,3.742,4.885,3.294l12.132-7.041l-3.295,3.82c-1.348,2.173-2.322,3.97-2.601,7.472   c-0.09-0.012,0.005,45.483,0.005,45.483c-0.275,2.404,2.37,5.989,6.339,5.989c5.917,0,6.166-5.396,6.209-5.769l0.082-36.174   l20.127-29.818C48.073,23.428,45.027,19.408,45.027,19.408z"/>
</g>
</svg>