<svg xmlns="http://www.w3.org/2000/svg" xmlns:xlink="http://www.w3.org/1999/xlink" xml:space="preserve" width="100px" height="100px" style="shape-rendering:geometricPrecision; text-rendering:geometricPrecision; image-rendering:optimizeQuality; fill-rule:evenodd; clip-rule:evenodd" viewBox="0 0 100 100">
 <defs>
  <style type="text/css">
   
    .fil0 {fill:black}
   
  </style>
 </defs>
 <g id="Layer_x0020_1">
  <metadata id="CorelCorpID_0Corel-Layer"/>
  <path class="fil0" d="M-98.5201 -108.039c1.66182,3.82208 2.08466,8.31266 0.827959,12.6261 -2.85829,9.80559 -13.1292,15.4407 -22.936,12.5824 -3.08034,-0.897645 -5.74847,-2.5264 -7.87093,-4.64295l-4.88508 3.40278c4.45515,4.83547 10.8402,7.8662 17.9328,7.8662 4.44098,0 8.60558,-1.18938 12.1926,-3.26459l2.94333 5.09768c-3.65082,2.11301 -7.78353,3.48546 -12.1938,3.91066l0 5.90792c18.5883,-1.49883 33.2129,-17.0623 33.2129,-36.0345 0,-3.64845 -0.543311,-7.16817 -1.54844,-10.4883l5.62327 -1.7445c1.17639,3.8705 1.81064,7.97723 1.81064,12.2328 0,23.2136 -18.8269,42.0393 -42.0405,42.0393 -23.2147,0 -42.0405,-18.8257 -42.0405,-42.0393 0,-23.2147 18.8257,-42.0405 42.0405,-42.0405 13.9088,0 26.2408,6.7595 33.8932,17.171l-0.0188978 -0.00354333 -4.71264 3.50318c-1.32757,-1.80828 -2.82049,-3.49018 -4.45397,-5.02091l-3.62601 4.67484c5.66579,5.50044 9.18669,13.1977 9.18669,21.7159 0,5.51343 -1.47521,10.682 -4.05121,15.1348l-5.09886 -2.94333c2.07639,-3.58704 3.26459,-7.75045 3.26459,-12.1914 0,-12.4678 -9.36385,-22.7529 -21.4407,-24.2069l0 5.94217c0.745281,0.120473 1.49056,0.288191 2.23348,0.504335l-1.64647 5.65044c-6.68627,-1.94883 -13.6891,1.89332 -15.6379,8.5796 -1.94883,6.68509 1.89332,13.6879 8.5796,15.6367 6.68627,1.94883 13.6879,-1.89332 15.6367,-8.57841 0.0566934,-0.194883 0.108662,-0.390948 0.157088,-0.585831l-6.21501 0c-1.09253,2.24057 -3.39097,3.78428 -6.04965,3.78428 -3.7146,0 -6.72643,-3.01302 -6.72643,-6.72643 0,-3.7146 3.01183,-6.72643 6.72643,-6.72643 2.65868,0 4.95713,1.54371 6.04965,3.7831l6.22564 0c-0.178348,-0.732289 -0.424019,-1.44686 -0.731108,-2.13781l5.38705 -2.37049zm-33.4349 15.7997c-2.04569,-4.04058 -2.62207,-8.8359 -1.25552,-13.5261 2.0634,-7.0784 7.99022,-11.9836 14.8159,-13.0891l0 -5.93981c-10.6772,1.28505 -19.2332,9.4737 -21.0734,19.9714l-5.7969 -1.02166c0.909456,-5.18744 3.13939,-9.91898 6.32958,-13.8379l-4.24846 -4.09728c-5.25595,6.27879 -8.42251,14.3659 -8.42251,23.1923 0,18.9722 14.6233,34.5357 33.2117,36.0345l0 -5.9091c-13.5851,-1.31103 -24.5459,-11.6056 -26.8703,-24.8695l5.7969 -1.02166c0.470082,2.67758 1.376,5.20516 2.64333,7.50596l4.86972 -3.39215zm36.6038 -38.4015c-5.74847,-3.85279 -12.6627,-6.10162 -20.1002,-6.10162 -9.01897,0 -17.269,3.30475 -23.6022,8.76975l4.25791 4.10673c5.24532,-4.36421 11.9883,-6.991 19.3442,-6.991 6.07918,0 11.7391,1.79529 16.4824,4.88035l3.61775 -4.66421z"/>
  <path class="fil0" d="M3.73349 -152.402l21.9451 0 0 -3.04727 -21.9451 0 0 3.04727zm0 -6.09572l21.9451 0 0 -3.04727 -21.9451 0 0 3.04727zm33.8176 4.91815l15.5174 15.5174 2.15553 -2.15553 -15.5174 -15.5174 -2.15553 2.15553zm-4.31106 4.30988l15.5174 15.5174 2.15553 -2.15435 -15.5174 -15.5174 -2.15553 2.15435zm19.8285 56.8977l-15.5174 15.5174 2.15553 2.15553 15.5174 -15.5174 -2.15553 -2.15553zm-52.5878 6.89651l-15.5174 -15.5174 -2.15435 2.15553 15.5174 15.5174 2.15435 -2.15553zm-15.5174 -43.9657l15.5174 -15.5174 -2.15435 -2.15553 -15.5174 15.5174 2.15435 2.15553zm-4.30988 -4.31106l15.5174 -15.5174 -2.15553 -2.15435 -15.5174 15.5174 2.15553 2.15435zm77.3333 20.973l0 8.53471 3.04727 0 0 -8.53471 -3.04727 0zm0 -13.4103l0 8.53471 3.04727 0 0 -8.53471 -3.04727 0zm-40.8428 57.3005l8.53471 0 0 -3.04727 -8.53471 0 0 3.04727zm-13.4103 0l8.53353 0 0 -3.04727 -8.53353 0 0 3.04727zm13.4103 -6.09572l8.53471 0 0 -3.04727 -8.53471 0 0 3.04727zm-13.4103 0l8.53353 0 0 -3.04727 -8.53353 0 0 3.04727zm13.4103 -6.09572l8.53471 0 0 -3.04727 -8.53471 0 0 3.04727zm-13.4103 0l8.53353 0 0 -3.04727 -8.53353 0 0 3.04727zm-29.2609 -31.6987l0 8.53471 3.04845 0 0 -8.53471 -3.04845 0zm0 -13.4103l0 8.53471 3.04845 0 0 -8.53471 -3.04845 0zm5.74965 -20.0624l-6.0343 6.0343 2.15435 2.15553 6.03548 -6.0343 -2.15553 -2.15553zm9.48315 -9.48315l-6.03548 6.0343 2.15553 2.15553 6.0343 -6.0343 -2.15435 -2.15553zm45.259 64.2253l-6.0343 6.0343 2.15553 2.15553 6.0343 -6.0343 -2.15553 -2.15553zm9.48315 -9.48315l-6.0343 6.0343 2.15553 2.15553 6.0343 -6.0343 -2.15553 -2.15553zm-60.7776 20.2596l6.03548 6.0343 2.15435 -2.15553 -6.0343 -6.0343 -2.15553 2.15553zm-9.48196 -9.48315l6.0343 6.0343 2.15553 -2.15553 -6.03548 -6.0343 -2.15435 2.15553zm65.0875 3.01656l-6.03548 6.03548 2.15553 2.15435 6.0343 -6.0343 -2.15435 -2.15553zm9.48315 -9.48196l-6.03548 6.0343 2.15553 2.15553 6.0343 -6.03548 -2.15435 -2.15435zm-60.7776 11.6375l6.0343 6.0343 2.15553 -2.15435 -6.0343 -6.03548 -2.15553 2.15553zm-9.48315 -9.48315l6.0343 6.03548 2.15553 -2.15553 -6.0343 -6.0343 -2.15553 2.15435zm59.9154 -40.9491l6.0343 6.03548 2.15553 -2.15553 -6.03548 -6.0343 -2.15435 2.15435zm-9.48315 -9.48196l6.0343 6.0343 2.15553 -2.15553 -6.0343 -6.0343 -2.15553 2.15553zm16.8639 32.1794l0 8.53471 3.04845 0 0 -8.53471 -3.04845 0zm0 -13.4103l0 8.53471 3.04845 0 0 -8.53471 -3.04845 0zm6.09572 0l0 21.9451 3.04845 0 0 -21.9451 -3.04845 0zm-80.4644 21.9451l0 -21.9451 -3.04845 0 0 21.9451 3.04845 0zm12.1914 0l0 -21.9451 -3.04845 0 0 21.9451 3.04845 0zm20.1167 -42.0617l21.9451 0 0 -3.04727 -21.9451 0 0 3.04727z"/>
  <path class="fil0" d="M47.5551 27.8636l17.9966 41.1334c-0.00118111,4.36657 -0.805518,8.85598 -2.85947,12.6284 -0.303546,0.557485 -0.650793,1.12206 -1.03938,1.67009l-2.44963 -8.19337 -6.94494 8.37526 8.55597 0.896464c-1.60867,1.88505 -3.73231,3.37325 -6.21973,3.41932 -6.75832,0.126379 -9.78197,-9.87409 -10.7505,-14.9954 -0.107481,-0.566934 -0.22323,-1.14213 -0.348428,-1.72206l8.32093 2.62915 -3.02719 -10.4505 -5.57012 6.60241c-1.27914,-5.38705 -3.40514,-11.1107 -6.90714,-15.1985 -2.58427,-3.0201 -6.3532,-5.45555 -10.4895,-4.62287 -0.870479,0.174805 -1.66891,0.471264 -2.4012,0.864574l-0.0259845 -8.27959 -9.03432 6.06501 7.64534 3.15711c-2.92207,2.35632 -4.49649,6.41698 -5.09768,10.0241l-0.178348 1.07245 2.14608 0.357877 0.179529 -1.07245c0.500791,-3.00711 1.82364,-6.72289 4.37366,-8.73314l0.0283467 8.74495 9.03432 -6.06383 -8.07526 -3.33428c0.561028,-0.307089 1.17166,-0.536225 1.83427,-0.66969 3.31656,-0.667328 6.36383,1.51655 8.40833,3.90476 3.24451,3.79019 5.23114,9.20795 6.43115,14.243l-7.97841 -2.52167 3.02719 10.4517 5.31618 -6.30005c0.0885834,0.422838 0.171261,0.843314 0.250396,1.2567 1.20946,6.39336 4.78705,16.9194 12.9296,16.7659 3.13585,-0.0590556 5.7839,-1.8071 7.77998,-4.11972l2.40592 8.04809 6.94612 -8.37526 -8.40243 -0.879928c0.459452,-0.640163 0.872842,-1.30513 1.23781,-1.976 2.26419,-4.15988 3.14766,-9.0733 3.12404,-13.8615l17.9116 -40.9409 -19.0419 -21.762 -19.0419 21.762z"/>
  <path id="Curve" class="fil0" d="M316.743 -133.534l-1.56379 -0.912999 -2.09175 -8.72015 9.19377 -2.20514 19.8805 11.1131c-4.58035,8.45676 -9.35913,14.517 -18.5175,17.6942l-6.90124 -16.969zm-53.1949 14.2643l-1.24371 3.54333 2.45435 0.0755911 -3.1016 1.76812 -0.848038 2.41655 5.25949 1.84608 12.541 -6.02367 1.54135 -3.17128 0.519689 2.18151 10.1576 -6.81147 0.953157 -5.165 0.137009 -2.36577 -5.67524 1.50237 -7.97132 3.22325 2.50159 0.80788 -5.45792 0.52087 -11.7674 5.65162zm-0.943708 -22.3112l-2.72364 2.72246 2.23466 1.16103 -3.652 0.25512 -1.85789 1.85671 4.04176 4.04295 14.2666 0.00472445 2.83349 -2.24647 -0.48898 2.24647 10.5261 -0.936622 7.08431 -4.02169 1.32166 -1.91813 -5.94099 -2.4827 -10.9359 -0.594099 1.95356 1.85789 -5.27603 -1.94293 -13.3867 -0.00472445zm48.4728 -14.4604l10.2828 6.30477 0.981504 -5.13429 -7.61463 -4.23901 -3.64964 3.06853zm-15.9108 33.3499l0.113387 -8.49456 4.51067 -8.12487 11.3481 6.35556 -29.3388 52.2713c-2.36222,4.14334 -3.77838,8.82172 -3.99334,13.7292l-8.71188 -0.615359c0.29764,-5.98824 1.98191,-11.7367 4.81421,-16.8958l21.2576 -38.2255zm15.1915 -14.569l-6.378 -3.72286 5.18626 -1.24371 1.19174 4.96657zm-11.4072 -6.65911l-8.52526 -4.97602c5.00437,-3.47955 10.2875,-5.27603 15.8493,-5.39177l1.9512 8.13904 -9.27527 2.22876zm12.1029 -7.72801l6.03548 3.37325 -4.94177 1.18584 -1.09371 -4.55909z"/>
  <path class="fil0" d="M403.429 -131.627l29.0872 0 8.35637 -11.9694 -22.9006 -7.43982 -22.8994 7.43982 8.35637 11.9694zm33.7266 3.32247l9.00243 27.7042 13.3655 3.88113 0 -24.1289 -14.0611 -19.3537 -8.30676 11.8973zm-19.1836 45.3417l22.5852 -16.408 -8.62684 -26.5502 -27.9156 0 -8.62684 26.5502 22.584 16.408zm2.85357 4.98075l0 13.3973 22.8273 -7.41738 14.0292 -19.31 -13.2249 -3.83979 -23.6317 17.1698zm-5.70595 0l-23.6317 -17.1698 -13.2249 3.83979 14.0292 19.31 22.8273 7.41738 0 -13.3973zm-16.33 -50.3224l-8.30676 -11.8973 -14.0611 19.3537 0 24.1289 13.3655 -3.88113 9.00243 -27.7042z"/>
 </g>
</svg>