<svg xmlns="http://www.w3.org/2000/svg" xmlns:xlink="http://www.w3.org/1999/xlink" version="1.1" id="Camada_1" x="0px" y="0px" width="100px" height="100px" viewBox="0 0 100 100" enable-background="new 0 0 100 100" xml:space="preserve">
<path d="M72,22.983c0-3.072-2.5-5.571-5.571-5.571c-0.998,0-1.952,0.26-2.79,0.748l-0.001-3.24c0.01-0.136,0.014-0.253,0.014-0.366  c0-3.072-2.5-5.571-5.571-5.571c-0.998,0-1.953,0.261-2.792,0.75c-0.321-2.768-2.681-4.924-5.534-4.924  c-2.857,0-5.219,2.162-5.535,4.936c-0.844-0.497-1.807-0.762-2.814-0.762c-3.071,0-5.571,2.499-5.571,5.571v17.494  c-1.401-1.179-3.189-1.849-5.047-1.849c-1.82,0-3.301,1.481-3.301,3.301v24.893c0,6.611,2.889,12.555,7.464,16.641  c0.058,0.076,0.124,0.147,0.198,0.212c0.226,0.197,0.456,0.388,0.688,0.575l-0.002,19.151c0,0.548,0.6,0.997,1.346,1.017  l0.074,0.001c0.015,0,0.03-0.001,0.045-0.001h0.005c0.747-0.019,1.347-0.469,1.347-1.017L38.63,77.739  c1.121,0.65,2.297,1.204,3.525,1.65c0.162,0.059,0.328,0.087,0.491,0.087c0.586,0,1.136-0.362,1.348-0.944  c0.271-0.744-0.113-1.567-0.858-1.839c-0.427-0.155-0.846-0.33-1.259-0.514c0.004-0.013,0.006-0.02,0.006-0.02  s-0.05-0.012-0.135-0.038c-1.705-0.775-3.286-1.79-4.711-3.036c-0.09-0.079-0.188-0.141-0.291-0.192  c-3.966-3.573-6.47-8.746-6.47-14.501l0-20.269l0.004-4.624c0-0.28,0.228-0.507,0.508-0.507c2.783,0,5.047,2.264,5.047,5.047v10.848  c0,0.77,0.626,1.397,1.396,1.397c0,0,0.001,0,0.001,0c6.205,0,11.252,5.048,11.252,11.253c0,0.77,0.627,1.396,1.397,1.396  s1.396-0.627,1.396-1.396c0-7.261-5.503-13.273-12.649-13.978V14.554c0-1.532,1.246-2.778,2.777-2.778  c1.532,0,2.778,1.246,2.778,2.778c0,0.097-0.005,0.195-0.02,0.333L44.16,39.761c0,0.763,0.614,1.385,1.374,1.397l0.044,0.004  l0.027-0.004c0.764-0.008,1.383-0.631,1.383-1.397l0-29.109l-0.003-0.078c-0.004-0.064-0.008-0.129-0.008-0.195  c0-1.531,1.246-2.777,2.778-2.777s2.777,1.246,2.777,2.777c0,0.068-0.004,0.135-0.009,0.212l-0.003,0.03l0.002,3.573  c-0.008,0.119-0.013,0.239-0.013,0.36c0,0.111,0.004,0.227,0.011,0.316v24.891c0,0.771,0.627,1.397,1.397,1.397  s1.396-0.626,1.396-1.397V14.314c0.122-1.425,1.333-2.538,2.767-2.538c1.531,0,2.777,1.246,2.777,2.778  c0,0.066-0.003,0.131-0.01,0.211l-0.002,27.329c0,0.753,0.6,1.37,1.347,1.396l0.073,0.001c0.016,0,0.03,0,0.045,0l0.005,0  c0.747-0.026,1.348-0.643,1.348-1.396l-0.001-18.846l-0.003-0.065c-0.004-0.066-0.008-0.132-0.008-0.2  c0-1.532,1.245-2.778,2.777-2.778c1.531,0,2.777,1.246,2.777,2.778c0,0.067-0.003,0.134-0.01,0.211l0.001,35.198  c0,5.532-2.316,10.525-6.02,14.079c-0.109,0.057-0.214,0.124-0.308,0.211c-1.901,1.771-4.097,3.117-6.522,4.003  c-0.744,0.271-1.127,1.096-0.854,1.84c0.212,0.581,0.762,0.942,1.347,0.942c0.164,0,0.33-0.028,0.492-0.088  c1.227-0.447,2.398-1.004,3.516-1.653l-0.002,17.245c0,0.548,0.6,0.997,1.347,1.017l0.073,0.001c0.016,0,0.03-0.001,0.045-0.001  h0.005c0.747-0.019,1.348-0.469,1.348-1.017l-0.025-19.168c0.404-0.327,0.803-0.663,1.187-1.021  c0.035-0.033,0.062-0.071,0.094-0.105c4.347-4.072,7.07-9.864,7.07-16.285l-0.001-35.045C71.995,23.212,72,23.096,72,22.983z"/>
</svg>