<svg xmlns="http://www.w3.org/2000/svg" xmlns:xlink="http://www.w3.org/1999/xlink" version="1.1" x="0px" y="0px" width="100px" height="100px" viewBox="0 0 100 100" enable-background="new 0 0 100 100" xml:space="preserve">
<g id="Captions">
</g>
<g id="Your_Icon">
	<path d="M90.975,82.805c-0.83,2.08-2.879,3.561-5.25,3.561h-71.45c-2.37,0-4.42-1.48-5.25-3.561c0.52-0.289,1.38-0.779,2.3-1.289   l36.43-20.18c0.05-0.031,0.1-0.051,0.15-0.07c0.61,0.289,1.33,0.439,2.09,0.439s1.489-0.15,2.101-0.43   c0.049,0.01,0.09,0.029,0.139,0.061l36.441,20.18C89.596,82.025,90.455,82.516,90.975,82.805z M10.115,36.035   c-0.61-0.41-0.99-0.92-1.11-1.48c-0.26,0.64-0.4,1.34-0.4,2.07v44.07c0,0.379,0.04,0.76,0.12,1.119c0.52-0.279,1.3-0.709,2.12-1.17   l36.07-19.979L10.115,36.035z M90.994,34.555c-0.119,0.56-0.5,1.07-1.109,1.48L53.086,60.666l36.068,19.979   c0.82,0.461,1.602,0.891,2.121,1.18c0.08-0.369,0.119-0.738,0.119-1.129v-44.07C91.395,35.895,91.256,35.195,90.994,34.555z    M78.596,39.615L51.234,57.926c-0.29,0.199-0.75,0.309-1.239,0.309c-0.49,0-0.95-0.109-1.24-0.309l-28.22-18.891l27.66,18.5   c0.91,0.619,2.69,0.619,3.6,0L78.596,39.615z M78.596,39.615L51.234,57.926c-0.29,0.199-0.75,0.309-1.239,0.309   c-0.49,0-0.95-0.109-1.24-0.309l-28.22-18.891l27.66,18.5c0.91,0.619,2.69,0.619,3.6,0L78.596,39.615z M82.955,36.705   c-0.088,0.38-0.219,0.767-0.371,1.146c0.15-0.375,0.27-0.757,0.352-1.135L82.955,36.705z M82.414,38.265   c-0.025,0.056-0.061,0.106-0.088,0.161c0.076-0.155,0.148-0.312,0.215-0.471C82.498,38.058,82.463,38.165,82.414,38.265z    M81.984,39.045c0.127-0.199,0.234-0.409,0.342-0.62C82.221,38.637,82.109,38.844,81.984,39.045z M82.584,37.851   c-0.014,0.035-0.027,0.069-0.043,0.104C82.557,37.92,82.57,37.886,82.584,37.851z M90.445,33.675c-0.07,0.22-0.221,0.44-0.42,0.65   c-0.01,0-0.01,0-0.01,0.01c-0.121,0.11-0.26,0.22-0.41,0.32l-5.18,3.47c-1.301,0.87-3.42,2.29-4.721,3.16l-27.35,18.299   c-0.65,0.441-1.51,0.65-2.36,0.65s-1.71-0.209-2.36-0.65l-28.21-18.879c-1.3-0.87-3.42-2.29-4.72-3.16l-4.31-2.89   c-0.16-0.1-0.29-0.21-0.41-0.32c0-0.01,0-0.01-0.01-0.01c-0.2-0.21-0.35-0.43-0.42-0.65c-0.12-0.33-0.1-0.66,0.06-0.96   c0.16-0.33,0.49-0.64,0.97-0.87l2.84-1.36l1.09-0.52c0.45-0.22,0.98-0.48,1.55-0.75v-1.44c0-2.11,1.72-3.83,3.83-3.83h7.15   l1.64-0.79l1.81-0.87c1.41-0.68,3.71-1.78,5.12-2.46l11.82-5.68c0.71-0.34,1.63-0.51,2.56-0.51s1.851,0.17,2.56,0.51l11.83,5.68   c1.41,0.68,3.711,1.78,5.121,2.46l1.809,0.87l1.631,0.79h6.279c2.121,0,3.84,1.72,3.84,3.83v1.02c0.57,0.27,1.1,0.53,1.551,0.75   l1.93,0.93l2.869,1.37c0.48,0.23,0.811,0.54,0.971,0.87C90.545,33.015,90.564,33.345,90.445,33.675z M31.665,23.945h36.671   l-0.561-0.27l-4.25-2.04l-11.84-5.69c-0.4-0.19-1.031-0.31-1.69-0.31c-0.65,0-1.29,0.12-1.69,0.31l-11.83,5.69L31.665,23.945z    M18.065,35.075c0,1.22,0.89,2.89,1.91,3.58l0.56,0.38l28.22,18.891c0.29,0.199,0.75,0.309,1.24,0.309   c0.49,0,0.95-0.109,1.239-0.309l27.361-18.311l0.559-0.38c1.021-0.69,1.91-2.36,1.91-3.58v-7.88c0-1.01-0.82-1.83-1.84-1.83h-59.33   c-1.01,0-1.83,0.82-1.83,1.83V35.075z M16.175,36.125l0.02,0.01c-0.08-0.36-0.13-0.72-0.13-1.06v-3.64l-0.69,0.33l-3.32,1.6   l3.77,2.52L16.175,36.125z M82.414,38.265c0.049-0.101,0.084-0.207,0.127-0.311c-0.066,0.159-0.139,0.316-0.215,0.471   C82.354,38.371,82.389,38.321,82.414,38.265z M87.945,33.365l-4.189-2.02l-0.691-0.33v4.64c0,0.34-0.049,0.7-0.129,1.06   c-0.082,0.378-0.201,0.76-0.352,1.135c0.152-0.378,0.283-0.765,0.371-1.146l0.35-0.24L87.945,33.365z"/>
</g>
</svg>