<svg xmlns="http://www.w3.org/2000/svg" xmlns:xlink="http://www.w3.org/1999/xlink" version="1.0" x="0px" y="0px" width="100px" height="100px" viewBox="0 0 100 100" overflow="" enable-background="new 0 0 100 100" xml:space="preserve">
    <path d="M94.988,35.046l-12.712-10.37v-3.18c0-5.337-4.328-9.667-9.657-9.667h-6.102l-8.042-6.556 c-2.166-1.753-4.91-2.798-7.895-2.834V2.435c-0.027,0-0.046,0.005-0.082,0.005c-0.014,0-0.041-0.005-0.073-0.005v0.005 c-2.984,0.036-5.724,1.081-7.896,2.834l-8.109,6.556h-6.042c-5.336,0-9.663,4.33-9.663,9.667v3.039L5.179,35.484 c-2.231,1.427-3.712,3.93-3.712,6.771V90.12c0,4.446,3.601,8.053,8.045,8.053H91.44c4.443,0,8.05-3.606,8.05-8.053V42.256 C99.49,39.092,97.654,36.357,94.988,35.046z M92.617,86.843c0.622,1.494-0.068,3.214-1.568,3.843 c-1.484,0.636-3.217-0.066-3.833-1.555L72.914,65.156H28.088L13.792,89.131c-0.622,1.488-2.349,2.19-3.832,1.555 c-1.508-0.629-2.192-2.349-1.569-3.843l14.653-24.441L8.588,48.554c-1.007-1.263-0.795-3.107,0.479-4.12 c1.263-1.004,3.109-0.79,4.111,0.473L24.2,55.444V20.979c0-1.831,1.495-3.326,3.334-3.326h45.93c1.84,0,3.33,1.495,3.33,3.326 v34.474l11.034-10.546c0.995-1.263,2.844-1.477,4.107-0.473c1.277,1.013,1.484,2.857,0.481,4.12L77.961,62.401L92.617,86.843z"/>
    <path d="M58.605,26.303c-3.503,0-7.402,2.962-8.129,6.497c-0.723-3.537-4.623-6.497-8.123-6.497c-5.906,0-9.427,4.504-9.427,10.408 c0,3.682,2.372,6.996,5.27,9.09c6.023,4.352,7.441,5.122,12.28,9.96c4.842-4.838,6.26-5.608,12.283-9.96 c2.896-2.094,5.27-5.409,5.27-9.09C68.029,30.808,64.51,26.303,58.605,26.303z"/>
</svg>