<svg xmlns="http://www.w3.org/2000/svg" xmlns:xlink="http://www.w3.org/1999/xlink" version="1.1" id="Martini" x="0px" y="0px" width="100px" height="100px" viewBox="0 0 100 100" enable-background="new 0 0 100 100" xml:space="preserve">
<path id="martini" d="M52.985,88.142c0-0.01,0.002-0.017,0.002-0.025V49.86h0.017l3.728-4.534l-0.057-0.047l20.93-27.573H38.802  L25.152,2.982l-1.22-1.364c0,0-3.527-2.867-1.236,0.933c0.458,0.758,6.94,7.67,14.397,15.154H25.048L45.98,45.285l-0.079,0.048  l3.918,4.527h0.099v38.256c0,0.014,0.002,0.025,0.002,0.039c-7.413,0.28-13.173,2.368-13.173,4.903  c0,2.729,6.665,4.941,14.886,4.941c8.221,0,14.885-2.213,14.885-4.941C66.519,90.482,60.571,88.37,52.985,88.142z M44.629,40.393  l-12.157-16.8h10.854c2.337,2.325,4.606,4.572,6.65,6.591c-0.898,0.005-1.835,0.216-2.718,0.684  c-2.572,1.362-3.707,4.257-2.534,6.467c1.17,2.209,4.204,2.896,6.776,1.534c1.767-0.937,2.832-2.599,2.959-4.264  c2.395,2.356,3.913,3.845,3.913,3.845l-3.886-4.193c-0.005-0.639-0.144-1.271-0.454-1.855c-0.649-1.223-1.874-1.959-3.269-2.159  l-6.165-6.648h25.862l-12.493,16.8c-3.029,4.116-6.479,3.684-6.479,3.684C47.499,44.077,44.629,40.393,44.629,40.393z   M47.354,38.351c-0.539,0.296-1.327-0.097-1.761-0.882c-0.432-0.785-0.344-1.661,0.194-1.959c0.541-0.298,1.329,0.097,1.763,0.88  C47.984,37.176,47.895,38.054,47.354,38.351z M51.249,92.408c-3.998,0-7.236-0.911-7.236-2.04c0-1.002,2.554-1.831,5.921-2.007  c0.001,0.011,0.001,0.022,0.002,0.032c-1.921,0.188-3.331,0.768-3.331,1.459c0,0.843,2.079,1.527,4.644,1.527  c2.565,0,4.646-0.685,4.646-1.527c0-0.643-1.215-1.192-2.927-1.417c0.001-0.014,0.001-0.031,0.004-0.045  c3.16,0.217,5.515,1.017,5.515,1.978C58.486,91.497,55.247,92.408,51.249,92.408z"/>
</svg>