<svg xmlns="http://www.w3.org/2000/svg" xmlns:xlink="http://www.w3.org/1999/xlink" version="1.1" id="Layer_1" x="0px" y="0px" width="100px" height="100px" viewBox="0 0 100 100" enable-background="new 0 0 100 100" xml:space="preserve">
<g id="Layer_3">
	<path stroke="#000000" stroke-miterlimit="10" d="M12.038,49.5C12.826,69.791,29.516,86,50,86c20.482,0,37.173-16.209,37.962-36.5   H12.038z"/>
	<rect x="40.5" y="83.5" stroke="#000000" stroke-miterlimit="10" width="20" height="4"/>
</g>
<g id="Layer_4">
	<path fill="none" stroke="#000000" stroke-width="2" stroke-miterlimit="10" d="M13.048,53.703   c-0.399-7.305,5.128-13.848,12.346-14.614c5.774-0.613,10.715,3.628,11.035,9.472c0.255,4.675-3.283,8.863-7.902,9.354   c-3.696,0.392-6.857-2.321-7.062-6.062c-0.163-2.993,2.101-5.672,5.058-5.986c2.364-0.25,4.388,1.487,4.519,3.88   c0.104,1.915-1.345,3.629-3.236,3.831c-1.514,0.16-2.809-0.952-2.893-2.482c-0.067-1.226,0.86-2.324,2.071-2.452   c0.97-0.103,1.799,0.608,1.852,1.589"/>
	<path fill="none" stroke="#000000" stroke-width="2" stroke-miterlimit="10" d="M31.048,53.703   c-0.399-7.305,5.128-13.848,12.346-14.614c5.774-0.613,10.715,3.628,11.036,9.472c0.254,4.675-3.283,8.863-7.903,9.354   c-3.696,0.392-6.857-2.321-7.062-6.062c-0.163-2.993,2.101-5.672,5.058-5.986c2.364-0.25,4.388,1.487,4.519,3.88   c0.104,1.915-1.345,3.629-3.236,3.831c-1.514,0.16-2.809-0.952-2.893-2.482c-0.067-1.226,0.86-2.324,2.071-2.452   c0.97-0.103,1.799,0.608,1.852,1.589"/>
	<path fill="none" stroke="#000000" stroke-width="2" stroke-miterlimit="10" d="M50.048,53.703   c-0.399-7.305,5.128-13.848,12.347-14.614c5.773-0.613,10.715,3.628,11.035,9.472c0.254,4.675-3.283,8.863-7.902,9.354   c-3.696,0.392-6.857-2.321-7.062-6.062c-0.162-2.993,2.102-5.672,5.059-5.986c2.363-0.25,4.388,1.487,4.519,3.88   c0.104,1.915-1.345,3.629-3.235,3.831c-1.515,0.16-2.81-0.952-2.894-2.482c-0.067-1.226,0.86-2.324,2.071-2.452   c0.97-0.103,1.799,0.608,1.852,1.589"/>
	<path fill="none" stroke="#000000" stroke-width="2" stroke-miterlimit="10" d="M65.048,54.703   c-0.399-7.305,5.128-13.848,12.347-14.614c5.773-0.613,10.715,3.628,11.035,9.472c0.254,4.675-3.283,8.863-7.902,9.354   c-3.696,0.392-6.857-2.321-7.062-6.062c-0.162-2.993,2.102-5.672,5.059-5.986c2.363-0.25,4.388,1.487,4.519,3.88   c0.104,1.915-1.345,3.629-3.235,3.831c-1.515,0.16-2.81-0.952-2.894-2.482c-0.067-1.226,0.86-2.324,2.071-2.452   c0.97-0.103,1.799,0.608,1.852,1.588"/>
	<path fill="none" stroke="#000000" stroke-width="2" stroke-miterlimit="10" d="M15.468,55.281   c-0.077-5.929,4.517-11.433,10.26-12.292c4.595-0.688,8.371,2.601,8.433,7.345c0.049,3.794-2.891,7.316-6.567,7.867   c-2.941,0.439-5.357-1.664-5.396-4.7c-0.031-2.429,1.85-4.684,4.203-5.036c1.881-0.281,3.427,1.066,3.453,3.008   c0.02,1.555-1.184,2.998-2.689,3.223c-1.205,0.182-2.194-0.682-2.21-1.926c-0.013-0.994,0.758-1.916,1.721-2.062   c0.772-0.116,1.405,0.437,1.415,1.231"/>
	<path fill="none" stroke="#000000" stroke-width="2" stroke-miterlimit="10" d="M33.469,55.281   c-0.078-5.929,4.516-11.433,10.26-12.292c4.595-0.688,8.371,2.601,8.432,7.345c0.05,3.794-2.891,7.316-6.566,7.867   c-2.941,0.439-5.357-1.664-5.396-4.7c-0.031-2.429,1.851-4.684,4.203-5.036c1.882-0.281,3.428,1.066,3.453,3.008   c0.02,1.555-1.184,2.998-2.689,3.223c-1.205,0.182-2.193-0.682-2.211-1.926c-0.013-0.994,0.758-1.916,1.722-2.062   c0.772-0.116,1.405,0.437,1.415,1.231"/>
	<path fill="none" stroke="#000000" stroke-width="2" stroke-miterlimit="10" d="M52.469,55.281   c-0.078-5.929,4.516-11.433,10.26-12.292c4.596-0.688,8.371,2.601,8.433,7.345c0.05,3.794-2.892,7.316-6.565,7.867   c-2.941,0.439-5.357-1.664-5.396-4.7c-0.031-2.429,1.851-4.684,4.203-5.036c1.882-0.281,3.428,1.066,3.453,3.008   c0.02,1.555-1.185,2.998-2.689,3.223c-1.205,0.182-2.193-0.682-2.211-1.926c-0.014-0.994,0.758-1.916,1.723-2.062   c0.771-0.116,1.404,0.437,1.414,1.231"/>
	<path fill="none" stroke="#000000" stroke-width="2" stroke-miterlimit="10" d="M67.469,56.281   c-0.078-5.929,4.516-11.433,10.26-12.292c4.596-0.688,8.371,2.601,8.433,7.345c0.05,3.794-2.892,7.316-6.565,7.867   c-2.941,0.439-5.357-1.664-5.396-4.7c-0.031-2.429,1.851-4.684,4.203-5.036c1.882-0.281,3.428,1.066,3.453,3.008   c0.02,1.555-1.185,2.998-2.689,3.223c-1.205,0.182-2.193-0.682-2.211-1.926c-0.014-0.994,0.758-1.916,1.723-2.062   c0.771-0.116,1.404,0.437,1.414,1.231"/>
	<line fill="none" stroke="#000000" stroke-width="2" stroke-miterlimit="10" x1="42" y1="74" x2="12" y2="22"/>
	<line fill="none" stroke="#000000" stroke-width="2" stroke-miterlimit="10" x1="42" y1="74" x2="24" y2="23"/>
</g>
</svg>