<svg xmlns="http://www.w3.org/2000/svg" xmlns:xlink="http://www.w3.org/1999/xlink" version="1.0" id="Layer_1" x="0px" y="0px" width="100px" height="100px" viewBox="0 0 100 100" enable-background="new 0 0 100 100" xml:space="preserve">
<path d="M37.417,59.243c0.633,0.611,1.242,2.299,2.249,2.251c0.366-0.018,0.639,0.111,0.828,0.311V58.5  c0-0.275,0.095-0.482,0.222-0.658c-0.747-0.438-1.543-0.775-2.509-0.775v0.05c-1.348,0.035-2.369,0.729-3.397,1.415  C35.728,58.542,36.776,58.623,37.417,59.243z"/>
<path d="M20.698,60.089c0.136-0.058,0.29-0.095,0.468-0.095c2.537,0,5.04,0.147,7.526-0.445c0.226-0.054,0.454-0.11,0.683-0.169  c-1.625-0.802-2.914-2.274-4.939-2.274c-2.77,0-4.16,2.781-6.94,2.781c-0.958,0-1.75-0.333-2.491-0.766v1.373h4.157  C19.477,59.971,20.18,59.841,20.698,60.089z"/>
<path d="M11.661,57.334c0-0.021,0.011-0.036,0.012-0.058c-0.351-0.1-0.716-0.171-1.116-0.171c-2.78,0-4.17,2.781-6.95,2.781  c-1.298,0-2.293-0.607-3.268-1.254v5.554c0.975,0.645,1.97,1.249,3.268,1.249c2.78,0,4.17-2.77,6.95-2.77  c0.394,0,0.759,0.058,1.104,0.154V57.334z"/>
<path d="M55.327,58.5c0-0.069,0.027-0.119,0.037-0.182c-0.974-0.646-1.968-1.252-3.268-1.252c-2.779,0-4.17,2.779-6.95,2.779  c-0.472,0-0.902-0.085-1.308-0.219v5.55c0.406,0.135,0.836,0.22,1.308,0.22c2.78,0,4.17-2.78,6.95-2.78  c1.281,0,2.268,0.59,3.23,1.226V58.5z"/>
<path d="M84.66,64.963v-5.551c-1.599-0.767-2.862-2.201-4.793-2.296v-0.05c-2.771,0-4.16,2.779-6.94,2.779  c-2.779,0-4.17-2.779-6.939-2.779c-2.677,0-4.067,2.568-6.647,2.761v5.551c2.58-0.193,3.971-2.762,6.647-2.762  c2.77,0,4.16,2.78,6.939,2.78c2.71,0,4.101-2.641,6.74-2.771v0.04C81.712,62.666,83.006,64.172,84.66,64.963z"/>
<path d="M93.557,57.105c-2.205,0-3.54,1.743-5.384,2.465v5.551c1.844-0.72,3.179-2.455,5.384-2.455c2.599,0,3.982,2.436,6.438,2.738  v-5.549C97.539,59.552,96.155,57.105,93.557,57.105z"/>
<path d="M10.465,23.799c-2.503,0.262-3.891,2.754-6.525,2.754c-1.447,0-2.517-0.752-3.601-1.475v5.555  c1.084,0.72,2.154,1.469,3.601,1.469c2.307,0,3.659-1.903,5.64-2.552C9.804,27.629,10.104,25.715,10.465,23.799z"/>
<path d="M63.939,24.434c-1.458,0.824-2.699,2.079-4.569,2.079c-2.78,0-4.16-2.78-6.94-2.78c-2.43,0-3.799,2.125-5.963,2.66  c0.308,1.235-0.971,2.789,0.045,4.516c0.211,0.358,0.208,0.706,0.082,0.996c2.09-0.584,3.454-2.621,5.836-2.621  c1.692,0,2.87,1.029,4.157,1.835c1.552-3.117,4.119-5.331,8.112-5.991C64.312,25.032,64.054,24.765,63.939,24.434z"/>
<path d="M93.89,23.773c-2.779,0-4.17,2.78-6.949,2.78c-1.992,0-3.272-1.425-4.859-2.232c-0.114,0.46-0.466,0.851-1.081,0.851h-3.792  c4.438,0.449,8.574,1.828,10.527,6.104c0.103,0.224,0.184,0.455,0.272,0.682c2.116-0.564,3.482-2.625,5.882-2.625  c2.478,0,3.854,2.209,6.104,2.678v-5.55C97.743,25.991,96.367,23.773,93.89,23.773z"/>
<path d="M93.89,34.883c-1.95,0-3.218,1.366-4.759,2.183c0.154,1.803,0.136,3.659,0.073,5.523c1.51-0.821,2.767-2.146,4.686-2.146  c2.478,0,3.854,2.218,6.104,2.688v-5.56C97.743,37.101,96.367,34.883,93.89,34.883z"/>
<path d="M52.43,34.843c-2.466,0-3.841,2.186-6.062,2.678c0.086,1.025,0.154,2.052,0.168,3.081c0.011,0.816,0.001,1.628-0.006,2.441  c2.126-0.56,3.493-2.64,5.899-2.64c0.811,0,1.501,0.239,2.145,0.574c0.004-0.103,0.009-0.206,0.011-0.303  c0.041-1.732,0.203-3.4,0.504-4.966C54.3,35.226,53.462,34.843,52.43,34.843z"/>
<path d="M18.209,43.194c0.025-1.853-0.03-3.703-0.175-5.55c-0.119,0.008-0.236,0.02-0.359,0.02c-0.842,0-1.569-0.205-2.245-0.499  c0.082,1.259,0.173,2.515,0.279,3.766c0.053,0.622,0.143,1.298,0.199,1.981c0.541,0.189,1.119,0.312,1.767,0.312  C17.858,43.223,18.035,43.212,18.209,43.194z"/>
<path d="M9.101,35.647c0.005-0.125,0.017-0.247,0.022-0.371c-1.743,0.765-3.058,2.387-5.183,2.387c-1.447,0-2.517-0.752-3.601-1.475  v5.56c1.084,0.722,2.154,1.475,3.601,1.475c2.167,0,3.491-1.684,5.284-2.429C9.119,39.088,9.034,37.375,9.101,35.647z"/>
<path d="M39.583,40.133c0.049-1.699,0.133-3.396,0.193-5.094c-0.385-0.12-0.792-0.196-1.236-0.196v0.05  c-0.242,0.006-0.471,0.04-0.694,0.085c-0.029,1.853-0.041,3.706-0.032,5.56c0.27-0.057,0.549-0.095,0.847-0.095v-0.03  c0.32,0.008,0.621,0.056,0.909,0.129C39.575,40.396,39.58,40.257,39.583,40.133z"/>
<path d="M63.167,36.021c-0.64,0.42-1.268,0.866-1.96,1.181c0.027,1.848,0.055,3.692,0.055,5.535c0.71-0.332,1.354-0.796,2.014-1.225  C63.28,39.681,63.248,37.851,63.167,36.021z"/>
<path d="M54.202,46.349c-0.538-0.237-1.115-0.396-1.772-0.396c-2.49,0-3.868,2.225-6.126,2.69c-0.139,1.877-0.338,3.753-0.634,5.628  c2.653-0.124,4.046-2.758,6.76-2.758c1.048,0,1.897,0.394,2.699,0.884C54.257,50.837,54.12,48.583,54.202,46.349z"/>
<path d="M8.87,51.938c0.469-1.905,0.608-3.8,0.605-5.695c-1.925,0.683-3.268,2.529-5.535,2.529c-1.447,0-2.517-0.752-3.601-1.474  v5.56c1.084,0.722,2.154,1.475,3.601,1.475c2.013,0,3.299-1.454,4.91-2.259C8.856,52.029,8.858,51.985,8.87,51.938z"/>
<path d="M17.016,53.75c0.232-1.664,0.419-3.328,0.569-4.991c-0.09,0.004-0.176,0.014-0.269,0.014c-0.606,0-1.156-0.095-1.672-0.248  v5.56c0.455,0.136,0.943,0.213,1.466,0.232C17.026,54.16,16.985,53.975,17.016,53.75z"/>
<path d="M39.467,46.062c-0.293-0.068-0.6-0.109-0.927-0.109v0.05c-0.237,0.006-0.462,0.039-0.681,0.083  c0.022,1.849,0.042,3.697,0.055,5.543c0.239-0.045,0.485-0.076,0.746-0.076v-0.029c0.597,0.016,1.127,0.163,1.624,0.377  C39.734,50.187,39.524,48.07,39.467,46.062z"/>
<path d="M63.195,47.111c-0.675,0.441-1.334,0.912-2.068,1.233c-0.096,1.74-0.247,3.479-0.496,5.217  c-0.041,0.283-0.224,0.491-0.455,0.636c1.106-0.222,2-0.864,2.916-1.466C63.113,50.857,63.154,48.984,63.195,47.111z"/>
<path d="M83.823,47.625c-0.708-0.458-1.399-0.949-2.176-1.27c0.016,1.851,0.022,3.702,0.024,5.553  c0.702,0.295,1.334,0.732,1.974,1.156C83.777,51.253,83.816,49.44,83.823,47.625z"/>
<path d="M93.89,45.993c-1.981,0-3.26,1.41-4.836,2.221c0.007,1.532,0.085,3.034,0.327,4.474c0.079,0.471-0.097,0.854-0.38,1.112  c1.602-0.807,2.885-2.248,4.889-2.248c2.478,0,3.854,2.218,6.104,2.688v-5.56C97.743,48.21,96.367,45.993,93.89,45.993z"/>
<circle fill="none" stroke="#000000" stroke-width="2" stroke-miterlimit="10" cx="27.781" cy="8.913" r="7.913"/>
<path fill="none" stroke="#000000" stroke-width="2" stroke-miterlimit="10" d="M17.957,94.566c0,2.447,1.987,4.434,4.433,4.434  c2.456,0,3.989-1.986,3.989-4.434l0.008-37.216l2.545,0.016l-0.012,37.321c0,2.447,1.865,4.312,4.315,4.312  c2.448,0,4.435-1.986,4.435-4.434l0.019-64.159h2.545v23.646c0,4.753,6.202,4.753,6.191,0V29.905c0-5.256-3.686-10.405-9.835-10.405  l-17.736-0.006c-5.601,0-9.936,4.565-9.936,10.264v24.295c0,4.719,6.239,4.719,6.239,0V30.407h2.813L17.957,94.566z"/>
<circle fill="none" stroke="#000000" stroke-width="2" stroke-miterlimit="10" cx="72.099" cy="15.475" r="7.33"/>
<path fill="none" stroke="#000000" stroke-width="2" stroke-miterlimit="10" d="M62.998,94.87c0,2.267,1.84,4.106,4.106,4.106  c2.274,0,3.694-1.84,3.694-4.106l0.008-34.474l2.357,0.014l-0.011,34.571c0,2.268,1.727,3.995,3.996,3.995  c2.267,0,4.108-1.84,4.108-4.106l0.017-59.432h2.357v21.903c0,4.403,5.744,4.403,5.735,0V34.973c0-4.869-3.414-9.639-9.111-9.639  l-16.429-0.006c-5.188,0-9.204,4.229-9.204,9.508v22.504c0,4.371,5.78,4.371,5.78,0V35.438h2.605L62.998,94.87z"/>
<rect x="57.614" y="34.052" width="28.327" height="8.291"/>
<rect x="57.787" y="57.023" width="28.327" height="8.291"/>
<rect x="13.57" y="53.741" width="28.327" height="9.041"/>
<rect x="5.188" y="75" width="2.292" height="2.333"/>
<rect x="11.688" y="86" width="2.292" height="2.333"/>
<rect x="3.688" y="91" width="2.292" height="2.333"/>
<rect x="41.354" y="88" width="2.292" height="2.333"/>
<rect x="47.021" y="79.999" width="2.292" height="2.333"/>
<rect x="45.833" y="69.833" width="2.292" height="2.333"/>
<rect x="56.021" y="77.666" width="2.291" height="2.333"/>
<rect x="52.354" y="91" width="2.291" height="2.333"/>
<rect x="85.688" y="85" width="2.291" height="2.333"/>
<rect x="92.688" y="91" width="2.291" height="2.333"/>
<rect x="90.354" y="78.334" width="2.291" height="2.333"/>
<rect x="89.021" y="69.667" width="2.291" height="2.333"/>
</svg>