<svg xmlns="http://www.w3.org/2000/svg" xmlns:xlink="http://www.w3.org/1999/xlink" version="1.0" x="0px" y="0px" width="100px" height="100px" viewBox="0 0 100 100" overflow="" enable-background="new 0 0 100 100" xml:space="preserve">
    <path d="M60.651,11.424c0,0.422-0.334,0.759-0.752,0.759c-0.422,0-0.758-0.337-0.758-0.759 c0-0.408,0.336-0.75,0.758-0.75C60.317,10.673,60.651,11.016,60.651,11.424z"/>
    <path d="M57.75,14.194c0,0.418-0.324,0.761-0.75,0.761c-0.414,0-0.75-0.343-0.75-0.761 c0-0.422,0.332-0.758,0.75-0.758C57.426,13.436,57.75,13.772,57.75,14.194z"/>
    <path d="M60.651,14.194c0,0.418-0.334,0.761-0.752,0.761c-0.422,0-0.758-0.343-0.758-0.761 c0-0.422,0.336-0.758,0.758-0.758C60.317,13.436,60.651,13.772,60.651,14.194z"/>
    <path d="M63.547,14.194c0,0.418-0.336,0.761-0.75,0.761c-0.418,0-0.764-0.343-0.764-0.761 c0-0.422,0.346-0.758,0.764-0.758C63.211,13.436,63.547,13.772,63.547,14.194"/>
    <path d="M60.651,16.963c0,0.422-0.334,0.755-0.752,0.755c-0.422,0-0.758-0.335-0.758-0.755 c0-0.417,0.336-0.752,0.758-0.752C60.317,16.21,60.651,16.545,60.651,16.963z"/>
    <path d="M77.879,89.084c0.041,0.406-0.219,0.682-0.219,0.682c-0.881,1.221-3.829,1.928-7.979,2.175 c-0.004,0-0.025,0.004-0.033,0.004c-0.227,0-0.414-0.187-0.414-0.413c0-0.203,0.154-0.373,0.35-0.406 c4.081-0.666,6.734-1.74,6.734-2.951c0-0.214-0.102-0.419-0.256-0.622h0.008c-0.549-0.703-1.12-1.054-3.192-1.559 c-0.229,0.855-1.713,1.396-3.919,1.703c-0.021,0.006-0.045,0.01-0.064,0.01c-0.212,0-0.383-0.172-0.383-0.383 c0-0.174,0.113-0.32,0.277-0.365c1.346-0.413,2.141-0.924,2.141-1.476c0-0.004-0.004-0.012-0.004-0.017 c-0.008-0.183-0.102-0.36-0.275-0.534h-0.004c-0.057-0.059-0.126-0.119-0.199-0.168c0,0,0-0.004-0.004-0.004 c-0.072-0.053-0.158-0.109-0.248-0.162c0,0-0.004,0-0.012-0.004c-0.084-0.049-0.182-0.102-0.287-0.151 c-0.004-0.007-0.008-0.007-0.008-0.011c-0.111-0.045-0.217-0.098-0.338-0.146c-0.008,0-0.008,0-0.012,0 c-1.116-0.449-2.831-0.819-4.909-1.043v-47.55c1.043-0.002,1.887-0.847,1.887-1.892c0-1.046-0.848-1.895-1.895-1.895h-1.595v-4.247 c6.131-1.426,10.706-6.921,10.706-13.486c0-7.649-6.203-13.849-13.854-13.849c-7.646,0-13.849,6.2-13.849,13.849 c0,6.521,4.511,11.984,10.579,13.454v4.279h-1.468c-1.047,0-1.895,0.848-1.895,1.895c0,1.045,0.848,1.892,1.895,1.892h0.017v4.899 h-8.162c-0.247-0.399-0.665-0.682-1.152-0.755c0.215-0.195,0.349-0.47,0.349-0.787c0-0.584-0.475-1.069-1.066-1.069h-0.284 c-0.073-0.521-0.507-0.934-1.051-0.934h-2.852c-0.616-1.515-2.957-5.997-8.709-4.543c-6.113,1.55-13.711,16.618-13.188,36.128 c0.531,19.516,8.441,21.624,12.133,22.944c1.529,0.547,4.365,0.729,7.281,0.908c-0.004,0.048-0.024,0.097-0.024,0.153v1.25 c0,3.37,9.578,6.109,21.387,6.109c11.812,0,21.386-2.739,21.386-6.109v-1.25C81.205,91.279,80.521,90.301,77.879,89.084z M43.146,39.972c0.422,0,0.767,0.344,0.767,0.769c0,0.426-0.345,0.771-0.767,0.771h-7.423c-0.09-0.574-0.316-1.098-0.649-1.54 H43.146z M34.474,74.313c0.049-0.049,0.113-0.137,0.183-0.26c0.231-0.419,0.572-1.257,0.9-2.632 c0.398-1.635,0.795-4.064,0.994-7.473c0.426-7.172,0.336-13.26,0.312-19.05c0-0.525,0.427-0.952,0.954-0.952 c0.523,0,0.949,0.426,0.949,0.952c0.028,5.791,0.109,11.878-0.312,19.05c-0.414,7.104-0.977,9.927-1.379,10.364H34.474z M36.234,76.821c0,0.421-0.341,0.763-0.759,0.763h-3.477c-0.421,0-0.758-0.342-0.758-0.763c0-0.418,0.337-0.759,0.758-0.759h3.477 C35.893,76.062,36.234,76.403,36.234,76.821z M55.158,83.188L55.158,83.188c-3.988,0.383-6.613,1.202-6.779,2.294 c-3.119,0.669-4.787,1.569-5.059,2.691c-0.004,0.019-0.004,0.011-0.008,0c-2.061,0.862-3.537,1.912-4.295,2.959 c-3.03-0.234-6.008-0.455-7.586-1.018c-3.692-1.323-11.383-4.228-10.86-23.748c0.531-19.904,7.132-30.874,11.922-32.253 c4.564-1.321,6.373,1.698,6.913,2.933h-3.229c-0.548,0-0.981,0.412-1.051,0.934h-1.408c-0.434,0-0.803,0.268-0.965,0.642 c-0.142-0.017-0.288-0.03-0.434-0.03c-1.903,0-3.448,1.544-3.448,3.449c0,1.907,1.545,3.45,3.448,3.45 c1.156,0,2.174-0.569,2.803-1.442c0.016,5.436-0.012,14.497-0.333,19.9c-0.418,7.104-2.735,9.927-3.144,10.364H30.98 c-0.848,0-1.537,0.695-1.537,1.543c0,0.004,0,0.004,0,0.004v2.142c0.008,0.844,0.693,1.529,1.537,1.529h0.021v0.755 c0,0.908,0.734,1.643,1.639,1.643h14.693c0.905,0,1.643-0.734,1.643-1.643v-0.755h0.012c0.844,0,1.53-0.686,1.534-1.529V75.86 c0,0,0,0,0-0.004c0-0.848-0.689-1.543-1.534-1.543h-0.669c-0.41-0.438-2.727-3.261-3.14-10.364 c-0.321-5.387-0.35-14.414-0.333-19.855h0.759c0.58,0,1.091-0.303,1.383-0.757h8.17V83.188z M33.532,43.388 c0.166-0.303,0.239-0.666,0.215-1.044c-0.004-0.16-0.13-0.288-0.292-0.288c-0.102,0-0.187,0.053-0.239,0.128v-0.002 c-0.158,0.247-0.385,0.464-0.673,0.616c-0.795,0.42-1.74,0.197-2.11-0.503c-0.369-0.698-0.024-1.6,0.775-2.022 c0.397-0.209,0.832-0.258,1.212-0.167c0.581,0.097,1.14,0.497,1.477,1.124c0.43,0.811,0.324,1.745-0.195,2.284l-0.004-0.002 c-0.02,0.028-0.049,0.044-0.081,0.044c-0.061,0-0.105-0.046-0.105-0.104C33.512,43.426,33.521,43.406,33.532,43.388L33.532,43.388z M53.134,7.426c-0.301-0.363-0.252-0.903,0.109-1.207c4.149-3.464,10.21-3.128,13.959,0.625c2.819,2.821,3.829,7.115,2.36,10.983 c-0.166,0.442-0.656,0.665-1.1,0.499c-0.441-0.169-0.664-0.661-0.498-1.102c1.225-3.231,0.381-6.815-1.972-9.171 c-3.132-3.134-8.19-3.413-11.654-0.519C53.978,7.838,53.438,7.787,53.134,7.426z M54.477,14.172c0-2.985,2.418-5.411,5.403-5.411 c2.989,0,5.412,2.426,5.412,5.411c0,2.984-2.423,5.408-5.412,5.408C56.895,19.58,54.477,17.156,54.477,14.172z M62.553,84.1 c0,0.418-0.34,0.758-0.762,0.758c-0.418,0-0.759-0.34-0.759-0.758V36.804c0-0.419,0.341-0.76,0.759-0.76 c0.422,0,0.762,0.341,0.762,0.76V84.1z"/>
</svg>