<svg xmlns="http://www.w3.org/2000/svg" xmlns:xlink="http://www.w3.org/1999/xlink" version="1.1" id="Your_Icon" x="0px" y="0px" width="100px" height="100px" viewBox="0 0 100 100" enable-background="new 0 0 100 100" xml:space="preserve">
<path d="M50.002,20.161c-15.535,0-23.413,10.478-23.413,23.409c0,16.178,13.004,16.813,13.004,26.007  c0,1.09,0.189,2.122,0.454,3.123c0.825,2.693,1.139,3.806,3.903,6.007c1.709,1.335,3.787,2.138,6.052,2.138  c5.742,0,10.399-5.042,10.399-11.268c0-10.729,13.007-8.69,13.007-26.007C73.408,30.639,65.53,20.161,50.002,20.161z M40.324,49.412  c-2.181,0-3.954-1.773-3.954-3.964c0-2.188,1.773-3.948,3.954-3.948c2.188,0,3.961,1.761,3.961,3.948  C44.285,47.639,42.512,49.412,40.324,49.412z M50.002,74.932c-2.227,0-4.025-0.045-4.025-6.928c0-6.871,1.799-10.82,4.025-10.82  c2.223,0,4.022,3.949,4.022,10.82C54.024,74.887,52.225,74.932,50.002,74.932z M60.044,49.412c-2.184,0-3.958-1.773-3.958-3.964  c0-2.188,1.774-3.948,3.958-3.948c2.19,0,3.958,1.761,3.958,3.948C64.002,47.639,62.234,49.412,60.044,49.412z"/>
<path d="M84.363,83.784c0.354-0.759,0.025-1.658-0.729-2.014c-0.748-0.352-1.664-0.006-2.013,0.723c0,0-2.567,5.258-7.074,7.168  l-2.587,1.097l3.468-5.109c1.096-1.445,6.555-8.665,8.709-12.613c1.627-2.987,2.975-6.781,3.229-7.506  c0.28-0.83-0.139-1.678-0.942-1.959c-0.678-0.238-1.657,0.182-1.913,0.949c-0.012,0.032-1.39,4.058-3.028,7.064  c-0.629,1.157-1.648,2.752-3.106,4.864l-0.59,0.852l-1.868-2.045l0.364-0.542c1.1-1.632,1.945-2.941,2.568-3.997  c3.274-5.538,4.854-12.09,4.867-12.158c0.2-0.806-0.297-1.622-1.109-1.826c-0.787-0.187-1.632,0.32-1.826,1.116  c-0.013,0.046-1.542,6.248-4.542,11.326c-0.516,0.881-1.155,1.871-1.819,2.875l-0.587,0.896l-2.161-2.38l0.574-0.903  c0.357-0.577,0.716-1.148,1.064-1.742c3.258-5.519,4.161-9.478,4.193-9.645c0.181-0.807-0.329-1.619-1.139-1.801  c-0.706-0.129-1.629,0.349-1.816,1.143c0,0.007-0.867,3.716-3.846,8.761l-1.128,1.853l-0.091-0.097l-7.028,9.842l-0.294,0.603  l-1.154,1.633c-0.078,0.097-1.807,2.045-1.64,4.799c0.136,2.162,1.381,4.272,3.701,6.278c0.896,0.78,1.809,1.245,2.87,1.478  c1.042,0.396,2.319,0.81,4.139,0.81c1.181,0,2.451-0.161,3.793-0.481C80.659,91.503,84.215,84.094,84.363,83.784z"/>
<path d="M41.331,85.483l0.077-0.064l-5.606-10.645l-0.058,0.045l-0.927-1.968c-2.223-5.284-2.615-9.039-2.632-9.194  c-0.067-0.786-0.687-1.412-1.371-1.412l-0.271,0.032c-0.828,0.064-1.444,0.793-1.374,1.625c0.007,0.053,0.34,4.136,2.858,10.124  c0.326,0.767,0.664,1.531,1,2.276l0.259,0.574l-2.445,2.056l-0.461-0.958c-0.526-1.091-1.026-2.155-1.424-3.098  c-2.289-5.433-2.967-11.78-2.974-11.839c-0.077-0.767-0.713-1.351-1.478-1.351c-0.587,0.051-0.945,0.248-1.199,0.558  c-0.252,0.31-0.374,0.703-0.33,1.106c0.026,0.281,0.717,6.825,3.19,12.7c0.475,1.132,1.113,2.496,2.004,4.303l0.29,0.587  l-2.129,1.787l-0.469-0.936c-1.157-2.283-1.951-3.999-2.422-5.232c-1.226-3.226-2.052-7.387-2.058-7.426  c-0.155-0.793-0.981-1.315-1.756-1.174c-0.409,0.084-0.754,0.303-0.979,0.643c-0.224,0.338-0.304,0.738-0.229,1.132  c0.01,0.045,0.849,4.361,2.19,7.909c1.723,4.504,6.748,13.353,6.964,13.729l2.711,5.452l-2.41-1.426  c-4.136-2.442-5.968-7.816-6.046-8.046c-0.203-0.646-0.78-1.064-1.438-1.064c-0.154,0-0.31,0.026-0.458,0.071  c-0.797,0.251-1.239,1.1-0.99,1.89c0.104,0.33,2.633,8.146,9.145,10.651c2.878,1.11,5.439,1.426,8.078,0.727  c1.116-0.158,1.965-0.481,2.858-1.062c2.574-1.677,4.09-3.606,4.516-5.738c0.539-2.7-0.906-4.855-0.923-4.875L41.331,85.483z"/>
<path d="M49.998,10.735c-0.913,0-1.651-0.738-1.651-1.651V1.651C48.347,0.738,49.085,0,49.998,0s1.651,0.738,1.651,1.651v7.433  C51.649,9.997,50.911,10.735,49.998,10.735z"/>
<path d="M33.389,14.713c-0.606,0-1.187-0.335-1.478-0.912l-3.325-6.646c-0.41-0.816-0.078-1.807,0.738-2.217  c0.813-0.409,1.807-0.077,2.217,0.738l3.325,6.646c0.406,0.816,0.078,1.807-0.738,2.217C33.893,14.658,33.641,14.713,33.389,14.713z  "/>
<path d="M20.312,25.703c-0.345,0-0.693-0.106-0.99-0.329l-5.944-4.455c-0.729-0.549-0.879-1.583-0.33-2.313  c0.545-0.729,1.577-0.881,2.31-0.332l5.945,4.455c0.732,0.548,0.881,1.583,0.332,2.313C21.309,25.474,20.815,25.703,20.312,25.703z"/>
<path d="M13.531,41.38c-0.098,0-0.194-0.01-0.297-0.025l-7.31-1.326c-0.897-0.164-1.49-1.021-1.329-1.919  c0.164-0.899,1.025-1.477,1.922-1.332l7.311,1.326c0.896,0.164,1.49,1.021,1.329,1.919C15.012,40.822,14.318,41.38,13.531,41.38z"/>
<path d="M7.351,60.52c-0.716,0-1.374-0.469-1.587-1.188c-0.256-0.877,0.248-1.794,1.122-2.049l7.129-2.084  c0.877-0.251,1.794,0.245,2.052,1.12c0.255,0.877-0.248,1.794-1.122,2.048l-7.129,2.084C7.66,60.497,7.505,60.52,7.351,60.52z"/>
<path d="M67.408,14.713c-0.245,0-0.496-0.055-0.735-0.174c-0.816-0.41-1.148-1.4-0.738-2.217l3.325-6.646  c0.406-0.815,1.4-1.147,2.217-0.738c0.815,0.41,1.145,1.4,0.738,2.217l-3.325,6.646C68.599,14.378,68.015,14.713,67.408,14.713z"/>
<path d="M80.492,25.703c-0.503,0-1-0.229-1.322-0.661c-0.549-0.729-0.4-1.765,0.328-2.313l5.946-4.455  c0.731-0.549,1.764-0.396,2.313,0.332c0.548,0.729,0.399,1.764-0.333,2.313l-5.944,4.455C81.183,25.597,80.834,25.703,80.492,25.703  z"/>
<path d="M87.267,41.38c-0.781,0-1.479-0.558-1.623-1.357c-0.161-0.897,0.436-1.755,1.332-1.919l7.31-1.326  c0.904-0.145,1.755,0.436,1.92,1.332c0.161,0.897-0.436,1.755-1.333,1.919l-7.31,1.326C87.466,41.37,87.363,41.38,87.267,41.38z"/>
<path d="M93.45,60.52c-0.151,0-0.307-0.022-0.461-0.068l-3.568-1.042c-0.874-0.254-1.378-1.171-1.122-2.048  c0.258-0.875,1.168-1.368,2.052-1.12l3.561,1.042c0.878,0.255,1.381,1.172,1.123,2.049C94.824,60.051,94.166,60.52,93.45,60.52z"/>
</svg>