<svg xmlns="http://www.w3.org/2000/svg" xmlns:xlink="http://www.w3.org/1999/xlink" version="1.1" x="0px" y="0px" width="100px" height="100px" viewBox="0 0 100 100" enable-background="new 0 0 100 100" xml:space="preserve">
<g id="Captions">
</g>
<g id="Your_Icon">
	<path d="M65.482,46.468l-2.38-7.798c-1.32,2.878-6.967,12.091-24.743,10.905l-4.362,9.724   C55.25,63.274,63.722,49.833,65.482,46.468z"/>
	<path d="M56.769,17.919l-1.705-5.589l-4.313,9.616C52.915,21.783,55.734,19.013,56.769,17.919z"/>
	<path d="M70.823,63.966l-2.434-7.973c-2.256,3.3-14.164,18.503-38.523,12.519l-4.377,9.76   C53.568,87.431,68.969,66.66,70.823,63.966z"/>
	<path d="M60.546,30.296l-1.952-6.398c-4.874,6.344-10.122,7.293-12.045,7.417l-3.809,8.491   C54.418,39.949,59.354,32.481,60.546,30.296z"/>
	<path d="M77.848,86.981l-3.761-12.323c-1.982,2.741-18.981,24.459-51.571,12.271C26.709,89.771,49.595,103.543,77.848,86.981z"/>
	<path d="M55.198,11.348c-0.218,0.287,3.064-6.572,8.875-4.805l-0.775,2.479C63.298,9.021,58.691,6.734,55.198,11.348z"/>
	<path d="M55.318,12.253c-0.777,0.408,4.441-5.486,8.987,0.353l-2.871,1.708C61.435,14.314,60.019,9.786,55.318,12.253z"/>
	<path d="M54.528,11.622c0.565,0.813-3.005-7.578-10.384-2.013l1.985,3.251C46.129,12.86,51.117,6.712,54.528,11.622z"/>
	<path d="M54.196,12.448c0.851-0.125-2.832-1.512-6.337,3.193l3.001,2.072C50.86,17.713,52.3,12.729,54.196,12.448z"/>
	<path d="M54.627,9.904c-0.133,0.633,1.807-1.602-0.598-5.303l-2.245,1.576C51.784,6.177,54.924,8.494,54.627,9.904z"/>
</g>
</svg>