<svg xmlns="http://www.w3.org/2000/svg" xmlns:xlink="http://www.w3.org/1999/xlink" version="1.1" id="Layer_1" x="0px" y="0px" width="100px" height="100px" viewBox="0 0 100 100" enable-background="new 0 0 100 100" xml:space="preserve">
<path d="M75.076,26.666l-4.372-3.942v-0.06l1.399-1.668l-1.397-1.664v-0.047l1.397-1.663l-1.391-1.661v-0.056l1.391-1.661  l-1.389-1.655l-1.877-2.235H67.15c0.851-7.679-2.475-8.993-2.475-8.993c-0.154,1.855-2.062,2.938-2.99,3.504  c-0.929,0.569-3.195,0.98-4.74,0.98s-4.535,0-8.195,0.67c-3.662,0.668-4.279,3.838-4.279,3.838H31.176l-1.892,2.235l-1.389,1.655  l1.391,1.661v0.056l-1.39,1.661l1.398,1.663v0.047l-1.398,1.664l1.4,1.668v0.06l-4.372,3.942c0,0-1.982,1.855-1.982,3.788v1.648  c0,5.555,0,22.162,0,22.162V69.03c0,0,0,7.114,0,13.374c0,7.5,9.75,16.235,9.75,16.235h34.617c0,0,9.75-8.735,9.75-16.235  c0-6.26,0-13.374,0-13.374V54.265c0,0,0-16.608,0-22.163v-1.648C77.057,28.521,75.076,26.666,75.076,26.666z M32.315,12.827h35.369  l1.137,1.35l0.058,0.066l-0.062,0.068L68.24,15l-0.396,0.47l-0.386,0.46l0.782,0.932l0.576,0.689l0.059,0.069l-0.061,0.071  l-0.582,0.689l-0.365,0.437l-0.023,0.026H40.305v0.928h27.54l0.388,0.46l0.58,0.69l0.062,0.072l-0.065,0.079l-0.578,0.69  l-0.406,0.482l-0.057,0.072H32.234l-0.059-0.072l-0.404-0.48l-0.579-0.69l-0.065-0.079l0.059-0.072l0.582-0.69l0.776-0.924  l-0.411-0.49l-0.365-0.437l-0.582-0.689l-0.059-0.073l0.056-0.069l0.578-0.689l0.474-0.562h27.458v-0.929H32.073L31.761,15  l-0.578-0.689l-0.059-0.068L32.315,12.827z M66.334,96.167H33.666c-2.812-2.705-8.25-8.943-8.25-13.763h49.168  C74.584,87.222,69.145,93.462,66.334,96.167z M62.378,71.845c0.065,0.646-0.374,2.029-0.88,2.455  c-0.508,0.427-0.926,0.836-2.037,1.34c-1.114,0.5-1.881,0.596-2.598,0.6c-0.721,0-2.385-0.343-3.275-0.827  c-0.891-0.479-1.885-0.899-2.719-1.754c-0.832-0.856-1.752-2.106-2.29-3.168c-0.539-1.058-0.96-2.149-1.312-3.422  c-0.349-1.267-0.51-2.442-0.566-3.192c-0.055-0.755-0.125-1.947-0.371-2.557c-0.248-0.609-0.384-1.027-0.879-1.354  c-0.491-0.324-0.577-0.414-1.487-0.744c-0.91-0.334-1.691-0.642-2.669-1.413c-0.977-0.773-1.729-2.083-1.874-2.343  c-0.148-0.26-1.001-1.445-1.255-2.188s-0.458-1.754-0.615-3.1c-0.154-1.348-0.278-4.662,0.111-6.01  c0.39-1.352,0.795-3.09,1.098-3.573c0.307-0.482,0.559-0.816,0.706-0.914c0,0,1.403-1.011,2.956-1.286  c1.552-0.273,2.923-0.035,3.717,0.401c0.796,0.434,2.341,1.459,2.962,2.062c0.62,0.603,2.408,2.654,2.831,3.984  c0.42,1.332,0.77,2.773,0.881,3.803c0.111,1.03,0.248,1.806,0.455,2.168c0.205,0.356,0.401,0.519,0.608,0.642  c0.204,0.121,1.983,1.082,2.885,1.935c0.9,0.853,2.028,1.811,2.79,3.019c0.758,1.206,2.248,3.565,2.663,5.003  c0.412,1.438,0.491,2.83,0.39,4.495c-0.105,1.667-0.244,2.738-0.275,3.577C62.292,70.323,62.316,71.198,62.378,71.845z   M74.584,32.102H25.415v-1.648c0-0.473,0.63-1.435,1.188-1.973l4.352-3.92l0.816-0.737l0.296-0.269h35.867l0.297,0.269l0.814,0.737  l4.354,3.92c0.557,0.538,1.188,1.5,1.188,1.973v1.648H74.584z"/>
</svg>