<svg xmlns:dc="http://purl.org/dc/elements/1.1/" xmlns:cc="http://creativecommons.org/ns#" xmlns:rdf="http://www.w3.org/1999/02/22-rdf-syntax-ns#" xmlns:svg="http://www.w3.org/2000/svg" xmlns="http://www.w3.org/2000/svg" xmlns:sodipodi="http://sodipodi.sourceforge.net/DTD/sodipodi-0.dtd" xmlns:inkscape="http://www.inkscape.org/namespaces/inkscape" width="100" height="100" viewBox="0 0 80 80" version="1.1" id="svg2" inkscape:version="0.48.2 r9819" sodipodi:docname="PEANUT.svg">
  <metadata id="metadata10">
    <rdf:RDF>
      <cc:Work rdf:about="">
        <dc:format>image/svg+xml</dc:format>
        <dc:type rdf:resource="http://purl.org/dc/dcmitype/StillImage"/>
      </cc:Work>
    </rdf:RDF>
  </metadata>
  <defs id="defs8"/>
  <sodipodi:namedview pagecolor="#ffffff" bordercolor="#666666" borderopacity="1" objecttolerance="10" gridtolerance="10" guidetolerance="10" inkscape:pageopacity="0" inkscape:pageshadow="2" inkscape:window-width="1107" inkscape:window-height="696" id="namedview6" showgrid="false" inkscape:zoom="2.53" inkscape:cx="3.9125014" inkscape:cy="48.020136" inkscape:window-x="209" inkscape:window-y="62" inkscape:window-maximized="0" inkscape:current-layer="svg2"/>
  <path style="opacity:0.95999995;fill:#000000;stroke:#000000;stroke-width:0.020992" d="m 59.335809,49.271875 c -0.254405,-1.445287 -0.586218,-2.874708 -0.999794,-4.278619 -0.966708,-2.668447 -2.02152,-5.320761 -3.444546,-7.746296 -1.485074,-2.391409 -4.521511,-4.180025 -4.127012,-7.370915 0.598623,-3.319325 1.723989,-6.621292 1.279039,-10.045439 -0.6221,-4.142912 -2.063162,-8.158612 -4.120618,-11.8110315 -1.564791,-2.08088 -3.523852,-3.952976 -5.912544,-5.06348 -2.16409,-0.878468 -4.561754,-1.16783 -6.858592,-0.90656 -2.755323,0.367994 -4.667118,2.607496 -6.324852,4.618361 -4.50075,5.8777845 -7.26735,13.1452855 -7.528335,20.5457955 0.319593,2.491023 0.801429,4.997862 1.835754,7.289705 1.824467,3.125991 4.127277,6.005037 6.940074,8.312648 1.072748,1.010033 0.87457,2.662557 0.663951,3.998666 -0.789364,4.515209 -1.416496,9.046237 -1.789237,13.598971 -0.205934,1.85882 0.393146,3.638508 0.852007,5.398348 1.713214,6.993453 8.267295,12.57684 15.489746,12.984254 4.136122,0.335222 8.119503,-2.898268 8.835359,-6.944748 0.962493,-3.818468 3.512065,-6.925971 4.674957,-10.644564 1.211925,-2.953594 0.957453,-6.207748 0.911458,-9.31797 -0.100979,-0.877834 -0.224191,-1.74995 -0.376834,-2.617122 z m -1.521781,-0.540816 c -0.344334,0.108581 -0.710689,0.221206 -1.055032,0.329789 -2.246031,-2.320348 -4.426301,-4.90314 -4.983225,-8.192962 0.827027,-0.08317 1.650033,-0.188349 2.481094,-0.249484 1.681441,2.469268 2.826526,5.241632 3.557163,8.112657 z m 0.481264,4.026429 c 0.51288,2.917794 -0.429936,6.042857 -2.372288,8.270881 -0.261223,-0.680605 -0.478397,-1.369277 -0.361143,-2.096428 0.08121,-2.291255 0.250521,-4.598643 0.261625,-6.899824 0.718757,-0.17715 1.441556,-0.332277 2.160322,-0.509435 0.133969,0.405134 0.238241,0.817973 0.311523,1.234799 z m -4.81742,-13.65819 C 52.792599,38.837806 51.624036,39.666426 51.056318,38.928129 50.16566,37.793696 50.027573,36.293808 49.243,35.117183 c 0.40606,-0.393055 0.834154,-0.790144 1.240214,-1.1832 1.079599,1.668929 2.225268,3.325758 2.994658,5.165315 z m -3.163861,-15.00814 c 0,0 -1.257432,0.356164 -2.731429,0.653857 -0.681868,0.13771 -1.489491,-5.088113 -1.50599,-7.042781 0.919167,-0.07727 1.7561,-1.038652 2.6793,-1.093897 l 1.558119,7.482821 z m -2.4384,-9.11996 c -0.824853,0.219341 -1.667704,0.464751 -2.514588,0.688131 -1.640786,-1.998672 -2.611207,-4.438801 -3.697657,-6.7666265 0.862699,-0.385622 1.759531,-0.709204 2.63433,-1.028752 1.120563,2.3898685 2.453317,4.6953535 3.577915,7.1072475 z m 6.638021,44.141321 c 0.169186,0.835041 0.212786,1.597184 0.30689,2.732372 -1.455524,0.380359 -2.728795,0.761502 -4.218442,1.079823 -0.350308,-1.415495 -0.511135,-1.920993 -0.817356,-3.344565 1.467302,-0.564634 3.042877,-1.035277 4.251134,-2.144333 0.22989,0.649353 0.376243,1.175682 0.477774,1.676703 z m -1.760949,-8.71476 c 0.300167,1.594696 0.490198,3.205295 0.717588,4.819722 -1.293279,0.396183 -2.592449,0.884499 -3.911786,1.262691 -0.322374,-1.511669 -0.644748,-3.023337 -0.923055,-4.543075 1.294505,-1.011031 2.502762,-2.120086 3.775234,-3.127082 0.130861,0.528059 0.241813,1.056206 0.342,1.587748 z m 1.944119,13.381947 c -0.30645,1.558536 -0.656948,3.125128 -1.033512,4.673741 -0.150141,0.05027 -0.498506,0.136835 -0.670671,0.191136 -0.622648,-1.411143 -1.223265,-2.826332 -1.721819,-4.305736 1.145304,-0.209737 2.274478,-0.507611 3.426013,-0.559082 z M 51.458253,46.343824 c -1.123875,1.321242 -2.119311,2.8466 -3.549993,3.859804 -0.398039,-1.179118 -1.192535,-2.285634 -1.260197,-3.525253 0.937431,-1.469209 2.197172,-3.04297 4.041395,-3.289644 0.163504,1.017194 0.455177,1.988153 0.768795,2.955093 z M 43.919174,6.2942735 c -1.118937,0.478074 -2.321614,1.244651 -3.583577,1.066003 -1.235001,-1.025847 -2.268055,-2.316315 -3.110952,-3.687133 2.503119,-0.253517 4.947968,0.914993 6.694529,2.62113 z m 5.958062,34.6481215 c -1.112405,0.886628 -2.19472,1.813273 -3.37134,2.597842 -0.803514,-1.901599 -1.607028,-3.803197 -2.2604,-5.755055 1.109013,-0.407966 2.195993,-0.811897 3.309039,-1.197839 0.766892,1.453029 1.599866,2.893956 2.322701,4.355052 z M 45.597412,26.770316 c -1.338552,1.019097 -2.75931,1.962193 -4.037682,3.061325 -0.694931,-1.557262 -1.261734,-3.160752 -1.788532,-4.794331 1.548876,-0.989322 3.268383,-1.668434 5.062349,-2.065251 0.233939,1.277462 0.423811,2.562993 0.763885,3.798253 z m -1.200702,-5.56213 c -1.705541,0.631026 -3.05184,1.856416 -4.61686,2.75764 -0.259706,-1.045104 -0.497329,-2.094253 -0.734991,-3.143394 0.732722,-0.225242 1.6581,-0.144299 2.208102,-0.745824 0.732082,-0.725924 1.325812,-1.58586 2.260481,-2.075717 0.329781,1.055035 0.593501,2.122168 0.883268,3.207295 z m -1.617628,-5.850001 c -0.915408,1.465176 -2.08922,2.886617 -3.907386,3.151284 -0.656454,-1.222852 -1.326864,-2.397618 -1.837199,-3.692756 1.738128,-0.20448 3.359607,-0.797349 4.742207,-1.824513 0.369494,0.774597 0.783026,1.541129 1.002378,2.365985 z M 40.39682,11.42379 c -1.397188,0.574558 -2.768328,1.16711 -4.15746,1.78572 -0.457589,-0.758464 -1.139459,-1.498619 -1.198745,-2.443843 0.937752,-1.2188645 1.937542,-2.4718545 3.260272,-3.3287075 0.720668,1.324911 1.543398,2.5856025 2.095933,3.9868305 z m 7.796552,50.40547 c -0.890302,0.732136 -1.927023,1.286212 -3.022069,1.646092 -0.396503,-1.543622 -1.193496,-3.036666 -1.237589,-4.644823 0.571065,-1.356589 1.717284,-2.431519 2.649136,-3.558249 0.429411,2.220509 0.92085,4.406896 1.610522,6.55698 z m -2.02721,-9.018839 c 0.09114,0.367782 -0.274035,0.663384 -0.536648,0.860863 -0.916359,0.714143 -1.914923,1.352285 -2.943578,1.95041 -0.31804,-1.239296 -0.595997,-2.508697 -0.891984,-3.752031 0.867958,-0.978445 1.605619,-2.046849 2.44752,-3.043287 0.974729,1.096275 1.483207,2.50557 1.899557,3.908974 0.01069,0.02507 0.01941,0.05049 0.02513,0.07507 z M 36.920097,6.7337415 c -0.962263,0.836368 -1.861687,2.26447 -3.177311,2.414344 -1.002597,0.616115 -1.853401,-0.673581 -2.485013,-1.263593 1.592211,-1.692049 1.041658,-1.515496 2.165535,-2.718483 0.674709,-0.169083 1.349427,-0.338177 2.002113,-0.503225 0.551584,0.650195 1.063144,1.330484 1.494676,2.070957 z M 43.65762,47.999979 c -1.108692,0.65831 -2.149127,1.440703 -3.253786,2.121038 -0.350909,-1.916193 -0.99218,-3.801975 -1.188913,-5.746401 0.4594,-0.971918 1.427874,-1.650077 2.013536,-2.554062 1.017872,1.953399 1.831629,4.035231 2.429163,6.179425 z m 4.121851,24.62115 c 0.0119,0.04276 0.01712,0.08796 0.02319,0.126644 -1.324596,0.971017 -1.368803,0.853915 -2.633218,1.90496 -0.702037,-0.850279 -1.288066,-1.812861 -1.874085,-2.775446 l 3.377739,-1.506352 c 0.102096,0.557509 0.929024,1.609022 1.106372,2.250194 z M 39.939778,30.060008 c -1.77624,1.736638 -3.803148,3.22325 -5.87628,4.581744 -1.180115,-1.969215 -1.863897,-4.211434 -2.535578,-6.387577 1.297633,-0.123814 2.595897,0.253061 3.877387,0.04115 0.98243,-0.726243 1.796417,-1.626513 2.722699,-2.410765 0.636597,1.36307 1.259237,2.774223 1.811772,4.175451 z m 6.359357,37.989212 c -1.624251,1.572219 -1.292711,1.238336 -3.516936,1.896061 -0.485835,-0.912644 -0.883552,-1.841414 -1.087081,-2.828519 L 45.19313,65.30384 c 0.233338,0.776764 0.872695,1.968601 1.106005,2.74538 z m -2.005516,-4.145664 c 0.09006,0.656679 -0.711791,1.131953 -1.182727,1.497057 -0.952661,0.515914 -2.025053,1.372448 -3.143074,0.985328 -1.349792,-1.528389 -1.64084,-3.614889 -2.256044,-5.482682 1.533744,-1.233392 2.193635,-3.42518 3.496021,-3.781629 1.094186,2.121534 1.976192,4.327453 2.986318,6.487149 0.05271,0.101322 0.08662,0.200964 0.09953,0.294773 z M 36.200016,23.249874 c 0.03813,0.191578 0.07059,0.385441 0.09486,0.580179 -0.351128,1.06591 -1.060876,2.038147 -1.812815,2.904291 -1.002277,0.86646 -2.282871,0.213184 -3.172898,-0.420562 -0.547861,-0.878515 -0.78149,-1.905632 -1.157185,-2.838439 1.014698,-0.550042 2.127744,-0.935982 2.987945,-1.708133 0.690212,-0.581674 0.937432,-1.469209 1.222809,-2.272676 0.238238,-0.06639 0.498509,-0.136816 0.736757,-0.203208 0.285607,1.341982 0.836782,2.616924 1.100527,3.958552 z M 33.549221,15.23871 c 0.02139,0.10568 0.03882,0.211991 0.04747,0.321383 -0.425276,1.033961 -0.950757,2.01798 -1.528353,2.966017 -0.661978,0.73585 -1.819702,0.629169 -2.648277,1.076834 l -0.856268,-2.43827 c 1.546709,-1.125508 2.64823,-2.693058 4.03052,-3.970566 0.377587,0.647914 0.806624,1.304589 0.9549,2.044603 z m 7.16654,40.81207 c -0.99454,0.660169 -1.967047,1.316304 -2.913486,1.990428 -1.075886,-1.897248 -0.58596,-4.069857 -1.105312,-6.160077 1.225342,-0.26992 1.641485,-0.607915 2.848837,-0.851778 0.376675,1.683835 0.709283,3.37574 1.169971,5.021425 z M 31.65766,11.715257 c 0.02555,0.106195 0.02406,0.224655 -0.02011,0.356522 -0.825126,1.585225 -2.123345,2.824575 -3.104824,4.301849 -0.118195,-0.02388 -0.384667,-0.111667 -0.52892,-0.153542 -0.225271,-0.732717 -0.432483,-1.491504 -0.639734,-2.250284 1.162353,-0.98683 2.290572,-2.035701 3.176209,-3.29055 0.337247,0.326649 1.004607,0.576204 1.117347,1.036011 z m 10.029528,60.206126 c -1.29264,0.896867 -2.141965,2.349948 -3.563043,3.042702 -0.653326,-0.335634 -4.385981,-5.086951 -4.457037,-5.847909 l 4.715315,-1.318786 c 0.62758,0.567994 2.717201,3.525919 3.304765,4.123993 z M 29.971645,9.1899185 c -0.0983,1.4521225 -1.11236,2.5028515 -2.236876,3.3234045 0.04836,-1.351921 0.605464,-2.6604255 1.256887,-3.8268555 l 0.979989,0.503451 z m 5.293778,38.6965325 c 0.02983,0.157351 0.05798,0.316613 0.08082,0.474623 -0.268606,1.392254 -1.092196,2.612976 -2.070272,3.611588 -0.310575,-1.69594 -1.875046,-3.526477 -0.749635,-5.212221 0.331282,-0.925692 1.153646,-1.531567 1.861848,-2.1393 0.297565,1.080855 0.664971,2.164479 0.876845,3.265382 z m 0.500733,4.381393 c 0.381611,2.456902 0.675176,4.929927 1.012759,7.394891 -1.439708,0.218126 -2.861418,0.410188 -4.301117,0.62831 -0.32731,-2.284735 0.280612,-4.558627 0.694373,-6.774198 0.182685,-1.239938 1.598504,-1.339867 2.593985,-1.249003 z m 1.621268,13.452452 c -1.415188,0.600616 -2.822309,1.24529 -4.275655,1.761835 -0.580449,-1.30506 -1.271026,-2.589949 -1.489152,-4.029654 1.328629,-0.948988 3.117025,-1.003327 4.471702,-1.934322 0.544468,1.357177 1.004875,2.752513 1.293105,4.202141 z M 30.699802,33.800855 c -1.874634,-0.04369 -3.725067,0.04478 -5.589778,-0.06902 1.209803,-1.473561 2.537792,-2.923236 4.148717,-3.946684 0.536401,1.313126 1.09886,2.644246 1.441061,4.0157 z M 27.542673,20.538606 c -0.03657,1.167654 -0.632162,2.141747 -1.1536,3.147791 -0.893108,0.09527 -1.812276,0.172532 -2.709419,0.245769 -0.05057,-0.400489 -0.129671,-1.2055 -0.154221,-1.587989 0.702943,-0.01491 1.413962,0.01423 2.124972,0.04337 0.585983,-0.653643 1.171956,-1.307283 1.892268,-1.848941 z m 1.118213,6.85201 c -1.691904,0.332598 -2.75342,1.870059 -4.403133,2.308752 -0.27584,-1.133205 -0.53364,-2.292478 -0.655283,-3.45392 0.827027,-0.08317 1.668333,0.03594 2.471171,-0.179376 0.694565,-0.309305 1.114262,-1.000787 1.628274,-1.550194 0.313657,0.966933 0.623281,1.91184 0.958961,2.87474 z m -1.857805,-9.647413 c 0.10879,0.5008 0.125413,0.995715 -0.191439,1.440725 -0.790097,0.782076 -1.993735,0.797622 -3.024877,1.009217 0.142981,-0.959501 0.1597,-1.986935 0.565129,-2.880679 0.710379,-0.471548 1.50514,-0.73091 2.28781,-1.05635 0.05367,0.479595 0.254627,0.986281 0.363417,1.48708 z" id="path4" inkscape:connector-curvature="0"/>
</svg>