<svg xmlns="http://www.w3.org/2000/svg" xmlns:xlink="http://www.w3.org/1999/xlink" version="1.1" x="0px" y="0px" width="100px" height="100px" viewBox="0 0 100 100" enable-background="new 0 0 100 100" xml:space="preserve">
<g id="Captions">
	<rect x="-192" width="185" height="99"/>
	<rect y="-36" width="100" height="30"/>
	<text transform="matrix(1 0 0 1 66 -19.5)" fill="#000000" font-family="'Helvetica'" font-size="2.4">http://thenounproject.com</text>
	<text transform="matrix(1 0 0 1 7.166 -24.5)"><tspan x="0" y="0" fill="#000000" font-family="'Helvetica-Bold'" font-size="6.1578">The Noun Project</tspan><tspan x="1.12" y="4.8" fill="#000000" font-family="'Helvetica-Bold'" font-size="4">Icon Template</tspan></text>
	<text transform="matrix(1 0 0 1 -178.5 10.5)" fill="#000000" font-family="'Helvetica-Bold'" font-size="6.1578">Reminders</text>
	<line fill="#000000" stroke="#FFFFFF" stroke-miterlimit="10" x1="8" y1="-14.5" x2="18" y2="-14.5"/>
	<line fill="#000000" stroke="#FFFFFF" stroke-miterlimit="10" x1="-179" y1="16.5" x2="-162" y2="16.5"/>
	<g>
		<g>
			<g>
				<rect x="-170.802" y="31.318" fill="#000000" width="8.721" height="8.642"/>
				<path fill="#000000" d="M-164.455,42.312h4.747v-4.703h-4.747V42.312z M-159.266,42.749h-5.63V37.17h5.63V42.749      L-159.266,42.749z M-166.221,44.062h8.279v-8.203h-8.279V44.062L-166.221,44.062z M-157.5,44.5h-9.163v-9.079h9.163V44.5      L-157.5,44.5z"/>
				<polygon fill="#000000" points="-166.149,44.133 -166.292,43.991 -158.013,35.787 -157.871,35.929     "/>
			</g>
		</g>
	</g>
	<rect x="-179" y="58" fill="none" width="35" height="32.5"/>
	<text transform="matrix(1 0 0 1 -179 60.1572)"><tspan x="0" y="0" fill="#000000" font-family="'Helvetica-Bold'" font-size="3">Strokes</tspan><tspan x="0" y="5" fill="#000000" font-family="'Helvetica'" font-size="2.4">Try to keep strokes at 4px</tspan><tspan x="0" y="10" fill="#000000" font-family="'Helvetica'" font-size="2.4">Minimum stroke weight is 2px</tspan><tspan x="0" y="14.5" fill="#000000" font-family="'Helvetica'" font-size="2.4">For thicker strokes use even </tspan><tspan x="0" y="17.5" fill="#000000" font-family="'Helvetica'" font-size="2.4">numbers: 6px, 8px etc.</tspan><tspan x="0" y="22" fill="#000000" font-family="'Helvetica-Bold'" font-size="2.4">Remember to expand strokes </tspan><tspan x="0" y="25" fill="#000000" font-family="'Helvetica-Bold'" font-size="2.4">before saving as an SVG </tspan></text>
	<rect x="-136.5" y="58" fill="none" width="35" height="32.5"/>
	<text transform="matrix(1 0 0 1 -136.5 60.1572)"><tspan x="0" y="0" fill="#000000" font-family="'Helvetica-Bold'" font-size="3">Size</tspan><tspan x="0" y="5" fill="#000000" font-family="'Helvetica'" font-size="2.4">Cannot be wider or taller than </tspan><tspan x="0" y="8.5" fill="#000000" font-family="'Helvetica'" font-size="2.4">100px (artboard size)</tspan><tspan x="0" y="13.5" fill="#000000" font-family="'Helvetica'" font-size="2.4">Scale your icon to fill as much of </tspan><tspan x="0" y="16.5" fill="#000000" font-family="'Helvetica'" font-size="2.4">the artboard as possible</tspan></text>
	<rect x="-94" y="58" fill="none" width="35" height="32.5"/>
	<text transform="matrix(1 0 0 1 -94 60.1572)"><tspan x="0" y="0" fill="#000000" font-family="'Helvetica-Bold'" font-size="3">Ungroup</tspan><tspan x="0" y="5" fill="#000000" font-family="'Helvetica'" font-size="2.4">If your design has more than one </tspan><tspan x="0" y="8" fill="#000000" font-family="'Helvetica'" font-size="2.4">shape, make sure to ungroup</tspan></text>
	<rect x="-50" y="58" fill="none" width="35" height="32.5"/>
	<text transform="matrix(1 0 0 1 -50 60.1572)"><tspan x="0" y="0" fill="#000000" font-family="'Helvetica-Bold'" font-size="3">Save as</tspan><tspan x="0" y="5" fill="#000000" font-family="'Helvetica'" font-size="2.4">Save as .SVG and make sure </tspan><tspan x="0" y="8" fill="#000000" font-family="'Helvetica'" font-size="2.4">&#8220;Use Artboards&#8221; is checked</tspan></text>
	<text transform="matrix(1.0074 0 0 1 -125.542 30.5933)" fill="#000000" font-family="'Helvetica'" font-size="2.5731">100px</text>
	<text transform="matrix(1.0074 0 0 1 -41 39)" fill="#000000" font-family="'Helvetica-Bold'" font-size="5.1462">.SVG</text>
	<rect x="-126.514" y="34.815" fill="#000000" width="10.261" height="10.185"/>
	<rect x="-126.477" y="31.766" fill="#000000" width="0.522" height="2.337"/>
	<rect x="-116.812" y="31.766" fill="#000000" width="0.523" height="2.337"/>
	<rect x="-127" y="32.337" fill="#000000" width="11.233" height="0.572"/>
	<g>
		<rect x="-83.805" y="33.844" fill="#000000" width="10.305" height="10.156"/>
		<rect x="-76.809" y="28.707" fill="#000000" width="3.308" height="3.261"/>
	</g>
	<rect x="-178.5" y="22.5" fill="#000000" stroke="#FFFFFF" stroke-miterlimit="10" width="30" height="30"/>
	<rect x="-136.5" y="22.5" fill="#000000" stroke="#FFFFFF" stroke-miterlimit="10" width="30" height="30"/>
	<rect x="-93.5" y="22.5" fill="#000000" stroke="#FFFFFF" stroke-miterlimit="10" width="30" height="30"/>
	<rect x="-49.5" y="22.5" fill="#000000" stroke="#FFFFFF" stroke-miterlimit="10" width="30" height="30"/>
</g>
<g id="castle" display="none">
	<path display="inline" d="M69.8,53.376h3.125c-3.729-2.419-4.938-11.79-4.938-11.79c0,5.34-5.34,11.79-5.34,11.79h2.216v7.055   h-3.627V40.778h3.323c-4.03-3.324-5.339-16.725-5.339-16.725c0,8.665-5.24,16.725-5.24,16.725h3.427v7.658h-4.333V26.169h3.524   c-5.642-3.527-6.045-16.425-6.045-16.425c0,8.766-5.944,16.827-5.944,16.827h3.929V48.84h-4.633v-7.759h3.122   c-3.729-3.528-5.039-17.432-5.039-17.432c0,10.176-6.046,17.632-6.046,17.632h2.217v20.254h-3.224V57.91h2.418   c-3.123-3.225-4.534-15.72-4.534-15.72c0,7.154-5.744,15.922-5.744,15.922h2.419v31.136h0.001v1.008H69.8V88.24l0,0V53.376z"/>
</g>
<g id="crown" display="none">
	<path display="inline" d="M72.51,55.514c-0.137,0.606-0.365,1.24-0.696,1.866c-1.206,2.28-3.26,3.561-4.585,2.86   c-1.326-0.701-1.422-3.119-0.217-5.401c0.587-1.105,1.371-1.974,2.176-2.499L48.19,27.264L29.063,52.339   c0.829,0.518,1.641,1.407,2.243,2.544c1.206,2.281,1.11,4.699-0.215,5.401s-3.379-0.579-4.585-2.861   c-0.315-0.596-0.54-1.202-0.679-1.783l-14.688,5.054l3.957,12.043h69.051l4.715-11.959L72.51,55.514z"/>
</g>
<g id="shoe" display="none">
	<path display="inline" d="M8.383,39.851c3.085,8,7.597,7.139,7.597,18.834c0,11.696-0.307,27.036-0.307,27.036h6.836V54.735   c0,0,8.05,6.683,9.72,12.759C33.9,73.569,36.33,90.431,49.24,90.431c12.912,0,28.898,0.074,38.053,0   c2.923-0.026,9.036-4.102,1.442-10.633C81.14,73.265,61.47,67.42,51.976,55.801C44.479,46.624,25.09,2.942,16.584,10.385   C8.078,17.827,6.334,34.533,8.383,39.851z"/>
</g>
<g id="Layer_5">
	<path d="M68.602,77.817c0-10.862,10.499-12.911,10.499-26.912c0-14-12.249-10.317-12.249-14.181c0-3.861,4.104-4.345,4.104-6.698   c0-2.353-1.026-3.198-1.026-3.198h-2.234c5.976-9.775-3.981-16.654-3.981-16.654c-4.453,2.793-5.882,6.213-6.04,9.255   c-10.697,0.681-36.773,4.976-36.773,30.662c0,5.9,2.647,10.808,6.048,14.687c-2.343,3.322-1.781,8.926,1.656,13.59   c4.02,5.452,10.436,7.548,14.327,4.677c3.895-2.868,3.792-9.617-0.229-15.068c-3.736-5.068-9.542-7.229-13.469-5.202   c-0.822-1.277-6.523-3.995-6.523-15.579c0-19.506,24.588-25.588,34.946-27.286c-0.03,3.58,1.627,6.539,1.999,7.161h-2.941   c0,0-1.027,0.604-1.027,2.957c0,2.354,4.104,2.837,4.104,6.698c0,3.863-12.247,0.181-12.247,14.181   c0,14.001,10.496,16.05,10.496,26.912c0,10.861-3.982,7.001-3.982,12.009h9.174h0.18h9.174   C72.584,84.818,68.602,88.679,68.602,77.817z"/>
</g>
</svg>