<svg xmlns="http://www.w3.org/2000/svg" xmlns:xlink="http://www.w3.org/1999/xlink" version="1.1" id="Layer_1" x="0px" y="0px" width="100px" height="100px" viewBox="0 0 100 100" enable-background="new 0 0 100 100" xml:space="preserve">
<path fill="#000000" d="M58.018,29.115c1.226-0.536,1.769,0.638,2.687,0.188c0.791-0.391,1.442-1.611,0.735-2.139  c-0.188-0.138-0.407-0.164-0.549-0.41L60.865,26.7c-0.107-0.264,0.008-0.452,0.014-0.683c0.02-0.883-1.342-1.121-2.139-0.736  c-0.92,0.445-0.328,1.597-1.508,2.232l-1.533,0.747c0.078,0.289,0.146,0.604,0.209,0.944c0.066,0.359,0.094,0.648,0.098,0.891  L58.018,29.115L58.018,29.115z M45.811,35.067c-0.633-0.219-0.922-0.681-0.939-1.527l-2.473,1.208  c-1.225,0.536-1.771-0.638-2.686-0.188c-0.793,0.39-1.443,1.611-0.734,2.139c0.186,0.138,0.402,0.164,0.543,0.41l0.025,0.054  c0.109,0.263-0.004,0.451-0.012,0.683c-0.02,0.883,1.344,1.121,2.139,0.737c0.918-0.445,0.328-1.598,1.508-2.233L45.811,35.067  L45.811,35.067z M50.25,35.86c0.168-0.358,0.422-0.633,0.807-0.633c0.229,0,0.408,0.098,0.543,0.232  c0.219-0.41,0.611-0.522,0.92-0.289c0.021-0.159-0.014-0.336-0.035-0.527c2.017,0.083,2.974,0.369,2.447-2.488  c0.014-0.625,0.734-1.162,0.432-2.853c-0.577-3.184-1.717-3.778-5.112-3.778c-3.395,0-4.533,0.594-5.107,3.778  c-0.305,1.69,0.418,2.229,0.432,2.853c-0.525,2.855,0.43,2.57,2.443,2.488c-0.02,0.191-0.053,0.369-0.031,0.527  c0.309-0.233,0.701-0.121,0.916,0.289c0.137-0.134,0.314-0.232,0.543-0.232C49.834,35.227,50.088,35.501,50.25,35.86L50.25,35.86z   M52.512,36.57c0-0.604-0.193-0.997-0.369-0.936c-0.174,0.061-0.256,0.551-0.256,1.156c0,0.057-0.014,0.199,0.199,0.116  C52.504,36.74,52.512,36.604,52.512,36.57L52.512,36.57z M48.869,37.256c0,0.044,0.008,0.247,0.812,0.247  c0.326,0,0.379-0.096,0.379-0.172c0-0.807-0.268-1.535-0.596-1.535C49.135,35.797,48.869,36.45,48.869,37.256L48.869,37.256z   M48.023,36.57c0,0.034,0.008,0.17,0.428,0.336c0.211,0.083,0.199-0.059,0.199-0.116c0-0.605-0.084-1.095-0.258-1.156  C48.221,35.573,48.023,35.966,48.023,36.57L48.023,36.57z M51.664,37.256c0-0.806-0.264-1.459-0.594-1.459s-0.596,0.728-0.596,1.535  c0,0.076,0.053,0.172,0.377,0.172C51.656,37.503,51.664,37.3,51.664,37.256L51.664,37.256z M55.631,33.585  c-0.027,0.798-0.314,1.28-0.986,1.502l2.584,1.262c1.183,0.635,0.59,1.789,1.51,2.233c0.798,0.384,2.158,0.146,2.138-0.737  c-0.002-0.23-0.119-0.419-0.015-0.683l0.027-0.054c0.144-0.246,0.361-0.271,0.547-0.41c0.709-0.528,0.058-1.749-0.735-2.139  c-0.916-0.451-1.459,0.723-2.685,0.188L55.631,33.585L55.631,33.585z M42.396,29.115l2.1,1.025c0.004-0.25,0.033-0.554,0.102-0.936  c0.059-0.325,0.123-0.625,0.197-0.903l-1.615-0.788c-1.18-0.635-0.59-1.788-1.508-2.232c-0.795-0.385-2.158-0.146-2.139,0.736  c0.006,0.231,0.121,0.419,0.014,0.683l-0.025,0.054c-0.141,0.246-0.359,0.271-0.547,0.41c-0.707,0.528-0.057,1.748,0.736,2.139  C40.627,29.752,41.172,28.579,42.396,29.115L42.396,29.115z M64.227,45.52c-3.381-1.354-8.383-2.213-13.962-2.213  c-5.578,0-10.58,0.857-13.961,2.212c0.244,1.876-0.051,4.069-1.84,7.961c-3.014,6.541,3.877,9.346,3.307,9.205  c-1.188-0.295-2.293-0.742-3.234-1.281c0,0,0.242,3.291,1.264,7.084c-0.615,1.472-0.768,3.121-0.768,4.873  c0,0.586,0.014,1.178,0.027,1.768l-2.154-2.338l-0.023-3.729c-0.801,1.472-2.068,2.319-3.451,2.106  c-2.236-0.349-3.926-3.349-3.775-6.705c0.152-3.354,2.086-5.791,4.322-5.442c0.078,0.012,0.154,0.024,0.23,0.045  c-0.182-0.959-0.586-2.086-1.768-3.303c-0.609-0.628-1.076-1.193-1.422-1.703c-12.51,0.766-23.709,1.98-23.709,1.98l-2.561-8.915  c8.164-1.846,12.738-7.478,16.965-13.792l6.51,5.527l-5.881-6.475c5.64-8.566,10.935-18.086,23.742-21.028  c0.637,6.494,4.049,9.271,8.166,9.293c4.115-0.022,7.529-2.799,8.166-9.293c22.811,5.241,21.789,31.35,41.336,35.769l-2.564,8.915  c0,0-11.176-1.214-23.676-1.979c-0.342,0.51-0.811,1.074-1.42,1.701c-1.184,1.219-1.588,2.344-1.77,3.303  c0.076-0.02,0.154-0.032,0.232-0.045c2.233-0.348,4.17,2.09,4.319,5.443c0.151,3.355-1.537,6.355-3.772,6.705  c-1.381,0.213-2.648-0.636-3.453-2.107l-0.023,3.729L65.5,75.098c0.014-0.58,0.027-1.162,0.027-1.736  c0-1.768-0.152-3.432-0.785-4.911c1.016-3.777,1.252-7.045,1.252-7.045c-0.939,0.54-2.047,0.987-3.23,1.282  c-0.574,0.14,6.316-2.666,3.305-9.207C64.279,49.59,63.986,47.396,64.227,45.52L64.227,45.52z M70.066,60.857  c-0.142,0.645-0.438,1.094-1.361,1.283c-0.553,0.897-0.871,2.118-0.814,3.409c0.111,2.435,1.514,4.2,3.135,3.949  c1.621-0.252,2.849-2.429,2.738-4.86c-0.111-2.434-1.514-4.199-3.135-3.949C70.436,60.723,70.25,60.777,70.066,60.857L70.066,60.857  z M26.768,64.641c-0.109,2.432,1.115,4.607,2.738,4.859c1.619,0.251,3.023-1.516,3.133-3.949c0.059-1.291-0.26-2.512-0.814-3.41  c-0.922-0.188-1.221-0.639-1.361-1.281c-0.18-0.08-0.369-0.137-0.562-0.168C28.279,60.439,26.879,62.206,26.768,64.641  L26.768,64.641z M54.154,31.616c0.021,1.029-0.414,1.723-1.443,1.723s-2.014-1.208-1.943-2.234c0.062-0.892,0.904-1.117,1.924-0.971  C53.533,30.253,54.135,30.694,54.154,31.616L54.154,31.616z M46.305,31.616c0.02-0.922,0.621-1.363,1.463-1.482  c1.02-0.146,1.863,0.08,1.926,0.971c0.068,1.027-0.916,2.234-1.945,2.234C46.717,33.339,46.283,32.646,46.305,31.616L46.305,31.616z   M54.158,64.178c1.861-0.293,4.324-0.184,7.184,1.48c4.062,2.588,3.381,6.719,3.381,10.678c0,3.98,0.412,7.559,3.742,10.002  c-2.994-0.72-5.988-1.691-7.658-4.545c-1.545-2.638-2.234-6.447-2.234-9.43c0-2.627-0.635-3.434-3.155-3.434H45.141  c-2.52,0-3.154,0.807-3.154,3.434c0,2.982-0.689,6.792-2.234,9.43c-1.672,2.854-4.664,3.825-7.658,4.545  c3.33-2.443,3.742-6.021,3.742-10.002c0-3.959-0.682-8.09,3.381-10.678c2.859-1.664,5.322-1.773,7.184-1.48  c0.953,0.15,3.264,1.053,3.881,1.066C50.895,65.229,53.205,64.328,54.158,64.178L54.158,64.178z M59.721,81.373l-3.92,4.254h-5.535  h-5.537l-3.898-4.234c0.414-0.848,0.76-1.773,1.033-2.731c0.633,0.396,1.316,0.694,2.059,0.883c5.26,1.331,5.697-2.278,4.52-4.769  c-0.941-1.981-3.131-2.852-3.131-2.852s1.316,0.385,2.547,0.385h2.408h2.408c1.229,0,2.546-0.385,2.546-0.385  s-2.188,0.869-3.128,2.852c-1.182,2.488-0.743,6.1,4.517,4.769c0.752-0.188,1.443-0.496,2.082-0.896  C58.963,79.602,59.305,80.525,59.721,81.373L59.721,81.373z M48.531,50.338c0,0-0.949,1.936-3.434,1.76  c0.49,0.303,0.713,0.643,0.818,0.76l-7.066-0.139c0,0,0.398-0.691,2.748-1.082c0.426-0.06,0.809-0.088,1.156-0.09  c-2.17-0.678-2.82-1.182-4.736-0.562c-1.229,0.396-1.957,1.383-1.957,1.383s2.096-4.4,5.162-3.344  c2.742,0.946,1.676,0.637,4.148,1.455C47.258,51.1,48.531,50.338,48.531,50.338L48.531,50.338z M58.932,51.637  c2.353,0.391,2.75,1.082,2.75,1.082l-7.065,0.139c0.104-0.117,0.327-0.457,0.815-0.76c-2.479,0.176-3.43-1.76-3.43-1.76  s1.271,0.762,3.156,0.139c2.475-0.818,1.406-0.509,4.15-1.455c3.065-1.056,5.162,3.344,5.162,3.344s-0.73-0.985-1.959-1.384  c-1.912-0.618-2.564-0.113-4.734,0.563C58.123,51.549,58.508,51.577,58.932,51.637L58.932,51.637z"/>
</svg>