<svg xmlns="http://www.w3.org/2000/svg" xmlns:xlink="http://www.w3.org/1999/xlink" version="1.1" id="Layer_1" x="0px" y="0px" width="100px" height="100px" viewBox="0 0 100 100" enable-background="new 0 0 100 100" xml:space="preserve">
<path d="M94.259,37.979v-3.183c0-1.686-1.057-3.191-2.643-3.763l-33.44-12.061c-0.438-0.158-0.898-0.237-1.357-0.237  s-0.918,0.079-1.356,0.237l-32.07,11.564c-0.87-0.061-1.755-0.091-2.643-0.091c-3.795,0-7.395,0.555-10.134,1.563  c-5.739,2.112-6.596,5.736-6.596,7.708v4.805c-3.128,2.116-3.689,4.757-3.689,6.35c0,1.437,0.5,4.199,3.791,6.396  c0.126,0.771,0.387,1.49,0.759,2.164v3.552c0,5.721,6.411,9.275,16.729,9.275c0.656,0,1.312-0.018,1.96-0.051  c1.308,6.666,10.904,9.056,19.579,9.056c8.509,0,17.904-2.299,19.493-8.678l29.836-10.762c1.586-0.572,2.643-2.077,2.643-3.763  v-5.831c2.926-1.648,4.55-4.005,4.55-6.908C99.67,42.151,97.721,39.634,94.259,37.979z M8.112,39.022  c0.019-0.073,0.051-0.141,0.076-0.212c0,0,0,0,0,0c0.051-0.148,0.107-0.294,0.182-0.434v0c0.042-0.079,0.093-0.154,0.143-0.23  c0,0,0,0,0,0c0.041-0.063,0.09-0.123,0.135-0.185c0.045-0.062,0.086-0.125,0.136-0.185c0.062-0.075,0.128-0.147,0.198-0.22  c0.056-0.058,0.122-0.113,0.183-0.169c0.062-0.056,0.118-0.114,0.183-0.169c0,0,0,0,0,0c0.078-0.065,0.152-0.131,0.236-0.193  c0.153-0.116,0.32-0.225,0.493-0.333c0.078-0.049,0.15-0.1,0.232-0.147c0.131-0.076,0.279-0.144,0.417-0.215  c0.139-0.072,0.27-0.147,0.417-0.215c0,0,0,0,0,0c0.01-0.004,0.021-0.008,0.031-0.013c0.003-0.001,0.006-0.002,0.01-0.004  c0.286-0.128,0.588-0.249,0.902-0.362c0,0,0,0,0,0c0.107-0.038,0.22-0.073,0.33-0.109c0.001,0,0.003,0,0.004-0.001  c0.228-0.077,0.458-0.151,0.698-0.22c0,0,0.001,0,0.001,0c0.135-0.039,0.273-0.074,0.411-0.11c0.001,0,0.001,0,0.002,0  c0.229-0.06,0.462-0.118,0.701-0.171c0,0,0,0,0.001,0c0.147-0.033,0.295-0.065,0.445-0.096c0,0,0.001,0,0.001,0  c0.082-0.017,0.167-0.031,0.25-0.047c0.166-0.032,0.332-0.064,0.501-0.093c0.148-0.025,0.294-0.052,0.445-0.075c0,0,0.001,0,0.001,0  c0.081-0.012,0.164-0.022,0.245-0.033c0.203-0.029,0.406-0.058,0.613-0.083c0.126-0.016,0.25-0.034,0.377-0.048  c0.419-0.046,0.843-0.086,1.271-0.116c0.03-0.002,0.06-0.002,0.089-0.005c0,0,0.001,0,0.002,0c0.398-0.026,0.799-0.046,1.201-0.058  c0.143-0.004,0.285-0.005,0.428-0.007c0.277-0.005,0.555-0.008,0.832-0.007c0.34,0.002,0.678,0.012,1.017,0.024  c0.163,0.005,0.327,0.008,0.489,0.016c0.499,0.025,0.995,0.058,1.484,0.105l32.888-11.859l33.44,12.061l-3.425,1.235l-9.217,3.324  l-3.745,1.351l-0.431,0.155l-1.719,0.62l-3.746,1.351l-0.43,0.155l-4.614,1.664l-0.009,0.003l-5.073,1.83  c0.096,0.32,0.162,0.651,0.162,0.999c0,0.258-0.032,0.507-0.086,0.75c-0.018,0.08-0.05,0.155-0.073,0.233  c-0.048,0.16-0.099,0.319-0.169,0.472c-0.04,0.088-0.093,0.172-0.141,0.258c-0.075,0.136-0.154,0.272-0.248,0.402  c-0.062,0.086-0.132,0.17-0.201,0.253c-0.102,0.124-0.209,0.245-0.326,0.362c-0.081,0.081-0.165,0.16-0.253,0.238  c-0.128,0.114-0.264,0.226-0.406,0.334c-0.097,0.073-0.192,0.146-0.295,0.217c-0.155,0.107-0.321,0.211-0.49,0.312  c-0.106,0.064-0.21,0.13-0.322,0.191c-0.189,0.104-0.392,0.203-0.595,0.302c-0.107,0.051-0.209,0.105-0.32,0.155  c-0.256,0.114-0.526,0.223-0.801,0.327c-0.071,0.027-0.136,0.058-0.208,0.084c-0.348,0.127-0.709,0.246-1.082,0.358  c-0.133,0.04-0.273,0.075-0.409,0.113c-0.247,0.069-0.493,0.139-0.749,0.201c-0.18,0.044-0.366,0.084-0.549,0.125  c-0.22,0.049-0.44,0.099-0.665,0.144c-0.207,0.041-0.418,0.078-0.629,0.115c-0.209,0.037-0.419,0.073-0.632,0.106  c-0.23,0.036-0.463,0.069-0.697,0.102c-0.196,0.026-0.393,0.051-0.591,0.075c-0.254,0.029-0.51,0.059-0.767,0.083  c-0.177,0.018-0.354,0.032-0.533,0.048c-0.282,0.023-0.564,0.046-0.85,0.064c-0.14,0.009-0.281,0.015-0.421,0.021  c-0.325,0.018-0.649,0.033-0.976,0.043c-0.045,0.001-0.089,0.001-0.134,0.002c-3.898,0.1-7.887-0.336-11-1.31  c-0.004-0.001-0.007-0.002-0.011-0.003c-0.323-0.102-0.636-0.21-0.939-0.323c-0.064-0.023-0.126-0.049-0.189-0.073  c-0.24-0.093-0.474-0.189-0.699-0.289c-0.083-0.037-0.165-0.075-0.246-0.113c-0.198-0.093-0.389-0.188-0.574-0.288  c-0.086-0.046-0.172-0.092-0.255-0.139c-0.172-0.098-0.335-0.2-0.494-0.303c-0.079-0.052-0.16-0.102-0.235-0.154  c-0.159-0.111-0.306-0.227-0.449-0.344c-0.06-0.048-0.125-0.095-0.182-0.145c-0.193-0.168-0.372-0.342-0.532-0.523  c-0.069-0.079-0.149-0.153-0.211-0.234c-0.367-0.473-0.612-0.987-0.726-1.54c-0.038-0.185-0.062-0.373-0.07-0.566  c-0.002-0.05-0.017-0.096-0.017-0.147c0-0.296,0.045-0.579,0.116-0.854c0-0.001,0-0.002,0-0.002  c0.059-0.229,0.134-0.453,0.238-0.667c0.064-0.133,0.14-0.263,0.222-0.39c0.394-0.62,0.975-1.178,1.711-1.672  c-0.552,0.175-1.143,0.327-1.756,0.46c-0.051,0.011-0.102,0.022-0.153,0.033c-0.616,0.129-1.253,0.24-1.912,0.327  c-0.004,0.001-0.008,0.001-0.012,0.002c-0.657,0.087-1.332,0.15-2.015,0.196c-0.058,0.004-0.116,0.007-0.173,0.011  c-0.686,0.042-1.379,0.065-2.073,0.065c-0.016,0-0.032-0.001-0.048-0.001c-0.339,0-0.678-0.007-1.016-0.018  c-0.105-0.003-0.21-0.007-0.315-0.012c-0.271-0.011-0.54-0.025-0.809-0.042c-0.092-0.006-0.184-0.011-0.275-0.018  c-0.346-0.025-0.69-0.055-1.031-0.091c-0.069-0.007-0.138-0.017-0.207-0.024c-0.276-0.031-0.549-0.065-0.819-0.104  c-0.103-0.014-0.205-0.029-0.307-0.045c-0.089-0.014-0.176-0.03-0.265-0.044c-0.181-0.03-0.362-0.059-0.54-0.091  c-0.062-0.011-0.125-0.021-0.187-0.033c-0.316-0.061-0.626-0.128-0.93-0.2c-0.082-0.02-0.162-0.041-0.243-0.061  c-0.231-0.058-0.458-0.119-0.679-0.183C13,44,12.915,43.976,12.832,43.951c-0.285-0.087-0.564-0.178-0.831-0.276  c-0.008-0.003-0.015-0.006-0.022-0.009c-0.259-0.096-0.504-0.198-0.743-0.304c-0.071-0.032-0.141-0.065-0.21-0.098  c-0.185-0.086-0.362-0.176-0.533-0.27c-0.057-0.031-0.116-0.061-0.171-0.093c-0.213-0.123-0.416-0.251-0.604-0.385  c-0.036-0.025-0.067-0.053-0.102-0.079c-0.074-0.055-0.139-0.114-0.208-0.171c-0.072-0.059-0.148-0.116-0.215-0.176  c-0.047-0.043-0.094-0.087-0.139-0.131c-0.125-0.124-0.24-0.25-0.344-0.381c-0.023-0.029-0.051-0.058-0.073-0.087  c-0.119-0.159-0.219-0.324-0.305-0.494c-0.022-0.044-0.039-0.089-0.058-0.134c-0.06-0.135-0.109-0.272-0.147-0.414  c-0.014-0.052-0.029-0.104-0.041-0.158c-0.039-0.186-0.065-0.376-0.065-0.573C8.019,39.477,8.055,39.247,8.112,39.022z   M95.586,46.016c-0.019,0.076-0.054,0.146-0.078,0.219c-0.047,0.144-0.093,0.289-0.162,0.427c-0.042,0.083-0.101,0.162-0.15,0.243  c-0.073,0.121-0.145,0.242-0.235,0.356c-0.007,0.009-0.016,0.017-0.023,0.026c-0.059,0.074-0.128,0.144-0.193,0.215  c-0.097,0.106-0.192,0.212-0.303,0.313c-0.087,0.079-0.185,0.153-0.279,0.229c-0.099,0.079-0.197,0.157-0.304,0.232  c-0.021,0.015-0.039,0.031-0.061,0.046c-0.106,0.074-0.222,0.144-0.336,0.214c-0.047,0.029-0.095,0.056-0.143,0.084  c-0.093,0.055-0.181,0.111-0.278,0.164c-0.124,0.067-0.255,0.132-0.387,0.196c-0.153,0.075-0.31,0.149-0.473,0.22  c-0.14,0.061-0.284,0.119-0.431,0.176c-0.17,0.066-0.342,0.131-0.52,0.193c-0.154,0.054-0.311,0.106-0.471,0.156  c-0.184,0.058-0.37,0.113-0.561,0.167c-0.167,0.047-0.334,0.092-0.506,0.136c-0.195,0.05-0.396,0.096-0.598,0.142  c-0.161,0.036-0.322,0.072-0.487,0.105c-0.015,0.003-0.028,0.006-0.043,0.009c-0.173,0.035-0.349,0.065-0.524,0.097  c-0.036,0.007-0.072,0.014-0.109,0.021c-0.183,0.032-0.364,0.064-0.55,0.093c-0.22,0.034-0.444,0.063-0.668,0.092  c-0.186,0.024-0.369,0.05-0.558,0.071c-0.232,0.026-0.468,0.047-0.703,0.068c-0.186,0.017-0.369,0.036-0.557,0.049  c-0.057,0.004-0.114,0.006-0.171,0.01l-0.011,0.004c-0.186,0.013-0.374,0.02-0.562,0.029c-0.179,0.009-0.357,0.021-0.537,0.028  c-0.268,0.01-0.536,0.013-0.805,0.017c-0.163,0.002-0.326,0.008-0.49,0.008c-0.015,0-0.03,0.001-0.045,0.001  c-0.412,0-0.825-0.007-1.236-0.021c-0.234,0.654-0.704,1.237-1.353,1.75c-1.118,0.887-2.774,1.564-4.72,2.03  c-0.186,0.891-0.444,1.69-0.772,2.342c-0.518,1.03-1.212,1.683-2.089,1.683c-0.453,0-0.856-0.18-1.214-0.491  c-0.489-0.427-0.888-1.113-1.198-1.959c-0.039-0.106-0.081-0.21-0.117-0.321c-0.104,0.172-0.232,0.336-0.369,0.496  c-1.113,1.305-3.271,2.243-5.895,2.814c-0.697,1.335-2.405,2.346-4.631,3.039c-0.259,0.081-0.52,0.159-0.791,0.231  c-0.045,0.738-0.367,1.397-0.898,1.983c-0.001,0.001-0.002,0.002-0.003,0.003c-1.701,1.875-5.6,2.971-9.876,3.284  c-0.458,1.053-1.01,1.92-1.655,2.523h0c-0.645,0.604-1.383,0.943-2.215,0.943c-0.778,0-1.469-0.31-2.083-0.84  c-0.75-0.648-1.382-1.635-1.889-2.868c-0.009-0.022-0.02-0.043-0.029-0.065c-2.631-0.42-4.939-1.171-6.416-2.255  c-1.192-0.141-2.335-0.348-3.39-0.615c0,0,0,0,0,0c-1.055-0.27-2.018-0.603-2.849-0.999c-1.3-0.619-2.274-1.394-2.757-2.325  c-0.002-0.005-0.004-0.01-0.007-0.015c-0.057-0.11-0.112-0.222-0.154-0.336c-4.518-0.27-8.697-1.401-10.417-3.394  c-0.001-0.002-0.003-0.004-0.004-0.006c-0.383-0.444-0.646-0.932-0.76-1.462c-0.981-0.156-1.913-0.361-2.778-0.608  C9.704,55.412,9.7,55.411,9.695,55.41c-0.223-0.064-0.44-0.131-0.653-0.201c0,0,0,0-0.001,0c-0.257-0.084-0.506-0.174-0.748-0.268  c-0.005-0.002-0.009-0.004-0.014-0.005c-1.151-0.448-2.11-0.996-2.796-1.646c-0.206-0.195-0.392-0.398-0.545-0.612  c-0.002-0.003-0.004-0.007-0.006-0.01c-0.386-0.541-0.602-1.139-0.602-1.796c0-0.228,0.026-0.449,0.076-0.663  c0.017-0.071,0.05-0.137,0.072-0.207c0.043-0.14,0.083-0.28,0.147-0.413c0.01-0.02,0.025-0.039,0.035-0.058  c0.201,0.429,0.459,0.834,0.75,1.225c0.154,0.207,0.311,0.412,0.49,0.607c0.146,0.16,0.307,0.312,0.468,0.464  c0.698,0.655,1.543,1.238,2.527,1.744c0.002,0.001,0.004,0.002,0.006,0.003c0.098,0.051,0.198,0.1,0.299,0.148  c0.003,0.002,0.007,0.004,0.011,0.006c0.188,0.091,0.372,0.185,0.569,0.27C9.781,53.999,9.784,54,9.786,54.001  c2.796,1.211,6.514,1.875,10.964,1.875c0.656,0,1.311-0.018,1.959-0.051c0.201,1.026,0.619,1.939,1.179,2.77c0,0,0,0.001,0,0.001  c0.588,0.87,1.337,1.646,2.245,2.317c0.006,0.005,0.014,0.009,0.02,0.014c0.369,0.271,0.761,0.525,1.173,0.766  c0.055,0.031,0.115,0.06,0.17,0.091c3.886,2.201,9.505,3.096,14.792,3.096c6.143,0,12.731-1.207,16.528-4.272  c0.312-0.252,0.604-0.517,0.876-0.794c1.004-1.024,1.743-2.214,2.091-3.61l21.2-7.646l0.431-0.155l3.746-1.351l1.719-0.62  l0.431-0.155l2.308-0.833c0.408-0.147,0.779-0.357,1.107-0.615c0.714-0.559,1.211-1.35,1.419-2.239  c0.059,0.047,0.117,0.094,0.173,0.142c0.083,0.071,0.17,0.141,0.246,0.215c0.103,0.1,0.188,0.204,0.278,0.308  c0.063,0.075,0.135,0.148,0.191,0.226c0.083,0.112,0.147,0.229,0.215,0.346c0.043,0.076,0.096,0.149,0.133,0.228  c0.062,0.132,0.104,0.271,0.146,0.41c0.021,0.069,0.054,0.135,0.069,0.205c0.049,0.212,0.075,0.431,0.075,0.657  C95.67,45.562,95.64,45.792,95.586,46.016z"/>
</svg>