<svg xmlns="http://www.w3.org/2000/svg" xmlns:xlink="http://www.w3.org/1999/xlink" version="1.1" id="Layer_1" x="0px" y="0px" width="100px" height="100px" viewBox="0 0 100 100" enable-background="new 0 0 100 100" xml:space="preserve">
<g>
	<path d="M62.863,50.685c0,0-2.341,2.032-5.389,1.545c-3.048-0.485-3.052-1.939-3.024-2.193c0.027-0.253,0.772-1.781,0.551-2.886   c-0.221-1.104-0.784-2.485-1.923-3.686c-1.025-1.079-0.802-1.824-0.505-2.188c0.052-0.062,0.64-0.232,0.971-0.066   c1.523-0.398,4.979-1.312,5.842-0.975c1.016,0.397,1.28,0.909,1.611,2.366c0.332,1.458,0.332,2.684,0.563,3.147   c0.232,0.464,1.59,1.226,1.624,3.048C63.217,50.619,62.863,50.685,62.863,50.685z"/>
	<path d="M63.301,50.675c0,0,0.347-0.653,0.319-1.888c-0.039-1.821-1.391-2.583-1.623-3.048c-0.232-0.463-0.337-1.381-0.668-2.839   c-0.332-1.458-0.435-2.086-1.123-2.498c0.361-0.749,6.282-1.237,6.87-1.064c0.729,0.216,0.878,0.315,0.977,1.309   c0.101,0.994,0.133,3.015,0,3.479c-0.132,0.464-0.682,0.742,0.045,1.701c0.81,1.068,0.982,2.76,0.982,3.798   c0,1.038-0.519,1.612-1.534,2.143c-1.016,0.529-2.011,1.016-3.269,1.016C63.019,52.783,62.671,51.629,63.301,50.675z"/>
	<path d="M69.494,48.896c-0.082-0.891-0.082-1.954-0.825-2.971c-0.637-0.872-0.537-1.126-0.251-1.7   c0.264-0.528,0.131-1.032,0.115-2.087c-0.016-0.952-0.174-2.309-0.436-2.683c0.452-0.214,1.922-0.298,3.158-0.276   c1.237,0.022,2.65,0.221,3.004,0.53s0.707,1.325,0.596,2.496c-0.11,1.17-0.993,2.716-1.28,3.4   c-0.288,0.685,0.529,5.035-0.311,5.941c-0.838,0.905-1.788,1.214-2.672,1.236c-0.883,0.022-1.894-0.744-2.142-1.082   C68.76,51.392,69.627,50.337,69.494,48.896z"/>
	<path d="M73.642,51.768c0.684-1.325,0.037-5.522,0.324-6.206c0.287-0.685,1.171-2.23,1.281-3.401   c0.11-1.171-0.243-2.187-0.597-2.496c0.757-0.132,4.71,0.928,5.506,2.098c0,0.464,0.021,1.568-0.111,2.452   c-0.132,0.883-0.662,3.092-2.075,3.247c-0.177,0.618,1.453,2.013,1.347,3.555c-0.11,1.612-1.281,2.475-2.65,2.475   C75.298,53.49,73.906,52.65,73.642,51.768z"/>
	<path d="M79.632,51.248c0.065-1.854-1.448-2.986-1.271-3.605c1.413-0.155,1.943-2.363,2.076-3.247   c0.132-0.883,0.109-1.988,0.109-2.452c0.327-0.072,1.752,0.641,2.646,1.667s4.273,4.224,4.075,4.854   c-0.166,0.182-0.796,0.404-1.243,0.823c-0.447,0.418-0.843,0.876-1.257,0.992c-0.414,0.116-0.962,0.006-1.128,0.14   c-0.165,0.132,0.06,1.733-0.47,2.561c-0.53,0.828-0.905,2.375-1.319,2.375s-0.695-0.514-2.037-0.746s-1.728-0.933-1.756-1.192   C78.224,53.368,79.585,52.559,79.632,51.248z"/>
	<path d="M82.094,55.549c0.325-0.192,0.744-1.527,1.273-2.355c0.531-0.827,0.328-2.458,0.493-2.591c0.166-0.132,0.712,0,1.127-0.116   c0.413-0.116,0.812-0.596,1.258-1.015c0.447-0.419,1.077-0.641,1.243-0.823c0.375,0.215,5.973,7.437,6.404,8.927   c-0.347-0.051-0.703-0.06-0.928,0.166c-0.183,0.183-0.508,0.861-0.74,0.927c-0.231,0.066-0.486,0.034-0.486,0.034   c0.034,0.596-0.188,1.522-0.541,1.567c-0.353,0.044-0.838-0.11-0.971,0s-0.707,0.155-0.905,0.354   c-0.199,0.199-0.42,0.553-0.53,0.486s-0.712-0.618-1.516-1.061c-0.804-0.441-2.459-1.479-3.497-2.54   C82.739,56.449,82.094,55.549,82.094,55.549z"/>
	<path d="M91.425,60.325c0.198-0.116,0.456-0.943,0.423-1.541c0,0,0.232,0.066,0.464,0s0.553-0.807,0.762-0.96   c0.12-0.088,0.175-0.155,0.407-0.155c0.843,0.237,4.453,6.731,4.52,11.998c-0.529-0.597-1.061-1.822-1.557-2.684   c-0.497-0.861-3.048-4.273-3.578-4.737c0.017-0.183,0.017-0.4-0.181-0.559C92.437,61.489,91.606,61.195,91.425,60.325z"/>
	<path d="M89.066,61.087c0.052-0.044,0.146-0.166,0.346-0.365c0.198-0.198,0.737-0.212,0.869-0.322   c0.133-0.11,0.621,0.042,0.976,0.014c-0.011,0.225,0.813,1.254,1.344,1.42c0.148,0.353,0.176,0.573-0.083,0.96   c-0.26,0.387-0.271,0.938-0.396,0.916c-0.128-0.022-0.365-0.867-0.945-0.767c-0.033,0.364-0.378,1.382-1.01,1.392   c-0.241,0.003-0.981-0.829-1.027-1.31C89.084,62.451,89.183,61.347,89.066,61.087z"/>
	<path d="M92.833,62.5c-0.007-0.216,5.116,6.398,5.034,8.503c-0.022,0.574,0.155,1.48-0.463,1.767   c-0.619,0.287-2.275-0.552-3.755-3.6c-1.479-3.047-1.898-4.208-1.898-5.672c0.172,0.169,0.293,0.42,0.434,0.391   c0.142-0.029,0.342-0.757,0.421-0.927C92.67,62.824,92.836,62.635,92.833,62.5z"/>
	<path d="M91.425,63.207c0.204,0.066-0.006,0.883,0.237,1.745c0.242,0.86,1.099,3.387,2.274,5.233   c1.083,1.7,1.908,2.345,2.617,2.761c0.883,0.519,0.739,1.392,0.673,1.744c-0.066,0.354-0.198,1.104-0.905,0.994   c-0.706-0.11-2.513-1.877-3.608-3.688c-1.096-1.812-2.045-4.438-2.31-5.39c-0.266-0.949-0.525-2.191-0.525-2.191   c0.217,0.094,0.53,0.127,0.934-0.254C91.067,63.92,91.22,63.141,91.425,63.207z"/>
	<path d="M52.142,41.586c0.129-0.396-3.279-1.169-4.781-1.424c-1.502-0.254-4.153-0.515-5.3-0.741   c-0.673-0.132-2.562-0.348-2.86-0.447c0.298,0.216,0.298,0.381,0.397,0.464c-0.878-0.132-3.76-0.861-4.472-0.911   c0.199,0.183,0.364,0.431,0.381,0.48c-0.547-0.066-2.419-0.497-2.849-0.48c0.149,0.166,0.265,0.348,0.315,0.464   c-0.332-0.083-2.021-0.415-2.336-0.464c0.149,0.15,0.265,0.282,0.265,0.299c-0.514-0.033-1.292-0.215-1.524-0.182   c0.05,0.1,0.116,0.232,0.182,0.331c-0.232-0.116-1.109-0.166-1.242-0.149c0.115,0.116,0.148,0.249,0.148,0.282   c-0.265-0.116-1.226-0.249-1.358-0.249c0.149,0.132,0.166,0.265,0.199,0.332c-0.216,0-1.756,0.033-1.855,0.049   c0.066,0.116,0.166,0.182,0.232,0.265c-0.215-0.033-1.689-0.016-1.839-0.066c0.099,0.132,0.116,0.182,0.182,0.249   c-0.364,0-2.468,0.298-2.468,0.298s1.921,0.348,2.369,0.249c0,0.066-0.116,0.232-0.182,0.282c0.249,0,1.043-0.116,1.309-0.149   c-0.083,0.1-0.066,0.1-0.1,0.183c0.199,0.083,3.114-0.132,4.108,0.166c0.994,0.298,2.009,0.461,1.822,1.557   c-0.132,0.773-0.177,1.347-0.618,1.17c-0.442-0.176-1.899-0.201-2.12,0.033c0.2,0.096,0.32,0.2,0.32,0.2   c-0.397,0.176-1.82,0.828-2.749,0.828c-0.663,0-2.429-0.596-2.628-1.28c-0.265,0-0.972,0.265-1.7,0.154   c-0.729-0.11-1.237,0.177-1.634-0.088c-0.398-0.265-1.608-0.841-1.59-0.839c0.101,0.019,1.435,0.709,1.524,0.933   c-0.381-0.116-3.961-1.858-4.008-1.866c0.039,0.055,4.075,1.917,3.876,1.933c-0.149,0.013-1.705-0.607-2.74-0.962   c-0.366-0.125-0.648-0.156-0.821-0.131c-0.086,0.014,0.433-0.066,1.137,0.254c1.358,0.617,3.436,1.35,2.639,1.303   c-0.757-0.044-2.117-0.418-3.014-0.099c-0.356,0.127-0.641,0.285-0.961,0.689c-0.116,0.133,0.441-0.474,0.734-0.607   c0.58-0.263,1.51-0.242,3.788,0.099c0.497,0.033,2.12,0.59,2.518,0.527c0.397-0.062,1.623,0.566,2.22,0.566   c0.596,0,2.186,0.199,3.644-0.199c0.96-0.231,1.424-0.397,1.59-0.696c-0.033,0.298-0.033,0.696-0.663,0.944   s-1.358,0.514-2.849,0.58c-1.491,0.066-5.102-0.968-6.195-1.196c-1.093-0.228-1.557-0.168-1.756,0   c-0.199,0.169,1.292,1.593,6.459,2.389c0.1-0.221,0.475-0.354,1.005-0.354c-0.53,0.155-1.215,0.972-0.994,1.237   c0.154-0.066,0.436,0.091,0.811,0.003c-0.07,0.17-0.071,0.494,0.172,0.538c0.243,0.044,1.137-0.276,1.601-0.917   c0.332,0.11,0.736-0.243,0.884-0.243c0.11,0,0.353-0.11,0.464,0.177c0.11,0.288,0.972,0.508,1.281,0.53   c-0.243,0.177-0.442,0.341-0.552,0.38c0.685-0.005,0.795-0.083,1.237,0c0.441,0.083,3.345,1.276,3.886,1.342   c2.386,0.292,4.903,2.044,8.26,3.103c3.357,1.061,5.3,1.337,7.597,0.454c2.298-0.884,2.96-2.606,3.048-2.783   c0.089-0.177,0.699-1.371,0.738-2.69c0.039-1.32-0.534-2.456-1.345-3.51C52.558,43.108,51.854,42.47,52.142,41.586z"/>
	<path d="M30.543,41.995c0.126,0.125,0.1,0.96-0.166,1.049c-0.265,0.088-1.016-0.249-1.347-0.249s-0.782,0.181-1.263,0.181   c0.203-0.131,0.289-0.167,0.311-0.476c0.022-0.31-0.175-0.557-0.417-0.711c0.32,0.134,0.548,0.042,0.747,0.042   s1.02-0.399,1.218-0.443C29.825,41.343,30.322,41.774,30.543,41.995z"/>
	<path d="M27.532,42.584c0-0.453-0.624-1.2-1.495-1.2c-0.871,0-1.901,0.227-1.901,1.011s1.46,1.219,2.045,1.219   C26.767,43.615,27.532,43.209,27.532,42.584z"/>
	<path d="M78.058,53.866c0.199,0.242,0.663,0.573,1.567,0.904c-0.176,0.586-0.927,1.634-2.031,1.634   c-0.662-0.066-0.431-0.331-0.032-0.552c-0.486,0.154-1.911,0.132-1.801-0.496C75.871,54.727,76.865,53.998,78.058,53.866z"/>
	<path d="M75.656,55.604c0.133,0.165,0.231,0.215,0.348,0.266c-0.183,0.182-0.634,1.634-0.634,2.512   c0,0.877,0.634,1.921,0.634,2.092c-0.53,0.139-1.16-1.159-1.16-2.12S75.209,56.118,75.656,55.604z"/>
	<path d="M76.069,55.986c0.021-0.062,0.341,0.066,0.432,0c-0.022,0.176-0.166,1.302,0.21,2.461c0.376,1.16,1.192,3.114,1.943,3.037   c0.375-0.089,0.53-0.763,0.706-0.763c0.178,0,0.343,0.586,0.089,0.906c-0.254,0.319-0.872,0.508-1.579,0.11   S74.977,59.21,76.069,55.986z"/>
	<path d="M73.708,52.173c0.204,0.275,0.606,0.61,1.168,0.947c-0.177,0.585-1.398,2.261-2.499,2.335   c-0.854,0.058-0.15-0.488-0.271-0.463c-0.485,0.155-1.122-0.34-1.115-0.795C71.003,53.372,72.19,52.379,73.708,52.173z"/>
	<path d="M70.991,54.616c0.088,0.122,0.254,0.254,0.309,0.275c-0.155,0.178-0.1,0.475-0.486,0.828   c-0.386,0.354-0.452,2.044-0.44,2.253c0.01,0.21,0.055,1.458,0.055,1.668c-0.453-0.288-0.607-1.104-0.597-1.954   c0.011-0.851,0.1-1.538,0.53-2.021C70.902,55.058,70.726,54.716,70.991,54.616z"/>
	<path d="M71.211,55.555c0.19-0.237,0.122-0.508,0.188-0.52c0.066-0.01,0.309,0.045,0.331,0.089   c0.021,0.044-0.045,0.949-0.056,1.446c-0.01,0.497,0.232,2.639,0.675,3.401c0.44,0.762,1.214,1.8,1.401,1.8s0.21-0.607,0.453-0.641   s0.088,0.695-0.154,0.839c-0.244,0.145-0.828,0.244-1.524-0.319c-0.695-0.563-1.436-1.855-1.646-3.026   C70.67,57.454,70.626,56.283,71.211,55.555z"/>
	<path d="M69.18,52.495c0.442,0.244,0.574,0.245,0.729,0.289c-0.176,0.33-0.397,1.031-1.037,1.611   c-0.495,0.447-1.789,1.192-1.502,0.221c-0.266,0.088-1.812,0.354-1.59-0.485c0.221-0.84,2.187-2.01,2.76-2.054   C68.737,52.187,69.18,52.495,69.18,52.495z"/>
	<path d="M65.758,54.544c0.126,0.013,0.341,0.251,0.225,0.49c-0.115,0.238-0.86,1.68-0.878,2.739   c-0.017,1.061,0.282,1.657,0.166,1.69c-0.116,0.032-0.642-0.331-0.627-1.789s0.547-2.25,0.687-2.582   C65.47,54.759,65.581,54.528,65.758,54.544z"/>
	<path d="M65.515,56.493c0.035-0.538,0.701-1.423,0.712-1.634c0.148-0.017,0.5-0.021,0.635-0.105   c0.032,0.066,0.077,0.29-0.089,0.339c-0.165,0.048-0.42,0.181-0.402,0.412c0.017,0.232,0.143,0.281,0.209,1.159   c0.066,0.879,0.133,2.07,0.745,3.049c0.613,0.977,1.077,1.738,1.408,1.755s0.68-0.812,0.812-0.812c0.132,0,0.381,0.597-0.101,0.994   c-0.479,0.397-0.762,0.432-1.159,0.432s-0.977-0.184-1.424-0.879C66.414,60.507,65.35,59.028,65.515,56.493z"/>
	<path d="M62.869,51.049c-0.116,0.547-0.05,1.315,0.657,1.735c-0.199,0.44-1.083,1.545-1.943,1.589c-0.133-0.066-0.11-0.198,0-0.287   c-0.244,0.089-1.361,0.177-1.377-0.286C60.191,53.335,60.771,51.845,62.869,51.049z"/>
	<path d="M60.147,53.942c0.11,0.144,0.242,0.276,0.354,0.298c-0.1,0.177-0.851,1.899-0.906,2.474   c-0.055,0.575,0.354,2.264,0.243,2.44s-0.839-0.508-0.706-2.275C59.336,55.564,59.76,54.473,60.147,53.942z"/>
	<path d="M61.252,57.005c-0.015-1.499-0.029-1.76-0.161-1.986c-0.086-0.145,0.049-0.515-0.139-0.646   c-0.038-0.025-0.331-0.057-0.358-0.093c-0.09,0.225-0.081,0.431-0.206,0.934c-0.126,0.502-0.242,1.229-0.171,2.207   c0.072,0.979,0.188,2.154,0.449,2.818c0.26,0.664,0.762,1.911,1.866,2.01c1.104,0.099,1.983-0.367,1.857-1.238   c-0.104-0.299-0.597,0.235-0.799,0.458c-0.17,0.188-0.907,0.879-1.391-0.539C61.773,59.798,61.339,59.154,61.252,57.005z"/>
	<path d="M57.648,52.306c0,0,0.99,0.196,1.662,0c-0.05,0.862-1.468,2.575-2.917,2.624c-0.259-0.074,0.187-0.517,0.262-0.557   c-0.471,0.234-1.34,0.557-1.216-0.287S57.325,52.711,57.648,52.306z"/>
	<path d="M55.2,54.506c0.161-0.009,0.464,0.229,0.529,0.424c0.066,0.194-0.396,0.592-0.529,0.901   c-0.133,0.309-0.618,2.628-2.474,2.341c-0.839-0.177,0.221-0.97,0.994-1.821C54.692,55.389,54.911,54.52,55.2,54.506z"/>
	<path d="M56.073,54.825c0.126-0.138,0.088,0.376,0.176,0.586c0.089,0.21,0.188,0.607-0.088,1.966   c-0.276,1.357-0.817,4.395-0.375,4.77c0.607,0.465,1.004-0.345,1.191-0.275c0.244,0.088-0.253,1.126-1.038,1.094   c-0.783-0.034-1.401-0.741-1.38-2.485c0.022-1.745,0.453-3.654,0.695-4.229C55.499,55.676,55.939,54.969,56.073,54.825z"/>
	<path d="M54.275,50.216c0.122,0.506,0.407,1.116,1.152,1.536c-0.249,0.375-1.729,3.21-2.017,3.184   c-0.286-0.026-0.375-0.98-0.286-1.243c0.309-0.219,1.39-1.434,1.435-1.765s-0.044-0.662-0.133-0.872   c-0.088-0.209-0.27-0.308-0.464-0.276C54.129,50.614,54.275,50.216,54.275,50.216z"/>
	<path d="M53.885,50.835c0.138,0,0.44,0.044,0.514,0.364c0.073,0.32,0.097,0.624-0.093,0.935c-0.188,0.312-1.197,1.372-1.298,1.501   c0.009,0.128-0.079,0.264-0.109,0.396c-0.146,0.091-0.686,0.887-1.336,1.016c0.257-0.485,0.934-1.236,1.025-1.528   c0.092-0.294,0.051-0.971,0.015-1.178C52.694,52.233,53.583,51.457,53.885,50.835z"/>
	<path d="M52.849,54.346c0.049,0.232,0.165,0.439,0.397,0.7c-0.116,0.393-0.911,2.431-1.325,2.695   c-0.149-0.397-0.514-0.331-0.778-0.331C51.076,56.863,52.136,54.81,52.849,54.346z"/>
	<path d="M51.562,57.559c0.303,0.083,0.358,0.348,0.309,0.447c-0.049,0.1-2.385,5.565-2.401,6.262   c-0.271-0.137-0.58-0.067-0.878,0.082c-0.149-0.463,0.794-2.259,1.474-4.141C50.693,58.47,50.894,57.377,51.562,57.559z"/>
	<path d="M49.437,64.35c0.144,0.149,1.226,1.286,1.722,1.751c0.498,0.463,1.436,1.037,1.392,1.49   c-0.065,0.166-0.055,0.364-0.275,0.376c-0.222,0.01-2.088-1.613-2.552-2.088c-0.463-0.475-1.06-1.292-1.015-1.369   S48.906,64.233,49.437,64.35z"/>
	<path d="M52.618,68.088c0.055,0.188,3.219,1.029,3.554,0.552c0.222-0.314-3.235-0.949-3.4-0.938   C52.605,67.712,52.618,68.088,52.618,68.088z"/>
	<path d="M56.327,68.584c0.052,0.129,2.042-0.121,2.417-0.685C58.127,67.922,56.205,68.286,56.327,68.584z"/>
	<path d="M52.038,52.691c0.05,0.226-0.164,1.03-1.107,1.472c-0.944,0.44-1.423,0.641-1.774,1.019   c-0.352,0.377-1.453,1.916-1.906,2.217c0.26-0.481,1.361-2.337,1.811-2.761c0.387-0.363,0.365-0.904,0.66-0.972   C49.984,53.61,51.45,53.208,52.038,52.691z"/>
	<path d="M51.139,54.205c0.033,0.224-0.24,0.822-0.596,1.543s-1.035,1.562-1.329,1.746c0.111-0.457,0.06-0.688-0.01-1.045   c-0.051-0.266-0.203-0.702-0.213-0.955C49.184,55.301,49.562,54.835,51.139,54.205z"/>
	<path d="M48.875,55.97c0.095,0.41,0.19,0.504,0.221,0.868c0.031,0.362,0,0.646,0,0.804c-0.158,0.237-1.152,1.987-1.436,2.161   c-0.142,0.127-0.142-0.457-0.331-0.583c-0.189-0.127-0.284-0.189-0.284-0.379S48.678,56.015,48.875,55.97z"/>
	<path d="M47.005,59.275c0.153-0.109,0.399,0.221,0.399,0.707c-0.22,0.442-3.887,4.771-4.152,5.278   c-0.088,0.044-0.95,0.155-0.795-0.155C42.612,64.797,45.167,60.584,47.005,59.275z"/>
	<path d="M42.546,65.438c0.086-0.179,0.508-0.065,0.707-0.121c0.133,0.121,1.341,1.289,2.948,2.22   c1.279,0.739,1.615,0.969,1.417,1.112c-0.131,0.094-0.014,0.301-0.213,0.278C47.206,68.905,42.237,66.078,42.546,65.438z"/>
	<path d="M47.67,68.755c0.154-0.148,0.734,0.05,1.035,0.225c0.301,0.174,2.536,1.54,2.885,1.921c0.032,0.1-0.066,0.216-0.24,0.183   C51.175,71.05,47.206,69.17,47.67,68.755z"/>
	<path d="M51.678,71.036c0.32-0.132,2.723,0.214,2.938,0.375c-0.435,0.212-1.943,0.122-2.274,0   C52.01,71.29,51.622,71.103,51.678,71.036z"/>
	<path d="M47.404,53.687c0.325,0.092,1.338,0.106,1.586,0.062c-0.104,0.41-0.866,1.348-1.232,1.538   c-0.366-0.029-0.806-0.133-1.069-0.073c-0.264,0.058-1.992,1.449-2.725,1.465c0.381-0.264,0.659-0.484,1.099-0.909   c0.439-0.425,0.967-0.586,1.274-0.849C46.646,54.657,47.211,53.813,47.404,53.687z"/>
	<path d="M46.893,55.245c0.201,0.019,0.815,0.039,0.881,0.193c-0.022,0.121-0.811,0.988-1.109,1.176   c-0.299,0.188-0.321-0.032-0.321-0.055s-0.028-0.948,0-1.06C46.373,55.389,46.75,55.233,46.893,55.245z"/>
	<path d="M46.173,55.653c0,0.282,0.132,0.879,0,1.127c0,0.165-0.298,0.243-0.497,0.618c-0.199,0.375-1.044,1.386-1.326,1.651   c-0.282,0.265-0.795,0.597-0.828,0.414s0-0.48-0.232-0.563c-0.231-0.082-0.43-0.082-0.414-0.198   C42.894,58.586,45.743,55.87,46.173,55.653z"/>
	<path d="M43.297,59.056c0.239,0.163,0.132,0.397,0.11,0.596s-0.839,1.237-1.126,1.7c-0.287,0.464-1.701,1.612-2.01,2.076   c-0.309,0.464-0.53,0.973-0.574,1.104c-0.154-0.066-0.861,0.012-0.839-0.183c0.022-0.193,1.664-2.531,2.289-3.405   C41.773,60.071,42.692,58.64,43.297,59.056z"/>
	<path d="M38.968,64.665c-0.016-0.116,0.613-0.166,0.845,0c0.232,0.165,2.087,1.54,3.114,2.385s3.627,2.965,3.627,3.097   c0,0.133-0.282,0.415-0.414,0.382s-2.219-1.743-3.925-2.984C40.509,66.304,39.027,65.095,38.968,64.665z"/>
	<path d="M46.554,70.373c0.132-0.068,0.839-0.032,1.48,0.31c0.64,0.343,1.259,0.54,1.723,0.59s1.358,0.636,1.567,0.956   c-0.275-0.121-1.303-0.817-1.844-0.772c-0.541,0.044-0.369,0.265-0.775,0.265s-1.853-0.608-2.084-0.905   C46.389,70.517,46.498,70.402,46.554,70.373z"/>
	<path d="M49.568,71.538c0.365-0.006,1.248,0.48,1.523,0.69c-0.153,0.188-1.633-0.11-1.998-0.508   C49.248,71.676,49.568,71.538,49.568,71.538z"/>
	<path d="M46.478,53.687c-0.201,0.215-0.594,0.617-0.857,0.867c-0.37,0.35-0.878,1.188-1.067,1.188   c0.355-0.42,0.314-0.819,0.368-1.072c-0.366,0.365-0.698,0.808-1.051,0.852c0.089-0.574-0.021-0.954,0.221-1.316   c0.221-0.119,0.885-0.619,1.055-0.842C45.504,53.484,46.169,53.662,46.478,53.687z"/>
	<path d="M44.644,53.18c0.088,0.057,0.265,0.104,0.342,0.125c-0.166,0.142-0.475,0.505-0.895,0.749   c-0.177,0.209-0.309,0.396-0.519,0.44c-0.42,0.111-1.7,1.061-1.988,1.248c0.066-0.265,1.126-1.424,1.911-1.723   C44.069,53.832,44.321,53.553,44.644,53.18z"/>
	<path d="M43.738,54.554c0,0.321-0.016,0.929,0,1.188c-0.282,0.293-2.203,2.049-2.517,2.496c-0.1-0.299-0.232-0.768-0.415-0.84   C41.039,56.995,43.606,54.646,43.738,54.554z"/>
	<path d="M40.724,57.477c0.225-0.033,0.429,0.729,0.43,0.86c-0.165,0.133-2.086,1.922-2.633,2.485   c-0.546,0.563-1.689,2.285-1.772,2.302c-0.083,0.017-0.778-0.065-1.109,0.083c-0.066-0.299,1.447-2.23,1.794-2.578   C37.782,60.281,40.376,57.525,40.724,57.477z"/>
	<path d="M35.7,63.405c0.034-0.234,0.917-0.342,0.95-0.198c0.033,0.144,0.533,1.093,1.746,2.439   c1.213,1.349,3.543,3.877,3.477,3.987c-0.067,0.109-0.276,0.298-0.431,0.298c-0.154,0-2.793-2.584-4.185-4.185   C35.865,64.146,35.666,63.639,35.7,63.405z"/>
	<path d="M41.75,69.865c0.351-0.49,1.071,0.619,1.624,1.325c0.552,0.707,1.731,1.955,1.727,3.004   c-0.126-0.21-0.976-1.745-1.473-2.055c-0.387-0.231-0.563-0.076-0.707-0.138C42.778,71.941,41.309,70.484,41.75,69.865z"/>
	<path d="M43.59,72.229c0.13-0.021,1.358,1.604,1.457,2.052c-0.149-0.059-1.416-1.558-1.457-2.021"/>
	<path d="M43.283,72.061c0.199,0.058,0.223,0.248,0.256,0.381c0.033,0.132,1.151,1.548,1.259,1.797   c-0.124-0.008-1.739-1.648-1.681-2.07C43.134,72.076,43.182,72.03,43.283,72.061z"/>
	<path d="M43.109,52.691c0.199,0.18,0.722,0.25,0.855,0.249c-0.193,0.296-0.756,0.693-1.253,0.925   c-0.497,0.231-0.696,0.483-1.126,0.938c0-0.242,0-0.457,0-0.457s-0.332,0.549-0.497,0.457c0.134-0.258,0.298-1.145,0.199-1.439   C41.585,53.368,42.281,53.206,43.109,52.691z"/>
	<path d="M41.154,53.518c0.067,0.166-0.082,0.927-0.165,1.209c-0.166,0.066-0.547,0.331-0.894,0.762   c-0.348,0.431-0.663,0.943-0.861,1.044c-0.1-0.116-0.249-0.37-0.232-0.79s-0.017-0.883,0.166-1.082   C39.349,54.462,40.474,53.584,41.154,53.518z"/>
	<path d="M38.748,55.182c0.177,0.034,0.197,0.604,0.11,1.136c-0.088,0.529-0.729,0.884-1.038,1.268   c-0.364,0.453-1.709,1.065-1.952,1.152c-0.243,0.089-0.367,0.34-0.544,0.362s-0.574-0.376-0.574-0.553   C34.75,58.371,38.48,55.131,38.748,55.182z"/>
	<path d="M34.75,58.885c0.251,0.021,0.458,0.248,0.458,0.562c0,0.315,0.017,1.475,0,1.988c-0.016,0.513,0.232,1.854-0.298,1.854   c-0.53,0-0.414-0.764-0.447-1.533C34.43,60.987,34.391,58.851,34.75,58.885z"/>
	<path d="M34.943,63.39c0.377-0.051,0.828,1.424,1.06,2.318c0.231,0.895,0.314,1.905,0.149,2.551   c-0.099-0.663-0.211-1.889-0.561-2.203c-0.35-0.315-0.74-0.331-0.744-0.514C34.844,65.36,34.447,63.455,34.943,63.39z"/>
	<path d="M35.081,65.901c0.133,0.044,0.464,0.033,0.464,0.375c0,0.343,0.099,1.789,0.242,1.982   C35.258,67.767,35.06,66.222,35.081,65.901z"/>
	<path d="M42.755,52.661c0.077-0.054,0.167,0.055,0.196,0.055c-0.172,0.118-1.233,0.648-1.813,0.654   c-0.58,0.005-1.347,0.039-1.735,0.172c-0.388,0.132-1.543,0.53-2.448,0.481c0.88-0.054,1.913-0.559,2.527-0.719   c0.614-0.161,1.276-0.145,1.852-0.188C41.933,53.07,42.611,52.764,42.755,52.661z"/>
	<path d="M42.527,52.488c-0.591,0.153-1.48,0.383-2.37,0.337c-0.889-0.046-2.685-0.224-3.328-0.166   c-0.644,0.059-2.055,0.111-2.284,0.032c-0.23-0.081-0.168-0.572-0.353-0.663c0.552-0.246,3.643-0.153,4.167-0.077   c0.525,0.077,2.479,0.092,2.729,0C41.404,52.124,42.188,52.426,42.527,52.488z"/>
	<path d="M34.192,52.209c0.138,0.064,0.222,0.496,0.105,0.514c-0.116,0.017-1.192,0.265-1.805,0.464   c-0.613,0.198-1.789,0.646-1.988,0.662s-0.265-0.327-0.431-0.544c0.017-0.317,0.779-0.502,1.292-0.658   C31.879,52.49,33.805,52.027,34.192,52.209z"/>
	<path d="M30.179,53.738c-0.048,0.104-0.221,0.215-0.696,0.348c-0.475,0.133-1.734,0.685-2.164,1.026   c-0.431,0.343-0.707,0.42-0.906,0.388c-0.199-0.034-0.485-0.255-0.32-0.42c0.166-0.166,2.252-1.325,2.716-1.513   c0.464-0.188,0.984-0.336,1.126-0.263C30.079,53.377,30.232,53.622,30.179,53.738z"/>
	<path d="M25.957,55.412c0.166,0.06,0.316,0.142,0.374,0.226c0,0.091-1.425,1.723-1.657,2.004   C24.749,57.252,25.527,55.562,25.957,55.412z"/>
	<path d="M40.912,51.869c-0.332,0.008-1.789,0.229-3.401-0.168c-1.612-0.397-2.208-1.723-2.308-1.965   c0.315-0.064,1.036,0.228,1.49,0.551c0.508,0.363,2.251,1.183,2.68,0.885C39.761,51.348,40.912,51.869,40.912,51.869z"/>
	<path d="M34.877,49.658c0.166,0.132,0.221,0.298,0.326,0.414c-0.177,0.149-1.734,0.596-3.076,0.613   c-1.341,0.017-2.037-0.132-2.468-0.231c-0.43-0.1-1.788-0.845-1.921-1.094c0.464-0.1,1.459,0.36,2.733,0.58   C32.012,50.205,34.551,49.581,34.877,49.658z"/>
	<path d="M14.388,51.061c2.742,0.203,9.121-3.183,10.916-3.18c0.154-0.017,0.543,0.058,0.651,0.045   c-0.052,0.144,0.059,0.198,0.09,0.314c0,0.309-0.794,0.059-1.396,0.221c-1.479,0.398-8.142,3.285-10.262,3.069   c-3.373-0.342-8.086-1.672-10.358-6.852c-2.959-6.747,1.943-13.272,9.431-16.055c5.035-1.988,16.369-2.175,18.752-2.12   c6.667,0.155,29.681,2.275,42.113,6.338c-8.707-2.245-30.279-6.095-44.716-5.77c-6.799,0.153-14.312,0.52-19.296,3.638   c-1.889,1.182-6.776,4.45-6.703,9.861C3.677,45.451,7.52,50.553,14.388,51.061z"/>
	<path d="M18.595,50.817c0.729-0.249,4.301-1.651,5.052-1.871c-4.406,1.938-6.244,3.494-9.292,3.693   C8.889,52.806,1.469,50.847,1.469,42.337c0-6.957,3.721-9.033,5.797-10.27c0.033,0.044-0.895,0.905-1.469,1.524   c-1.281,1.104-3.489,3.136-3.754,7.995s2.418,9.286,9.143,10.335C15.293,52.463,16.254,51.756,18.595,50.817z"/>
	<path d="M10.048,30.942c-0.662,0.397-1.159,0.794-1.722,1.192c0.463-0.199,3.147-1.425,7.586-1.756   c4.438-0.331,6.564-0.897,20.571,0.166c12.224,0.928,21.765,3.512,28.655,8.083c-2.386-2.12-12.935-7.447-29.285-8.613   C19.755,28.866,13.726,29.882,10.048,30.942z"/>
</g>
</svg>