<svg xmlns="http://www.w3.org/2000/svg" xmlns:xlink="http://www.w3.org/1999/xlink" version="1.1" id="Camada_1" x="0px" y="0px" width="100px" height="100px" viewBox="0 0 100 100" enable-background="new 0 0 100 100" xml:space="preserve">
<g>
	<path d="M48.849,67.866l-1.151,1.995l1.151,1.994h2.304l1.152-1.994l-1.151-1.995H48.849z M50,70.863   c-0.553,0-1.002-0.449-1.002-1.002c-0.001-0.555,0.448-1.004,1.002-1.004c0.553,0,1.002,0.45,1.002,1.004   C51.002,70.414,50.553,70.863,50,70.863z"/>
	<g>
		<path d="M51.153,32.135l1.15-1.995l-1.15-1.996l-2.306,0.001l-1.151,1.995l1.152,1.994L51.153,32.135z M50.002,29.138    c0.553,0,1.002,0.448,1.001,1.001c0.001,0.554-0.448,1.002-1.001,1.002c-0.555,0-1.003-0.449-1.002-1.002    C49,29.586,49.448,29.138,50.002,29.138z"/>
		<path d="M64.611,31.094v-5.501c0-0.943-0.443-1.776-1.123-2.328v-4.157c0-8.479-6.039-15.354-13.488-15.353    c-7.448-0.001-13.487,6.873-13.487,15.354v4.158c-0.68,0.551-1.122,1.382-1.124,2.325l0.001,5.501    c-0.001,0.941,0.444,1.772,1.123,2.324v21.115h0.001v12.046c-0.681,0.554-1.125,1.386-1.125,2.327l0.001,5.501    c-0.001,0.942,0.444,1.776,1.124,2.327v4.156c0,8.48,6.038,15.354,13.488,15.354c7.447,0.002,13.486-6.873,13.486-15.354v-4.156    c0.68-0.553,1.123-1.385,1.123-2.328v-5.5c0-0.941-0.443-1.772-1.123-2.324l0.001-12.049l-0.001-9.067V33.42    C64.169,32.867,64.611,32.035,64.611,31.094z M47.256,23.568h5.487c1.021,0,1.85,0.827,1.85,1.849h-1.85h-1.849h-1.789h-1.85    h-1.849C45.407,24.396,46.234,23.568,47.256,23.568z M36.566,25.592c0-1.014,0.82-1.833,1.834-1.833h1.833    c1.014,0,1.833,0.819,1.833,1.833v5.503c0,1.014-0.819,1.833-1.833,1.833H38.4c-1.014,0-1.834-0.819-1.834-1.833V25.592z     M42.067,74.407c0,1.014-0.823,1.835-1.835,1.835h-1.834c-1.012,0-1.832-0.821-1.832-1.835v-5.501c0-1.014,0.82-1.832,1.832-1.832    h1.834c1.012,0,1.835,0.818,1.835,1.832V74.407z M43.228,26.546h6.662c0.037-0.001,0.072-0.012,0.111-0.012    c0.037,0,0.072,0.011,0.109,0.012h6.635v3.594h-1.571c-0.752,0-1.394,0.453-1.673,1.101c-0.014,0.03-0.06,0.068-0.118,0.108    c-0.498,1.393-1.818,2.395-3.382,2.395c-1.579,0-2.907-1.021-3.394-2.434c-0.03-0.024-0.061-0.048-0.069-0.069    c-0.278-0.648-0.921-1.101-1.671-1.101l-1.64,0V26.546z M53.579,36.7h-7.155c-0.561,0-1.015-0.455-1.016-1.016v-4.137    c0.035,0.045,0.066,0.091,0.09,0.145c0.036,0.087,0.08,0.162,0.127,0.227c0.721,1.781,2.449,2.962,4.377,2.963    c1.89-0.001,3.597-1.142,4.341-2.869c0.072-0.083,0.139-0.183,0.193-0.302c0.016-0.035,0.039-0.064,0.059-0.096v4.069    C54.595,36.245,54.14,36.7,53.579,36.7z M54.593,64.315v4.137c-0.034-0.045-0.066-0.092-0.089-0.145    c-0.036-0.086-0.081-0.162-0.128-0.227c-0.72-1.781-2.448-2.963-4.376-2.963c-1.89,0-3.598,1.143-4.341,2.869    c-0.072,0.084-0.14,0.182-0.193,0.301c-0.016,0.037-0.039,0.064-0.059,0.098v-4.07c0-0.561,0.454-1.016,1.016-1.016h7.154    C54.138,63.3,54.593,63.755,54.593,64.315z M52.743,76.433h-5.486c-1.021,0-1.85-0.828-1.85-1.85h1.85h1.849h1.789h1.849h1.85    C54.593,75.604,53.765,76.433,52.743,76.433z M56.773,73.455h-6.662c-0.038-0.001-0.072,0.01-0.109,0.01    c-0.039,0-0.074-0.01-0.111-0.01l-6.635-0.001v-3.593h1.572c0.75,0,1.394-0.454,1.674-1.102c0.012-0.029,0.059-0.068,0.116-0.108    c0.499-1.393,1.817-2.396,3.383-2.395c1.579,0,2.906,1.022,3.395,2.435c0.029,0.024,0.06,0.049,0.067,0.069    c0.279,0.646,0.923,1.101,1.673,1.101h1.638V73.455z M63.436,74.406c0,1.014-0.82,1.836-1.834,1.836h-1.833    c-1.013,0-1.833-0.822-1.834-1.836l0.001-5.5c0-1.014,0.82-1.832,1.832-1.832h1.834c1.014,0,1.834,0.818,1.834,1.832V74.406z     M63.436,31.094c0,1.012-0.82,1.832-1.832,1.832l-1.835,0c-1.011,0-1.834-0.819-1.834-1.833v-5.502    c0-1.014,0.823-1.833,1.834-1.833l1.835,0c1.012,0,1.832,0.82,1.832,1.834V31.094z"/>
	</g>
</g>
</svg>