<svg xmlns="http://www.w3.org/2000/svg" xmlns:xlink="http://www.w3.org/1999/xlink" version="1.1" id="Layer_1" x="0px" y="0px" width="100px" height="100px" viewBox="0 0 100 100" enable-background="new 0 0 100 100" xml:space="preserve">
<path d="M49.042,4.75c0,0,9.228,5.828,9.228,10.685s-5.59,11.248-6.312,14.57c-1.332,6.12,3.397,14.084,3.397,14.084  S43.214,37.775,42.73,29.033c-0.486-8.742,8.586-9.375,9.711-13.599C53.625,11,49.042,4.75,49.042,4.75z"/>
<path d="M33.649,93.08l-2.191,3.652h38.063l-2.388-3.575c14.49-5.569,25.479-18.187,28.767-33.656H5.08  C8.353,74.9,19.256,87.475,33.649,93.08z"/>
<path d="M96.922,49.811H4.059c0,2.273,0.17,4.505,0.486,6.69h91.891C96.751,54.314,96.922,52.084,96.922,49.811z"/>
</svg>