<svg xmlns:dc="http://purl.org/dc/elements/1.1/" xmlns:cc="http://creativecommons.org/ns#" xmlns:rdf="http://www.w3.org/1999/02/22-rdf-syntax-ns#" xmlns:svg="http://www.w3.org/2000/svg" xmlns="http://www.w3.org/2000/svg" xmlns:xlink="http://www.w3.org/1999/xlink" xmlns:sodipodi="http://sodipodi.sourceforge.net/DTD/sodipodi-0.dtd" xmlns:inkscape="http://www.inkscape.org/namespaces/inkscape" width="100" height="100" viewBox="0 0 80 80" version="1.1" id="svg2" inkscape:version="0.48.2 r9819" sodipodi:docname="space shuttle.svg">
  <metadata id="metadata10">
    <rdf:RDF>
      <cc:Work rdf:about="">
        <dc:format>image/svg+xml</dc:format>
        <dc:type rdf:resource="http://purl.org/dc/dcmitype/StillImage"/>
        <dc:title/>
      </cc:Work>
    </rdf:RDF>
  </metadata>
  <defs id="defs8"/>
  <sodipodi:namedview pagecolor="#ffffff" bordercolor="#666666" borderopacity="1" objecttolerance="10" gridtolerance="10" guidetolerance="10" inkscape:pageopacity="0" inkscape:pageshadow="2" inkscape:window-width="1366" inkscape:window-height="706" id="namedview6" showgrid="true" inkscape:zoom="4" inkscape:cx="26.69104" inkscape:cy="52.654362" inkscape:window-x="-8" inkscape:window-y="-8" inkscape:window-maximized="1" inkscape:current-layer="layer1" inkscape:snap-grids="false">
    <inkscape:grid type="xygrid" id="grid8729"/>
  </sodipodi:namedview>
  <g inkscape:groupmode="layer" id="layer2" inkscape:label="layer1" style="display:none">
    </g>
  <g inkscape:groupmode="layer" id="layer1" inkscape:label="draw" style="opacity:1;display:inline">
    <path style="font-size:medium;font-style:normal;font-variant:normal;font-weight:normal;font-stretch:normal;text-indent:0;text-align:start;text-decoration:none;line-height:normal;letter-spacing:normal;word-spacing:normal;text-transform:none;direction:ltr;block-progression:tb;writing-mode:lr-tb;text-anchor:start;baseline-shift:baseline;color:#000000;fill:#000000;fill-opacity:1;stroke:none;stroke-width:0.80000001px;marker:none;visibility:visible;display:inline;overflow:visible;enable-background:accumulate;font-family:Sans;-inkscape-font-specification:Sans" d="M 76.537639,1.5752631 C 76.244618,1.3616028 75.88559,1.23539 75.51557,1.0690019 74.80936,0.88604248 73.746167,0.85760598 72.180641,1.3373424 69.09438,2.2830863 64.066353,5.2660818 55.940959,13.087748 54.178854,11.576248 50.651131,8.3195779 50.651131,8.3195779 l -20.618454,22.6758061 -0.662199,0.722792 -19.08884,0.733094 -0.122206,0.0053 -0.09917,0.06556 -6.3463994,4.665054 -0.058429,0.06378 -0.058429,0.06377 -1.591597,2.334756 -0.1912005,0.294057 0.1948918,0.256758 12.0139121,14.799696 -3.953597,4.784842 -0.251411,0.317097 0.258667,0.315188 1.826585,2.103586 -0.801971,1.259476 -0.210678,0.315315 0.278145,0.293929 3.261477,3.183577 -2.214971,2.545686 -4.436945,5.397776 c 0.06193,0.752747 0.0024,0.774631 0.917685,0.918959 l 5.111873,-4.896735 2.363782,-2.409352 3.496977,2.969208 0.276362,0.253194 0.274453,-0.256886 1.205886,-0.889424 2.255067,1.635896 0.35605,0.208895 0.274453,-0.256886 4.401809,-4.3351 15.813606,10.695002 0.253321,0.192983 0.2355,-0.214368 2.227572,-1.791196 0.0779,-0.08503 0.01948,-0.02125 4.112465,-6.750819 0.05665,-0.104509 -0.0053,-0.122206 -0.84817,-18.920552 C 57.801575,43.506436 72.03199,27.79067 72.03199,27.79067 c 0,0 -3.47077,-3.164014 -5.059548,-4.635401 C 74.071134,14.397213 76.558823,9.0868515 77.23845,5.9319799 77.583268,4.331318 77.476367,3.2531827 77.233952,2.5650982 77.063108,2.0672997 76.830659,1.7889238 76.537639,1.5752631 z M 75.190067,9.0213795 C 74.830902,9.8365181 74.396758,10.730099 73.839444,11.733317 73.34249,10.98119 72.182141,9.3365493 70.738997,8.032534 69.372822,6.7980662 67.563164,5.7799935 66.618645,5.2742572 67.560668,4.6339201 68.426884,4.1227791 69.202269,3.6919556 z M 70.137008,8.732285 c 1.78021,1.608585 3.171352,3.922153 3.171352,3.922153 -1.587769,2.708669 -3.909922,6.031635 -7.327864,10.217754 l -0.309842,0.380874 0.106296,0.09738 -7.507351,7.980889 5.139237,4.5911 -0.642724,0.701534 -5.139236,-4.5911 -7.349758,7.851555 5.226053,4.709742 -0.601988,0.699751 -5.247312,-4.729218 -7.35154,7.81082 5.374864,4.846077 -0.623247,0.680275 -5.374864,-4.846076 -7.583476,8.106658 -0.0779,0.08503 -0.03717,0.08325 c 0,0 -0.954336,3.317765 -1.691909,4.706301 -0.993576,1.870473 -3.886129,5.394085 -3.886129,5.394085 l -0.05665,0.104509 -2.308917,2.264105 -5.36939,-4.254527 1.014432,-1.534057 1.159931,-0.540502 -0.496076,-0.610899 -2.122936,2.317187 -0.03896,0.04252 0.0017,0.04073 -1.844283,4.488494 c -0.662459,-0.592847 -0.971145,-0.958662 -1.55366,-1.462516 L 28.471747,55.020931 27.791472,54.397684 15.235897,66.864393 c -0.59797,-0.47952 -0.677688,-0.454691 -1.248913,-1.026906 l 3.846157,-2.576237 0.02125,0.01948 0.01948,-0.02126 2.246923,-2.2818 -0.653671,-0.481565 -0.477874,1.204485 -1.522856,1.107356 -4.544249,-4.984447 2.092765,-2.540341 0.21246,-0.27458 -0.02126,-0.01948 c 0.505545,-0.492289 3.037725,-2.945701 4.664041,-3.938443 1.344564,-0.820756 4.710631,-1.940642 4.710631,-1.940642 l 0.100945,-0.02482 0.07613,-0.125769 7.551524,-8.370546 -5.332347,-4.807123 0.582512,-0.678494 5.373081,4.805342 7.20273,-7.947155 -5.31287,-4.828382 0.582513,-0.678493 5.332346,4.807123 7.181471,-7.966631 -5.309306,-4.746912 0.623247,-0.680276 5.311088,4.787648 7.900318,-8.793935 -0.02125,-0.01948 c 3.78144,-3.652636 6.850969,-6.2112548 9.363471,-8.0008727 0.502928,0.258247 2.774188,1.4665898 4.350631,2.8910463 z m -2.921597,2.719447 -4.816031,-1.401416 -1.983162,1.780504 0.839651,0.534647 1.175844,-0.643231 1.710873,-0.07485 -0.506388,0.552724 3.119668,2.740836 0.708409,-0.133026 0.08185,1.40447 -0.577039,1.270043 0.623756,1.197102 1.643025,-2.092127 z m -3.96047,5.56059 c -0.191386,-0.178625 -0.494424,-0.182377 -0.67302,0.009 l -0.368272,0.444649 c -0.04464,0.04785 -0.09565,0.06997 -0.116858,0.127551 -0.06346,0.172903 -0.01767,0.411522 0.125896,0.545468 l 0.425173,0.389529 c 0.191385,0.178627 0.494424,0.18238 0.67302,-0.009 l 0.389528,-0.425173 c 0.178627,-0.191385 0.184164,-0.453688 -0.0073,-0.632284 z m -1.592614,-1.42 c -0.191384,-0.178625 -0.494424,-0.182377 -0.67302,0.009 l -0.370052,0.403914 c -0.04466,0.04786 -0.07442,0.08942 -0.09561,0.147028 -0.06346,0.172903 -0.01944,0.370787 0.124114,0.504733 l 0.426955,0.430265 c 0.191384,0.178625 0.494424,0.182379 0.67302,-0.009 l 0.389529,-0.425171 c 0.178626,-0.191386 0.141644,-0.492641 -0.04977,-0.671239 z m -1.722205,4.013805 c -0.161319,-0.120033 -0.335632,-0.237081 -0.524336,-0.323971 -0.754806,-0.347582 -1.585404,-0.321989 -2.348505,-0.0401 -0.763098,0.281891 -1.488046,0.878669 -1.901692,1.776939 -0.413646,0.898271 -0.412244,1.854639 -0.130354,2.617737 0.28189,0.7631 0.830807,1.378825 1.585612,1.726406 0.754805,0.347581 1.58719,0.362725 2.350286,0.08083 0.763102,-0.281891 1.466788,-0.898145 1.880434,-1.796417 0.413647,-0.898269 0.412245,-1.854636 0.130354,-2.617737 -0.211416,-0.572324 -0.557848,-1.063589 -1.041799,-1.423691 z m -0.493913,0.83787 c 0.384685,0.28532 0.65151,0.67821 0.802608,1.087244 0.201464,0.54538 0.08886,1.291666 -0.127043,1.760519 -0.215905,0.468854 -0.76311,1.141395 -1.308488,1.342857 -0.54538,0.201463 -1.187155,0.19744 -1.799473,-0.08452 -0.612316,-0.281968 -1.019185,-0.768454 -1.220651,-1.313834 -0.201464,-0.545378 -0.0942,-1.413872 0.121697,-1.882724 0.215903,-0.468853 0.747196,-1.038664 1.292576,-1.240128 0.545378,-0.201464 1.206631,-0.218699 1.818949,0.06327 0.153081,0.07049 0.2916,0.172215 0.419825,0.267324 z m -8.041742,3.22914 c -0.312627,-0.295021 -1.008468,-0.255565 -1.303523,0.05703 L 31.403532,44.13843 c -0.355445,0.38797 -0.346884,0.93347 0.05703,1.303522 l 5.442204,4.985977 c 0.312625,0.295019 1.008466,0.255566 1.303523,-0.05703 l 18.69741,-20.408263 c 0.295023,-0.312628 0.255573,-1.008466 -0.05703,-1.303523 z m -0.623247,0.680276 5.442204,4.985976 -5.609224,6.12248 -5.442204,-4.985976 z m -6.232471,6.802755 5.442204,4.985977 -5.609223,6.122478 -5.442204,-4.985976 z m -6.23247,6.802754 5.442204,4.985977 -6.232471,6.802754 -5.442204,-4.985976 z m -9.800985,-5.264631 -9.580641,10.49997 0.148811,0.136334 -0.05842,0.06378 5.327,4.684918 -0.194765,0.212586 c -0.18043,0.05729 -3.204795,0.998361 -4.751366,1.942424 -0.169128,0.103241 -0.334292,0.222841 -0.515298,0.349048 L 4.73059,37.571284 10.52452,33.338532 z m 21.225003,19.641192 0.879741,17.776406 -3.770799,6.164488 -14.181274,-13.03154 c 0.165452,-0.266396 0.306152,-0.530619 0.435483,-0.774094 0.825691,-1.554415 1.689902,-4.513041 1.752121,-4.729341 l 4.684023,4.447763 0.04252,0.03896 0.533248,0.527647 0.07969,-0.0443 0.08503,0.0779 z M 30.172059,48.640928 c -0.298749,-0.273703 -0.785409,-0.252413 -1.059113,0.04634 l -1.480211,1.615654 c -0.273704,0.298748 -0.252413,0.785408 0.04634,1.059113 l 3.656481,3.349953 c 0.298748,0.273703 0.785409,0.252411 1.059112,-0.04634 l 1.480212,-1.615654 c 0.273703,-0.298748 0.252413,-0.785408 -0.04634,-1.059112 z m -0.495696,0.797135 3.401377,3.116235 -1.246494,1.36055 -3.401377,-3.116235 z M 4.107343,38.25156 18.139806,51.146765 c -1.363175,1.064751 -2.792172,2.44323 -3.475849,3.111013 L 2.9742705,39.872434 z M 32.172269,64.041971 46.225992,76.956652 44.726177,78.124221 29.334179,67.737277 c 0.265272,-0.321658 1.706157,-2.031954 2.83809,-3.695306 z" id="path8588" inkscape:connector-curvature="0" sodipodi:nodetypes="scscccccccccccccccccccccccccccccccccccccccccccccccscsccscccscccccccccccccccccccscccccccccccccccccccccccccccsccccccccccccccccccsccccccccccccccccccccccccccccccccccssssssssssssssssssssccssccccccccccccccccccccccccccsccccccccscccccccsssssssssccccccccccccccc"/>
  </g>
</svg>