<svg xmlns="http://www.w3.org/2000/svg" xmlns:xlink="http://www.w3.org/1999/xlink" version="1.1" id="Bear" x="0px" y="0px" width="73.3966745843px" height="100px" viewBox="0 0 309.361 421.981" enable-background="new 0 0 309.361 421.981" xml:space="preserve">
<path id="Foot_1_" d="M246.049,421.871c-7.196,0-13.958-1.678-20.099-4.988c-12.354-6.66-20.488-18.95-22.904-34.608  c-2.242-14.523,0.776-30.409,8.497-44.73c11.974-22.21,33.208-36.561,54.097-36.561c7.197,0,13.96,1.679,20.101,4.989  c12.354,6.658,20.487,18.949,22.903,34.607c2.242,14.522-0.776,30.408-8.497,44.729  C288.174,407.521,266.938,421.871,246.049,421.871z M265.64,322.983c-12.712,0-26.67,10.047-34.731,25  c-5.462,10.131-7.636,21.117-6.12,30.936c1.34,8.683,5.46,15.288,11.602,18.599c2.897,1.562,6.147,2.354,9.659,2.354  c12.713,0,26.671-10.047,34.732-25.001c5.462-10.131,7.636-21.117,6.12-30.935c-1.34-8.683-5.46-15.287-11.601-18.598  C272.402,323.775,269.152,322.983,265.64,322.983z"/>
<path id="Foot" d="M63.008,421.981c-21.078,0-42.35-14.595-54.194-37.182c-7.556-14.409-10.391-30.329-7.983-44.825  c2.596-15.629,10.871-27.825,23.3-34.342c6.024-3.159,12.63-4.761,19.636-4.761c21.078,0,42.35,14.595,54.193,37.182  c7.556,14.41,10.391,30.329,7.983,44.825c-2.596,15.629-10.871,27.825-23.3,34.342C76.621,420.38,70.014,421.981,63.008,421.981z   M43.768,322.872c-3.41,0-6.579,0.755-9.419,2.244c-6.179,3.24-10.375,9.797-11.814,18.464c-1.628,9.799,0.419,20.81,5.764,31.003  c7.966,15.192,21.915,25.398,34.71,25.398c3.41,0,6.579-0.755,9.419-2.245c6.179-3.239,10.375-9.796,11.814-18.462  c1.628-9.8-0.419-20.811-5.765-31.004C70.511,333.079,56.563,322.872,43.768,322.872z"/>
<path id="Arm" d="M252.711,276.886c-18.414,0-35.671-16.001-41.033-38.047c-2.884-11.853-2.05-23.97,2.35-34.12  c4.744-10.944,13.396-18.665,23.736-21.18c2.461-0.599,4.998-0.903,7.539-0.903c18.413,0,35.669,16.001,41.031,38.047  c6.197,25.486-5.505,50.294-26.085,55.301C257.786,276.582,255.25,276.886,252.711,276.886z M245.303,202.636  c-0.949,0-1.895,0.113-2.811,0.337c-5.748,1.397-8.804,6.678-10.114,9.7c-2.64,6.088-3.101,13.902-1.267,21.438  c3.158,12.984,12.443,22.774,21.6,22.774c0.948,0,1.895-0.113,2.811-0.336c9.698-2.359,14.909-16.62,11.379-31.142  C263.742,212.427,254.458,202.636,245.303,202.636z"/>
<path id="Arm_1_" d="M56.367,276.842c-2.666,0-5.323-0.334-7.898-0.992c-10.31-2.633-18.872-10.451-23.49-21.451  c-4.282-10.199-4.977-22.326-1.958-34.146c5.649-22.121,22.548-37.572,41.095-37.572c2.666,0,5.324,0.334,7.899,0.992  c10.309,2.632,18.871,10.45,23.489,21.451c4.282,10.199,4.978,22.325,1.958,34.146C91.812,261.391,74.912,276.842,56.367,276.842z   M64.116,202.68c-9.102,0-18.438,9.683-21.717,22.522c-1.92,7.517-1.548,15.336,1.02,21.454c1.275,3.038,4.271,8.353,9.999,9.815  c0.959,0.245,1.951,0.37,2.949,0.37c9.101,0,18.438-9.683,21.718-22.523c1.919-7.516,1.547-15.335-1.021-21.454  c-1.275-3.038-4.27-8.353-9.998-9.814C66.105,202.805,65.114,202.68,64.116,202.68z"/>
<path id="Ear_1_" d="M252.331,7.918c-7.822-5.02-16.834-7.785-25.375-7.785c-11.742,0-21.72,5.052-27.374,13.862  c-10.175,15.857-2.95,38.032,16.448,50.484c7.821,5.021,16.833,7.785,25.374,7.785c11.742,0,21.72-5.052,27.375-13.862  C278.956,42.545,271.731,20.371,252.331,7.918z M254.576,52.57c-5.7,8.881-20.346,9.645-32.714,1.707  c-12.368-7.939-17.774-21.57-12.076-30.451c5.698-8.878,20.345-9.643,32.713-1.705C254.867,30.06,260.274,43.692,254.576,52.57z"/>
<path id="Ear" d="M109.933,13.566C104.267,4.945,94.395,0,82.848,0c-8.678,0-17.813,2.863-25.723,8.06  c-8.455,5.555-14.928,13.342-18.226,21.927c-3.883,10.106-3.036,20.579,2.322,28.732c5.667,8.623,15.54,13.567,27.087,13.567  c8.677,0,17.812-2.862,25.722-8.059c8.456-5.556,14.929-13.343,18.227-21.928C116.138,32.194,115.291,21.722,109.933,13.566z   M88.067,54.109c-12.282,8.07-26.934,7.464-32.729-1.354c-5.794-8.816-0.534-22.508,11.748-30.578  c12.283-8.07,26.935-7.465,32.729,1.352C105.609,32.348,100.351,46.039,88.067,54.109z"/>
<path id="Bottom" d="M216.769,352.93c-13.37,22.996-36.097,38.133-61.89,38.133c-26.933,0-50.524-16.504-63.608-41.228  c4.432,11.203,5.518,22.672,3.56,32.623c17.025,13.03,37.511,20.635,59.557,20.635c22.161,0,42.748-7.681,59.825-20.835  C212.495,373.268,213.279,363.051,216.769,352.93z"/>
<path id="Top" d="M154.879,219.063c41.141,0,74.491,38.503,74.491,86c0,12.206-2.216,23.81-6.188,34.326  c8.727-14.216,21.63-23.691,34.529-26.513c2.393-10.135,3.676-20.787,3.676-31.783c0-5.303-0.298-10.525-0.873-15.649  c-0.853,0.325-1.729,0.604-2.63,0.823c-15.248,3.709-31.586-9.628-36.49-29.791c-3.945-16.214,0.713-31.896,10.618-39.347  c-6.957-8.358-14.946-15.587-23.728-21.438c29.723-15.287,49.56-42.836,49.56-74.283c0-48.055-46.319-87.012-103.457-87.012  c-57.138,0-103.457,38.957-103.457,87.012c0,31.446,19.836,58.995,49.557,74.282c-8.688,5.788-16.599,12.926-23.503,21.172  c10.251,7.369,15.005,23.426,10.79,39.933c-5.136,20.104-21.625,33.252-36.83,29.367c-0.915-0.233-1.802-0.526-2.665-0.869  c-0.587,5.173-0.892,10.446-0.892,15.801c0,10.902,1.261,21.467,3.614,31.523c13.914,2.809,27.88,13.469,36.635,29.485  c-4.645-11.218-7.25-23.776-7.25-37.039C80.388,257.565,113.738,219.063,154.879,219.063z M189.513,93.795  c5.256,0,9.518,4.261,9.518,9.518s-4.262,9.518-9.518,9.518c-5.257,0-9.518-4.261-9.518-9.518S184.256,93.795,189.513,93.795z   M154.638,108.813c23.334,0,42.25,15.223,42.25,34s-18.916,34-42.25,34s-42.25-15.223-42.25-34S131.304,108.813,154.638,108.813z   M119.888,93.795c5.257,0,9.518,4.261,9.518,9.518s-4.261,9.518-9.518,9.518c-5.256,0-9.518-4.261-9.518-9.518  S114.632,93.795,119.888,93.795z"/>
<ellipse id="Nose" cx="155.388" cy="131.813" rx="18" ry="11.75"/>
<path fill="none" d="M156.721,143.063c-0.002,4.049,0.334,7.935,0.334,12"/>
<path d="M170.419,158.484c-3.791,1.238-9.957,2.164-13.531-0.314c0-2.682,0-5.363,0-8.045c0-1.935-3-1.935-3,0  c0,2.682,0,5.363,0,8.045c-3.574,2.479-9.74,1.553-13.531,0.314c-1.844-0.603-2.628,2.295-0.797,2.893  c4.756,1.555,11.354,2.16,15.828-0.649c4.474,2.81,11.072,2.204,15.828,0.649C173.047,160.779,172.263,157.882,170.419,158.484z"/>
</svg>