<svg xmlns="http://www.w3.org/2000/svg" xmlns:xlink="http://www.w3.org/1999/xlink" version="1.1" x="0px" y="0px" width="100px" height="100px" viewBox="0 0 100 100" enable-background="new 0 0 100 100" xml:space="preserve">
<g id="Layer_2">
</g>
<g id="Layer_1">
	<g>
		<path d="M50,100c-27.614,0-50,22.386-50,50s22.386,50,50,50s50-22.386,50-50S77.614,100,50,100z M50,195    c-24.813,0-45-20.187-45-45c0-24.813,20.187-45,45-45c24.813,0,45,20.187,45,45C95,174.813,74.813,195,50,195z"/>
		<path d="M-50,100c-27.614,0-50,22.386-50,50s22.386,50,50,50s50-22.386,50-50S-22.386,100-50,100z M-50,195    c-24.813,0-45-20.187-45-45c0-24.813,20.187-45,45-45c24.813,0,45,20.187,45,45C-5,174.813-25.187,195-50,195z"/>
		<path d="M150,100c-27.614,0-50,22.386-50,50s22.386,50,50,50s50-22.386,50-50S177.614,100,150,100z M150,195    c-24.812,0-45-20.187-45-45c0-24.813,20.188-45,45-45c24.813,0,45,20.187,45,45C195,174.813,174.813,195,150,195z"/>
		<path d="M0,50C0,22.386-22.386,0-50,0s-50,22.386-50,50s22.386,50,50,50S0,77.614,0,50z M-50,95c-24.813,0-45-20.187-45-45    c0-24.813,20.187-45,45-45C-25.187,5-5,25.187-5,50C-5,74.813-25.187,95-50,95z"/>
		<path d="M150,100c27.614,0,50-22.386,50-50S177.614,0,150,0s-50,22.386-50,50S122.386,100,150,100z M150,5    c24.813,0,45,20.187,45,45c0,24.813-20.187,45-45,45c-24.812,0-45-20.187-45-45C105,25.187,125.188,5,150,5z"/>
		<path d="M50,100c27.614,0,50-22.386,50-50S77.614,0,50,0S0,22.386,0,50S22.386,100,50,100z M50,5c24.813,0,45,20.187,45,45    c0,24.813-20.187,45-45,45C25.187,95,5,74.813,5,50C5,25.187,25.187,5,50,5z"/>
		<path d="M20,50c0,1.381,1.119,2.5,2.5,2.5H25V60c0,4.143,3.358,7.5,7.5,7.5S40,64.143,40,60v-7.5h37.5c1.381,0,2.5-1.119,2.5-2.5    s-1.119-2.5-2.5-2.5h-55C21.119,47.5,20,48.619,20,50z M35,52.5V60c0,1.379-1.122,2.5-2.5,2.5S30,61.379,30,60v-7.5H35z"/>
		<path d="M30,37.5c0-0.692-0.281-1.317-0.735-1.77l-7.068-7.068c-0.977-0.977-2.559-0.978-3.536-0.001s-0.976,2.56,0,3.536    L21.464,35H17.5c-1.381,0-2.5,1.119-2.5,2.5s1.119,2.5,2.5,2.5h10C28.881,40,30,38.881,30,37.5z"/>
		<path d="M72.5,40h10c1.381,0,2.5-1.119,2.5-2.5S83.881,35,82.5,35h-3.965l2.803-2.803c0.977-0.977,0.978-2.56,0.001-3.536    s-2.56-0.976-3.536,0.001l-7.067,7.068C70.281,36.183,70,36.808,70,37.5C70,38.881,71.119,40,72.5,40z"/>
	</g>
</g>
</svg>