<svg xmlns="http://www.w3.org/2000/svg" xmlns:xlink="http://www.w3.org/1999/xlink" version="1.1" id="Capa_1" x="0px" y="0px" width="54.186px" height="90.71px" viewBox="0 0 54.186 90.71" enable-background="new 0 0 54.186 90.71" xml:space="preserve">
<path fill="#000000" d="M12.992,42.351L12.992,42.351c0.076,0.059,5.911,5.178,14.688,5.191c8.846-0.021,14.447-6.103,14.518-6.163  c0.314-0.336,0.295-0.865-0.04-1.178c-0.341-0.313-0.866-0.292-1.179,0.044c-0.002,0-0.305,0.327-0.92,0.854  c-1.854,1.594-6.354,4.778-12.379,4.771c-4.053,0.002-7.459-1.197-9.858-2.401c-1.195-0.601-2.139-1.204-2.777-1.651  c-0.637-0.445-0.948-0.725-0.951-0.723c-0.347-0.305-0.876-0.269-1.178,0.078c-0.304,0.347-0.27,0.874,0.081,1.178H12.992z   M27.132,62.998c-4.29,0-7.77,3.479-7.77,7.769c0,4.291,3.479,7.771,7.77,7.771c4.289,0,7.771-3.479,7.771-7.771  C34.899,66.478,31.421,62.998,27.132,62.998z M27.132,75.468c-2.596,0-4.701-2.105-4.701-4.703c0-2.596,2.105-4.699,4.701-4.699  c2.597,0,4.701,2.104,4.701,4.699C31.833,73.363,29.728,75.468,27.132,75.468z M44.76,47.703l0.019-0.102  c5.756-4.967,9.404-12.309,9.406-20.51C54.181,12.129,42.054,0,27.092,0C12.126,0,0,12.129,0,27.092  c0,0.465,0.015,0.927,0.039,1.386c0.018,0.341,0.047,0.678,0.077,1.014c0.007,0.082,0.012,0.163,0.021,0.244  C0.834,36.924,4.335,43.29,9.541,47.72l0.069,0.385C2.076,54.5,0.22,65.363,0.21,77.207c0.083,1.15,0.723,1.48,0.99,1.697  c0.574,0.359,1.094,0.521,1.703,0.725c0.896,0.283,1.917,0.543,2.662,0.783c0.12,0.039,0.231,0.076,0.334,0.111  C6.253,84.9,8.41,87.882,11.6,89.207c3.318,1.431,7.393,1.486,12.047,1.504c1.144,0,2.322-0.006,3.538-0.006  c5.557-0.016,10.458,0.037,14.394-1.268c1.96-0.656,3.716-1.717,4.979-3.361c1.129-1.469,1.812-3.326,2.06-5.553  c0.51-0.178,1.378-0.449,2.144-0.662c0.608-0.182,1.195-0.363,1.733-0.596c0.271-0.119,0.53-0.242,0.834-0.469  c0.258-0.213,0.793-0.617,0.836-1.592c-0.002-6.562-0.439-12.746-2.078-18.111C50.708,54.564,48.39,50.595,44.76,47.703z   M3.415,28.934l4.654-6.931c0,0,5.048,3.653,15.731,6.042C34.489,30.434,44.55,27.93,44.55,27.93s2.844,5.298,4.926,7.09  c-1.512,4.251-4.191,7.945-7.66,10.692l-0.105-0.064l-0.893,0.65c-3.899,2.834-8.662,4.521-13.839,4.543  c-0.216,0-0.431-0.008-0.645-0.016c-0.205-0.005-0.408-0.015-0.61-0.025C13.853,50.111,4.34,40.739,3.415,28.934z M42.594,50.244  l-1.769,9.547h-6.507l-1.655-2.926l-11.181,0.057l-1.208,2.869H13.47l-1.698-9.16c0.238-0.2,0.469-0.405,0.719-0.592  c3.804,2.392,8.25,3.855,13.016,4.097c0.312,0.02,0.627,0.024,0.943,0.032c0.146,0.002,0.285,0.017,0.431,0.017  c0.022,0,0.047-0.002,0.069-0.002c0.047,0,0.095,0.004,0.142,0.004c5.485-0.002,10.59-1.638,14.854-4.438  C42.17,49.904,42.379,50.076,42.594,50.244z M48.342,77.099c-0.152,0.047-0.3,0.098-0.447,0.146l-2.022-14.74  c0,0,0.272,5.91,0.465,9.74c0.145,2.856-0.216,5.071-0.406,6.016c-0.236,0.234-0.515,0.605-0.572,1.254  c-0.137,2.113-0.67,3.516-1.442,4.525c-1.144,1.496-3.084,2.381-5.992,2.852c-2.882,0.467-6.572,0.479-10.734,0.475  c-1.226,0-2.404,0.008-3.538,0.008c-4.593,0.019-8.378-0.172-10.706-1.223c-2.265-1.076-3.481-2.518-3.756-6.621  c-0.057-0.424-0.174-0.727-0.313-0.949l0.268,0.176c0,0-0.71-2.68-0.52-6.512c0.19-3.83,0.465-9.74,0.465-9.74L7.045,77.363  l0.113,0.074c-0.812-0.309-1.682-0.51-2.537-0.775c-0.401-0.115-0.781-0.231-1.073-0.334c0.079-10.299,1.779-19.002,6.781-24.344  l1.466,7.92v18.4h9.703c-0.994-0.854-1.793-1.93-2.318-3.15h-4.403V62.998h7.276l1.547-3.209h7.107l1.663,3.209h7.056v12.156H35.19  c-0.524,1.221-1.325,2.295-2.319,3.15h9.705V59.789H42.52l1.528-8.266c2.246,2.25,3.784,5.107,4.845,8.547  c1.416,4.607,1.893,10.197,1.93,16.27C50.209,76.558,49.222,76.83,48.342,77.099z M33.344,39.891c1.564,0,2.834-2.055,2.834-4.591  s-1.27-4.592-2.834-4.592c-1.562,0-2.832,2.056-2.832,4.592S31.779,39.891,33.344,39.891z M20.84,39.891  c1.563,0,2.833-2.055,2.833-4.591s-1.27-4.592-2.833-4.592c-1.564,0-2.833,2.056-2.833,4.592S19.275,39.891,20.84,39.891z"/>
</svg>