<svg xmlns="http://www.w3.org/2000/svg" xmlns:xlink="http://www.w3.org/1999/xlink" version="1.1" id="Layer_1" x="0px" y="0px" width="100px" height="64.115px" viewBox="0 0 100 64.115" enable-background="new 0 0 100 64.115" xml:space="preserve">
<path fill="#000000" d="M0.005,0H100v64.113h-9.589c1.316-0.151,2.647-0.104,3.967-0.215c0.705-0.07,1.551,0.115,2.117-0.42  c1.018-1.049,1.248-2.707,0.793-4.066c-0.772-2.314-0.966-4.762-1.468-7.14c-0.326-1.816-0.567-3.649-0.858-5.472  c1.442-1.021,3.162-1.648,4.441-2.9c0.221-0.273,0.59-0.545,0.494-0.943c-0.176-0.54-0.59-0.949-0.923-1.393  c-0.278-0.348-0.396-0.789-0.604-1.174c-0.51-0.959-1.143-1.849-1.598-2.835c-0.43-0.898-0.701-1.868-0.814-2.856  c-0.166-1.837,0.184-3.661,0.299-5.487c0.281-4.168-0.605-8.417-2.572-12.108c-1.974-3.807-4.869-7.095-8.244-9.723  c-1.787-1.321-3.639-2.569-5.614-3.593c-4.103-2.061-8.578-3.578-13.205-3.686c-3.28-0.212-6.579,0.022-9.821,0.549  c-1.922,0.303-3.802,0.83-5.648,1.437c-3.48,1.141-6.836,2.745-9.757,4.971c-1.319,1.016-2.577,2.124-3.694,3.359  c-1.691,1.821-3.005,3.956-4.111,6.172c-1.481,3.082-2.384,6.438-2.662,9.846c-0.063,0.349-0.001,0.803-0.35,1.017  c-0.758,0.39-1.641,0.298-2.465,0.282c-0.711-0.086-1.533-0.11-2.052-0.679c-0.992-1.047-1.245-2.52-1.63-3.854  c-0.38-1.559-0.64-3.174-1.357-4.624c-0.708-1.37-1.715-2.668-3.124-3.367c-1.851-0.95-3.991-1.143-6.038-0.959  c-2.011,0.253-4.003,0.738-5.858,1.565c-1.946,0.899-3.882,1.928-5.453,3.411c-1.36,1.272-2.523,2.947-2.592,4.868V0H0.005z"/>
<path fill="#000000" d="M56.798,0.651c3.242-0.526,6.541-0.762,9.821-0.549c4.626,0.107,9.103,1.625,13.205,3.686  c1.977,1.024,3.827,2.272,5.614,3.593c3.375,2.628,6.272,5.916,8.244,9.723c1.967,3.691,2.855,7.94,2.572,12.108  c-0.115,1.826-0.465,3.65-0.299,5.486c0.113,0.988,0.387,1.959,0.814,2.857c0.453,0.986,1.088,1.875,1.598,2.835  c0.211,0.386,0.326,0.826,0.604,1.174c0.333,0.444,0.747,0.854,0.922,1.393c0.097,0.397-0.272,0.669-0.493,0.944  c-1.277,1.25-2.997,1.879-4.441,2.899c0.291,1.822,0.532,3.655,0.858,5.472c0.502,2.378,0.692,4.826,1.468,7.141  c0.455,1.357,0.225,3.018-0.793,4.066c-0.566,0.533-1.412,0.35-2.117,0.418c-1.319,0.111-2.65,0.063-3.967,0.216h-2.895  c-1.064-0.021-2.125-0.132-3.192-0.109c-0.591,0.024-1.294-0.094-1.649-0.622c-0.329-0.511-0.168-1.154-0.047-1.705  c-0.682,0.146-1.352,0.33-2.024,0.5c-0.54,0.139-1.067-0.1-1.562-0.291c-0.591-0.24-1.279-0.539-1.498-1.192  c-0.226-0.993,0.298-1.917,0.704-2.785c0.346-0.765,0.865-1.538,0.682-2.421c-0.062-0.594-0.714-0.785-1.204-0.902  c-1.794-0.248-3.529,0.403-5.196,0.982c-1.566,0.544-3.157,1.102-4.824,1.238c-1.196,0.074-2.392-0.104-3.588-0.104  c-2.889-0.181-5.781-0.412-8.636-0.911c-2.678-0.578-5.386-1.184-7.845-2.432c-0.4,1.234,0.043,2.498,0.498,3.648  c0.28,0.711,0.623,1.42,0.683,2.195c0.046,0.982,0.243,2.018-0.158,2.959c-0.107,0.298-0.417,0.42-0.696,0.5  c-2.466,0.816-5.058,1.245-7.653,1.332c-1.315-0.008-2.632,0.064-3.939-0.092c-0.424-0.046-0.875,0.013-1.273-0.168  c-0.538-0.513-0.785-1.244-1.115-1.894c-0.163-0.3-0.489-0.559-0.85-0.468c-0.502,0.139-1.006,0.369-1.539,0.26  c-0.909-0.156-1.891-0.094-2.72-0.555c-0.541-0.336-0.527-1.098-0.393-1.646c0.54-1.487,1.747-2.707,1.959-4.315  c0.011-1.221-0.526-2.348-0.87-3.496c-0.335-1.071-0.901-2.226-0.477-3.356c0.465-0.865,1.452-1.326,1.864-2.231  c0.135-0.438-0.15-0.829-0.32-1.208c-0.56-1.146-0.873-2.398-1.477-3.524c-0.283-0.534-0.55-1.106-1.043-1.481  c-1.702-1.336-3.647-2.312-5.593-3.234c-0.855-0.414-1.728-0.793-2.613-1.141c-1.49-0.584-2.974-1.19-4.506-1.662  c-0.777-0.236-1.572-0.625-2.408-0.439c-0.962,0.203-1.863,0.613-2.788,0.935c-0.692,0.246-1.424,0.525-2.172,0.382  c-1.383-0.288-2.749-0.765-3.922-1.565c-1.604-1.127-2.637-2.901-3.261-4.728C0.412,26.98,0.197,25.537,0,24.1v-0.007  c0.069-1.92,1.232-3.596,2.591-4.869c1.572-1.482,3.506-2.511,5.454-3.411c1.856-0.826,3.848-1.312,5.857-1.565  c2.046-0.184,4.189,0.009,6.039,0.959c1.409,0.699,2.415,1.997,3.124,3.367c0.72,1.45,0.979,3.066,1.356,4.624  c0.388,1.335,0.639,2.807,1.631,3.854c0.519,0.569,1.341,0.593,2.053,0.679c0.823,0.017,1.707,0.107,2.465-0.282  c0.347-0.213,0.285-0.668,0.35-1.017c0.277-3.408,1.178-6.764,2.662-9.846c1.106-2.216,2.42-4.351,4.111-6.172  c1.118-1.236,2.375-2.344,3.695-3.359c2.921-2.226,6.277-3.83,9.757-4.971C52.997,1.479,54.876,0.954,56.798,0.651L56.798,0.651z"/>
<path fill="#000000" d="M0.005,24.101c0.196,1.437,0.411,2.88,0.854,4.266c0.624,1.825,1.657,3.6,3.261,4.727  c1.173,0.801,2.539,1.278,3.922,1.565c0.749,0.144,1.48-0.136,2.172-0.381c0.926-0.322,1.826-0.734,2.788-0.936  c0.834-0.186,1.63,0.204,2.409,0.438c1.532,0.473,3.016,1.078,4.506,1.662c0.886,0.35,1.757,0.728,2.613,1.141  c1.946,0.925,3.891,1.9,5.593,3.235c0.493,0.376,0.759,0.948,1.042,1.481c0.605,1.126,0.917,2.379,1.478,3.524  c0.169,0.378,0.454,0.77,0.32,1.208c-0.413,0.906-1.398,1.365-1.863,2.23c-0.427,1.133,0.14,2.286,0.476,3.357  c0.344,1.148,0.881,2.275,0.87,3.496c-0.212,1.607-1.419,2.828-1.959,4.316c-0.135,0.549-0.146,1.31,0.394,1.646  c0.831,0.461,1.812,0.397,2.72,0.555c0.532,0.107,1.037-0.122,1.54-0.26c0.359-0.092,0.687,0.168,0.85,0.467  c0.331,0.65,0.577,1.381,1.115,1.894c0.397,0.181,0.85,0.122,1.273,0.167c1.308,0.158,2.625,0.084,3.94,0.093  c2.594-0.087,5.187-0.515,7.653-1.333c0.279-0.078,0.587-0.2,0.695-0.498c0.4-0.943,0.204-1.977,0.157-2.959  c-0.06-0.775-0.401-1.485-0.682-2.196c-0.455-1.149-0.898-2.413-0.498-3.648c2.458,1.249,5.167,1.854,7.845,2.431  c2.854,0.5,5.746,0.73,8.635,0.912c1.197,0.001,2.392,0.18,3.588,0.105c1.667-0.139,3.258-0.695,4.824-1.239  c1.665-0.579,3.402-1.23,5.196-0.981c0.49,0.115,1.142,0.309,1.204,0.9c0.186,0.883-0.336,1.656-0.681,2.422  c-0.407,0.867-0.931,1.791-0.704,2.785c0.218,0.654,0.906,0.953,1.498,1.193c0.492,0.189,1.021,0.43,1.562,0.29  c0.674-0.17,1.345-0.354,2.024-0.501c-0.121,0.551-0.282,1.195,0.048,1.706c0.355,0.527,1.058,0.646,1.649,0.622  c1.064-0.023,2.125,0.087,3.191,0.109H0.008V24.101H0.005z"/>
</svg>