<svg xmlns="http://www.w3.org/2000/svg" xmlns:xlink="http://www.w3.org/1999/xlink" version="1.1" id="Layer_1" x="0px" y="0px" width="60.109px" height="100px" viewBox="0 0 60.109 100" enable-background="new 0 0 60.109 100" xml:space="preserve">
<path d="M29.086,1.136h1.947c0.251,0,0.454-0.254,0.454-0.567C31.487,0.254,31.284,0,31.033,0h-1.947  c-0.251,0-0.455,0.254-0.455,0.568C28.632,0.882,28.835,1.136,29.086,1.136z"/>
<path d="M30.149,98.089c-5.513,0-10.124-1.431-11.294-3.346c-0.188,0.308-0.291,0.627-0.291,0.956c0,2.375,5.187,4.301,11.585,4.301  s11.585-1.926,11.585-4.301c0-0.329-0.103-0.648-0.29-0.956C40.272,96.658,35.662,98.089,30.149,98.089z"/>
<path d="M55.558,14.534c-0.147-0.074-0.291-0.125-0.432-0.164c-0.922-0.73-2.505-1.566-5.197-2.105c0,0-10.964-2.079-12.287-3.97  l-1.323,7.373c0,0-0.441,6.833-1.899,14.434c0.001-0.085,0.001-0.17,0.001-0.256c0-7.739-1.107-14.334-2.661-16.859l0.682-0.534  l3.271,4.614l1.42-9.304l-2.681-3.881c-0.172-1.245-1.403-2.211-2.898-2.211h-3.245c-1.541,0-2.799,1.025-2.91,2.324l-2.603,3.768  l1.42,9.304l3.315-4.677l1.194,1.004c-1.412,2.739-2.404,8.923-2.431,16.145c-1.684-7.513-2.647-13.872-2.647-13.872l-1.323-7.373  c-1.323,1.891-12.288,3.97-12.288,3.97c-2.8,0.56-4.4,1.442-5.305,2.192c-0.059,0.024-0.117,0.046-0.177,0.076  c0,0-7.75,0.189-3.025,59.169l3.781,2.269l2.458-2.646c0,0,0.997-30.353,3.238-34.972c1.022,3.946,1.592,7.886,0.921,10.775  c-1.891,8.128-1.513,27.033-1.513,27.033c1.371,5.799,9.211,7.774,15.878,8.389c0,0.039,0.001,0.078,0.001,0.117  c0,0,0.881,0.08,2.3,0.116v9.766h0.052c0.124,0.212,0.758,0.374,1.527,0.374c0.77,0,1.403-0.162,1.526-0.374h0.01v-0.026  c0.006-0.017,0.017-0.031,0.017-0.048s-0.011-0.031-0.017-0.048v-9.626c2.63,0.011,4.414-0.134,4.414-0.134  c0.02-0.077,0.036-0.159,0.054-0.24c5.738-0.736,12.086-2.808,13.376-8.267c0,0,1.126-19.471-0.764-27.599  c-0.622-2.672-0.262-6.183,0.509-9.746c2.107,5.881,3.048,34.51,3.048,34.51l2.458,2.646l3.78-2.269  C63.308,14.723,55.558,14.534,55.558,14.534z M34.148,4.902l0.324,0.47l1.791,2.592l-1.061,6.954l-4.329-6.106L30.51,8.298  L34.148,4.902z M24.724,14.917l-1.062-6.954l1.725-2.496l0.391-0.566l3.638,3.396l-0.364,0.513L24.724,14.917z M30.822,14.274  c0.024,0.247,0.038,0.518,0.038,0.803c0,1.126-0.211,2.04-0.472,2.04c-0.26,0-0.472-0.913-0.472-2.04  c0-0.322,0.018-0.625,0.048-0.896l-0.976,0.663l1.32-2.1l1.479,2.297L30.822,14.274z M39.601,29.45l3.502-1.37l1.066,0.822  l1.675-1.918l1.675,2.466H39.601z"/>
</svg>