<svg xmlns="http://www.w3.org/2000/svg" xmlns:xlink="http://www.w3.org/1999/xlink" version="1.1" id="Calque_1" x="0px" y="0px" width="100px" height="100px" viewBox="0 0 100 100" enable-background="new 0 0 100 100" xml:space="preserve">
<g id="path3414">
	<path fill="#000000" d="M49.899,89.102c-8.489,0-16.975-2.507-24.182-7.273c-9.371-6.196-15.715-15.505-17.866-26.21   C5.793,45.373,7.994,34.455,13.89,25.664c5.702-8.503,14.22-14.227,23.985-16.117c9.32-1.805,19.218,0.266,27.153,5.679   c7.636,5.208,12.737,12.938,14.366,21.764c1.549,8.397-0.393,17.273-5.325,24.35c-4.717,6.769-11.658,11.247-19.547,12.61   c-7.476,1.288-15.332-0.525-21.55-4.981c-5.898-4.228-9.749-10.383-10.843-17.334c-1.032-6.559,0.663-13.394,4.651-18.752   c3.741-5.027,9.114-8.246,15.13-9.064c5.644-0.766,11.462,0.816,15.958,4.346c4.152,3.262,6.731,7.858,7.263,12.941   c0.495,4.75-0.996,9.55-4.091,13.173c-2.796,3.272-6.624,5.194-10.78,5.414c-3.836,0.199-7.724-1.274-10.416-3.949   c-2.375-2.361-3.601-5.443-3.451-8.678c0.14-3.017,1.787-6.054,4.196-7.737c2.032-1.419,4.427-1.799,6.742-1.07   c1.924,0.606,2.992,2.657,2.386,4.58c-0.606,1.924-2.659,2.993-4.58,2.386c-0.101-0.032-0.162-0.052-0.367,0.091   c-0.553,0.386-1.048,1.341-1.083,2.086c-0.054,1.183,0.384,2.246,1.303,3.159c1.235,1.228,3.111,1.921,4.884,1.837   c2.739-0.145,4.563-1.637,5.611-2.864c1.775-2.077,2.665-4.944,2.379-7.671c-0.322-3.1-1.924-5.925-4.508-7.956   c-2.95-2.316-6.762-3.359-10.462-2.853c-4.055,0.551-7.696,2.749-10.255,6.187c-2.824,3.794-4.025,8.625-3.296,13.257   c0.787,5.002,3.586,9.454,7.882,12.533c4.64,3.324,10.491,4.682,16.053,3.72c5.951-1.028,11.206-4.433,14.798-9.588   c3.825-5.487,5.331-12.358,4.134-18.85c-1.271-6.896-5.284-12.953-11.298-17.055c-6.338-4.323-14.229-5.977-21.65-4.542   c-7.84,1.518-14.697,6.139-19.307,13.014c-4.819,7.187-6.622,16.098-4.944,24.449c1.764,8.785,6.997,16.44,14.733,21.557   c8.036,5.315,17.967,7.261,27.248,5.341C73.65,77.631,86.421,62.51,87.356,45.121c0.108-2.014,1.821-3.555,3.843-3.45   c2.014,0.108,3.559,1.829,3.45,3.843c-1.11,20.645-16.325,38.61-36.177,42.716C55.647,88.813,52.773,89.102,49.899,89.102z"/>
</g>
</svg>