<svg xmlns="http://www.w3.org/2000/svg" xmlns:xlink="http://www.w3.org/1999/xlink" version="1.1" id="Layer_1" x="0px" y="0px" width="66.667px" height="100px" viewBox="0 0 66.667 100" enable-background="new 0 0 66.667 100" xml:space="preserve">
<path d="M33.333,0C33.333,0,0,48.258,0,66.667C0,85.077,14.925,100,33.333,100s33.333-14.923,33.333-33.333  C66.667,48.258,33.333,0,33.333,0z M13.889,59.723c0-3.068,2.487-5.556,5.556-5.556S25,56.654,25,59.723  c0,3.069-2.487,5.555-5.555,5.555S13.889,62.792,13.889,59.723z M33.333,86.111c-7.671,0-13.889-6.218-13.889-13.889  c0,0,6.944,2.777,13.889,2.777s13.889-2.777,13.889-2.777C47.222,79.894,41.005,86.111,33.333,86.111z M47.222,65.277  c-3.067,0-5.556-2.485-5.556-5.555c0-3.068,2.488-5.556,5.556-5.556c3.068,0,5.556,2.487,5.556,5.556  C52.778,62.792,50.291,65.277,47.222,65.277z"/>
</svg>