<?xml version="1.0" encoding="utf-8"?>
<!-- Generator: Adobe Illustrator 15.1.0, SVG Export Plug-In . SVG Version: 6.00 Build 0)  -->
<!DOCTYPE svg PUBLIC "-//W3C//DTD SVG 1.1//EN" "http://www.w3.org/Graphics/SVG/1.1/DTD/svg11.dtd">
<svg version="1.1" id="Calque_1" xmlns="http://www.w3.org/2000/svg" xmlns:xlink="http://www.w3.org/1999/xlink" x="0px" y="0px"
	 width="150.594px" height="140.36px" viewBox="0 0 150.594 140.36" enable-background="new 0 0 150.594 140.36"
	 xml:space="preserve">
<g>
	<path d="M88.669,35.505c-2.592-1.097-5.329-1.842-8.151-2.227c-0.006,0.25-0.012,0.502-0.018,0.746
		c2.689,0.374,5.297,1.083,7.77,2.118C88.417,35.932,88.553,35.719,88.669,35.505z M81.648,52.571l-0.989,0.05l-0.297,0.494h-0.203
		l-0.021,1.6l1.017-0.463L81.648,52.571z M85.111,53.214l-0.347,0.247l-0.147-0.197l-0.939,1.583l0.84-0.147l0.05-0.594l0.643-0.644
		l0.495-0.445l-0.297-0.395L85.111,53.214z M86.25,52.324h0.742l0.148-0.297l-0.643-0.147l-0.247-0.396l-0.792,0.05l0.396,0.544
		v0.643L86.25,52.324z M80.313,75.821l0.099,0.395l-0.045,0.181c1.608-0.79,1.838-1.248,1.822-1.456
		c-0.054-0.635-0.998-1.291-2.348-1.93c-0.008,0.483-0.016,0.913-0.023,1.298l0.27,0.288c-0.09,0.038-0.185,0.068-0.276,0.104
		c-0.005,0.294-0.011,0.562-0.015,0.799c0.158-0.056,0.318-0.104,0.473-0.17L80.313,75.821z M80.907,74.188l0.03,0.002
		c-0.02,0.01-0.038,0.022-0.059,0.032L80.907,74.188z M52.039,67.297l0.425,1.115l-0.265,0.372l0.106,0.584l-0.159,0.853
		l-0.319,0.212l0.532,1.381l0.16-0.053l-0.16-1.223l0.425-2.073l-0.319-1.062L52.039,67.297z M52.464,72.08l-0.212,0.16l-0.16,0.212
		l-0.371-0.797l-0.159,0.159l0.159,0.69l0.212,0.427l-0.16,0.265l0.425,0.531l0.265,0.585l0.213-0.054l0.053-0.903l-0.212-0.479
		L52.464,72.08z M79.476,97.12c0,0.01,0,0.018,0,0.028c0.017-0.002,0.033-0.003,0.049-0.005
		C79.51,97.134,79.492,97.126,79.476,97.12z M71.225,54.967l0.061,0.333c-0.659,0.326-1.267,0.731-1.842,1.178
		c-0.008,0.777,0.295,1.603,0.883,2.356c0.251,0.322,0.545,0.599,0.918,0.861l1.053-0.456l-0.08-4.522l-0.355,0.037l0.106-0.531
		l0.234-0.364l-0.008-0.457l-0.226,0.183l-0.478,0.745L71.225,54.967z M71.278,56.295l-0.042-0.138
		c0.019-0.01,0.036-0.022,0.055-0.032L71.278,56.295z M50.877,40.726c0.045-0.335,0.109-0.621,0.182-0.872l-0.433-0.433
		c-0.322,0.067-0.646,0.108-0.965,0.088L50.877,40.726z M68.051,68.913c-0.221-0.081-0.438-0.165-0.649-0.251l0.05,0.602
		L68.051,68.913z M67.38,68.652c-0.146-0.059-0.293-0.12-0.437-0.181l-0.076,0.952L67.38,68.652z M105.244,69.488l-1.385,0.495
		l0.346,0.544l0.99,0.099L105.244,69.488z M125.322,44.373c-2.688-6.356-6.538-12.066-11.439-16.969
		c-4.903-4.902-10.612-8.75-16.969-11.439c-5.031-2.127-10.302-3.446-15.724-3.953c-0.042,0.266-0.078,0.512-0.105,0.737
		c5.359,0.498,10.568,1.798,15.539,3.901c6.212,2.627,11.794,6.381,16.598,11.153l-6.141,6.143l-0.015-0.435l-0.504,0.051
		l-0.605-0.303l-0.909-0.252l1.262-0.201l-0.252-0.354h-0.707l0.202-0.555l-0.606-1.514l-1.615-1.969l-1.565-1.01l-0.857-0.504
		l-0.656,0.152v-0.404l-1.514-0.656l-0.597,0.557c1.111,1.891,1.683,3.837,1.783,5.572c0.077,1.332,0.015,2.6-0.179,3.809
		l0.507-0.297l1.615,2.927l-1.111,0.102l0.79,0.818l-1.875,1.875l-0.958-1.197l0.089-0.895c-0.258,0.616-0.56,1.213-0.903,1.788
		l0.122,0.243l1.187,0.149l0.117,0.258l-0.571,0.571c-0.332-0.327-0.671-0.645-1.015-0.957c-0.132,0.213-0.274,0.421-0.419,0.627
		c0.307,0.281,0.611,0.562,0.908,0.855l-6.937,6.936c-0.568-0.559-1.17-1.083-1.797-1.576c-0.254,0.117-0.511,0.231-0.772,0.341
		c0.718,0.544,1.403,1.13,2.045,1.761l-0.895,0.894l-0.012-0.016l0.148-0.494l-0.692,0.198l-0.742-0.099v-0.594l-0.792,0.495
		l-0.841,0.791l0.396,0.249l0.84-0.545l0.841,0.297v0.149l0.565-0.142l-1.941,1.941l-2.284,0.477l-0.644,0.841l-0.444,0.296
		l-0.05,0.445l0.346-0.049l0.347,0.296l-0.072,0.495l-0.167,0.168l-0.553-0.118l-1.311,0.205c-0.252-0.194-0.511-0.379-0.78-0.551
		l-0.086-0.1l-0.37-0.171c-0.459-0.264-0.942-0.486-1.439-0.683l-0.038,2.816c-0.015,0.893-0.029,1.73-0.042,2.544l0.307-0.154
		l0.266,0.257l-0.584,0.583c-0.006,0.368-0.012,0.72-0.018,1.07l1.107-1.107l-0.227,0.78l0.325,0.113l0.234,1.191l0.628,0.624
		L80.61,62.86l-0.117,0.564c1.937,0.787,4.583,1.952,6.73,3.563c3.249,2.438,4.919,5.819,4.469,9.046
		c-0.326,2.33-1.676,4.316-3.873,5.77l0.062,0.249l-0.444,0.544l-0.792,0.1l-0.297,0.495l-1.534,0.643l-1.385-0.05l-0.396,0.594
		l0.248,0.396l-0.005,0.005c-0.186,0.067-0.373,0.132-0.561,0.194l-0.968,0.097L81.5,84.674l-1.088,0.148l-0.014-0.005
		c-0.205,0.069-0.401,0.139-0.599,0.208l-0.003,0.769c0,0.228-0.047,1.977-0.118,4.477c3.517,1.762,7.875,4.653,7.689,12.319
		c0,0-0.08,1.396-0.48,2.407l0.005,0.007l1.52,0.441c-2.984,0.905-6.082,1.481-9.249,1.706c-0.008,0.253-0.016,0.507-0.024,0.747
		c3.333-0.229,6.598-0.841,9.764-1.828l0.66,0.221l0.691,0.592l0.849-0.328l1.328-0.314l0.544-0.494l1.484-0.643l1.484-1.04
		l1.682-1.682l0.079-0.202c3.004-1.756,5.786-3.866,8.307-6.32l6.918,6.918c-4.739,4.637-10.218,8.301-16.307,10.876
		c-6.488,2.745-13.382,4.137-20.488,4.137c-7.106,0-14-1.392-20.489-4.137c-6.097-2.579-11.583-6.249-16.328-10.895l6.919-6.919
		c3.845,3.748,8.285,6.712,13.217,8.798c4.422,1.87,9.077,2.958,13.868,3.267c-0.007-0.243-0.015-0.493-0.023-0.748
		c-9.994-0.662-19.309-4.802-26.536-11.843l1.475-1.475l1.25,1.094l2.603-0.212l1.064-1.063l1.435,0.053l1.329,0.159l0.69-0.531
		l-0.053-0.638l-0.744-0.851l-0.903-1.754l-0.904-0.372l-0.563-1.089l0.345-0.345c5.279,5.104,12,8.198,19.235,8.891
		c-0.007-0.252-0.013-0.503-0.019-0.75c-7.027-0.693-13.557-3.708-18.69-8.667l6.935-6.935c1.828,1.734,3.957,3.155,6.299,4.174
		c0.053-0.247,0.118-0.494,0.199-0.739c-2.216-0.977-4.237-2.316-5.972-3.961l7.002-7.003c1.093,0.989,2.387,1.755,3.809,2.242
		l-0.014-0.788c-1.213-0.455-2.321-1.129-3.27-1.979l0.46-0.461l0.246-0.015l0.423-0.423l0.937,0.121l0.544-0.303l0.604-0.063
		l-0.021-1.243l-2.137-0.697l-0.078,0.07l-0.876,0.151l-0.634,0.876l-0.271,1.117l0.011,0.068c-0.869-0.97-1.555-2.1-2.005-3.346
		l0.064-0.323c-0.639-0.289-1.23-0.598-1.778-0.928l-0.476,0.238l-0.531-0.318l-0.797,0.318l-0.425-0.373l0.479-0.478l0.633-0.127
		c-2.19-1.625-3.513-3.71-4.197-6.479c-0.411-1.666-0.535-3.28-0.396-4.816l-0.983,0.368l-0.621,0.069
		c0.648-1.283,1.429-2.486,2.315-3.603c0.317-0.869,0.725-1.702,1.234-2.49c-0.022,0.022-0.046,0.042-0.068,0.065l-6.936-6.935
		c4.844-4.797,10.971-7.829,17.604-8.777c-0.003-0.246-0.007-0.497-0.012-0.748c-6.828,0.955-13.138,4.065-18.118,8.999l-1.68-1.68
		c-0.001,0.006-0.006,0.012-0.008,0.016c-0.134,0.273-0.237,0.508-0.319,0.708l1.488,1.489c-5.796,6.006-8.995,13.874-9.017,22.24
		h-9.932c0.022-11.019,4.255-21.38,11.925-29.263l2.732,2.731c0.188,0.022,0.403,0.035,0.624,0.017
		c0.131-0.01,0.261-0.031,0.389-0.057l-3.225-3.225c2.161-2.145,4.517-4.016,7.021-5.621c0.144-0.423,0.334-0.838,0.57-1.235
		c-2.938,1.767-5.653,3.884-8.117,6.33l-6.918-6.918c4.81-4.782,10.398-8.543,16.618-11.174c4.941-2.089,10.117-3.39,15.442-3.894
		l-0.106-0.737c-5.388,0.513-10.626,1.831-15.626,3.946C49,18.653,43.291,22.502,38.388,27.404
		c-4.902,4.903-8.752,10.612-11.44,16.969c-2.784,6.582-4.195,13.572-4.195,20.779c0,7.206,1.411,14.196,4.195,20.779
		c2.688,6.356,6.538,12.064,11.44,16.967c4.902,4.903,10.611,8.752,16.968,11.441c6.582,2.782,13.573,4.195,20.779,4.195
		c7.207,0,14.197-1.413,20.779-4.195c6.357-2.689,12.066-6.538,16.969-11.441c4.901-4.902,8.751-10.61,11.439-16.967
		c2.784-6.583,4.195-13.573,4.195-20.779C129.517,57.945,128.106,50.954,125.322,44.373z M46.231,94.793
		c-0.742-0.748-1.442-1.526-2.121-2.319l0.649,0.279l0.638-0.372l1.753,1.116l0.291,0.088L46.231,94.793z M47.363,71.283
		l-1.116,0.266l-0.479-0.478l-0.319-0.214L45.16,70.47c-0.259-1.527-0.41-3.085-0.442-4.662h4.189l-0.056,0.213l-0.584,1.011
		l-0.373,0.052l-0.69,2.232l0.638,1.01L47.363,71.283z M50.498,85.312l-0.106-0.265l0.531,0.086
		c0.105,0.131,0.206,0.265,0.312,0.395L50.498,85.312z M53.083,87.941l-0.403-0.779c0.191,0.203,0.378,0.41,0.575,0.609
		L53.083,87.941z M53.781,87.245c-0.615-0.622-1.196-1.271-1.753-1.934l0.011,0.001l0.319-1.115l-0.053-1.276l-1.009-1.753v-1.807
		l-0.372-1.169l0.266-0.479l-1.063-1.914l0.107-0.69l-0.585-1.116l-0.583-0.159l0.956-0.159l-0.265-0.372l-0.638-1.383L48,71.6
		l0.266-0.902l-0.425-1.435l0.531-1.223l1.329-0.106l0.373-0.637l-0.136-1.489h0.841l0.517,0.159l0.638,0.32l-0.018-0.479h2.601
		c0.02,0.671,0.073,1.332,0.153,1.985l-0.025,0.034l-0.585-0.053l-0.851,0.957l0.745,0.159l0.805-0.482
		c0.696,4.598,2.838,8.728,5.959,11.9L53.781,87.245z M50.87,64.267l0.266-1.755l1.435-0.744l1.701,0.426l0.356,0.647
		c-0.079,0.73-0.123,1.473-0.126,2.223h-2.614l-0.008-0.213L50.87,64.267z M58.311,69.635l1.009,0.424l0.691,0.851l0.318-0.212
		l1.17,0.745l0.425,0.531l-0.798-0.319l-0.159,0.319l0.691,0.371l0.744,0.586v-0.374l-0.16-0.583l0.319-0.531l0.373-0.214
		l-0.745-0.903l0.851,0.426l0.531,0.691l0.372,0.955l0.744,0.159l-1.594,0.267l0.584,1.275l0.532,0.054l0.106-0.532l-0.159-0.638
		l0.69-0.052l0.532-0.905l0.212-1.328l0.373-0.159l0.332-0.524c0.506,1.022,1.157,1.96,1.943,2.772l-6.996,6.996
		c-3.052-3.105-5.135-7.159-5.777-11.673l0.401,0.037l1.329,1.328L58.311,69.635z M56.98,56.836c0.06-0.136,0.117-0.274,0.179-0.408
		l0.194-0.026l-0.212,0.425L56.98,56.836z M53.503,43.351l6.936,6.936c-1.599,1.687-2.929,3.629-3.923,5.759l-0.384-0.069
		l0.319-0.425l-0.796,0.691l-0.638,0.425l-0.16-0.265l-1.116,0.425l0.054,0.424l0.583-0.373l1.01-0.052l0.893-0.244
		c-0.048,0.11-0.099,0.219-0.145,0.33l-1.173,0.816l-0.266-0.266l-1.382,1.011l-1.223-0.213l-0.796,0.957l-1.222,2.711l0.212,0.744
		l-1.01,1.328l-0.159,1.01l-0.014,0.053h-4.399C44.725,56.896,47.847,49.215,53.503,43.351z M43.973,65.808
		c0.03,1.513,0.167,3.009,0.401,4.479l-0.519-0.279v0.69l-0.373-0.159l-0.318-0.531l-0.745,0.318l-0.106,0.639l-1.701,2.604
		l-0.478,0.106l-0.211,4.357l-1.224,0.586l-0.372-0.161l-0.584,0.266l-1.382-0.104l-0.147-0.063
		c-1.358-4.063-2.104-8.348-2.172-12.746H43.973z M27.633,44.662c2.575-6.087,6.238-11.566,10.875-16.305l6.918,6.917
		c-3.738,3.841-6.695,8.273-8.778,13.197c-2.223,5.256-3.354,10.839-3.366,16.593h-9.784C23.511,57.989,24.899,51.125,27.633,44.662
		z M27.633,85.641c-2.66-6.289-4.038-12.959-4.121-19.833h9.785c0.064,4.336,0.771,8.569,2.096,12.64l-0.734,0.488l-1.913-1.063
		l-0.426,0.426l-0.531-0.267l-0.319,0.267l0.213,0.69l-1.117-0.053l-0.638-0.373l0.054-0.584l-0.16-0.479h-0.319l0.054,0.531
		l-0.054,0.319l-0.265-0.106l-0.798,0.373l0.531,0.424l-0.691-0.159l-0.319,0.372l0.373,0.159h-0.479v0.797l0.213,0.427l0.266,0.211
		H27.91l0.213,0.691l0.425,0.159l0.151,0.265l0.273,0.48l0.16,0.425l-0.957-0.585l0.372,1.011l-0.638-1.383v0.904l0.585,1.381
		l0.478,1.17l1.488,2.924l-0.159-0.586l-1.169-2.817v-1.062l0.585-0.957l1.913,2.285l0.266-0.212l-0.319-1.436l0.373,0.265
		l0.584,1.012l0.957,0.265l0.425,0.638l0.372,0.054l-0.318-0.797l0.318-0.426l0.319,1.115l0.69,1.116l0.638-0.105l1.7,2.87
		l0.957,0.266l0.267-1.169l0.372,0.478l1.436,2.073l1.792,0.479c1.011,1.279,2.087,2.512,3.247,3.683l-6.918,6.918
		C34.014,97.434,30.26,91.852,27.633,85.641z M113.742,28.335c4.647,4.745,8.316,10.23,10.896,16.327
		c2.733,6.462,4.123,13.327,4.134,20.402h-9.785c-0.011-5.753-1.142-11.336-3.366-16.593c-0.215-0.51-0.446-1.01-0.68-1.509
		l0.251-0.53l0.555,0.354l0.201-0.606l-3.281-5.349l-0.707-0.203l-4.846-5.552l-0.003-0.11L113.742,28.335z M99.297,42.78
		l0.852,0.937l0.445-1.385l-0.693-0.099v-0.057l2.162-2.163l1.419,1.472l1.362-0.101l0.454,0.758l0.153,1.16l2.724,1.615
		l0.757-0.101l1.817,2.07l0.404,1.059l1.261,1.313l1.464-0.051l0.648-1.372c2.417,5.347,3.703,11.188,3.715,17.229h-9.932
		c-0.005-1.886-0.18-3.744-0.501-5.563l0.451-0.696h0.247l0.544-2.324l-0.396-0.1l0.1-0.395l-0.99,0.048l-0.198-0.247l-0.197,0.445
		l0.592,0.495l-0.444,0.148l-0.167,0.439c-0.237-0.951-0.517-1.889-0.84-2.811l0.562-0.844l-0.148-0.989l-0.494-0.099l-0.198-1.088
		l0.296-0.246l-0.544-0.743l-0.939,0.099l-0.313-0.209c-0.206-0.396-0.424-0.787-0.646-1.176h0.959l-0.198-0.495l0.642-0.197v-0.495
		l-0.444-0.049l-0.643,0.495l-0.199-0.198l0.544-0.841l-0.445-0.297l-0.543,0.792l-0.659-0.33c-0.523-0.8-1.086-1.578-1.684-2.334
		l0.017-0.205l-0.085,0.114c-0.65-0.816-1.341-1.605-2.075-2.364L99.297,42.78z M101.731,62.069l1.385-0.891l1.682-0.148l0.445-0.94
		l0.544-0.297l0.742-1.285l0.182-0.661c0.058,0.242,0.11,0.485,0.162,0.729l-0.294,0.772l0.1,0.198l-0.396,0.792l0.049,0.396
		l-0.791,1.089l0.147,0.69l0.297,0.05l0.792-1.236v-0.742l0.396-0.099l0.04-0.062c0.228,1.523,0.349,3.073,0.354,4.64h-7.476
		l-0.19-0.128l0.049-0.593l0.643-0.248l0.494-0.691l1.187-0.148v-0.494L101.731,62.069z M103.71,48.417l-0.022,0.119
		c-0.041-0.067-0.083-0.134-0.124-0.201L103.71,48.417z M98.748,43.33c0.743,0.769,1.438,1.57,2.093,2.398l-0.395,0.216L100,46.042
		l0.693,0.197l0.324-0.278c0.311,0.399,0.609,0.806,0.898,1.219h-0.333v0.197l0.347,0.099l1.038,1.633l0.29,0.145
		c0.122,0.208,0.236,0.421,0.354,0.631v0.659l-0.692,0.742l-0.198-0.543l-0.594-0.099l0.248,0.643l-0.445,0.445l1.087,0.395
		l0.446,0.644l0.89,0.248l0.05,0.396l0.791,0.199l0.148,1.236l0.477-0.068c0.278,0.799,0.52,1.612,0.734,2.435l-0.023,0.007
		l-0.496,0.841l-0.692,0.346l-0.495,1.435l-1.286,0.742l-0.445-0.792l0.396-1.878l0.593-0.446l-1.978-1.533l-1.039,0.545
		l-0.939,1.928l-0.99-0.544l-0.296-0.791l0.543-0.247l0.247,0.346l0.445-0.148l-0.148-0.594l-0.644-0.198l0.05,0.396h-0.445
		l-0.495-0.741l-1.137-1.138l-1.336-0.94l-1.237-0.099l-0.125,0.17c-0.797-1.3-1.724-2.513-2.771-3.614L98.748,43.33z
		 M90.733,51.343l0.553-0.553c0.202,0.213,0.398,0.431,0.591,0.652l-0.633,0.535l-0.543-0.05l-0.198-0.198l0.445-0.297
		L90.733,51.343z M90.75,56.034l0.84-0.297l-0.939-0.643l0.544-0.643l-0.099-0.346l0.891-0.396l-0.841-0.99l-0.989,0.891
		l-0.149,0.642l-0.642-0.297l-0.693,0.101l-0.198-0.445l-0.006-0.003l1.603-1.602l0.136,0.17l1.384,0.049l0.471-0.564
		c0.666,0.784,1.273,1.62,1.819,2.497l-0.014-0.003l-0.693,1.483l-1.087-0.593l-0.297,0.05l0.297,0.593l0.346,0.248l-0.346,0.84
		l-0.149-0.396L90.75,56.034z M97.032,83.932l-1.644,1.298l-0.236,0.186l-0.148-0.247h-0.792l-1.138,0.247l-1.088-0.444h-0.544
		l-0.841-0.645l-0.543,0.051l-0.495-0.445l-0.792-0.051l-0.396-0.543l-0.347-0.134c0.024-0.016,0.048-0.031,0.073-0.049l0.471,0.083
		v-0.247l1.138,0.199l0.396,0.246l1.236,0.198l0.1,0.297h0.989l1.336,0.395l0.382,0.633l0.805-0.038l0.594-0.643l0.495-0.99
		l0.742-1.93l-0.148-0.345l0.347-0.348l0.297-1.187l-0.199-0.495l0.248-0.396l-0.346-0.445l-0.1-1.187l-0.84,0.197l-0.495,0.693
		l-0.742-0.05l0.098,0.89l-0.593,0.743l-0.495-0.247l-0.445,0.394l-1.138,0.101l-0.047-0.041c0.25-0.276,0.491-0.561,0.727-0.85
		h0.507l0.551-0.1l0.538-0.593l0.1-0.47l0.543-0.025l1.038-1.533l0.841-1.781l2.226-1.037l-0.05-0.595l-0.296-0.297l0.148-0.197
		l0.693,0.345l1.483,0.298l1.188-0.494l1.929-0.396l-0.496-1.385l-0.841-0.841l-1.038-0.049l-1.335-3.216l-0.198,0.148l-0.494-0.396
		l0.396-0.248l-0.022-0.118h7.229c-0.166,8.098-3.37,15.689-9.083,21.457l-0.216-0.216l0.065-0.249l0.247-1.236l-0.247-1.929
		l-0.446-1.138l-0.297,0.296l-0.544,0.792V83.932z M98.152,101.042l0.018-0.045l0.346-0.594l-0.346-0.891l1.286-1.088l-0.099-0.743
		l-0.94-0.493l0.94-1.83l1.088-1.78l-1.286-1.584l-0.446,0.148l-0.593-0.148l-0.544-1.188l-0.247,0.1l0.297-1.139l0.19-0.862
		c0.216-0.197,0.435-0.392,0.647-0.595l4.284,4.282l0.023,0.044l0.027,0.008l2.689,2.688
		C103.231,97.527,100.769,99.429,98.152,101.042z M105.135,93.929l0.059-0.351l0.494-0.446l-0.445-2.226l0.099-0.595l-0.495-0.938
		l-0.297-0.297l0.297-0.049l-0.396-0.545l-0.94-0.049v0.741l-0.345,0.296l0.247,0.595l-0.396,1.138l-0.296,0.198l0.115,0.229
		l-3.839-3.838c5.853-5.909,9.136-13.688,9.302-21.984h9.931c-0.167,10.949-4.48,21.222-12.209,29.007L105.135,93.929z
		 M124.638,85.641c-2.632,6.219-6.392,11.809-11.174,16.618l-6.918-6.919c3.883-3.91,6.938-8.452,9.076-13.508
		c2.15-5.083,3.27-10.473,3.353-16.024h9.784C128.674,72.682,127.297,79.352,124.638,85.641z M84.221,102.828l0.046,0.024
		c-0.007-0.024-0.016-0.048-0.023-0.07L84.221,102.828z M100.353,25.487l0.555,0.403l1.312,0.454l0.455,0.808h0.353l-0.1-0.858
		l-0.405-0.303l0.102-0.454l-0.807-0.352l-0.304,0.302l-0.403-0.202l0.202-0.454L100.353,25.487z M33.119,90.522l-0.054-0.479
		l-0.531-0.638l-0.319,0.106l0.585,0.744l-0.053,0.212L33.226,91l0.318,0.69l0.266-0.106L33.544,91L33.119,90.522z M98.954,38.873
		c-0.04,0.104-0.074,0.21-0.115,0.313l0.37,0.278l0.396-0.148L98.954,38.873z M107.52,49.703l0.297,0.148l-0.743-1.484l-0.395-0.099
		l0.395,0.643L107.52,49.703z M105.293,46.24l0.791,1.236l0.495,0.248l-0.841-1.434L105.293,46.24z M108.162,53.313l0.445,0.792
		l-0.148,0.297l0.395,1.335l0.347,0.1v-1.435l-0.396-0.496l-0.148-1.483l-0.689-1.798l-0.142,0.32l0.188,1.033L108.162,53.313z
		 M96.637,53.214l0.247-0.494l-1.088,0.049l-0.495,0.346l0.544,0.198L96.637,53.214z M104.749,44.855l0.495,0.494l0.247-0.049
		l0.397,0.248l-0.099-0.297l-0.99-0.692l-0.643-0.594l0.296,0.891H104.749z M99.901,49.258l0.594,0.445l0.692-0.148l-0.543-0.148
		l-0.149-0.594v-0.445l-0.297-0.544l-0.396,0.148l-0.197-0.148l-0.594,0.544l0.94,0.495L99.901,49.258z M98.567,51.978l0.247,0.147
		l0.297-0.443l0.445-0.792l-0.247,0.049l-0.396,0.198L98.714,50l-0.247,0.198l0.198,0.693l-0.247,0.543l-0.347-0.098l-0.445,0.296
		l0.049,0.742L98.567,51.978z M98.813,49.109v-0.594l-0.346,0.446l0.1,0.543L98.813,49.109z"/>
	<g>
		<g>
			<path d="M58.878,139.969l3.909,0.391c0,0,4.992-10.976,17.556-11.503c8.066-0.338,15.119,3.696,23.71,4.32
				c10.318,0.749,17.367-1.43,23.27-7.052c-6.243,3.438-13.607,1.954-22.125,0c-5.539-1.272-11.216-1.805-15.426-1.763
				C70.229,124.557,58.878,139.969,58.878,139.969z"/>
			<path d="M117.853,103.731c-1.829,1.827-4.279,4.236-6.66,9.348c-2.311,4.965-2.335,6.963-4.583,10.578
				c5.107-1.913,8.888,1.773,21.771-2.996c5.96-2.204,10.202-7.818,12.165-12.693c-4.584,4.144-8.293,6.247-13.751,7.052
				c-5.376,0.792-8.814,1.146-13.309,3.79c2.82-2.998,3.878-4.672,5.376-8.639c1.607-4.253,1.348-7.911,3.173-11.193
				C120.723,100.638,119.681,101.904,117.853,103.731z"/>
			<path d="M124.346,97.378c-1.339,6.981-0.943,12.817-4.514,17.288c4.755-3.952,9.389-3.928,15.777-6.788
				c7.619-3.745,11.642-10.298,13.751-19.832c-1.69,4.209-6.023,8.187-10.842,11.195c-4.113,2.569-8.5,3.831-11.547,7.581
				c1.763-2.116,2.227-3.146,2.621-5.507c1.237-6.465-0.817-10.13,0.156-16.879C128.756,87.228,125.209,92.879,124.346,97.378z"/>
			<path d="M131.581,76.868c-0.489,10.944,3.991,13.189,0.767,23.255c2.821-4.055,6.16-5.271,10.489-9.078
				c5.391-4.764,9.837-11.961,9.432-21.683c-1.015,2.719-4.231,7.932-7.757,11.635c-3.526,3.702-6.494,8.137-8.021,11.192
				c3.523-12.094-2.776-16.693-3.538-23.949C132.756,70.976,131.755,75.044,131.581,76.868z"/>
			<path d="M133.68,64.434c-0.956-3.553-0.546-5.664-1.372-9.646c1.451,3.555,9.913,9.853,9.03,21.975
				c0.476-2.222,2.208-8.953,4.672-13.66c1.94-3.702,3.907-7.396,3.438-12.87c2.228,7.213,2.115,11.371,1.146,14.985
				s-3.387,6.389-5.465,9.255c-1.364,1.886-4.26,5.567-5.641,8.991C139.596,76.045,134.933,69.083,133.68,64.434z"/>
			<path d="M130.986,48.245c-1.592-3.04-2.206-5.548-4.265-9.403c1.271,1.654,2.375,2.537,5.539,5.221
				c4.357,3.695,7.668,7.846,9.394,14.752c0.126-4.301,0.655-6.875,1.536-11.667c0.792-4.318,0.584-9.26-1.413-14.721
				c3.852,4.659,7.165,13.838,5.289,20.009c-1.485,5.858-4.016,8.822-4.759,12.958C139.729,57.121,133.167,52.409,130.986,48.245z"
				/>
			<path d="M133.074,40.583c-1.928-1.55-6.758-4.56-9.122-7.337c-2.356-2.771-3.555-5.417-5.218-7.86
				c3.485,3.204,5.388,4.154,8.942,6.336c3.223,1.84,7.58,4.319,9.343,8.215c-1.057-2.925-1.585-6.802-1.939-10.066
				c-0.526-4.858-2.512-7.819-3.966-9.606c4.753,3.821,7.631,7.048,8.903,13.926c1.271,6.879-0.177,12.076,0.309,15.781
				C137.802,44.966,135,42.134,133.074,40.583z"/>
			<path d="M133.935,33.397c-2.115-6.345-4.327-10.13-8.638-13.75c-5.648-4.744-11.642-6.967-14.016-8.111
				c4.622,3.296,4.381,6.151,10.531,11.947C126.623,28.016,130.007,28.373,133.935,33.397z"/>
		</g>
		<path d="M93.39,139.969l-3.909,0.391c0,0-4.991-10.976-17.555-11.503c-8.067-0.338-15.119,3.696-23.71,4.32
			c-10.319,0.749-17.367-1.43-23.271-7.052c6.245,3.438,13.608,1.954,22.125,0c5.539-1.272,11.215-1.805,15.426-1.763
			C82.04,124.557,93.39,139.969,93.39,139.969z"/>
		<path d="M34.416,103.731c1.83,1.827,4.28,4.236,6.66,9.348c2.311,4.965,2.335,6.963,4.583,10.578
			c-5.107-1.913-8.889,1.773-21.771-2.996c-5.961-2.204-10.202-7.818-12.164-12.693c4.583,4.144,8.292,6.247,13.75,7.052
			c5.376,0.792,8.814,1.146,13.309,3.79c-2.821-2.998-3.878-4.672-5.376-8.639c-1.607-4.253-1.348-7.911-3.173-11.193
			C31.545,100.638,32.588,101.904,34.416,103.731z"/>
		<path d="M27.922,97.378c1.34,6.981,0.944,12.817,4.515,17.288c-4.755-3.952-9.389-3.928-15.778-6.788
			C9.041,104.133,5.018,97.581,2.91,88.046c1.688,4.209,6.022,8.187,10.84,11.195c4.113,2.569,8.501,3.831,11.547,7.581
			c-1.763-2.116-2.226-3.146-2.62-5.507c-1.237-6.465,0.817-10.13-0.156-16.879C23.513,87.228,27.06,92.879,27.922,97.378z"/>
		<path d="M20.688,76.868c0.489,10.944-3.992,13.189-0.768,23.255c-2.82-4.055-6.16-5.271-10.489-9.078
			C4.042,86.281-0.405,79.083,0,69.362c1.016,2.719,4.231,7.932,7.757,11.635c3.526,3.702,6.494,8.137,8.021,11.192
			c-3.523-12.094,2.776-16.693,3.538-23.949C19.512,70.976,20.513,75.044,20.688,76.868z"/>
		<path d="M18.588,64.434c0.956-3.553,0.547-5.664,1.373-9.646c-1.451,3.555-9.913,9.853-9.03,21.975
			c-0.476-2.222-2.207-8.953-4.673-13.66c-1.939-3.702-3.906-7.396-3.438-12.87c-2.228,7.213-2.115,11.371-1.146,14.985
			c0.97,3.614,3.388,6.389,5.465,9.255c1.365,1.886,4.26,5.567,5.641,8.991C12.672,76.045,17.336,69.083,18.588,64.434z"/>
		<path d="M20.541,49.372c2.033-2.999,2.948-6.675,5.007-10.53c-1.271,1.654-2.375,2.537-5.539,5.221
			c-4.357,3.695-7.669,7.846-9.395,14.752c-0.126-4.301-0.655-6.875-1.536-11.667c-0.793-4.318-0.585-9.26,1.412-14.721
			c-3.852,4.659-7.165,13.838-5.289,20.009c1.484,5.858,4.015,8.822,4.759,12.958C12.54,57.121,17.881,53.295,20.541,49.372z"/>
		<path d="M19.195,40.583c1.927-1.55,6.758-4.56,9.122-7.337c2.356-2.771,3.556-5.417,5.218-7.86
			c-3.485,3.204-5.388,4.154-8.941,6.336c-3.224,1.84-7.581,4.319-9.343,8.215c1.057-2.925,1.585-6.802,1.939-10.066
			c0.525-4.858,2.511-7.819,3.965-9.606c-4.753,3.821-7.631,7.048-8.902,13.926c-1.271,6.879,0.176,12.076-0.309,15.781
			C14.467,44.966,17.269,42.134,19.195,40.583z"/>
		<path d="M18.333,33.397c2.115-6.345,4.327-10.13,8.639-13.75c5.648-4.744,11.642-6.967,14.016-8.111
			c-4.622,3.296-4.38,6.151-10.531,11.947C25.646,28.016,22.261,28.373,18.333,33.397z"/>
	</g>
</g>
<g>
	<g>
		<path d="M66.439,29.597c1.347-1.876,3.137-3.071,5.044-3.818c-0.039-2.121-0.078-4.169-0.115-5.969
			c-3.467,0.815-5.119,2.028-5.841,2.267c-1.95,0.648-4.575,0.483-7.41,3.569c-0.507,0.553-1.734,2.102-2.608,3.366
			c-0.854,1.233-0.893,3.215-1.521,4.279c-0.913,1.542-0.693,2.424-0.693,2.424l0.108,0.177c-0.123,0.368-0.384,0.937-0.942,1.558
			c-0.95,1.055-2.197,1.636-3.684,1.399c1.292,0.646,3.081-0.258,3.081-0.258s-0.409,1.078-0.754,2.67
			c1.236-2.792,2.428-4.144,3.015-4.694c0.596,0.166,1.885,0.161,4.382-1.271C61.211,33.743,65.288,31.201,66.439,29.597z
			 M61.447,28.284l-2.162,2.336l-1.149-0.188l0.233-1.031l1.983-1.882l1.631-0.124L61.447,28.284z M79.627,91.998
			c-0.031,1.064-0.065,2.213-0.101,3.408c2.715,1.293,5.129,3.185,6.281,7.146C85.962,96.234,82.773,93.667,79.627,91.998z
			 M86.287,68.234c-1.976-1.482-4.43-2.572-6.308-3.337c-0.044,2.653-0.08,4.752-0.108,6.406c2.246,0.98,3.751,2.07,3.872,3.508
			c0.118,1.418-1.485,2.536-4.001,3.585v0.012l-0.409,0.154c-0.61,0.243-1.263,0.484-1.958,0.725
			c-0.54,0.192-1.227,0.432-2.052,0.71c-0.844,0.286-1.558,0.59-2.032,0.806c-4.332,2.088-4.564,4.794-4.278,7.319
			c0.237,2.09,1.863,3.476,3.907,4.532c-0.049-2.379-0.072-4.078-0.049-4.337c0.098-1.126,0.7-1.938,1.568-2.577
			c0.71-0.604,1.883-1.062,3.407-1.658c1.992-0.78,3.798-1.257,6.841-2.425C91.758,78.943,91.748,72.333,86.287,68.234z
			 M98.367,32.21c-0.299-5.161-5.432-12.244-17.504-13.058c-0.045,1.713-0.095,3.662-0.145,5.686
			c0.783,0.096,1.436,0.215,1.879,0.32c5.774,1.37,8.268,4.596,8.299,7.87c0.031,3.198-2.637,6.999-8.592,8.752
			c-0.578,0.17-1.241,0.341-1.951,0.514l0,0.045l-1.128,0.317c-0.956,0.202-2.287,0.521-3.097,0.695
			c-0.872,0.187-1.869,0.372-2.547,0.579l-1.794,0.434l0-0.013c-1.309,0.37-2.499,0.765-3.423,1.197
			c-6.374,2.974-8.83,8.336-7.372,14.239c0.869,3.522,2.869,6.035,8.156,7.87c1.11,0.385,2.225,0.745,3.32,1.093l-0.119-6.734
			c-1.413-0.591-2.456-1.207-3.249-2.224c-2.081-2.67-1.737-6.442,3.064-8.233l0-0.017l0.243-0.074
			c0.069-0.024,0.129-0.052,0.2-0.075c2.295-0.753,4.723-1.31,7.124-1.87l0.479-0.123v0.01c3.367-0.789,6.658-1.613,9.415-3.041
			C94.617,43.782,98.801,39.658,98.367,32.21z M73.304,42.348c1.65-0.502,3.927-0.712,5.496-1.272
			c0-2.097,0.599-26.708,0.687-28.001c0.246-3.632,3.738-13.461-3.412-13.461c-6.966,0-3.881,10.366-3.327,13.733
			C72.96,14.64,73.304,40.209,73.304,42.348z M74.421,88.451c-0.067,0.772,0.454,21.565,0.632,23.718
			c0.433,5.217,2.013,5.29,2.36,0.267c0.102-1.489,0.824-25.954,0.824-26.82C76.036,86.306,74.534,87.165,74.421,88.451z
			 M78.269,77.302c0.027-0.208,0.349-25.069,0.368-25.922c-0.95,0.137-4.052,0.966-4.879,1.289
			c0.01,0.555,0.389,26.085,0.389,26.085s0.943-0.338,1.865-0.646C77.032,77.802,77.793,77.485,78.269,77.302z"/>
	</g>
</g>
</svg>
