<svg xmlns="http://www.w3.org/2000/svg" xmlns:xlink="http://www.w3.org/1999/xlink" version="1.1" x="0px" y="0px" width="100px" height="100px" viewBox="0 0 100 100" enable-background="new 0 0 100 100" xml:space="preserve">
<g id="Captions">
</g>
<g id="Your_Icon">
	<path d="M72.52,31.138h-0.365v-7.45c0-5.227-1.797-10.03-4.801-13.839c0.326-0.695,0.209-1.546-0.365-2.121   c-0.535-0.535-1.312-0.675-1.98-0.427c-3.527-3.28-8.113-5.434-13.189-5.893C51.607,0.6,50.88,0,50.007,0   c-0.861,0-1.578,0.583-1.799,1.373c-5.57,0.386-10.581,2.806-14.287,6.529c-0.681-0.284-1.494-0.15-2.048,0.404   c-0.631,0.631-0.715,1.598-0.26,2.322c-2.646,3.675-4.211,8.184-4.211,13.059v7.46c-0.992,0.049-1.783,0.862-1.783,1.866   c0,1.036,0.84,1.877,1.875,1.877h8.352c3.01,2.146,8.227,3.567,14.161,3.567c5.934,0,11.151-1.421,14.161-3.567h8.352   c1.035,0,1.875-0.841,1.875-1.877S73.555,31.138,72.52,31.138z"/>
	<path d="M74.395,33.014c0-1.036-0.84-1.876-1.875-1.876h-0.365v-7.45c0-5.227-1.797-10.03-4.801-13.839   c0.326-0.695,0.209-1.546-0.365-2.121c-0.363-0.364-0.842-0.546-1.318-0.546c-0.225,0-0.449,0.04-0.662,0.119   c-3.527-3.28-8.113-5.434-13.189-5.893C51.607,0.6,50.88,0,50.007,0c-0.861,0-1.578,0.583-1.799,1.373   c-5.57,0.386-10.581,2.806-14.287,6.529c-0.23-0.097-0.478-0.145-0.724-0.145c-0.479,0-0.958,0.183-1.324,0.549   c-0.631,0.631-0.715,1.598-0.26,2.322c-2.646,3.675-4.211,8.184-4.211,13.059v7.46c-0.992,0.049-1.783,0.862-1.783,1.866   c0,1.036,0.84,1.877,1.875,1.877h8.352c3.01,2.146,8.227,3.567,14.161,3.567c5.934,0,11.151-1.421,14.161-3.567h8.352   C73.555,34.891,74.395,34.05,74.395,33.014z"/>
	<path d="M31.016,50.629c0.348,0,0.675-0.095,0.954-0.259c0.565-0.327,0.944-0.939,0.944-1.641v3.861   c1.071,2.295,2.348,4.356,3.799,6.134v14.691h-6.86L50,93.562l20.147-20.146h-6.844V58.72c1.451-1.777,2.727-3.845,3.799-6.14   v-3.719c0,0.533,0.211,1.008,0.559,1.355c0.102,0.101,0.211,0.189,0.332,0.27c0.297,0.184,0.645,0.295,1.023,0.295   c1.061,0,1.914-0.859,1.914-1.92v-7.559c0-0.476-0.168-0.913-0.457-1.245c-0.033-0.037-0.064-0.073-0.102-0.111   c-0.348-0.348-0.822-0.563-1.355-0.563c-1.061,0-1.914,0.859-1.914,1.92V36.57h-2.416c-3.443,2.24-8.871,3.567-14.678,3.567   c-5.807,0-11.236-1.327-14.679-3.567h-2.414v4.669c0-0.527-0.211-1.002-0.553-1.345c-0.349-0.343-0.823-0.555-1.346-0.555   c-0.602,0-1.135,0.274-1.478,0.707c-0.269,0.327-0.422,0.738-0.422,1.192v7.49c0,0.527,0.212,1.003,0.555,1.345   C30.019,50.417,30.494,50.629,31.016,50.629z"/>
	<polygon points="72.521,73.416 50,95.938 27.478,73.416 17.724,73.416 17.708,73.416 17.708,100 82.293,100 82.293,73.416  "/>
</g>
</svg>