<svg xmlns="http://www.w3.org/2000/svg" xmlns:xlink="http://www.w3.org/1999/xlink" version="1.1" id="Layer_1" x="0px" y="0px" width="100px" height="100px" viewBox="0 0 100 100" enable-background="new 0 0 100 100" xml:space="preserve">
<g>
	<path d="M68.372,82.188c-0.396,0-0.717,0.319-0.717,0.716c0,6.399-2.377,9.938-3.535,9.938c-0.396,0-0.716,0.321-0.716,0.717   s0.32,0.717,0.716,0.717c2.932,0,4.968-5.896,4.968-11.372C69.088,82.508,68.767,82.188,68.372,82.188z"/>
	<path d="M70.318,87.137c-0.395,0-0.717,0.321-0.717,0.718c0,3.028-1.294,4.989-1.742,4.989c-0.395,0-0.717,0.321-0.717,0.715   c0,0.396,0.322,0.718,0.717,0.718c1.691,0,3.175-3.001,3.175-6.422C71.034,87.458,70.714,87.137,70.318,87.137z"/>
	<path d="M48.961,89.548c-0.384-0.091-0.771,0.148-0.86,0.531c-0.394,1.665-1.466,2.468-1.723,2.472   c-0.383-0.091-0.77,0.148-0.86,0.531c-0.091,0.386,0.148,0.771,0.532,0.861c0.107,0.025,0.216,0.039,0.327,0.039   c1.244,0,2.64-1.56,3.116-3.573C49.584,90.024,49.346,89.639,48.961,89.548z"/>
</g>
<g>
	<path fill="none" d="M60.257,60.892c-1.486,0.261-3.411,4.752-3.782,12.082c2.89,0.656,2.194,4.483,0.013,5.356   c0.401,7.196,2.303,11.604,3.77,11.859c1.652-0.294,3.847-5.812,3.847-14.653C64.104,66.702,61.909,61.186,60.257,60.892z"/>
	<path d="M61.681,58.523c-0.236-0.223-0.562-0.362-0.926-0.362c-0.07,0-0.146,0-0.217,0.006h-0.007   c-0.045-0.006-0.089-0.006-0.134-0.006c-0.044,0-0.095,0-0.141,0.006c-0.044-0.006-0.096-0.006-0.14-0.006   c-0.115,0-0.224,0.014-0.325,0.045c-2.248,0.172-3.95,0.969-5.27,2.074c-2.075,2.142-2.938,5.497-3.588,8.036   c-0.544,2.13-0.875,3.419-1.754,3.781c-0.273,0.342-0.958,1.895-0.958,3.876c0,2.229,0.54,3.571,0.798,3.827   c0.048,0.008,0.095,0.021,0.141,0.037c0.914,0.361,1.309,1.765,1.909,3.889c0.526,1.865,1.149,4.051,2.189,5.842   c1.463,1.866,3.558,3.304,6.717,3.346c0.045,0.006,0.096,0.006,0.141,0.006c0.038,0,0.07,0,0.108-0.006c0.013,0,0.02,0.006,0.031,0   c0.046,0.006,0.097,0.006,0.141,0.006c0.153,0,0.3-0.026,0.44-0.077c4.12-0.861,5.977-9.122,5.977-17.307   C66.814,67.934,65.214,60.267,61.681,58.523z M60.257,90.189c-1.467-0.255-3.368-4.663-3.77-11.859   c2.182-0.873,2.877-4.7-0.013-5.356c0.371-7.33,2.296-11.821,3.782-12.082c1.652,0.294,3.847,5.811,3.847,14.645   C64.104,84.377,61.909,89.896,60.257,90.189z"/>
	<path d="M47.665,4.26v58.519c-1.735-2.506-4.235-4.617-7.789-4.617c-0.044,0-0.095,0-0.14,0.006   c-4.528,0.174-6.551,8.809-6.551,17.369c0,7.604,1.595,15.271,5.128,17.019c0.78,0.365,1.78,0.352,1.882,0.325   c6.403-0.461,8.443-5.641,9.514-8.98c-0.313-1.107-0.715-2.492-1.021-2.775c-1.332-0.292-1.821-3.179-1.821-5.15   c0-1.939,0.742-4.749,1.801-5.134c0.276-0.215,0.651-1.68,0.954-2.858c0.211-0.826,0.451-1.761,0.755-2.729V4.26"/>
</g>
</svg>